<svg width="35" height="35" viewBox="0 0 35 35" fill="none" xmlns="http://www.w3.org/2000/svg">
<path d="M3.40273 13.1833L17.5 5.0847L31.5972 13.1833C31.8194 13.2995 32.0779 13.3254 32.3187 13.2556C32.5595 13.1857 32.7641 13.0255 32.8895 12.8084C33.015 12.5913 33.0518 12.3341 32.9921 12.0905C32.9325 11.847 32.781 11.6359 32.5694 11.5014L17.5 2.83887L2.43051 11.5014C2.31432 11.5621 2.21163 11.6458 2.12862 11.7473C2.0456 11.8488 1.98397 11.966 1.94743 12.092C1.9109 12.2179 1.90022 12.3499 1.91603 12.4801C1.93184 12.6102 1.97382 12.7359 2.03944 12.8494C2.10506 12.9629 2.19296 13.062 2.29786 13.1406C2.40277 13.2193 2.5225 13.2759 2.64986 13.3071C2.77721 13.3383 2.90956 13.3435 3.03895 13.3222C3.16833 13.3009 3.29207 13.2537 3.40273 13.1833Z" fill="#4E9525"/>
<path d="M3.88889 25.2778C3.88889 25.5356 3.99132 25.7829 4.17364 25.9652C4.35597 26.1476 4.60326 26.25 4.86111 26.25H30.1389C30.3967 26.25 30.644 26.1476 30.8264 25.9652C31.0087 25.7829 31.1111 25.5356 31.1111 25.2778C31.1111 25.0199 31.0087 24.7726 30.8264 24.5903C30.644 24.408 30.3967 24.3055 30.1389 24.3055H27.2222V17.1403H25.2778V24.3055H18.4722V17.1403H16.5278V24.3055H9.72222V17.1403H7.77777V24.3055H4.86111C4.60326 24.3055 4.35597 24.408 4.17364 24.5903C3.99132 24.7726 3.88889 25.0199 3.88889 25.2778Z" fill="#4E9525"/>
<path d="M4.88052 13.6111H30.1583V15.5555H4.88052V13.6111Z" fill="#4E9525"/>
<path d="M32.0833 28.1945H2.91668C2.65883 28.1945 2.41154 28.2969 2.22922 28.4792C2.04689 28.6615 1.94446 28.9088 1.94446 29.1667C1.94446 29.4245 2.04689 29.6718 2.22922 29.8541C2.41154 30.0365 2.65883 30.1389 2.91668 30.1389H32.0833C32.3412 30.1389 32.5885 30.0365 32.7708 29.8541C32.9531 29.6718 33.0556 29.4245 33.0556 29.1667C33.0556 28.9088 32.9531 28.6615 32.7708 28.4792C32.5885 28.2969 32.3412 28.1945 32.0833 28.1945Z" fill="#4E9525"/>
<path d="M21.5347 11.2583H24.6555L18.1319 7.50557C18.0136 7.43731 17.8795 7.40137 17.743 7.40137C17.6065 7.40137 17.4723 7.43731 17.3541 7.50557L10.8208 11.2583H13.9416L17.7333 9.08057L21.5347 11.2583Z" fill="#4E9525"/>
</svg>
