<svg width="40" height="40" viewBox="0 0 40 40" fill="none" xmlns="http://www.w3.org/2000/svg">
<path opacity="0.33" fill-rule="evenodd" clip-rule="evenodd" d="M20 40C31.0457 40 40 31.0457 40 20C40 8.95431 31.0457 0 20 0C8.95431 0 0 8.95431 0 20C0 31.0457 8.95431 40 20 40Z" fill="#5F5858" fill-opacity="0.6"/>
<path fill-rule="evenodd" clip-rule="evenodd" d="M20.0075 16.314C17.8015 16.314 16.0125 18.107 16.0125 20.319C16.0125 22.53 17.8015 24.324 20.0075 24.324C22.2145 24.324 24.0025 22.53 24.0025 20.319C24.0025 18.107 22.2145 16.314 20.0075 16.314ZM26.3485 16.663C25.9805 16.663 25.6805 16.361 25.6805 15.989C25.6805 15.617 25.9805 15.315 26.3485 15.315C26.7165 15.315 27.0155 15.617 27.0155 15.989C27.0155 16.361 26.7165 16.663 26.3485 16.663ZM20.0025 25.303C17.2635 25.303 15.0445 23.078 15.0445 20.334C15.0445 17.59 17.2635 15.366 20.0025 15.366C22.7405 15.366 24.9605 17.59 24.9605 20.334C24.9605 23.078 22.7405 25.303 20.0025 25.303ZM30.9995 16.439C30.9995 16.345 30.9995 16.252 30.9985 16.159C30.9985 16.08 30.9975 16.001 30.9955 15.922C30.9905 15.751 30.9805 15.501 30.9505 15.331C30.9195 15.159 30.8695 15.075 30.7915 14.918C30.7135 14.765 30.6125 14.624 30.4915 14.502C30.3715 14.379 30.2315 14.278 30.0795 14.199C29.9245 14.12 29.7665 14.069 29.5955 14.038C29.4275 14.007 29.2565 13.997 29.0865 13.993C29.0085 13.991 28.9305 13.99 28.8525 13.99C28.7605 13.989 28.6675 13.989 28.5755 13.989H27.8295H26.3465C26.2005 13.982 26.0545 13.983 25.9115 13.957C25.7165 13.921 25.5355 13.849 25.3585 13.757C25.1855 13.668 25.0275 13.555 24.8895 13.415C24.7525 13.275 24.5795 12.629 24.4405 12.304C24.3965 12.202 24.3805 12.143 24.3405 12.064C24.2525 11.889 24.1365 11.726 24.0005 11.586C23.8615 11.446 23.7025 11.328 23.5305 11.238C23.3535 11.146 23.1725 11.089 22.9775 11.054C22.7865 11.018 22.5905 11.008 22.3965 11.002C22.3075 10.999 17.6285 10.999 17.5395 11.002C17.3465 11.008 17.1505 11.018 16.9595 11.054C16.7655 11.089 16.5845 11.146 16.4075 11.238C16.2345 11.328 16.0755 11.445 15.9375 11.585C15.7995 11.725 15.6845 11.888 15.5965 12.064C15.5575 12.143 15.5245 12.222 15.4975 12.303C15.3585 12.649 15.1895 13.264 15.0515 13.404C14.9145 13.544 14.7555 13.658 14.5815 13.747C14.4055 13.84 14.2245 13.911 14.0305 13.946C13.8385 13.981 13.6435 13.979 13.4495 13.983C13.3605 13.987 13.4595 13.987 13.3695 13.988C13.2645 13.989 13.1595 13.989 13.0535 13.989H12.1705H11.4245C11.3325 13.989 11.2405 13.989 11.1475 13.99C11.0695 13.99 10.9915 13.991 10.9135 13.993C10.7435 13.997 10.5725 14.007 10.4045 14.038C10.2335 14.069 10.0755 14.12 9.92049 14.199C9.76849 14.278 9.62849 14.379 9.50849 14.502C9.38749 14.624 9.28649 14.765 9.20949 14.918C9.13049 15.075 9.07949 15.235 9.04949 15.408C9.01949 15.577 9.00849 15.751 9.00449 15.922C9.00249 16.001 9.00249 16.08 9.00149 16.159C9.00049 16.252 9.00049 16.345 9.00049 16.439V16.933V24.462V25.217C9.00049 25.311 9.00049 25.404 9.00149 25.497C9.00249 25.577 9.00249 25.655 9.00449 25.734C9.00849 25.906 9.01949 26.078 9.04949 26.248C9.07949 26.421 9.13049 26.581 9.20949 26.738C9.28649 26.892 9.38749 27.032 9.50849 27.154C9.62849 27.276 9.76849 27.378 9.92049 27.457C10.0755 27.536 10.2335 27.587 10.4045 27.618C10.5725 27.649 10.7435 27.659 10.9135 27.663C10.9915 27.665 11.0695 27.666 11.1475 27.667C11.2405 27.667 11.3325 27.667 11.4245 27.667H28.5755C28.6675 27.667 28.7605 27.667 28.8525 27.667C28.9305 27.666 29.0085 27.665 29.0865 27.663C29.2565 27.659 29.4275 27.649 29.5955 27.618C29.7665 27.587 29.9245 27.536 30.0795 27.457C30.2315 27.378 30.3715 27.276 30.4915 27.154C30.6125 27.032 30.7135 26.892 30.7915 26.738C30.8695 26.581 30.9195 26.421 30.9505 26.248C30.9805 26.078 30.9905 25.906 30.9955 25.734C30.9975 25.655 30.9985 25.577 30.9985 25.497C30.9995 25.404 30.9995 25.311 30.9995 25.217V24.462V17.194V16.439ZM11.1315 13.32H13.2015C13.2725 13.32 13.3305 13.262 13.3305 13.191V12.753C13.3305 12.739 13.3305 12.724 13.3295 12.71C13.3285 12.678 13.3255 12.646 13.3205 12.615C13.3155 12.583 13.3065 12.553 13.2915 12.524C13.2775 12.496 13.2595 12.47 13.2375 12.448C13.2145 12.425 13.1895 12.406 13.1625 12.392C13.1335 12.377 13.1045 12.367 13.0735 12.362C13.0425 12.356 13.0115 12.354 12.9805 12.353C12.9665 12.353 12.9515 12.352 12.9375 12.352H11.3995C11.3865 12.352 11.3715 12.353 11.3575 12.353C11.3265 12.354 11.2955 12.356 11.2645 12.362C11.2335 12.367 11.2045 12.377 11.1765 12.392C11.1485 12.406 11.1235 12.425 11.1005 12.448C11.0785 12.47 11.0615 12.496 11.0465 12.524C11.0315 12.553 11.0235 12.583 11.0175 12.615C11.0115 12.646 11.0095 12.678 11.0095 12.71C11.0085 12.724 11.0055 12.739 11.0055 12.753C11.0055 12.77 11.0035 12.788 11.0035 12.805V13.191C11.0035 13.262 11.0615 13.32 11.1315 13.32Z" fill="white"/>
</svg>
