<svg width="37" height="26" viewBox="0 0 37 26" fill="none" xmlns="http://www.w3.org/2000/svg">
<path d="M31.45 0H5.55C4.07805 0 2.66638 0.584731 1.62556 1.62556C0.584731 2.66638 0 4.07805 0 5.55V20.35C0 21.822 0.584731 23.2336 1.62556 24.2744C2.66638 25.3153 4.07805 25.9 5.55 25.9H31.45C32.922 25.9 34.3336 25.3153 35.3744 24.2744C36.4153 23.2336 37 21.822 37 20.35V5.55C37 4.07805 36.4153 2.66638 35.3744 1.62556C34.3336 0.584731 32.922 0 31.45 0ZM3.7 5.55C3.7 5.05935 3.89491 4.5888 4.24185 4.24185C4.5888 3.89491 5.05935 3.7 5.55 3.7H31.45C31.9407 3.7 32.4112 3.89491 32.7581 4.24185C33.1051 4.5888 33.3 5.05935 33.3 5.55V7.4H3.7V5.55ZM33.3 20.35C33.3 20.8407 33.1051 21.3112 32.7581 21.6581C32.4112 22.0051 31.9407 22.2 31.45 22.2H5.55C5.05935 22.2 4.5888 22.0051 4.24185 21.6581C3.89491 21.3112 3.7 20.8407 3.7 20.35V11.1H33.3V20.35Z" fill="#757575"/>
<path d="M9.2499 18.5H16.6499C17.1406 18.5 17.6111 18.3051 17.958 17.9582C18.305 17.6113 18.4999 17.1407 18.4999 16.65C18.4999 16.1594 18.305 15.6888 17.958 15.3419C17.6111 14.995 17.1406 14.8 16.6499 14.8H9.2499C8.75925 14.8 8.2887 14.995 7.94176 15.3419C7.59481 15.6888 7.3999 16.1594 7.3999 16.65C7.3999 17.1407 7.59481 17.6113 7.94176 17.9582C8.2887 18.3051 8.75925 18.5 9.2499 18.5ZM24.0499 18.5H27.7499C28.2406 18.5 28.7111 18.3051 29.0581 17.9582C29.405 17.6113 29.5999 17.1407 29.5999 16.65C29.5999 16.1594 29.405 15.6888 29.0581 15.3419C28.7111 14.995 28.2406 14.8 27.7499 14.8H24.0499C23.5593 14.8 23.0887 14.995 22.7418 15.3419C22.3948 15.6888 22.1999 16.1594 22.1999 16.65C22.1999 17.1407 22.3948 17.6113 22.7418 17.9582C23.0887 18.3051 23.5593 18.5 24.0499 18.5Z" fill="#757575"/>
</svg>
