<svg width="17" height="14" viewBox="0 0 17 14" fill="none" xmlns="http://www.w3.org/2000/svg">
<g clip-path="url(#clip0_208_338)">
<path d="M8.06099 13.0573C7.4956 13.0573 6.93052 12.9635 6.4072 12.7763L3.90489 11.8814C2.9996 11.5575 2.04241 11.3523 1.05995 11.2715L0.238201 11.2039C0.102908 11.1929 0 11.0992 0 10.9874V8.86693C0 8.81987 0.0186142 8.77406 0.0529671 8.73646C0.114409 8.66886 1.5872 7.08604 3.83694 7.49787C5.10225 7.72918 6.12103 8.16205 6.75285 8.48449C7.21155 8.71853 7.74924 8.84216 8.30782 8.84216H10.8101C11.2414 8.84216 11.6205 9.02989 11.8325 9.3115L13.9877 7.26893C14.4055 6.80992 15.0891 6.52881 15.8048 6.52881H15.9658C16.0552 6.52881 16.1385 6.56591 16.1872 6.62741C16.2361 6.68891 16.2438 6.76672 16.2079 6.83394L14.2587 10.4781C13.8326 11.2751 12.9648 11.8772 11.9377 12.0885L11.5948 12.1589L9.59991 12.8154C9.10898 12.9769 8.58491 13.0573 8.06099 13.0573ZM0.529066 10.7905L1.11261 10.8385C2.14971 10.9238 3.16017 11.1406 4.116 11.4824L6.61816 12.3773C7.49802 12.692 8.51272 12.7043 9.40363 12.4112L11.4149 11.7493C11.4261 11.7457 11.4374 11.7427 11.4491 11.7404L11.8094 11.6662C12.6791 11.4873 13.4138 10.9776 13.7745 10.3028L15.5524 6.97898C15.0971 7.03413 14.6782 7.23593 14.3992 7.54194L12.0117 9.80549C12.012 9.81396 12.0122 9.8223 12.0122 9.83089C12.0122 10.376 11.473 10.8196 10.8103 10.8196H7.31899C6.86514 10.8196 6.41659 10.8795 5.98604 10.9975L5.88888 10.7946L5.80671 10.5878L5.82018 10.5842C6.30339 10.4517 6.80809 10.3844 7.31899 10.3844H10.8103C11.1812 10.3844 11.4833 10.136 11.4833 9.83076C11.4833 9.5255 11.1814 9.27714 10.8103 9.27714H8.30797C7.65072 9.27714 7.01663 9.13086 6.47425 8.85411C5.87738 8.54947 4.9152 8.14076 3.72253 7.92252C2.0188 7.61166 0.792842 8.68729 0.529217 8.94387V10.7905H0.529066Z" fill="#4E9525"/>
<path d="M10.4166 6.47954C10.0098 6.47954 9.55368 6.37621 9.05156 6.16968C8.99072 6.14453 8.94381 6.10096 8.9208 6.0483C8.90037 6.00111 8.42776 4.88278 9.17883 4.05577C9.72469 3.45458 10.751 3.18381 12.2311 3.25166C12.3661 3.25776 12.4737 3.34677 12.4803 3.45807C12.4856 3.54447 12.5948 5.58381 11.3307 6.2628C11.0619 6.40734 10.7565 6.47954 10.4166 6.47954ZM9.38888 5.82047C10.0837 6.08851 10.6391 6.11478 11.0416 5.89853C11.7912 5.49579 11.9532 4.30027 11.9572 3.67805C10.7975 3.65477 10.008 3.86977 9.60257 4.31608C9.12011 4.84755 9.30761 5.57858 9.38888 5.82047Z" fill="#4E9525"/>
<path d="M6.37144 3.62875C5.90245 3.62875 5.36143 3.54609 4.88927 3.26162C4.0884 2.77883 3.72036 1.85969 3.79512 0.529846C3.80147 0.418672 3.90862 0.329286 4.04376 0.322688C4.15817 0.317334 6.86615 0.198442 7.77734 1.32362C8.20168 1.84737 8.16687 2.53333 7.67428 3.36283C7.64431 3.41325 7.59195 3.45222 7.52794 3.47152C7.49237 3.48235 6.99584 3.62875 6.37144 3.62875ZM7.43668 3.26735H7.43925H7.43668ZM4.31571 0.750823C4.29286 1.81599 4.59053 2.54204 5.20177 2.91055C5.93363 3.35163 6.93289 3.16414 7.24706 3.08882C7.60648 2.44718 7.6369 1.93489 7.33725 1.56489C6.78034 0.877184 5.14714 0.742731 4.31571 0.750823Z" fill="#4E9525"/>
<path d="M8.43725 9.20061C8.42892 9.20061 8.4206 9.20024 8.41212 9.19961C8.27123 9.18866 8.16575 9.08844 8.17286 8.97204C8.18845 8.71608 8.21509 8.47331 8.25126 8.24325C8.36128 6.70351 8.30453 3.11782 5.54872 2.12585C5.41494 2.07768 5.3538 1.94945 5.41237 1.83927C5.47079 1.72934 5.62711 1.67917 5.76074 1.72722C7.38471 2.31172 8.40637 3.76694 8.71464 5.9355C8.74234 6.12984 8.76307 6.32143 8.77851 6.50805C9.50431 4.9993 10.6146 4.46622 10.6808 4.43572C10.8079 4.37658 10.9692 4.41418 11.041 4.51863C11.1122 4.62321 11.0674 4.75554 10.9408 4.81455C10.9128 4.828 9.21011 5.66859 8.78274 8.2608C8.75021 8.70425 8.70329 8.98698 8.6989 9.01287C8.68059 9.12143 8.56785 9.20061 8.43725 9.20061Z" fill="#4E9525"/>
</g>
<defs>
<clipPath id="clip0_208_338">
<rect width="16.2302" height="13.3517" fill="white"/>
</clipPath>
</defs>
</svg>
