<svg width="18" height="22" viewBox="0 0 18 22" fill="none" xmlns="http://www.w3.org/2000/svg">
<g clip-path="url(#clip0_208_375)">
<path d="M8.71528 21.6128C8.10401 21.6128 7.49306 21.4896 6.92726 21.2436L4.22184 20.0675C3.24307 19.6417 2.20819 19.3721 1.14598 19.2659L0.257535 19.1771C0.11126 19.1625 0 19.0395 0 18.8925V16.1056C0 16.0438 0.020125 15.9836 0.0572664 15.9342C0.123695 15.8453 1.71603 13.7651 4.14837 14.3063C5.51639 14.6103 6.61786 15.1792 7.30097 15.603C7.79689 15.9106 8.37823 16.0731 8.98214 16.0731H11.6876C12.1539 16.0731 12.5637 16.3198 12.793 16.6899L15.1231 14.0054C15.5748 13.4022 16.3139 13.0327 17.0876 13.0327H17.2617C17.3584 13.0327 17.4484 13.0815 17.5011 13.1623C17.5539 13.2431 17.5623 13.3454 17.5235 13.4337L15.4161 18.2232C14.9554 19.2707 14.0172 20.0619 12.9067 20.3396L12.5359 20.4322L10.3791 21.2949C9.84834 21.5071 9.28173 21.6128 8.71528 21.6128ZM0.572009 18.6337L1.20292 18.6968C2.3242 18.8089 3.41667 19.0938 4.45009 19.5431L7.15535 20.7192C8.10662 21.1328 9.20368 21.149 10.1669 20.7637L12.3414 19.8939C12.3535 19.8891 12.3658 19.8852 12.3784 19.8821L12.7679 19.7846C13.7083 19.5495 14.5026 18.8796 14.8925 17.9928L16.8147 13.6244C16.3225 13.6968 15.8696 13.9621 15.5679 14.3642L12.9867 17.3391C12.987 17.3503 12.9872 17.3612 12.9872 17.3725C12.9872 18.089 12.4042 18.672 11.6877 18.672H7.91306C7.42237 18.672 6.93741 18.7507 6.47191 18.9058L6.36687 18.6391L6.27803 18.3673L6.29259 18.3626C6.81502 18.1885 7.36069 18.1 7.91306 18.1H11.6877C12.0888 18.1 12.4153 17.7735 12.4153 17.3724C12.4153 16.9712 12.0889 16.6447 11.6877 16.6447H8.98231C8.27171 16.6447 7.58615 16.4525 6.99975 16.0888C6.35444 15.6884 5.31415 15.1512 4.02468 14.8644C2.18267 14.4559 0.857195 15.8695 0.572173 16.2067V18.6337H0.572009Z" fill="#4E9525"/>
<path d="M11.2624 12.9681C10.8226 12.9681 10.3294 12.8323 9.78653 12.5609C9.72076 12.5278 9.67004 12.4705 9.64517 12.4013C9.62308 12.3393 9.1121 10.8695 9.92414 9.78262C10.5143 8.99251 11.624 8.63664 13.2242 8.72581C13.3701 8.73383 13.4864 8.85082 13.4936 8.99709C13.4994 9.11064 13.6173 11.7909 12.2506 12.6832C11.96 12.8732 11.6299 12.9681 11.2624 12.9681ZM10.1512 12.1019C10.9024 12.4542 11.5029 12.4887 11.9381 12.2045C12.7485 11.6752 12.9237 10.104 12.928 9.28621C11.6742 9.25561 10.8206 9.53818 10.3823 10.1247C9.86065 10.8232 10.0634 11.784 10.1512 12.1019Z" fill="#4E9525"/>
<path d="M6.88894 9.22163C6.38188 9.22163 5.79695 9.11299 5.28646 8.73912C4.42059 8.10461 4.02268 6.89662 4.1035 5.14885C4.11037 5.00274 4.22622 4.88526 4.37233 4.87659C4.49602 4.86955 7.4238 4.7133 8.40895 6.19208C8.86773 6.88042 8.8301 7.78195 8.29752 8.87214C8.26513 8.93841 8.20852 8.98962 8.13931 9.01498C8.10086 9.02921 7.56402 9.22163 6.88894 9.22163ZM8.04064 8.74665H8.04343H8.04064ZM4.66635 5.43927C4.64164 6.83919 4.96348 7.79341 5.62433 8.27772C6.41559 8.85742 7.49596 8.61101 7.83563 8.51202C8.22422 7.66873 8.25711 6.99544 7.93315 6.50917C7.33103 5.60534 5.56527 5.42863 4.66635 5.43927Z" fill="#4E9525"/>
<path d="M9.12207 16.5445C9.11307 16.5445 9.10408 16.544 9.09491 16.5431C8.94258 16.5287 8.82854 16.397 8.83623 16.2441C8.85309 15.9077 8.88188 15.5886 8.92099 15.2862C9.03994 13.2626 8.97858 8.55007 5.9991 7.24636C5.85446 7.18304 5.78836 7.01452 5.85168 6.86971C5.91483 6.72524 6.08385 6.6593 6.22832 6.72246C7.98411 7.49065 9.0887 9.40318 9.42198 12.2532C9.45193 12.5086 9.47434 12.7605 9.49103 13.0057C10.2757 11.0228 11.4762 10.3222 11.5477 10.2821C11.6851 10.2044 11.8596 10.2538 11.9371 10.3911C12.0142 10.5285 11.9658 10.7025 11.8288 10.78C11.7985 10.7977 9.95767 11.9024 9.49561 15.3093C9.46044 15.8921 9.40971 16.2637 9.40497 16.2977C9.38517 16.4404 9.26328 16.5445 9.12207 16.5445Z" fill="#4E9525"/>
</g>
<g clip-path="url(#clip1_208_375)">
<path d="M13.8997 3.61883H13.0059V2.75983H13.8997C14.034 2.75983 14.1428 2.65107 14.1428 2.51674C14.1428 2.3824 14.034 2.27358 13.8997 2.27358H13.0059V1.08167C13.0059 0.907685 12.9715 0.779982 12.9037 0.70219C12.8393 0.628186 12.7546 0.59375 12.6373 0.59375C12.5254 0.59375 12.4439 0.627949 12.3808 0.701491C12.3138 0.779361 12.2798 0.907302 12.2798 1.08175V2.27373H10.5985L9.88364 1.19199C9.82246 1.09545 9.76493 1.00502 9.70907 0.918214C9.65878 0.84004 9.60972 0.776393 9.56338 0.728868C9.52237 0.686793 9.47562 0.654231 9.42094 0.629202C9.36936 0.605651 9.30377 0.593829 9.22618 0.593829C9.12721 0.593829 9.03737 0.620943 8.95135 0.676647C8.86622 0.731745 8.80738 0.799865 8.77144 0.884912C8.73989 0.965738 8.7232 1.08959 8.7232 1.24946V2.27365H7.83829C7.70401 2.27366 7.59521 2.38248 7.59521 2.51681C7.59521 2.65114 7.70401 2.75989 7.8383 2.75989H8.72321V3.61899H7.8383C7.70401 3.61899 7.59521 3.72778 7.59521 3.86215C7.59521 3.99644 7.70401 4.10515 7.8383 4.10515H8.72321V5.46601C8.72321 5.63485 8.75869 5.76126 8.82896 5.84159C8.89579 5.91818 8.98052 5.95373 9.09558 5.95373C9.2066 5.95373 9.29067 5.91802 9.36038 5.84128C9.43178 5.76267 9.46789 5.63634 9.46789 5.46602V4.10515H10.9892L11.8125 5.36758C11.8698 5.45104 11.9289 5.53526 11.9878 5.61786C12.041 5.69202 12.099 5.75737 12.1603 5.81195C12.2154 5.86133 12.2745 5.8975 12.336 5.91958C12.3992 5.94235 12.4731 5.95389 12.5552 5.95389C12.7778 5.95389 13.0059 5.88573 13.0059 5.38024V4.10515H13.8996C14.0339 4.10515 14.1428 3.99628 14.1428 3.86199C14.1428 3.7277 14.034 3.61883 13.8997 3.61883ZM12.2798 2.75981V3.61881H11.4876L10.92 2.75981H12.2798ZM9.4679 1.77279L9.79458 2.27358H9.4679V1.77279ZM9.4679 3.61883V2.75983H10.1118L10.6721 3.61883H9.4679ZM12.2798 4.8178L11.809 4.10515H12.2798V4.8178Z" fill="#4E9525"/>
</g>
<defs>
<clipPath id="clip0_208_375">
<rect width="17.5476" height="17.5476" fill="white" transform="translate(0 4.45239)"/>
</clipPath>
<clipPath id="clip1_208_375">
<rect width="6.54762" height="6.54762" fill="white" transform="translate(7.59521)"/>
</clipPath>
</defs>
</svg>
