<svg width="66" height="68" viewBox="0 0 66 68" fill="none" xmlns="http://www.w3.org/2000/svg">
<path d="M62.269 19.1941C61.8773 18.3681 61.4522 17.5586 60.9949 16.7678C39.884 21.1676 14.3074 32.7416 3.0391 49.8896C5.81211 54.9593 9.82753 59.2239 14.7002 62.2743C24.5009 43.0983 49.8529 23.7739 62.269 19.1941ZM59.0868 13.8135C53.0306 5.4417 43.2451 0 32.1981 0C17.921 0 5.7475 9.08518 1.0166 21.8461C18.0712 13.2828 44.7013 11.6042 59.0868 13.8135ZM34.9551 67.1732C52.0516 65.7552 65.4912 51.2928 65.4912 33.6484C65.4959 29.195 64.6236 24.7852 62.925 20.6759C51.3238 32.6603 39.664 50.1307 34.9551 67.1732ZM7.659 31.6272H8.70581V41.2779H7.659V31.6272Z" fill="#4E9525"/>
<path d="M6.31853 24.1493C8.18151 25.916 8.78832 29.7045 8.67932 31.6129C12.382 28.5733 8.3038 22.7407 5.06967 21.9971C5.289 23.4803 5.14079 24.8526 4.92146 26.0785C4.44292 28.7822 5.69178 31.4181 7.71294 31.6337C7.76611 30.2648 8.18151 28.3288 6.31853 24.1493Z" fill="#4E9525"/>
<path d="M2.15746 32.5252C3.26475 32.014 6.06554 32.2558 7.27451 32.5789C5.15764 29.3425 1.34128 31.3463 0.491211 32.9135C1.50811 33.0733 2.3748 33.4589 3.13182 33.8579C4.80073 34.7399 6.78468 34.4524 7.34696 33.1445C6.46166 32.8281 3.43423 32.5017 2.15746 32.5252ZM12.7904 31.0561C12.5272 32.2531 10.6456 34.3691 9.66522 35.1463C13.4942 35.3935 14.2147 31.1072 13.4896 29.4775C12.7491 30.201 11.9217 30.6672 11.1507 31.036C9.44589 31.8494 8.47817 33.6248 9.17006 34.8642C9.95833 34.3429 12.042 32.0973 12.7904 31.0561ZM30.4358 56.2011H31.4827V65.8518H30.4358V56.2011Z" fill="#4E9525"/>
<path d="M29.0969 48.7235C30.9598 50.4902 31.5666 54.2788 31.4576 56.1858C35.161 53.1476 31.0821 47.3136 27.848 46.5713C28.0673 48.0545 27.9184 49.4282 27.6998 50.6521C27.2212 53.3551 28.4701 55.993 30.4913 56.208C30.5438 54.839 30.9592 52.9024 29.0969 48.7235Z" fill="#4E9525"/>
<path d="M24.9346 57.0993C26.0419 56.5868 28.8427 56.8299 30.051 57.1524C27.9335 53.916 24.1178 55.9191 23.267 57.4862C24.2839 57.6461 25.1513 58.0317 25.9077 58.4307C27.5766 59.3127 29.5605 59.0252 30.1228 57.7193C29.2395 57.4009 26.2121 57.0758 24.9346 57.0993ZM35.5695 55.6296C35.3063 56.8273 33.4254 58.9432 32.445 59.7204C36.274 59.9663 36.9952 55.6799 36.2694 54.0517C35.529 54.7738 34.7015 55.2406 33.9305 55.6094C32.2277 56.4222 31.258 58.1983 31.9512 59.4369C32.7362 58.9157 34.8198 56.6694 35.5695 55.6296ZM21.1768 24.1394H21.9378V31.1489H21.1768V24.1394Z" fill="#4E9525"/>
<path d="M20.2041 18.7097C21.5566 19.992 21.9973 22.7434 21.9175 24.1285C24.608 21.9219 21.6443 17.6853 19.2975 17.1472C19.457 18.224 19.3487 19.2215 19.1885 20.1109C18.8422 22.073 19.7481 23.9888 21.2157 24.146C21.2549 23.1505 21.5566 21.7439 20.2041 18.7097Z" fill="#4E9525"/>
<path d="M17.1828 24.7917C17.9857 24.4209 20.0208 24.5962 20.8994 24.8306C19.3601 22.4802 16.5906 23.9352 15.9731 25.0731C16.7116 25.1893 17.3416 25.4688 17.8906 25.759C19.1036 26.4005 20.5432 26.1909 20.9513 25.2424C20.3086 25.01 18.1106 24.7749 17.1828 24.7917ZM24.9059 23.7256C24.7138 24.5942 23.3486 26.1311 22.6368 26.6954C25.417 26.874 25.9407 23.7612 25.415 22.5776C24.876 23.1016 24.2765 23.4415 23.7162 23.7095C22.478 24.2993 21.7754 25.5904 22.2779 26.4891C22.8488 26.1123 24.3629 24.4807 24.9059 23.7256ZM39.3491 44.0563H40.1108V51.0678H39.3491V44.0563Z" fill="#4E9525"/>
<path d="M38.3762 38.6273C39.7287 39.9096 40.1687 42.6617 40.091 44.0461C42.7808 41.8395 39.8178 37.6022 37.4703 37.0635C37.6305 38.1409 37.5221 39.1391 37.3606 40.0285C37.015 41.9913 37.9209 43.9064 39.3884 44.0643C39.4277 43.0674 39.7294 41.6615 38.3762 38.6273Z" fill="#4E9525"/>
<path d="M35.3531 44.7112C36.1566 44.3384 38.1911 44.5137 39.0704 44.7495C37.5318 42.3985 34.7622 43.8541 34.1447 44.9913C34.8812 45.1082 35.5132 45.3883 36.0629 45.6772C37.2772 46.3173 38.7155 46.1098 39.1242 45.1593C38.4809 44.9289 36.2809 44.6931 35.3531 44.7112ZM43.0762 43.6425C42.8848 44.5104 41.5196 46.0486 40.8071 46.6136C43.5873 46.7909 44.1103 43.6801 43.5853 42.4952C43.0469 43.0198 42.4468 43.3604 41.8871 43.6277C40.6496 44.2175 39.9451 45.5079 40.4489 46.406C41.0191 46.0285 42.5318 44.3975 43.0762 43.6425ZM33.8237 19.3621H34.3674V24.0655H33.8237V19.3621Z" fill="#4E9525"/>
<path d="M33.0682 15.7192C34.097 16.5803 34.4307 18.4249 34.3722 19.3553C36.418 17.8748 34.1635 15.032 32.377 14.6699C32.4992 15.394 32.4162 16.0618 32.2945 16.6582C32.032 17.9755 32.7212 19.2599 33.8378 19.3647C33.8651 18.6996 34.0944 17.7552 33.0682 15.7192Z" fill="#4E9525"/>
<path d="M30.7698 19.8008C31.3812 19.5516 32.9265 19.6692 33.5958 19.8263C32.4261 18.2498 30.3198 19.2251 29.8506 19.9889C30.4122 20.0668 30.8907 20.2549 31.3088 20.4497C32.2313 20.8796 33.3253 20.7386 33.635 20.1018C33.1472 19.9473 31.4763 19.7907 30.7698 19.8008ZM36.6432 19.0854C36.4976 19.6692 35.4608 20.6996 34.9165 21.0785C37.03 21.1973 37.4288 19.1089 37.0287 18.3149C36.6186 18.6669 36.162 18.896 35.7366 19.074C34.7955 19.4703 34.2618 20.3355 34.644 20.9401C35.0773 20.6875 36.2298 19.5926 36.6432 19.0854ZM47.6456 33.3302H48.188V38.0337H47.6456V33.3302Z" fill="#4E9525"/>
<path d="M46.8881 29.6885C47.9169 30.549 48.2526 32.3943 48.1921 33.3233C50.2385 31.8441 47.984 29 46.1988 28.6379C46.3205 29.3621 46.2381 30.0304 46.1171 30.6276C45.8539 31.9442 46.5425 33.2286 47.659 33.334C47.687 32.6677 47.9169 31.7246 46.8881 29.6885Z" fill="#4E9525"/>
<path d="M44.5898 33.7687C45.2006 33.5201 46.7472 33.6377 47.4165 33.7942C46.2467 32.2176 44.1398 33.1937 43.6699 33.9567C44.2315 34.0347 44.7107 34.2228 45.1288 34.4176C46.0493 34.8481 47.144 34.7071 47.455 34.0703C46.9665 33.9151 45.2963 33.7586 44.5898 33.7687ZM50.4638 33.0539C50.3163 33.6377 49.2801 34.6674 48.7351 35.0456C50.8507 35.1652 51.2488 33.0768 50.8487 32.2835C50.4379 32.6354 49.9826 32.8625 49.5566 33.0418C48.6168 33.4382 48.0811 34.3034 48.4626 34.9072C48.898 34.654 50.0491 33.5598 50.4638 33.0539ZM44.1611 16.978H44.5273V20.1533H44.1611V16.978Z" fill="#4E9525"/>
<path d="M43.6489 14.5203C44.3415 15.1013 44.5681 16.346 44.5276 16.9741C45.9087 15.9739 44.3893 14.0554 43.1817 13.8123C43.2641 14.3006 43.2076 14.7513 43.1265 15.155C42.9477 16.0437 43.415 16.9116 44.168 16.9822C44.1873 16.5314 44.3415 15.894 43.6489 14.5203Z" fill="#4E9525"/>
<path d="M42.0962 17.2744C42.5076 17.1065 43.5511 17.1857 44.0044 17.2925C43.2148 16.2278 41.7931 16.8875 41.4761 17.402C41.8549 17.4551 42.1806 17.582 42.4617 17.713C43.0838 18.0032 43.8223 17.9078 44.0296 17.4779C43.7013 17.3731 42.5727 17.2683 42.0962 17.2744ZM46.0621 16.7914C45.9631 17.1857 45.2605 17.881 44.897 18.1369C46.3233 18.2175 46.5905 16.8082 46.3213 16.2715C46.0448 16.5093 45.7377 16.6631 45.4493 16.7847C44.8146 17.0514 44.455 17.6351 44.7129 18.0435C45.0027 17.8722 45.7829 17.1347 46.0621 16.7914Z" fill="#4E9525"/>
</svg>
