<svg width="100" height="46" viewBox="0 0 100 46" fill="none" xmlns="http://www.w3.org/2000/svg">
<path d="M19.7584 24.4688L20.3889 21H16.4445V18.75C16.4445 17.8008 16.9945 16.875 18.7612 16.875H20.5556V13.9219C20.5556 13.9219 18.9278 13.6875 17.3723 13.6875C14.1223 13.6875 12.0001 15.3492 12.0001 18.3562V21H8.38892V24.4688H12.0001V32.8547C12.725 32.9508 13.4667 33 14.2223 33C14.9778 33 15.7195 32.9508 16.4445 32.8547V24.4688H19.7584Z" stroke="#4E9525" stroke-width="1.5"/>
<mask id="mask0_183_398" style="mask-type:luminance" maskUnits="userSpaceOnUse" x="24" y="0" width="44" height="46">
<path fill-rule="evenodd" clip-rule="evenodd" d="M24 23C24 10.2975 33.8497 0 46 0C58.1503 0 68 10.2975 68 23C68 35.7025 58.1503 46 46 46C33.8497 46 24 35.7025 24 23Z" fill="white"/>
</mask>
<g mask="url(#mask0_183_398)">
<path d="M41.1629 10.8075L41.1273 10.0584L41.1271 10.0584L41.1629 10.8075ZM38.3151 11.3774L38.5973 12.0723L38.5976 12.0722L38.3151 11.3774ZM36.2366 12.7919L36.7784 13.3105L36.7787 13.3102L36.2366 12.7919ZM34.8824 14.9647L35.5851 15.2267L35.5851 15.2267L34.8824 14.9647ZM34.3372 17.9419L33.5879 17.9097L33.5879 17.9099L34.3372 17.9419ZM34.3375 28.0569L33.5882 28.0894L33.5882 28.0899L34.3375 28.0569ZM34.8826 31.0342L34.1796 31.2955L34.1796 31.2955L34.8826 31.0342ZM36.2359 33.2072L36.7781 32.6891L36.7778 32.6887L36.2359 33.2072ZM38.3137 34.623L38.596 33.9282L38.5959 33.9281L38.3137 34.623ZM41.162 35.1929L41.1261 35.942L41.1263 35.942L41.162 35.1929ZM50.8367 35.1929L50.8723 35.942L50.8725 35.942L50.8367 35.1929ZM53.686 34.623L53.4037 33.9281L53.4036 33.9282L53.686 34.623ZM55.763 33.2072L55.2212 32.6886L55.2207 32.6891L55.763 33.2072ZM57.1173 31.0344L57.82 31.2964L57.8207 31.2945L57.1173 31.0344ZM57.6624 28.0572L58.4116 28.0909L58.4117 28.0894L57.6624 28.0572ZM57.6624 17.9422L58.4117 17.91L58.4116 17.9085L57.6624 17.9422ZM57.1173 14.9649L57.8207 14.7048L57.82 14.703L57.1173 14.9649ZM55.763 12.7919L55.221 13.3103L55.2212 13.3105L55.763 12.7919ZM53.6852 11.3774L53.4034 12.0724L53.4035 12.0725L53.6852 11.3774ZM50.835 10.8075L50.8708 10.0584L50.8706 10.0584L50.835 10.8075ZM45.61 12.9439L45.6102 12.1939H45.61V12.9439ZM46.001 12.944L46.0008 13.694H46.001V12.944ZM50.7423 13.0145L50.7781 12.2654L50.7779 12.2654L50.7423 13.0145ZM52.9208 13.4369L53.203 12.742L53.203 12.742L52.9208 13.4369ZM54.2692 14.3544L53.7271 14.8727L53.7272 14.8728L54.2692 14.3544ZM55.1473 15.7651L55.8502 15.5037L55.8501 15.5034L55.1473 15.7651ZM55.5513 18.0421L56.3006 18.0095L56.3006 18.0095L55.5513 18.0421ZM55.5513 27.9527L56.3006 27.9854L56.3006 27.9852L55.5513 27.9527ZM55.1473 30.2297L54.4443 29.9683L54.4442 29.9685L55.1473 30.2297ZM54.2692 31.6388L53.7274 31.1202L53.7272 31.1204L54.2692 31.6388ZM52.9208 32.5563L52.6388 31.8613L52.6374 31.8619L52.9208 32.5563ZM50.7423 32.979L50.7779 33.7281L50.7781 33.7281L50.7423 32.979ZM41.2597 32.979L41.2236 33.7281L41.2241 33.7281L41.2597 32.979ZM39.081 32.556L38.7988 33.2509L38.799 33.251L39.081 32.556ZM37.7316 31.6386L37.1897 32.157H37.1897L37.7316 31.6386ZM36.8536 30.2287L36.1506 30.4901L36.1507 30.4903L36.8536 30.2287ZM36.4495 27.9516L35.7002 27.9842L35.7002 27.9842L36.4495 27.9516ZM36.4495 18.039L35.7002 18.0063L35.7002 18.0065L36.4495 18.039ZM36.8536 15.7615L36.1505 15.5003L36.1505 15.5004L36.8536 15.7615ZM37.7316 14.3508L37.1897 13.8324L37.1897 13.8324L37.7316 14.3508ZM39.081 13.4329L39.3637 14.1275L39.3642 14.1273L39.081 13.4329ZM41.2597 13.0099L41.2244 12.2607L41.2238 12.2608L41.2597 13.0099ZM44.9485 12.9409H45.6985V12.19L44.9476 12.1909L44.9485 12.9409ZM44.9485 12.944H44.1985V13.6952L44.9497 13.694L44.9485 12.944ZM45.6097 12.9439L45.6093 13.6939H45.6097V12.9439ZM52.2643 14.9808V15.7308H53.0143V14.9808H52.2643ZM52.2643 14.9803V14.2303H51.5143V14.9803H52.2643ZM46.0008 16.7007V15.9507H46.0008L46.0008 16.7007ZM41.1986 11.5567C42.4324 11.498 42.8185 11.4834 46.001 11.4834V9.9834C42.8104 9.9834 42.3966 9.99797 41.1273 10.0584L41.1986 11.5567ZM38.5976 12.0722C39.2559 11.8045 40.0238 11.6129 41.1988 11.5567L41.1271 10.0584C39.8038 10.1217 38.8665 10.3436 38.0326 10.6826L38.5976 12.0722ZM36.7787 13.3102C37.3536 12.709 37.9181 12.3481 38.5973 12.0723L38.033 10.6825C37.1687 11.0334 36.424 11.5107 35.6945 12.2736L36.7787 13.3102ZM35.5851 15.2267C35.8536 14.5066 36.2027 13.9119 36.7784 13.3105L35.6948 12.2733C34.9651 13.0356 34.5125 13.8097 34.1796 14.7027L35.5851 15.2267ZM35.0866 17.9742C35.1399 16.7367 35.3252 15.9239 35.5851 15.2267L34.1796 14.7027C33.8578 15.5659 33.6471 16.5364 33.5879 17.9097L35.0866 17.9742ZM35.0166 23.0002C35.0166 19.6728 35.0313 19.2668 35.0866 17.974L33.5879 17.9099C33.5313 19.234 33.5166 19.6646 33.5166 23.0002H35.0166ZM35.0868 28.0244C35.0308 26.7321 35.0166 26.3278 35.0166 23.0002H33.5166C33.5166 26.3355 33.5308 26.7649 33.5882 28.0894L35.0868 28.0244ZM35.5856 30.7729C35.3264 30.0755 35.1412 29.2625 35.0868 28.024L33.5882 28.0899C33.6486 29.4632 33.859 30.4329 34.1796 31.2955L35.5856 30.7729ZM36.7778 32.6887C36.2023 32.0872 35.8532 31.4927 35.5856 30.7728L34.1796 31.2955C34.5119 32.1893 34.9646 32.9635 35.694 33.7257L36.7778 32.6887ZM38.5959 33.9281C37.9177 33.6526 37.3531 33.2908 36.7781 32.6891L35.6936 33.7253C36.4225 34.4882 37.1672 34.9667 38.0314 35.3178L38.5959 33.9281ZM41.1978 34.4437C40.0231 34.3875 39.2549 34.1959 38.596 33.9282L38.0313 35.3178C38.8656 35.6568 39.8031 35.8787 41.1261 35.942L41.1978 34.4437ZM45.9996 34.517C42.8173 34.517 42.4314 34.5024 41.1976 34.4437L41.1263 35.942C42.3956 36.0024 42.8091 36.017 45.9996 36.017V34.517ZM50.801 34.4437C49.5672 34.5024 49.1824 34.517 45.9996 34.517V36.017C49.1905 36.017 49.603 36.0024 50.8723 35.942L50.801 34.4437ZM53.4036 33.9282C52.7448 34.1958 51.9759 34.3875 50.8008 34.4437L50.8725 35.942C52.1957 35.8787 53.134 35.6568 53.9683 35.3178L53.4036 33.9282ZM55.2207 32.6891C54.6456 33.2911 54.0819 33.6527 53.4037 33.9281L53.9682 35.3179C54.833 34.9666 55.5766 34.488 56.3053 33.7253L55.2207 32.6891ZM56.4145 30.7725C56.1461 31.4925 55.7969 32.0872 55.2212 32.6886L56.3048 33.7258C57.0345 32.9635 57.4871 32.1894 57.82 31.2964L56.4145 30.7725ZM56.9131 28.0235C56.8575 29.2617 56.6721 30.0758 56.4138 30.7744L57.8207 31.2945C58.1393 30.4327 58.3499 29.4635 58.4116 28.0909L56.9131 28.0235ZM56.9833 23.0002C56.9833 26.3276 56.9686 26.7323 56.9131 28.025L58.4117 28.0894C58.4686 26.7651 58.4833 26.3357 58.4833 23.0002H56.9833ZM56.9131 17.9744C56.9686 19.2671 56.9833 19.6728 56.9833 23.0002H58.4833C58.4833 19.6646 58.4686 19.2342 58.4117 17.91L56.9131 17.9744ZM56.4138 15.2251C56.6721 15.9234 56.8575 16.7371 56.9131 17.9758L58.4116 17.9085C58.3499 16.5354 58.1393 15.5664 57.8207 14.7048L56.4138 15.2251ZM55.2212 13.3105C55.7969 13.9119 56.146 14.5066 56.4145 15.2268L57.82 14.703C57.4871 13.8097 57.0345 13.0356 56.3048 12.2733L55.2212 13.3105ZM53.4035 12.0725C54.0825 12.3476 54.6451 12.7082 55.221 13.3103L56.305 12.2735C55.5756 11.5109 54.8329 11.0333 53.9669 10.6823L53.4035 12.0725ZM50.7991 11.5567C51.974 11.6129 52.7427 11.8045 53.4034 12.0724L53.9671 10.6824C53.1317 10.3436 52.1942 10.1217 50.8708 10.0584L50.7991 11.5567ZM45.9974 11.4834C49.1809 11.4834 49.5655 11.498 50.7993 11.5567L50.8706 10.0584C49.6013 9.99797 49.189 9.9834 45.9974 9.9834V11.4834ZM46.001 9.9834H45.9974V11.4834H46.001V9.9834ZM45.61 12.1939H45.6099V13.6939H45.61V12.1939ZM46.0013 12.194L45.6102 12.1939L45.6097 13.6939L46.0008 13.694L46.0013 12.194ZM50.7779 12.2654C49.5225 12.2057 49.1369 12.194 46.001 12.194V13.694C49.1309 13.694 49.4879 13.7058 50.7067 13.7637L50.7779 12.2654ZM53.203 12.742C52.7128 12.5431 52.0088 12.3242 50.7781 12.2654L50.7065 13.7637C51.7639 13.8142 52.3017 13.995 52.6387 14.1319L53.203 12.742ZM54.8114 13.8361C54.3282 13.3308 53.8494 13.0045 53.203 12.742L52.6387 14.1318C53.0874 14.3141 53.3894 14.5194 53.7271 14.8727L54.8114 13.8361ZM55.8501 15.5034C55.6025 14.8384 55.2946 14.3414 54.8112 13.836L53.7272 14.8728C54.0652 15.2261 54.2657 15.5469 54.4444 16.0268L55.8501 15.5034ZM56.3006 18.0095C56.2451 16.7343 56.0378 16.008 55.8502 15.5037L54.4443 16.0265C54.578 16.386 54.7534 16.9579 54.8021 18.0747L56.3006 18.0095ZM56.3698 22.9974C56.3698 19.7205 56.3576 19.3191 56.3006 18.0095L54.802 18.0747C54.8576 19.3513 54.8698 19.7269 54.8698 22.9974H56.3698ZM56.3006 27.9852C56.3576 26.6756 56.3698 26.2743 56.3698 22.9974H54.8698C54.8698 26.2679 54.8576 26.6434 54.802 27.9201L56.3006 27.9852ZM55.8502 30.4911C56.0378 29.9866 56.2449 29.2604 56.3006 27.9854L54.8021 27.9199C54.7532 29.0369 54.5779 29.6089 54.4443 29.9683L55.8502 30.4911ZM54.811 32.1574C55.2939 31.6529 55.6028 31.1572 55.8503 30.4909L54.4442 29.9685C54.2664 30.447 54.0659 30.7666 53.7274 31.1202L54.811 32.1574ZM53.2029 33.2512C53.8499 32.9886 54.3281 32.6623 54.8112 32.1572L53.7272 31.1204C53.389 31.474 53.0875 31.6792 52.6388 31.8613L53.2029 33.2512ZM50.7781 33.7281C52.0082 33.6693 52.7132 33.4511 53.2043 33.2506L52.6374 31.8619C52.3022 31.9987 51.7645 32.1792 50.7065 32.2298L50.7781 33.7281ZM46.001 33.8005C49.1374 33.8005 49.523 33.7878 50.7779 33.7281L50.7067 32.2298C49.4878 32.2877 49.1304 32.3005 46.001 32.3005V33.8005ZM41.2241 33.7281C42.479 33.7878 42.8644 33.8005 46.001 33.8005V32.3005C42.8715 32.3005 42.5143 32.2877 41.2953 32.2298L41.2241 33.7281ZM38.799 33.251C39.2892 33.4499 39.9931 33.6687 41.2236 33.7281L41.2959 32.2298C40.2384 32.1788 39.7005 31.998 39.363 31.861L38.799 33.251ZM37.1897 32.157C37.6732 32.6625 38.1528 32.9886 38.7988 33.2509L39.3632 31.8611C38.9141 31.6788 38.6114 31.4733 38.2736 31.1201L37.1897 32.157ZM36.1507 30.4903C36.3985 31.1561 36.7066 31.6519 37.1897 32.157L38.2736 31.1201C37.9354 30.7665 37.735 30.4467 37.5565 29.967L36.1507 30.4903ZM35.7002 27.9842C35.7557 29.2595 35.9631 29.9857 36.1506 30.4901L37.5566 29.9672C37.4229 29.6078 37.2474 29.0358 37.1988 27.919L35.7002 27.9842ZM35.6321 22.9943C35.6321 26.2728 35.6433 26.6744 35.7002 27.9842L37.1988 27.9191C37.1433 26.6427 37.1321 26.2673 37.1321 22.9943H35.6321ZM35.7002 18.0065C35.6433 19.3163 35.6321 19.7158 35.6321 22.9943H37.1321C37.1321 19.7213 37.1433 19.348 37.1988 18.0716L35.7002 18.0065ZM36.1505 15.5004C35.9631 16.0051 35.756 16.7312 35.7002 18.0063L37.1988 18.0718C37.2477 16.9548 37.4229 16.3827 37.5567 16.0226L36.1505 15.5004ZM37.1897 13.8324C36.7065 14.3375 36.3979 14.8346 36.1505 15.5003L37.5566 16.0227C37.7346 15.5436 37.9354 15.2228 38.2736 14.8692L37.1897 13.8324ZM38.7983 12.7382C38.1526 13.0009 37.6732 13.3269 37.1897 13.8324L38.2736 14.8692C38.6114 14.5161 38.9142 14.3105 39.3637 14.1275L38.7983 12.7382ZM41.2238 12.2608C39.9937 12.3199 39.2891 12.538 38.7978 12.7384L39.3642 14.1273C39.7001 13.9903 40.2377 13.8099 41.2957 13.759L41.2238 12.2608ZM44.9476 12.1909C42.7532 12.1935 42.3216 12.2089 41.2244 12.2607L41.2951 13.7591C42.3627 13.7087 42.7701 13.6935 44.9493 13.6909L44.9476 12.1909ZM45.6985 12.944V12.9409H44.1985V12.944H45.6985ZM45.61 12.1939C45.3731 12.1937 45.1525 12.1936 44.9472 12.194L44.9497 13.694C45.153 13.6936 45.372 13.6937 45.6093 13.6939L45.61 12.1939ZM45.6098 12.1939H45.6097V13.6939H45.6098V12.1939ZM45.6099 12.1939H45.6098V13.6939H45.6099V12.1939ZM52.2643 14.2308C51.042 14.2308 50.1062 15.2565 50.1062 16.4523H51.6062C51.6062 16.0222 51.9318 15.7308 52.2643 15.7308V14.2308ZM51.5143 14.9803V14.9808H53.0143V14.9803H51.5143ZM54.4223 16.4523C54.4223 15.2572 53.4869 14.2303 52.2643 14.2303V15.7303C52.5963 15.7303 52.9223 16.022 52.9223 16.4523H54.4223ZM52.2643 18.6743C53.4869 18.6743 54.4223 17.6474 54.4223 16.4523H52.9223C52.9223 16.8825 52.5963 17.1743 52.2643 17.1743V18.6743ZM50.1062 16.4523C50.1062 17.6474 51.0416 18.6743 52.2643 18.6743V17.1743C51.9322 17.1743 51.6062 16.8825 51.6062 16.4523H50.1062ZM40.7254 23.0002C40.7254 19.9038 43.1185 17.4508 46.0008 17.4507L46.0008 15.9507C42.2279 15.9508 39.2254 19.1389 39.2254 23.0002H40.7254ZM46.001 28.5484C43.1185 28.5484 40.7254 26.0965 40.7254 23.0002H39.2254C39.2254 26.8618 42.2283 30.0484 46.001 30.0484V28.5484ZM51.2757 23.0002C51.2757 26.0966 48.8835 28.5484 46.001 28.5484V30.0484C49.7739 30.0484 52.7757 26.8616 52.7757 23.0002H51.2757ZM46.0008 17.4507C48.8831 17.4507 51.2757 19.9036 51.2757 23.0002H52.7757C52.7757 19.139 49.7738 15.9507 46.0008 15.9507V17.4507ZM46.001 19.6613C47.7157 19.6613 49.1622 21.1243 49.1622 23.0002H50.6622C50.6622 20.3593 48.6062 18.1613 46.001 18.1613V19.6613ZM42.8399 23.0002C42.8399 21.1243 44.2861 19.6613 46.001 19.6613V18.1613C43.3956 18.1613 41.3399 20.3594 41.3399 23.0002H42.8399ZM46.001 26.3391C44.2862 26.3391 42.8399 24.8759 42.8399 23.0002H41.3399C41.3399 25.6407 43.3955 27.8391 46.001 27.8391V26.3391ZM49.1622 23.0002C49.1622 24.8759 47.7157 26.3391 46.001 26.3391V27.8391C48.6062 27.8391 50.6622 25.6407 50.6622 23.0002H49.1622Z" fill="#4E9525"/>
</g>
<path d="M81.4609 20.5054L81.4987 21.1829L80.8691 21.1C78.5776 20.782 76.5757 19.7034 74.876 17.892L74.045 16.9933L73.831 17.657C73.3777 19.1365 73.6673 20.699 74.6116 21.7499C75.1152 22.3306 75.0019 22.4136 74.1332 22.0679C73.831 21.9573 73.5666 21.8743 73.5414 21.9158C73.4533 22.0126 73.7554 23.2709 73.9947 23.7686C74.322 24.46 74.9893 25.1376 75.7196 25.5385L76.3365 25.8566L75.6063 25.8704C74.9012 25.8704 74.876 25.8842 74.9515 26.1746C75.2034 27.0734 76.198 28.0275 77.306 28.4423L78.0866 28.7326L77.4067 29.1751C76.3995 29.8112 75.216 30.1707 74.0324 30.1983C73.4659 30.2122 73 30.2675 73 30.309C73 30.4472 74.5361 31.2216 75.43 31.5258C78.1118 32.4245 81.2972 32.0374 83.6894 30.5025C85.3892 29.4102 87.0889 27.2393 87.8821 25.1376C88.3102 24.0175 88.7383 21.9711 88.7383 20.9894C88.7383 20.3533 88.7761 20.2703 89.4811 19.5098C89.8966 19.0674 90.2869 18.5834 90.3625 18.4451C90.4884 18.1824 90.4758 18.1824 89.8337 18.4175C88.7635 18.8323 88.6124 18.777 89.1412 18.1548C89.5315 17.7123 89.9973 16.9103 89.9973 16.6752C89.9973 16.6338 89.8085 16.7029 89.5944 16.8273C89.3678 16.9656 88.8642 17.173 88.4865 17.2975L87.8066 17.5325L87.1896 17.0762C86.8497 16.8273 86.3712 16.5508 86.1194 16.4678C85.4773 16.2743 84.4952 16.3019 83.9161 16.5231C82.3422 17.1454 81.3476 18.7493 81.4609 20.5054Z" stroke="#4E9525" stroke-width="1.5"/>
</svg>
