<svg width="124" height="85" viewBox="0 0 124 85" fill="none" xmlns="http://www.w3.org/2000/svg">
<path d="M123.459 73.3701H0V73.4318H123.459V73.3701Z" fill="#EBEBEB"/>
<path d="M111.088 77.343H102.91V77.4047H111.088V77.343Z" fill="#EBEBEB"/>
<path d="M81.784 78.0146H72.0999V78.0764H81.784V78.0146Z" fill="#EBEBEB"/>
<path d="M102.663 75.0516H88.5842V75.1134H102.663V75.0516Z" fill="#EBEBEB"/>
<path d="M60.0281 75.4664H43.0822V75.5282H60.0281V75.4664Z" fill="#EBEBEB"/>
<path d="M63.7886 75.4664H62.2256V75.5282H63.7886V75.4664Z" fill="#EBEBEB"/>
<path d="M55.591 76.5084H24.2794V76.5702H55.591V76.5084Z" fill="#EBEBEB"/>
<path d="M90.7644 12.9642C94.1955 12.9642 96.9769 10.1828 96.9769 6.75175C96.9769 3.32071 94.1955 0.539307 90.7644 0.539307C87.3334 0.539307 84.552 3.32071 84.552 6.75175C84.552 10.1828 87.3334 12.9642 90.7644 12.9642Z" fill="#F5F5F5"/>
<path d="M106.355 26.0779C106.271 25.2483 104.71 24.6829 102.078 24.6829C98.656 24.6829 94.5818 25.636 92.4238 26.8878C91.8903 26.771 91.3451 26.7172 90.7991 26.7273C88.4657 26.7273 85.6385 27.4533 84.4854 28.3446C84.3885 28.4188 84.2985 28.5014 84.2162 28.5916H107.18C107.529 28.4337 107.86 28.2383 108.167 28.0088C109.427 27.0335 108.604 26.2261 106.355 26.0779Z" fill="#EBEBEB"/>
<path d="M34.9759 28.9768C34.9117 28.362 33.7586 27.9447 31.8079 27.9447C29.2721 27.9447 26.2523 28.6484 24.6473 29.5768C24.2517 29.4904 23.8473 29.4506 23.4424 29.4583C21.7139 29.4583 19.6225 29.9941 18.7657 30.6559C18.6942 30.7104 18.6274 30.7707 18.5657 30.8361H35.5783C35.8395 30.7191 36.0878 30.5751 36.3191 30.4065C37.25 29.683 36.6426 29.0855 34.9759 28.9768Z" fill="#F5F5F5"/>
<path d="M74.569 17.3322C76.0492 16.8075 77.6062 16.5322 79.1765 16.5173C81.1741 16.5173 82.1148 17.0729 81.4827 17.8038C81.8775 17.7445 82.2761 17.7139 82.6753 17.7124C84.0383 17.7124 84.5939 18.1346 83.9099 18.6556C83.8457 18.7026 83.7741 18.7519 83.6951 18.7989H70.2998C70.3785 18.6617 70.4874 18.5443 70.6183 18.4556C71.3418 17.8902 73.0431 17.4186 74.569 17.3322Z" fill="#F5F5F5"/>
<path d="M45.8081 18.1766C46.7521 17.8423 47.7451 17.6671 48.7464 17.6581C50.0181 17.6581 50.6181 18.0136 50.2279 18.4778C50.4797 18.4401 50.7339 18.4203 50.9885 18.4186C51.8551 18.4186 52.223 18.6877 51.7811 19.0211C51.7374 19.0538 51.692 19.0843 51.6453 19.1124H43.0822C43.1291 19.0264 43.195 18.9521 43.2747 18.8951C43.7464 18.5322 44.8303 18.2334 45.8081 18.1766Z" fill="#F5F5F5"/>
<path d="M46.5414 5.22335C46.3735 5.22335 46.2032 5.22335 46.0279 5.22335C46.1167 4.53198 44.9315 4.04802 42.8179 4.04802C42.2355 4.04962 41.6536 4.08259 41.0747 4.14679C41.0747 3.26529 39.4845 2.66528 36.7413 2.66528C33.3931 2.66528 29.4276 3.56653 27.193 4.77149C25.0571 4.92705 22.7485 5.58385 21.7312 6.37151C21.6318 6.44447 21.54 6.52718 21.4571 6.61843H48.3711C49.3835 5.84805 48.5563 5.22335 46.5414 5.22335Z" fill="#EBEBEB"/>
<path d="M81.1223 58.5279C80.1346 49.6389 68.0504 68.1577 68.7467 60.8712C69.169 56.4266 71.5814 50.3327 64.4257 51.9451C57.27 53.5575 59.5343 61.8465 56.0009 63.6416C52.4675 65.4367 53.47 57.4686 48.697 57.9402C47.3464 58.0736 46.3415 59.0983 45.5933 60.5625C45.5118 58.0415 44.9266 55.8019 43.4056 54.592C37.5314 49.9228 41.729 63.9156 32.3462 59.3427C28.9412 57.681 37.0672 47.7154 30.3955 45.6314C23.7238 43.5474 24.3189 51.4241 23.4152 57.1847C21.9337 66.6243 15.3681 42.6536 11.736 54.1649C9.36803 61.6662 15.5015 73.3948 15.5015 73.3948L43.4031 73.3331V73.3652L72.9221 73.3948C72.9221 73.3948 81.7618 64.328 81.1223 58.5279Z" fill="#F5F5F5"/>
<path d="M71.9568 37.3201L73.8482 33.9299L75.7519 37.6979L75.3914 73.3701H72.3049L71.9568 37.3201Z" fill="#F0F0F0"/>
<path d="M69.0135 38.5374L67.1221 33.9299L65.2184 37.6979L65.5789 73.3701H68.6629L69.0135 38.5374Z" fill="#F0F0F0"/>
<path d="M61.4059 37.3201L59.5145 33.9299L57.6108 37.6979L57.9713 73.3701H61.0577L61.4059 37.3201Z" fill="#F0F0F0"/>
<path d="M49.1958 38.5374L51.0872 33.9299L52.9909 37.6979L52.6304 73.3701H49.544L49.1958 38.5374Z" fill="#F0F0F0"/>
<path d="M100.204 37.3201L102.098 33.9299L104.002 37.6979L103.641 73.3701H100.555L100.204 37.3201Z" fill="#F0F0F0"/>
<path d="M97.2633 38.5374L95.3694 33.9299L93.4681 37.6979L93.8286 73.3701H96.9126L97.2633 38.5374Z" fill="#F0F0F0"/>
<path d="M89.6557 37.3201L87.7643 33.9299L85.8606 37.6979L86.2211 73.3701H89.3076L89.6557 37.3201Z" fill="#F0F0F0"/>
<path d="M78.7889 38.5374L80.6828 33.9299L82.5841 37.6979L82.2236 73.3701H79.1396L78.7889 38.5374Z" fill="#F0F0F0"/>
<path d="M49.2897 48.108L52.8872 48.1105L52.9243 44.4684L49.2526 44.4413L49.2897 48.108Z" fill="#E0E0E0"/>
<path d="M57.717 48.1128L61.3022 48.1153L61.3368 44.5325L57.6799 44.5054L57.717 48.1128Z" fill="#E0E0E0"/>
<path d="M65.3245 48.1154L68.9172 48.1178L68.9518 44.5919L65.29 44.5647L65.3245 48.1154Z" fill="#E0E0E0"/>
<path d="M72.0603 48.1178L75.6456 48.1202L75.6801 44.6436L72.0258 44.614L72.0603 48.1178Z" fill="#E0E0E0"/>
<path d="M78.8852 48.1228H82.4803L82.5149 44.6956L78.8506 44.6685L78.8852 48.1228Z" fill="#E0E0E0"/>
<path d="M85.9644 48.1252L89.5521 48.1277L89.5842 44.7498L85.9323 44.7227L85.9644 48.1252Z" fill="#E0E0E0"/>
<path d="M93.5718 48.1277L97.167 48.1302L97.1991 44.8092L93.5397 44.7795L93.5718 48.1277Z" fill="#E0E0E0"/>
<path d="M100.276 44.8339L100.31 48.1327H103.895L103.928 44.861L100.276 44.8339Z" fill="#E0E0E0"/>
<path d="M47.5439 46.0832L107.404 47.1449L107.352 43.8955L46.9143 42.3868L47.5439 46.0832Z" fill="#F0F0F0"/>
<path d="M61.7294 84.5209C88.17 84.5209 109.604 83.2695 109.604 81.7258C109.604 80.1821 88.17 78.9307 61.7294 78.9307C35.2889 78.9307 13.8546 80.1821 13.8546 81.7258C13.8546 83.2695 35.2889 84.5209 61.7294 84.5209Z" fill="#F5F5F5"/>
<path d="M94.3768 80.6788H95.8583C95.8583 80.6788 95.7077 74.259 98.767 68.2367C101.826 62.2143 101.036 58.397 99.2189 59.9155C97.4016 61.4341 94.7719 70.1206 94.3768 80.6788Z" fill="#263238"/>
<path d="M94.2756 79.9899L93.12 80.6196C90.6805 81.9455 87.8138 82.0542 84.8927 80.8319C83.1421 80.0912 81.6162 78.9702 81.468 77.2467C81.1075 73.0491 86.1841 78.6097 86.3347 76.1627C86.4854 73.7158 80.4655 74.2985 80.4359 71.6046C80.4063 68.9108 87.078 74.1948 86.8557 70.3429C86.6335 66.491 80.6285 70.2367 80.5223 67.3428C80.4161 64.449 86.4977 67.7083 86.6952 65.1922C86.8928 62.6761 80.4655 64.8465 80.9421 61.9378C81.4186 59.0291 87.4607 65.0169 88.2928 62.6366C89.1249 60.2563 80.9766 60.9279 82.7865 58.1797C84.5964 55.4315 88.6755 60.1156 89.7002 59.0316C90.7249 57.9476 85.7175 56.8661 86.3693 55.313C87.0212 53.7599 89.3323 53.4834 91.8904 55.7871C94.8312 58.4489 96.9571 61.96 96.5423 64.1156C96.1275 66.2712 93.5497 61.2983 92.804 62.607C91.2237 65.3823 96.7423 66.1749 96.972 68.7601C97.2016 71.3454 92.4657 66.0934 91.5817 67.6564C89.9323 70.5799 98.3473 70.9725 97.5695 72.8614C96.6732 75.0343 90.8286 70.7775 90.562 73.5108C90.1669 77.5948 95.7472 72.9108 96.6164 75.6714C97.4855 78.4319 94.2756 79.9899 94.2756 79.9899Z" fill="#4E9525"/>
<path opacity="0.8" d="M94.2756 79.9899L93.12 80.6196C90.6805 81.9455 87.8138 82.0542 84.8927 80.8319C83.1421 80.0912 81.6162 78.9702 81.468 77.2467C81.1075 73.0491 86.1841 78.6097 86.3347 76.1627C86.4854 73.7158 80.4655 74.2985 80.4359 71.6046C80.4063 68.9108 87.078 74.1948 86.8557 70.3429C86.6335 66.491 80.6285 70.2367 80.5223 67.3428C80.4161 64.449 86.4977 67.7083 86.6952 65.1922C86.8928 62.6761 80.4655 64.8465 80.9421 61.9378C81.4186 59.0291 87.4607 65.0169 88.2928 62.6366C89.1249 60.2563 80.9766 60.9279 82.7865 58.1797C84.5964 55.4315 88.6755 60.1156 89.7002 59.0316C90.7249 57.9476 85.7175 56.8661 86.3693 55.313C87.0212 53.7599 89.3323 53.4834 91.8904 55.7871C94.8312 58.4489 96.9571 61.96 96.5423 64.1156C96.1275 66.2712 93.5497 61.2983 92.804 62.607C91.2237 65.3823 96.7423 66.1749 96.972 68.7601C97.2016 71.3454 92.4657 66.0934 91.5817 67.6564C89.9323 70.5799 98.3473 70.9725 97.5695 72.8614C96.6732 75.0343 90.8286 70.7775 90.562 73.5108C90.1669 77.5948 95.7472 72.9108 96.6164 75.6714C97.4855 78.4319 94.2756 79.9899 94.2756 79.9899Z" fill="white"/>
<path d="M84.2631 81.2245H81.3001C80.4939 76.7064 78.8563 72.3771 76.4704 68.4564C72.5197 61.9847 75.2013 59.7551 78.2532 61.5674C81.3051 63.3798 83.4705 70.6713 84.2631 81.2245Z" fill="#4E9525"/>
<path opacity="0.2" d="M84.2631 81.2245H81.3001C80.4939 76.7064 78.8563 72.3771 76.4704 68.4564C72.5197 61.9847 75.2013 59.7551 78.2532 61.5674C81.3051 63.3798 83.4705 70.6713 84.2631 81.2245Z" fill="black"/>
<path d="M87.8878 81.6862H84.1841C84.1472 76.1826 83.0053 70.7424 80.826 65.6885C77.2383 57.5797 81.0729 54.7895 84.51 57.0463C87.9471 59.3032 89.1224 68.4663 87.8878 81.6862Z" fill="#4E9525"/>
<path d="M95.0633 81.9135H96.5448C96.5448 81.9135 96.693 77.5233 99.772 74.5232C102.587 71.7825 100.55 70.8195 98.6954 72.0541C96.8411 73.2886 95.1028 78.2097 95.0633 81.9135Z" fill="#4E9525"/>
<path d="M79.0704 81.6863H76.253C76.253 81.6863 77.1666 78.3035 75.858 73.7849C78.4778 76.0417 79.0951 79.6072 79.0704 81.6863Z" fill="#4E9525"/>
<path d="M77.1297 81.6862H75.1223C75.1223 81.6862 75.3692 79.2763 73.9099 76.0565C76.0507 77.664 76.9026 80.2047 77.1297 81.6862Z" fill="#4E9525"/>
<path d="M99.0856 81.6863H100.291C100.291 81.6863 100.137 80.2394 101.019 78.306C99.7399 79.2715 99.2238 80.7974 99.0856 81.6863Z" fill="#4E9525"/>
<path d="M66.7023 80.6393H67.7048C67.7048 80.6393 67.5789 79.4344 68.3122 77.8245C67.444 78.5297 66.8699 79.5334 66.7023 80.6393Z" fill="#4E9525"/>
<path opacity="0.6" d="M66.7023 80.6393H67.7048C67.7048 80.6393 67.5789 79.4344 68.3122 77.8245C67.444 78.5297 66.8699 79.5334 66.7023 80.6393Z" fill="white"/>
<path d="M24.2968 80.6393H22.2819C22.2819 80.6393 22.5288 78.2195 21.0621 74.98C23.2103 76.5973 24.0696 79.1504 24.2968 80.6393Z" fill="#4E9525"/>
<path opacity="0.2" d="M24.2968 80.6393H22.2819C22.2819 80.6393 22.5288 78.2195 21.0621 74.98C23.2103 76.5973 24.0696 79.1504 24.2968 80.6393Z" fill="black"/>
<path d="M24.9041 81.7579H25.9733C25.9733 81.7579 25.8375 80.4764 26.6177 78.7628C25.4844 79.6196 25.0251 80.9703 24.9041 81.7579Z" fill="#4E9525"/>
<path opacity="0.2" d="M24.9041 81.7579H25.9733C25.9733 81.7579 25.8375 80.4764 26.6177 78.7628C25.4844 79.6196 25.0251 80.9703 24.9041 81.7579Z" fill="white"/>
<path d="M30.7314 54.7303L28.724 51.1302L26.7042 55.1303L27.0869 80.2863H30.3611L30.7314 54.7303Z" fill="#4E9525"/>
<path opacity="0.6" d="M30.7314 54.7303L28.724 51.1302L26.7042 55.1303L27.0869 80.2863H30.3611L30.7314 54.7303Z" fill="white"/>
<path d="M33.8524 56.0217L35.8599 51.1302L37.8796 55.1303L37.4969 80.2863H34.2228L33.8524 56.0217Z" fill="#4E9525"/>
<path opacity="0.6" d="M33.8524 56.0217L35.8599 51.1302L37.8796 55.1303L37.4969 80.2863H34.2228L33.8524 56.0217Z" fill="white"/>
<path d="M41.9218 54.7303L43.9293 51.1302L45.949 55.1303L45.5663 80.2863H42.2922L41.9218 54.7303Z" fill="#4E9525"/>
<path opacity="0.6" d="M41.9218 54.7303L43.9293 51.1302L45.949 55.1303L45.5663 80.2863H42.2922L41.9218 54.7303Z" fill="white"/>
<path d="M54.8774 56.0217L52.87 51.1302L50.8502 55.1303L51.2329 80.2863H54.5071L54.8774 56.0217Z" fill="#4E9525"/>
<path opacity="0.6" d="M54.8774 56.0217L52.87 51.1302L50.8502 55.1303L51.2329 80.2863H54.5071L54.8774 56.0217Z" fill="white"/>
<g opacity="0.5">
<path opacity="0.5" d="M26.845 64.3996L30.5932 64.2268L30.65 60.2563L26.7857 60.4959L26.845 64.3996Z" fill="#4E9525"/>
<path opacity="0.5" d="M33.976 64.0737L37.7464 63.9008L37.8081 59.8119L33.9142 60.0514L33.976 64.0737Z" fill="#4E9525"/>
<path opacity="0.5" d="M42.0527 63.7033L45.8206 63.528L45.8848 59.3107L41.9934 59.5527L42.0527 63.7033Z" fill="#4E9525"/>
<path opacity="0.5" d="M50.9095 58.9996L50.9737 63.291L54.7689 63.1181L54.838 58.7576L50.9095 58.9996Z" fill="#4E9525"/>
</g>
<path d="M55.9245 61.7847L23.9832 63.2514L23.924 59.3946L56.1615 57.3945L55.9245 61.7847Z" fill="#4E9525"/>
<path opacity="0.6" d="M55.9245 61.7847L23.9832 63.2514L23.924 59.3946L56.1615 57.3945L55.9245 61.7847Z" fill="white"/>
<path d="M64.4208 11.0481C59.9763 9.8407 57.8454 10.7098 55.5638 11.295C53.2823 11.8802 53.5885 9.89502 57.8454 8.08512C60.5886 6.92213 63.8134 7.96413 66.4159 9.35427C69.8727 11.2062 74.5123 8.67031 72.89 10.4456C71.2678 12.221 67.5986 11.9123 64.4208 11.0481Z" fill="#C6CF65"/>
<path opacity="0.3" d="M64.4208 11.0481C59.9763 9.8407 57.8454 10.7098 55.5638 11.295C53.2823 11.8802 53.5885 9.89502 57.8454 8.08512C60.5886 6.92213 63.8134 7.96413 66.4159 9.35427C69.8727 11.2062 74.5123 8.67031 72.89 10.4456C71.2678 12.221 67.5986 11.9123 64.4208 11.0481Z" fill="black"/>
<path d="M64.1171 7.49503C63.4874 7.20613 61.2998 7.24811 60.2874 7.48021C58.1417 7.97405 57.9417 10.1691 58.7096 12.1321C59.4775 14.0951 59.7368 20.073 65.5295 16.2779C70.4159 13.0729 67.3863 7.23083 64.1171 7.49503Z" fill="#263238"/>
<path d="M66.8356 21.5471C66.8159 22.162 66.806 22.8311 66.8208 23.4756C66.8356 24.12 66.848 24.7768 66.8974 25.4213C66.9752 26.7006 67.1527 27.972 67.4282 29.2238L67.5418 29.6806C67.5591 29.767 67.5764 29.809 67.5937 29.8707C67.611 29.9324 67.6381 29.9917 67.6579 30.0534C67.7655 30.3247 67.8909 30.5887 68.0332 30.8436C68.3462 31.3981 68.6874 31.9363 69.0554 32.4559C69.4258 32.9893 69.8184 33.5202 70.2233 34.0412C70.6283 34.5621 71.0431 35.0906 71.4579 35.6017L70.69 36.3745C69.6324 35.4913 68.642 34.5306 67.727 33.5004C67.2543 32.9714 66.8187 32.4104 66.4233 31.8214C66.2095 31.5068 66.0196 31.1767 65.8554 30.8337C65.8159 30.7399 65.7714 30.651 65.7344 30.5497C65.6973 30.4485 65.6529 30.3374 65.6307 30.2608L65.4727 29.7473C65.2727 29.0675 65.1128 28.3766 64.9936 27.6781C64.8628 26.9867 64.7862 26.2929 64.7196 25.599C64.6529 24.9052 64.6109 24.2138 64.5986 23.52C64.5862 22.8262 64.5862 22.1471 64.6331 21.4163L66.8356 21.5471Z" fill="#FFB573"/>
<path d="M66.1739 18.8903C67.9443 19.8557 67.2628 23.6533 67.2628 23.6533L63.9986 24.7669C63.9986 24.7669 62.2553 20.2705 63.3023 19.4187C64.3912 18.5322 64.8035 18.1421 66.1739 18.8903Z" fill="#263238"/>
<path opacity="0.2" d="M66.2332 20.0088L66.6456 23.8681L64.2208 24.6928L66.2332 20.0088Z" fill="black"/>
<path d="M71.0924 35.2461L73.4925 35.7177L71.8529 37.1572C71.8529 37.1572 70.5517 36.6856 70.4233 35.7992L71.0924 35.2461Z" fill="#FFB573"/>
<path d="M74.7247 36.7375L73.542 38.1449L71.8456 37.1572L73.4926 35.7128L74.7247 36.7375Z" fill="#FFB573"/>
<path d="M57.1169 79.5257H59.2725L59.4157 74.5355H57.2626L57.1169 79.5257Z" fill="#FFB573"/>
<path d="M40.0426 71.4342L41.8846 72.5503L45.06 68.6367L43.2155 67.5231L40.0426 71.4342Z" fill="#FFB573"/>
<path d="M42.1563 72.3849L40.5266 70.5947C40.499 70.5635 40.4609 70.5435 40.4194 70.5385C40.378 70.5335 40.3362 70.5438 40.3019 70.5676L38.6994 71.6516C38.6601 71.6804 38.6274 71.7171 38.6033 71.7595C38.5792 71.8018 38.5644 71.8488 38.5597 71.8973C38.555 71.9458 38.5607 71.9947 38.5762 72.0409C38.5918 72.087 38.617 72.1294 38.6501 72.1651C39.2278 72.78 39.539 73.0466 40.255 73.8343C40.697 74.3281 41.6279 75.8096 42.2304 76.4714C42.8328 77.1331 43.5341 76.5726 43.339 76.2393C42.7035 75.1788 42.3444 73.9758 42.2946 72.7405C42.291 72.6095 42.2422 72.4838 42.1563 72.3849Z" fill="#263238"/>
<path d="M59.3467 79.2764H56.9244C56.8832 79.2759 56.8432 79.2905 56.8119 79.3172C56.7806 79.344 56.76 79.3813 56.754 79.4221L56.4775 81.3381C56.4727 81.3865 56.478 81.4353 56.4932 81.4814C56.5083 81.5276 56.533 81.57 56.5656 81.6061C56.5981 81.6421 56.6379 81.6709 56.6822 81.6907C56.7266 81.7105 56.7746 81.7208 56.8232 81.7209C57.6676 81.706 58.0726 81.6567 59.1393 81.6567C59.7936 81.6567 61.322 81.7258 62.2257 81.7258C63.1294 81.7258 63.1788 80.832 62.801 80.7505C61.1146 80.3875 60.2751 79.8863 59.7072 79.4072C59.6054 79.3238 59.4782 79.2777 59.3467 79.2764Z" fill="#263238"/>
<g opacity="0.2">
<path opacity="0.2" d="M59.4158 74.538L59.3417 77.1084H57.1861L57.2602 74.538H59.4158Z" fill="black"/>
<path opacity="0.2" d="M43.213 67.5231L45.0575 68.6391L43.3168 70.7824L41.576 69.5404L43.213 67.5231Z" fill="black"/>
</g>
<path d="M66.8134 19.9742C66.7344 21.3298 66.206 24.473 64.0974 31.7275L55.4133 30.6534C55.9738 27.278 56.2479 25.1348 55.5688 18.3717C55.5569 18.2571 55.5686 18.1413 55.603 18.0313C55.6374 17.9213 55.6939 17.8196 55.769 17.7322C55.8442 17.6448 55.9363 17.5737 56.0399 17.5232C56.1434 17.4726 56.2562 17.4438 56.3713 17.4383C57.3225 17.393 58.2755 17.4021 59.2257 17.4655C60.5527 17.5358 61.8729 17.7008 63.1764 17.9593C64.164 18.1766 65.2455 18.4877 65.9468 18.7001C66.2122 18.7862 66.4414 18.9581 66.5983 19.1887C66.7552 19.4194 66.8309 19.6957 66.8134 19.9742Z" fill="#C6CF65"/>
<path d="M61.9319 25.3693H61.9121L58.6108 24.4014C58.5955 24.3968 58.5825 24.3867 58.5743 24.373C58.5661 24.3593 58.5632 24.343 58.5664 24.3273L58.7466 23.3718C58.7502 23.3559 58.7594 23.3418 58.7726 23.3323C58.7858 23.3227 58.802 23.3183 58.8182 23.3199L64.5368 23.8137C64.5453 23.8144 64.5535 23.8166 64.5611 23.8205C64.5686 23.8243 64.5753 23.8296 64.5808 23.836C64.5863 23.8424 64.5905 23.8499 64.5932 23.8579C64.5958 23.866 64.5968 23.8744 64.5961 23.8829L64.5319 24.8533C64.5303 24.8679 64.5242 24.8817 64.5145 24.8927C64.5048 24.9037 64.4919 24.9115 64.4776 24.915L61.9417 25.3693H61.9319ZM58.7046 24.2903L61.9343 25.236L64.4035 24.7965L64.4603 23.9421L58.8651 23.4483L58.7046 24.2903Z" fill="white"/>
<path d="M56.8255 17.421L56.3564 17.4383C56.2415 17.4441 56.129 17.4732 56.0257 17.5238C55.9224 17.5745 55.8306 17.6457 55.7557 17.733C55.6809 17.8203 55.6246 17.922 55.5903 18.0318C55.556 18.1416 55.5445 18.2572 55.5563 18.3717C55.7341 20.1421 55.8452 21.5964 55.907 22.8359C56.3223 22.6211 56.7231 22.3794 57.107 22.1125C57.107 22.1125 57.5687 19.6457 56.8255 17.421Z" fill="#263238"/>
<path d="M65.9269 18.7026C65.7195 18.6384 65.4776 18.5643 65.2158 18.4878C65.4356 18.9816 65.7788 21.3027 65.4356 23.0558C65.6765 23.2514 65.9558 23.3944 66.2553 23.4755C66.5278 22.3238 66.7151 21.1535 66.8158 19.9742C66.8309 19.6935 66.7516 19.4157 66.5905 19.1853C66.4294 18.9548 66.1958 18.7849 65.9269 18.7026Z" fill="#263238"/>
<path d="M64.3393 18.2409C63.9516 18.1396 63.5492 18.0384 63.1566 17.952C61.8531 17.6936 60.5328 17.5286 59.2059 17.4581C58.712 17.4211 58.2182 17.4063 57.7614 17.4038C58.0701 17.952 58.4651 20.4557 58.2972 22.0088C60.8034 22.7323 64.5442 22.8286 64.5442 22.8286C64.5442 22.8286 64.9912 19.789 64.3393 18.2409Z" fill="#263238"/>
<path d="M60.1541 13.0729C60.2454 14.3741 60.2059 16.7297 59.2133 17.4655C59.2133 17.4655 59.6652 18.9693 61.7714 20.0606C63.4677 19.4754 63.1566 17.9544 63.1566 17.9544C61.7837 17.4408 61.9492 16.3964 62.3195 15.4408L60.1541 13.0729Z" fill="#FFB573"/>
<path opacity="0.2" d="M61.0354 14.0383L62.3169 15.4384C62.2272 15.6604 62.1578 15.8902 62.1095 16.1248C61.5787 15.9791 60.9095 15.2927 60.9219 14.7198C60.9194 14.4877 60.9578 14.2571 61.0354 14.0383Z" fill="black"/>
<path d="M60.3516 9.75672C59.7023 11.7938 59.3813 12.6432 59.9887 14.0555C60.9047 16.179 63.5468 16.5247 64.7937 14.7321C65.9172 13.1099 66.7937 10.053 65.1542 8.50238C64.7942 8.15941 64.3526 7.91409 63.8712 7.78971C63.3898 7.66532 62.8846 7.66598 62.4035 7.79163C61.9224 7.91728 61.4814 8.16374 61.1223 8.50766C60.7632 8.85157 60.4979 9.28151 60.3516 9.75672Z" fill="#FFB573"/>
<path d="M60.2947 8.18394L59.7244 11.542C61.4207 10.9692 64.5615 9.56668 64.9812 8.77901C65.759 7.28763 61.5812 7.07282 60.2947 8.18394Z" fill="#263238"/>
<path d="M59.317 7.52462C59.1516 6.52214 57.9985 4.89495 59.475 4.0258C60.9516 3.15665 65.927 3.91222 66.4208 4.80606C67.3418 6.53448 67.3912 9.07773 67.3912 9.07773C67.3912 9.07773 63.0677 7.3666 59.317 7.52462Z" fill="#C6CF65"/>
<path d="M58.8825 6.32706C59.0424 6.72678 59.1663 7.13994 59.2529 7.56165C59.406 7.50733 62.4628 7.3493 64.3764 8.09499C65.433 8.51577 66.515 8.86957 67.616 9.15427C67.616 9.15427 67.4629 8.08512 67.2999 7.35671C67.137 6.6283 62.2826 5.47026 58.8825 6.32706Z" fill="#C6CF65"/>
<path opacity="0.3" d="M58.8825 6.32706C59.0424 6.72678 59.1663 7.13994 59.2529 7.56165C59.406 7.50733 62.4628 7.3493 64.3764 8.09499C65.433 8.51577 66.515 8.86957 67.616 9.15427C67.616 9.15427 67.4629 8.08512 67.2999 7.35671C67.137 6.6283 62.2826 5.47026 58.8825 6.32706Z" fill="white"/>
<path d="M57.8455 8.08513C60.6233 7.00857 63.8135 7.96415 66.416 9.35429C69.1592 10.8185 72.6259 9.53948 73.1544 9.81849C72.8827 9.57158 72.5247 9.62343 71.4259 9.6901C70.3271 9.75677 68.7419 9.53701 67.5765 8.86293C65.8373 7.7697 63.8327 7.17207 61.7789 7.1345C58.7393 7.01845 55.5911 8.68761 54.3491 10.4185C55.2232 10.1099 56.1195 8.75922 57.8455 8.08513Z" fill="#C6CF65"/>
<path d="M64.085 31.7275C64.085 31.7275 63.7368 48.4068 62.7886 54.9106C61.801 61.6761 59.6824 76.6122 59.6824 76.6122H56.7688C56.7688 76.6122 56.8355 61.4638 57.4058 54.7698C58.0231 47.4734 57.7268 30.9398 57.7268 30.9398L64.085 31.7275Z" fill="#C6CF65"/>
<path d="M56.517 76.7158H59.9344L60.1862 75.6244L56.359 75.4911L56.517 76.7158Z" fill="#C6CF65"/>
<path opacity="0.3" d="M56.517 76.7158H59.9344L60.1862 75.6244L56.359 75.4911L56.517 76.7158Z" fill="black"/>
<path opacity="0.2" d="M59.833 35.3622C61.4355 39.9178 58.7639 47.5327 57.6478 50.3525C57.8034 45.9302 57.8108 40.503 57.7886 36.5252C58.3861 34.3325 59.0948 33.2708 59.833 35.3622Z" fill="black"/>
<path d="M61.7936 31.4436C61.7936 31.4436 57.7071 48.3327 55.5417 53.639C52.9713 59.9477 44.4304 70.1973 44.4304 70.1973L41.8674 68.7627C41.8674 68.7627 48.0601 56.6637 49.8354 53.3822C53.6206 46.3994 52.5095 35.1572 55.4009 30.6658L61.7936 31.4436Z" fill="#C6CF65"/>
<path d="M41.1266 68.8762L44.2477 70.7602L45.1712 69.9799L41.6032 67.5972L41.1266 68.8762Z" fill="#C6CF65"/>
<path opacity="0.3" d="M41.1266 68.8762L44.2477 70.7602L45.1712 69.9799L41.6032 67.5972L41.1266 68.8762Z" fill="black"/>
<path d="M63.3195 11.5197C63.2553 11.6827 63.2924 11.8456 63.3961 11.8876C63.4998 11.9296 63.643 11.8308 63.7022 11.6678C63.7615 11.5049 63.7319 11.3419 63.6257 11.2999C63.5195 11.258 63.3812 11.3567 63.3195 11.5197Z" fill="#263238"/>
<path d="M65.1491 12.2309C65.0874 12.3939 65.122 12.5593 65.2282 12.5988C65.3343 12.6383 65.4751 12.542 65.5343 12.3815C65.5936 12.221 65.5615 12.0531 65.4553 12.0136C65.3491 11.9741 65.2133 12.0704 65.1491 12.2309Z" fill="#263238"/>
<path d="M65.406 12.0037L65.8381 12.0432C65.8381 12.0432 65.5196 12.2827 65.406 12.0037Z" fill="#263238"/>
<path d="M64.4727 12.3049C64.4726 12.73 64.5316 13.153 64.648 13.5617C64.5425 13.5892 64.4323 13.593 64.3252 13.573C64.218 13.5529 64.1167 13.5094 64.0283 13.4457L64.4727 12.3049Z" fill="#ED893E"/>
<path d="M62.8973 13.7371C62.9724 13.7785 63.0499 13.8156 63.1294 13.8482C63.1418 13.8516 63.155 13.8502 63.1664 13.8444C63.1779 13.8386 63.1868 13.8288 63.1914 13.8168C63.196 13.8048 63.196 13.7915 63.1914 13.7795C63.1868 13.7675 63.1779 13.7577 63.1664 13.7519C62.9629 13.6787 62.7797 13.5581 62.632 13.4001C62.4843 13.2421 62.3763 13.0512 62.317 12.8432C62.3137 12.8302 62.3054 12.819 62.294 12.8119C62.2825 12.8049 62.2688 12.8025 62.2556 12.8054C62.2425 12.8083 62.231 12.8162 62.2236 12.8274C62.2161 12.8386 62.2133 12.8522 62.2158 12.8655C62.2656 13.0488 62.3516 13.2203 62.4686 13.37C62.5856 13.5197 62.7314 13.6445 62.8973 13.7371Z" fill="#263238"/>
<path d="M59.1294 11.3123C59.0901 11.7237 59.2153 12.1338 59.4776 12.4531C59.8307 12.8753 60.3146 12.6358 60.4652 12.142C60.6109 11.6975 60.6035 10.942 60.1245 10.7025C60.0197 10.654 59.9045 10.6322 59.7892 10.6389C59.674 10.6456 59.5622 10.6807 59.4637 10.7411C59.3653 10.8014 59.2832 10.8851 59.2249 10.9848C59.1666 11.0844 59.1338 11.197 59.1294 11.3123Z" fill="#FFB573"/>
<path d="M63.0725 10.4531C63.0856 10.4705 63.1041 10.4831 63.1251 10.4889C63.1461 10.4947 63.1684 10.4934 63.1886 10.4852C63.6306 10.3222 64.1343 10.6655 64.1392 10.6679C64.1615 10.6833 64.189 10.6892 64.2156 10.6844C64.2422 10.6795 64.2658 10.6643 64.2812 10.642C64.2966 10.6197 64.3025 10.5923 64.2976 10.5656C64.2928 10.539 64.2775 10.5154 64.2553 10.5C64.2306 10.4827 63.6577 10.0951 63.117 10.2951C63.0917 10.3046 63.0711 10.3235 63.0595 10.348C63.048 10.3724 63.0465 10.4004 63.0553 10.4259C63.0595 10.4359 63.0654 10.445 63.0725 10.4531Z" fill="#263238"/>
<path d="M66.2628 11.295C66.2821 11.3073 66.305 11.3127 66.3278 11.3103C66.3506 11.308 66.3719 11.2979 66.3882 11.2819C66.4045 11.2658 66.4149 11.2447 66.4177 11.222C66.4205 11.1993 66.4155 11.1763 66.4035 11.1567C66.3271 11.0139 66.2179 10.8913 66.0848 10.799C65.9517 10.7067 65.7986 10.6474 65.6381 10.6259C65.611 10.6245 65.5844 10.6338 65.5641 10.6518C65.5438 10.6698 65.5314 10.6951 65.5295 10.7222C65.5285 10.7355 65.5301 10.7488 65.5343 10.7615C65.5384 10.7742 65.5451 10.7859 65.5538 10.796C65.5625 10.8061 65.5731 10.8144 65.5851 10.8203C65.597 10.8263 65.61 10.8299 65.6233 10.8308C65.7504 10.8491 65.8713 10.8974 65.9761 10.9717C66.0808 11.046 66.1664 11.1441 66.2258 11.258C66.2334 11.2743 66.2465 11.2874 66.2628 11.295Z" fill="#263238"/>
<path d="M42.7167 73.4072H42.7439C42.7919 73.4091 42.8396 73.3991 42.8827 73.378C42.9258 73.3569 42.963 73.3253 42.9908 73.2862C43.0122 73.2641 43.0271 73.2364 43.0336 73.2063C43.0401 73.1762 43.0382 73.1449 43.0279 73.1158C42.9439 72.8541 42.1908 72.6541 42.1044 72.622C42.095 72.6198 42.0852 72.6202 42.076 72.6233C42.0668 72.6263 42.0587 72.6319 42.0525 72.6393C42.047 72.6477 42.0441 72.6576 42.0441 72.6677C42.0441 72.6778 42.047 72.6876 42.0525 72.6961C42.1834 72.9554 42.4427 73.3603 42.7167 73.4072ZM42.1982 72.7776C42.497 72.864 42.8871 73.0245 42.939 73.1603C42.9427 73.1733 42.9429 73.187 42.9394 73.2001C42.9359 73.2131 42.929 73.225 42.9192 73.2344C42.9005 73.2614 42.8754 73.2832 42.846 73.2979C42.8167 73.3125 42.7841 73.3196 42.7513 73.3183C42.5933 73.2986 42.3957 73.0961 42.1982 72.7776Z" fill="#C6CF65"/>
<path d="M42.1537 72.7528C42.4179 72.8022 42.9241 72.7652 43.055 72.5849C43.0806 72.5536 43.0947 72.5143 43.0947 72.4738C43.0947 72.4333 43.0806 72.394 43.055 72.3627C43.0326 72.3308 43.0036 72.3041 42.9699 72.2845C42.9362 72.2648 42.8987 72.2528 42.8599 72.2491C42.5488 72.2145 42.0871 72.6318 42.0673 72.6491C42.0613 72.6552 42.0569 72.6626 42.0543 72.6708C42.0517 72.6789 42.0511 72.6876 42.0525 72.696C42.0546 72.7049 42.0589 72.7131 42.0649 72.72C42.0709 72.7269 42.0785 72.7322 42.0871 72.7355L42.1537 72.7528ZM42.855 72.3528C42.8764 72.3567 42.8968 72.3648 42.9151 72.3766C42.9333 72.3885 42.949 72.4039 42.9611 72.4219C43.0007 72.4763 42.9883 72.5059 42.9611 72.5257C42.8723 72.6466 42.45 72.701 42.1908 72.659C42.3658 72.4937 42.5872 72.386 42.8253 72.3503L42.855 72.3528Z" fill="#C6CF65"/>
<path d="M60.1541 79.6517C60.3384 79.6686 60.5229 79.6224 60.6776 79.5208C60.7114 79.49 60.7374 79.4514 60.7533 79.4085C60.7692 79.3655 60.7745 79.3194 60.7689 79.2739C60.7677 79.2457 60.7591 79.2182 60.744 79.1944C60.7288 79.1705 60.7076 79.1511 60.6825 79.1381C60.4183 78.9924 59.559 79.4319 59.4627 79.4838C59.4533 79.4884 59.4455 79.4959 59.4406 79.5052C59.4357 79.5146 59.434 79.5252 59.4356 79.5356C59.438 79.5458 59.4432 79.5551 59.4506 79.5625C59.458 79.5699 59.4674 79.5752 59.4775 79.5776C59.7002 79.6236 59.9267 79.6484 60.1541 79.6517ZM60.5393 79.2072C60.5715 79.2053 60.6037 79.2113 60.6331 79.2245C60.6435 79.2299 60.6522 79.2381 60.6583 79.2481C60.6644 79.2581 60.6677 79.2696 60.6677 79.2813C60.6725 79.3113 60.6696 79.342 60.6593 79.3705C60.6489 79.399 60.6314 79.4244 60.6084 79.4443C60.4776 79.5628 60.1146 79.5825 59.6454 79.5035C59.9235 79.3506 60.2259 79.247 60.5393 79.1973V79.2072Z" fill="#C6CF65"/>
<path d="M59.4874 79.5776H59.5072C59.7541 79.4615 60.2726 78.9948 60.2331 78.7529C60.2331 78.6936 60.1813 78.622 60.0405 78.6072C59.9887 78.6022 59.9364 78.6082 59.887 78.6248C59.8377 78.6414 59.7924 78.6682 59.7541 78.7035C59.4825 78.9282 59.4331 79.5084 59.4306 79.5331C59.4301 79.5422 59.4319 79.5512 59.4358 79.5594C59.4397 79.5676 59.4455 79.5747 59.4528 79.58C59.4644 79.5825 59.4764 79.5817 59.4874 79.5776ZM60.001 78.7035H60.0306C60.1245 78.7035 60.1294 78.7504 60.1319 78.7627C60.1566 78.9109 59.8109 79.2763 59.5491 79.4343C59.5693 79.1898 59.6651 78.9577 59.8232 78.7701C59.8724 78.7271 59.9356 78.7034 60.001 78.7035Z" fill="#C6CF65"/>
<path d="M63.5739 11.295L64.0085 11.3346C64.0085 11.3346 63.69 11.5568 63.5739 11.295Z" fill="#263238"/>
<path d="M72.7197 50.2068L59.0405 45.5153L64.9467 34.0361L75.0975 37.5152L72.7197 50.2068Z" fill="#263238"/>
<path d="M73.1468 50.3525L70.9814 49.6093L81.3988 42.1622L81.3791 43.1178L73.1468 50.3525Z" fill="#263238"/>
<path d="M64.0677 44.508C61.9171 44.5127 59.84 43.7258 58.2323 42.2973C56.6247 40.8688 55.5991 38.8986 55.351 36.7623C55.1029 34.6261 55.6497 32.4732 56.8872 30.7143C58.1246 28.9554 59.9662 27.7134 62.0606 27.2252C64.1551 26.737 66.356 27.0367 68.2436 28.0672C70.1313 29.0976 71.5736 30.7868 72.2957 32.8126C73.0178 34.8383 72.969 37.059 72.1587 39.0511C71.3485 41.0432 69.8334 42.6675 67.9023 43.6141C66.7087 44.1997 65.3972 44.5054 64.0677 44.508ZM64.0529 27.7991C62.0503 27.7966 60.12 28.5471 58.645 29.9017C57.1701 31.2562 56.2583 33.1158 56.0906 35.1114C55.923 37.1069 56.5117 39.0926 57.74 40.6742C58.9683 42.2559 60.7464 43.3179 62.7213 43.6496C64.6962 43.9813 66.7237 43.5583 68.4012 42.4646C70.0788 41.371 71.2839 39.6866 71.7773 37.7458C72.2708 35.8049 72.0165 33.7495 71.0649 31.9874C70.1134 30.2254 68.5341 28.8855 66.6406 28.2336C65.8081 27.9461 64.9336 27.7992 64.0529 27.7991Z" fill="#263238"/>
<path d="M80.8777 39.4585L81.0407 42.9351L83.9988 44.7722L80.8777 39.4585Z" fill="#263238"/>
<path d="M56.9589 29.1077L58.8033 28.12L58.3589 30.2657C58.3589 30.2657 57.0354 30.6731 56.4008 30.0435L56.6625 29.441C56.7206 29.2995 56.8251 29.1819 56.9589 29.1077Z" fill="#FFB573"/>
<path d="M56.149 21.3644C56.0009 21.5496 55.828 21.7768 55.6552 21.9891C55.4823 22.2015 55.3342 22.4286 55.1811 22.6533C54.8749 23.1002 54.5687 23.5496 54.2947 24.0138C53.7413 24.9139 53.2884 25.8719 52.944 26.8707L52.8403 27.1966C52.8267 27.239 52.8184 27.283 52.8156 27.3275C52.8152 27.4177 52.8467 27.5051 52.9045 27.5744C53.1931 27.8865 53.5496 28.1282 53.9465 28.2806C54.4312 28.4909 54.9315 28.6635 55.4428 28.7966C55.9638 28.9423 56.5169 29.0608 57.0453 29.1621L56.991 30.251C55.7711 30.3151 54.5489 30.1825 53.3712 29.8584C53.051 29.7625 52.7396 29.6394 52.4403 29.4905C52.0921 29.3211 51.7763 29.0921 51.507 28.8139C51.1702 28.4659 50.9509 28.0213 50.8798 27.5423C50.8438 27.3033 50.8438 27.0603 50.8798 26.8213C50.8798 26.7694 50.8995 26.7003 50.9094 26.6608L50.9366 26.5472L50.9934 26.3151C51.0625 26.004 51.1637 25.7126 51.2551 25.4139C51.3465 25.1151 51.465 24.8287 51.5884 24.5497C51.8248 23.9888 52.0936 23.4422 52.3934 22.9126C52.6897 22.3867 53.0008 21.8755 53.3416 21.3817C53.5119 21.1348 53.6872 20.8879 53.8675 20.641C54.0477 20.394 54.228 20.1718 54.4453 19.9175L56.149 21.3644Z" fill="#FFB573"/>
<path d="M56.2379 17.4532C53.707 17.9816 52.5465 21.0434 52.5465 21.0434L55.5564 23.8681C55.5564 23.8681 56.9219 23.2879 57.112 22.1125C57.3046 20.8878 56.9416 17.305 56.2379 17.4532Z" fill="#263238"/>
<path d="M60.5886 28.4113L60.1194 30.1867L58.3589 30.2558L58.8033 28.1101L60.5886 28.4113Z" fill="#FFB573"/>
</svg>
