<svg width="19" height="19" viewBox="0 0 19 19" fill="none" xmlns="http://www.w3.org/2000/svg">
<path d="M17.2627 7.94953H16.625V7.91668H9.5V11.0833H13.9741C13.3214 12.9267 11.5674 14.25 9.5 14.25C6.87681 14.25 4.75 12.1232 4.75 9.50001C4.75 6.87682 6.87681 4.75001 9.5 4.75001C10.7109 4.75001 11.8125 5.2068 12.6512 5.95295L14.8905 3.71372C13.4765 2.39599 11.5852 1.58334 9.5 1.58334C5.12802 1.58334 1.58333 5.12803 1.58333 9.50001C1.58333 13.872 5.12802 17.4167 9.5 17.4167C13.872 17.4167 17.4167 13.872 17.4167 9.50001C17.4167 8.9692 17.362 8.45105 17.2627 7.94953Z" fill="#FFC107"/>
<path d="M2.49612 5.8152L5.09714 7.72272C5.80094 5.98026 7.50539 4.75001 9.5 4.75001C10.7109 4.75001 11.8125 5.2068 12.6512 5.95295L14.8905 3.71372C13.4765 2.39599 11.5852 1.58334 9.5 1.58334C6.45921 1.58334 3.82217 3.30007 2.49612 5.8152Z" fill="#FF3D00"/>
<path d="M9.5 17.4167C11.5449 17.4167 13.4029 16.6341 14.8077 15.3615L12.3575 13.2881C11.536 13.9129 10.5321 14.2508 9.5 14.25C7.44087 14.25 5.69248 12.937 5.03381 11.1047L2.45219 13.0938C3.76239 15.6576 6.42319 17.4167 9.5 17.4167Z" fill="#4CAF50"/>
<path d="M17.2627 7.94951H16.625V7.91666H9.5V11.0833H13.9741C13.6619 11.9607 13.0995 12.7273 12.3563 13.2885L12.3575 13.2877L14.8077 15.3611C14.6344 15.5186 17.4167 13.4583 17.4167 9.49999C17.4167 8.96918 17.362 8.45103 17.2627 7.94951Z" fill="#1976D2"/>
</svg>
