<svg width="197" height="147" viewBox="0 0 197 147" fill="none" xmlns="http://www.w3.org/2000/svg">
<path d="M196.473 128.341H0V128.439H196.473V128.341Z" fill="#EBEBEB"/>
<path d="M168.853 131.01H130.502V131.108H168.853V131.01Z" fill="#EBEBEB"/>
<path d="M131.9 133.276H113.562V133.374H131.9V133.276Z" fill="#EBEBEB"/>
<path d="M176.787 134.648H169.246V134.746H176.787V134.648Z" fill="#EBEBEB"/>
<path d="M86.0553 133.323H49.6959V133.421H86.0553V133.323Z" fill="#EBEBEB"/>
<path d="M46.1987 133.323H38.379V133.421H46.1987V133.323Z" fill="#EBEBEB"/>
<path d="M35.6206 131.669H22.7084V131.767H35.6206V131.669Z" fill="#EBEBEB"/>
<path d="M93.1283 110.858H17.2542C16.6598 110.857 16.0901 110.62 15.6702 110.201C15.2503 109.781 15.0144 109.212 15.0144 108.619V2.21872C15.0196 1.62916 15.2577 1.06545 15.6771 0.650022C16.0965 0.234596 16.6632 0.00100994 17.2542 0H93.1283C93.7234 0 94.2941 0.235822 94.7149 0.655589C95.1357 1.07536 95.3721 1.64468 95.3721 2.23832V108.619C95.3721 109.213 95.1357 109.782 94.7149 110.202C94.2941 110.622 93.7234 110.858 93.1283 110.858ZM17.2542 0.0784003C16.6859 0.0794387 16.1412 0.305394 15.7397 0.706669C15.3382 1.10794 15.1127 1.65175 15.1127 2.21872V108.619C15.1127 109.186 15.3382 109.73 15.7397 110.131C16.1412 110.533 16.6859 110.759 17.2542 110.76H93.1283C93.697 110.759 94.2421 110.533 94.6443 110.132C95.0464 109.73 95.2728 109.187 95.2738 108.619V2.21872C95.2728 1.65139 95.0464 1.10759 94.6443 0.70643C94.2421 0.305266 93.697 0.0794365 93.1283 0.0784003H17.2542Z" fill="#EBEBEB"/>
<path d="M178.127 110.858H102.249C101.654 110.857 101.084 110.62 100.663 110.201C100.243 109.781 100.006 109.213 100.005 108.619V2.21872C100.011 1.6288 100.25 1.06509 100.67 0.649776C101.09 0.234459 101.657 0.00099893 102.249 0H178.127C178.717 0.00204016 179.283 0.236082 179.701 0.651397C180.12 1.06671 180.357 1.62984 180.363 2.21872V108.619C180.363 109.212 180.127 109.78 179.708 110.199C179.289 110.619 178.72 110.856 178.127 110.858ZM102.249 0.0784003C101.68 0.0794365 101.135 0.305266 100.733 0.70643C100.331 1.10759 100.104 1.65139 100.103 2.21872V108.619C100.104 109.187 100.331 109.73 100.733 110.132C101.135 110.533 101.68 110.759 102.249 110.76H178.127C178.695 110.759 179.241 110.533 179.643 110.132C180.045 109.73 180.271 109.187 180.272 108.619V2.21872C180.271 1.65139 180.045 1.10759 179.643 0.70643C179.241 0.305266 178.695 0.0794365 178.127 0.0784003H102.249Z" fill="#EBEBEB"/>
<path d="M21.0384 79.4465H67.5555V76.4399H21.0384V79.4465Z" fill="#EBEBEB"/>
<path d="M21.9579 128.341H63.8539L63.8539 79.4467H21.9579L21.9579 128.341Z" fill="#EBEBEB"/>
<path d="M64.8913 79.4465H63.8539V128.341H64.8913V79.4465Z" fill="#F0F0F0"/>
<path d="M63.8539 79.4465H21.954V81.5359L63.8539 80.4892V79.4465Z" fill="#E6E6E6"/>
<path d="M102.642 128.341H144.538V79.4467H102.642V128.341Z" fill="#EBEBEB"/>
<path d="M145.575 79.4465H144.538V128.341H145.575V79.4465Z" fill="#F0F0F0"/>
<path d="M144.538 79.4465H102.642V81.5359L144.538 80.4892V79.4465Z" fill="#E6E6E6"/>
<path d="M148.939 76.4399H67.5555V79.4466H148.939V76.4399Z" fill="#F5F5F5"/>
<path d="M57.0637 69.2508H98.3703C98.7771 69.26 99.1809 69.1798 99.5532 69.0159C99.9254 68.852 100.257 68.6084 100.524 68.3025C100.792 67.9965 100.988 67.6356 101.1 67.2453C101.212 66.855 101.237 66.445 101.172 66.0443L97.9813 41.1013C97.8507 40.2276 97.4161 39.4276 96.7538 38.8414C96.0914 38.2551 95.2434 37.92 94.3583 37.8947H53.0478C52.6409 37.8857 52.237 37.9659 51.8646 38.1298C51.4922 38.2936 51.1604 38.5371 50.8928 38.843C50.6251 39.1489 50.4281 39.5097 50.3157 39.9C50.2033 40.2902 50.1782 40.7003 50.2422 41.1013L53.4408 66.0443C53.5721 66.9176 54.0069 67.7172 54.6691 68.3033C55.3313 68.8894 56.1789 69.2248 57.0637 69.2508Z" fill="#E0E0E0"/>
<path d="M71.0093 56.1853H80.2239L77.1039 76.4399H67.8893L71.0093 56.1853Z" fill="#E0E0E0"/>
<path d="M57.6217 69.2506H98.9243C99.3314 69.2604 99.7357 69.1806 100.108 69.017C100.481 68.8533 100.813 68.6098 101.081 68.3038C101.349 67.9977 101.546 67.6366 101.658 67.246C101.77 66.8555 101.795 66.4451 101.73 66.044L98.5392 41.1011C98.4078 40.2271 97.9725 39.427 97.3094 38.8408C96.6464 38.2546 95.7979 37.9197 94.9123 37.8945H53.6058C53.199 37.8853 52.7952 37.9655 52.4229 38.1294C52.0507 38.2933 51.7191 38.5369 51.4517 38.8429C51.1844 39.1489 50.9878 39.5098 50.8758 39.9C50.7639 40.2903 50.7394 40.7003 50.8041 41.1011L53.9948 66.044C54.1263 66.918 54.5616 67.7181 55.2246 68.3043C55.8876 68.8905 56.7361 69.2254 57.6217 69.2506Z" fill="#E6E6E6"/>
<path d="M73.7915 37.8948H79.8154L90.6568 62.434H84.629L73.7915 37.8948Z" fill="#F5F5F5"/>
<path d="M69.6813 37.8948H72.094L82.9315 62.434H80.5188L69.6813 37.8948Z" fill="#F5F5F5"/>
<path d="M101.266 62.4338L101.73 66.0442C101.794 66.4451 101.769 66.8552 101.657 67.2455C101.544 67.6357 101.347 67.9965 101.079 68.3024C100.812 68.6083 100.48 68.8518 100.108 69.0157C99.7352 69.1795 99.3313 69.2598 98.9244 69.2507H57.6218C56.7362 69.2256 55.8877 68.8906 55.2247 68.3044C54.5616 67.7182 54.1263 66.9182 53.9949 66.0442L53.5351 62.4338H101.266Z" fill="#F0F0F0"/>
<path d="M41.3143 69.8034C40.8759 68.2571 40.7886 66.6327 41.0589 65.0485C41.2983 63.4482 41.8015 61.8984 42.5482 60.4621C42.7211 60.0975 42.9411 59.7643 43.1494 59.4115L43.4677 58.898C43.5816 58.7294 43.7034 58.5687 43.8253 58.408C44.0728 58.0905 44.3125 57.769 44.564 57.4554C44.8155 57.1418 45.1181 56.8714 45.397 56.5852L45.8214 56.1579C45.9668 56.0246 46.124 55.8992 46.2812 55.7659C46.5877 55.5111 46.902 55.2641 47.2164 55.0211C47.8698 54.5714 48.5524 54.1655 49.2597 53.8059C48.7921 54.4605 48.2577 55.0172 47.7822 55.6209C47.5504 55.9305 47.3186 56.2324 47.0789 56.5264C46.9649 56.6793 46.8392 56.8165 46.7252 56.9693L46.403 57.4358C46.1869 57.7416 45.9668 58.0473 45.7428 58.3453C45.5189 58.6432 45.3499 58.9803 45.1495 59.2939C45.0513 59.4507 44.9412 59.6036 44.8469 59.7604L44.5797 60.2504C44.4029 60.5757 44.1868 60.8854 44.0453 61.2225C43.3614 62.5417 42.7934 63.9175 42.3478 65.3346C41.8746 66.7917 41.5288 68.2869 41.3143 69.8034Z" fill="#E6E6E6"/>
<path d="M33.0508 68.6587C32.85 67.1429 32.5214 65.6467 32.0684 64.186C31.6376 62.7643 31.0855 61.382 30.4181 60.0543C30.2687 59.7172 30.0644 59.4036 29.8954 59.0782L29.6322 58.5843C29.5418 58.4236 29.4318 58.2746 29.3375 58.1139C29.141 57.7964 28.9445 57.4828 28.752 57.1613C28.5594 56.8399 28.3158 56.5537 28.1036 56.2401L27.7853 55.7737C27.6753 55.6169 27.5496 55.4757 27.4356 55.3268C27.2038 55.0289 26.9719 54.7231 26.744 54.4134C26.2764 53.8019 25.7499 53.2374 25.2862 52.5789C25.9909 52.9465 26.6697 53.3617 27.3177 53.8215C27.6281 54.0645 27.9386 54.3154 28.2451 54.5741C28.3983 54.6996 28.5555 54.825 28.7009 54.9661L29.1174 55.3934C29.3977 55.6835 29.6728 55.9775 29.9426 56.2754C30.1902 56.589 30.4259 56.9144 30.6696 57.2358C30.7874 57.4005 30.9092 57.5612 31.0193 57.7297L31.3336 58.2472C31.5301 58.6 31.7541 58.9371 31.923 59.3056C32.6507 60.7467 33.1353 62.2976 33.3573 63.8959C33.6126 65.4864 33.5079 67.1138 33.0508 68.6587Z" fill="#E6E6E6"/>
<path d="M33.1764 69.384C33.2196 67.6122 33.1764 65.8991 33.0624 64.2018C32.9396 62.5163 32.694 60.842 32.3276 59.192C32.1783 58.3649 31.9111 57.5731 31.6989 56.7577C31.5653 56.3657 31.4199 55.9737 31.3059 55.5817C31.1739 55.1823 31.0217 54.7898 30.8501 54.4057C30.2568 52.8103 29.3923 51.3442 28.571 49.7605C29.968 50.8888 31.1431 52.2658 32.0368 53.8216L32.3826 54.4018C32.4966 54.5978 32.5752 54.7938 32.6734 55.0133C32.866 55.4053 33.0664 55.8365 33.2235 56.252C33.5281 57.0845 33.7788 57.9355 33.9741 58.8C34.3592 60.5599 34.4915 62.3655 34.367 64.1626C34.2753 65.9586 33.8725 67.7252 33.1764 69.384Z" fill="#E6E6E6"/>
<path d="M40.6385 70.4268C39.7194 68.8051 38.9903 67.0834 38.4655 65.2955C37.9275 63.5149 37.5333 61.6941 37.2866 59.8507C37.1491 58.9334 37.0823 58.0043 37.0076 57.0753C36.933 56.1463 36.9251 55.2172 36.9762 54.2843C37.0163 52.421 37.2668 50.5683 37.7228 48.761C37.9704 50.6191 38.0765 52.4301 38.3044 54.249C38.383 55.1506 38.5126 56.0483 38.603 56.9459L38.7798 58.2905C38.827 58.7413 38.8899 59.1882 38.9567 59.6351C39.2003 61.4252 39.4701 63.2153 39.7661 65.0055L40.6385 70.4268Z" fill="#E6E6E6"/>
<path d="M40.2691 70.07C39.1685 68.5631 38.2455 66.9347 37.5185 65.217C36.7743 63.5129 36.171 61.7508 35.7149 59.9485C35.4673 59.0509 35.2944 58.1336 35.1176 57.2045C34.9408 56.2755 34.8229 55.37 34.7679 54.437C34.593 52.5822 34.6286 50.7136 34.874 48.8667C35.3298 50.6817 35.6599 52.4692 36.0528 54.2371C36.2375 55.123 36.4694 56.0011 36.6619 56.8831L36.992 58.2002C37.0902 58.6393 37.2042 59.0783 37.322 59.5134C37.7661 61.2657 38.2455 63.0101 38.7406 64.7584L40.2691 70.07Z" fill="#E6E6E6"/>
<path d="M39.5423 69.6741C38.3056 68.2783 37.235 66.7445 36.3516 65.1034C35.4469 63.4703 34.678 61.7659 34.0528 60.0074C33.7227 59.1371 33.4673 58.2394 33.2041 57.3496C32.9408 56.4598 32.7365 55.5464 32.5911 54.6252C32.2411 52.7941 32.1 50.9294 32.1706 49.0667C32.7954 50.8306 33.2787 52.5946 33.8721 54.3038C34.1393 55.1701 34.4536 56.0207 34.7287 56.8792L35.1806 58.161C35.3181 58.5883 35.4753 59.0117 35.6364 59.435C36.2415 61.1402 36.882 62.8337 37.5461 64.531L39.5423 69.6741Z" fill="#E6E6E6"/>
<path d="M41.5698 69.2036C40.8517 67.7649 40.4638 66.1848 40.4342 64.578C40.3728 62.9613 40.5786 61.3456 41.0433 59.7956C41.1454 59.4036 41.3105 59.0312 41.4362 58.6509L41.6523 58.0865C41.7349 57.9022 41.8252 57.7219 41.9156 57.5416C42.0964 57.1809 42.2732 56.8203 42.4618 56.4675C42.6504 56.1147 42.898 55.7893 43.118 55.4561L43.456 54.9583C43.5738 54.7976 43.7074 54.6486 43.8489 54.4957C44.1083 54.19 44.3676 53.8881 44.6348 53.5902C45.1919 53.0265 45.788 52.5026 46.4188 52.0222C46.0769 52.7513 45.6565 53.3981 45.3028 54.0802C45.1299 54.4252 44.957 54.7662 44.7802 55.0994C44.6937 55.268 44.5955 55.4287 44.513 55.6012L44.2851 56.1186C44.1279 56.4597 43.9707 56.8007 43.8057 57.1339C43.6406 57.4671 43.5346 57.8317 43.4127 58.1766C43.3459 58.3491 43.2634 58.5177 43.2045 58.6901L43.0316 59.2193C42.9176 59.5721 42.7722 59.9171 42.6858 60.2738C42.2602 61.697 41.9578 63.1541 41.782 64.6289C41.5803 66.145 41.5093 67.6755 41.5698 69.2036Z" fill="#E6E6E6"/>
<path d="M41.5697 69.9171C40.5924 68.4185 39.8837 66.7618 39.4753 65.021C39.0438 63.2717 38.8639 61.47 38.9409 59.6702C38.9793 58.7681 39.0791 57.8697 39.2396 56.9811C39.3417 56.5381 39.4478 56.0991 39.5657 55.6639C39.6286 55.4483 39.6679 55.2249 39.7465 55.0132L39.9862 54.3782C40.5945 52.6939 41.5097 51.1363 42.6857 49.7839C42.1115 51.4083 41.6352 53.0655 41.2593 54.7467C41.156 55.156 41.076 55.5709 41.0196 55.9893C40.9607 56.4048 40.8821 56.8164 40.8192 57.2319C40.7563 58.0708 40.6306 58.8979 40.6267 59.7407C40.5569 61.4264 40.6068 63.115 40.776 64.7936C40.945 66.4871 41.2161 68.1805 41.5697 69.9171Z" fill="#E6E6E6"/>
<path d="M38.8821 67.675L34.1392 59.6116L33.5537 67.4673L38.8821 67.675Z" fill="#E6E6E6"/>
<path d="M46.6859 65.5032H28.4649L30.8501 76.44H44.3007L46.6859 65.5032Z" fill="#F5F5F5"/>
<path d="M35.3022 65.5032H28.4649L30.8501 76.44H34.4416L35.3022 65.5032Z" fill="#EBEBEB"/>
<path d="M163.753 90.4657H134.781C133.233 76.8084 136.077 62.128 143.174 48.4119C143.361 48.0521 143.642 47.7501 143.989 47.5387C144.335 47.3272 144.733 47.2144 145.139 47.2124H169.647C169.982 47.2117 170.311 47.2984 170.601 47.4639C170.892 47.6294 171.134 47.8678 171.304 48.1555C171.473 48.4433 171.564 48.7703 171.568 49.1041C171.572 49.4379 171.488 49.7669 171.325 50.0583C164.829 63.2962 162.263 77.3533 163.753 90.4657Z" fill="#E0E0E0"/>
<path d="M156.88 86.8711H124.957C124.002 86.8732 123.087 87.2526 122.412 87.9262C121.736 88.5999 121.356 89.513 121.354 90.4657H160.491C160.489 89.5117 160.108 88.5974 159.431 87.9235C158.754 87.2496 157.837 86.8711 156.88 86.8711Z" fill="#E0E0E0"/>
<path d="M142.691 128.341H140.915L136.525 90.4658H138.302L142.691 128.341Z" fill="#E0E0E0"/>
<path d="M168.142 128.341H166.366L161.977 90.4658H163.753L168.142 128.341Z" fill="#E0E0E0"/>
<path d="M145.056 128.341H146.836L151.226 90.4658H149.446L145.056 128.341Z" fill="#E0E0E0"/>
<path d="M119.609 128.341H121.385L125.775 90.4658H123.998L119.609 128.341Z" fill="#E0E0E0"/>
<path d="M166.916 5.22534H33.1097V29.792H166.916V5.22534Z" fill="#F5F5F5"/>
<path d="M32.0999 29.792H33.1097V5.22535H32.0999V29.792Z" fill="#EBEBEB"/>
<path d="M158.971 19.8627C119.762 26.4483 80.554 13.2771 41.3458 19.8627V15.1587C80.554 8.57306 119.762 21.7443 158.971 15.1587V19.8627Z" fill="#EBEBEB"/>
<path d="M98.2366 146.044C140.314 146.044 174.425 144.057 174.425 141.606C174.425 139.155 140.314 137.169 98.2366 137.169C56.1589 137.169 22.0481 139.155 22.0481 141.606C22.0481 144.057 56.1589 146.044 98.2366 146.044Z" fill="#F5F5F5"/>
<path d="M148.534 17.593H159.981C162.26 17.593 164.11 20.2547 162.786 22.9164H117.401C118.973 19.7804 116.163 17.593 114.591 17.593H148.534Z" fill="#4E9525"/>
<path d="M112.477 17.593H159.041C152.664 17.593 146.978 22.7478 146.334 29.1061L138.082 110.709C137.437 117.067 131.751 122.222 125.374 122.222H101.903C95.5295 122.222 90.9006 117.067 91.5254 110.709L99.7772 29.1061C100.414 22.7361 106.096 17.593 112.477 17.593Z" fill="#4E9525"/>
<path opacity="0.7" d="M112.477 17.593H159.041C152.664 17.593 146.978 22.7478 146.334 29.1061L138.082 110.709C137.437 117.067 131.751 122.222 125.374 122.222H101.903C95.5295 122.222 90.9006 117.067 91.5254 110.709L99.7772 29.1061C100.414 22.7361 106.096 17.593 112.477 17.593Z" fill="white"/>
<path d="M115.004 110.709C115.065 110.232 115.022 109.748 114.879 109.29C114.736 108.831 114.495 108.409 114.173 108.052C113.851 107.694 113.456 107.411 113.014 107.22C112.572 107.029 112.094 106.935 111.613 106.945H65.0485C65.5302 106.935 66.0086 107.028 66.4508 107.219C66.8931 107.409 67.289 107.693 67.6113 108.05C67.9336 108.407 68.1748 108.83 68.3185 109.289C68.4621 109.748 68.5048 110.232 68.4436 110.709C67.7992 117.067 72.4477 122.222 78.8213 122.222H125.382C119.008 122.222 114.348 117.067 115.004 110.709Z" fill="#4E9525"/>
<path d="M67.5044 106.942H56.0578C55.0517 106.946 54.0869 107.342 53.3696 108.046C52.6523 108.749 52.2393 109.705 52.2188 110.709H107.774C107.794 109.705 108.207 108.749 108.924 108.046C109.642 107.342 110.607 106.946 111.613 106.942H67.5044Z" fill="#4E9525"/>
<path opacity="0.6" d="M67.5044 106.942H56.0578C55.0517 106.946 54.0869 107.342 53.3696 108.046C52.6523 108.749 52.2393 109.705 52.2188 110.709H107.774C107.794 109.705 108.207 108.749 108.924 108.046C109.642 107.342 110.607 106.946 111.613 106.942H67.5044Z" fill="white"/>
<g opacity="0.5">
<path opacity="0.5" d="M107.302 57.5965H103.789L104.147 54.0959H107.656L107.302 57.5965Z" fill="white"/>
<path opacity="0.5" d="M113.098 57.5965H109.589L109.943 54.0959H113.452L113.098 57.5965Z" fill="white"/>
<path opacity="0.5" d="M118.898 57.5965H115.385L115.738 54.0959H119.251L118.898 57.5965Z" fill="white"/>
<path opacity="0.5" d="M124.694 57.5965H121.181L121.538 54.0959H125.047L124.694 57.5965Z" fill="white"/>
<path opacity="0.5" d="M130.49 57.5965H126.981L127.334 54.0959H130.843L130.49 57.5965Z" fill="white"/>
<path opacity="0.5" d="M136.29 57.5965H132.777L133.13 54.0959H136.643L136.29 57.5965Z" fill="white"/>
<path opacity="0.5" d="M106.716 63.3824H103.207L103.561 59.8779H107.07L106.716 63.3824Z" fill="white"/>
<path opacity="0.5" d="M112.516 63.3824H109.004L109.357 59.8779H112.87L112.516 63.3824Z" fill="white"/>
<path opacity="0.5" d="M118.312 63.3824H114.799L115.157 59.8779H118.666L118.312 63.3824Z" fill="white"/>
<path opacity="0.5" d="M124.108 63.3824H120.599L120.953 59.8779H124.462L124.108 63.3824Z" fill="white"/>
<path opacity="0.5" d="M129.908 63.3824H126.395L126.749 59.8779H130.262L129.908 63.3824Z" fill="white"/>
<path opacity="0.5" d="M135.704 63.3824H132.191L132.545 59.8779H136.058L135.704 63.3824Z" fill="white"/>
<path opacity="0.5" d="M106.135 69.1644H102.622L102.976 65.6599H106.489L106.135 69.1644Z" fill="white"/>
<path opacity="0.5" d="M111.931 69.1644H108.418L108.772 65.6599H112.285L111.931 69.1644Z" fill="white"/>
<path opacity="0.5" d="M117.727 69.1644H114.218L114.571 65.6599H118.08L117.727 69.1644Z" fill="white"/>
<path opacity="0.5" d="M123.527 69.1644H120.014L120.368 65.6599H123.88L123.527 69.1644Z" fill="white"/>
<path opacity="0.5" d="M129.323 69.1644H125.81L126.163 65.6599H129.676L129.323 69.1644Z" fill="white"/>
<path opacity="0.5" d="M135.119 69.1644H131.61L131.963 65.6599H135.472L135.119 69.1644Z" fill="white"/>
<path opacity="0.5" d="M105.549 74.9464H102.036L102.39 71.4458H105.903L105.549 74.9464Z" fill="white"/>
<path opacity="0.5" d="M111.345 74.9464H107.836L108.19 71.4458H111.699L111.345 74.9464Z" fill="white"/>
<path opacity="0.5" d="M117.141 74.9464H113.632L113.986 71.4458H117.495L117.141 74.9464Z" fill="white"/>
<path opacity="0.5" d="M122.941 74.9464H119.428L119.782 71.4458H123.295L122.941 74.9464Z" fill="white"/>
<path opacity="0.5" d="M128.737 74.9464H125.228L125.582 71.4458H129.091L128.737 74.9464Z" fill="white"/>
<path opacity="0.5" d="M134.533 74.9464H131.024L131.378 71.4458H134.887L134.533 74.9464Z" fill="white"/>
<path opacity="0.5" d="M104.964 80.7323H101.455L101.809 77.2278H105.318L104.964 80.7323Z" fill="white"/>
<path opacity="0.5" d="M110.76 80.7323H107.251L107.605 77.2278H111.114L110.76 80.7323Z" fill="white"/>
<path opacity="0.5" d="M116.56 80.7323H113.047L113.401 77.2278H116.914L116.56 80.7323Z" fill="white"/>
<path opacity="0.5" d="M122.356 80.7323H118.843L119.2 77.2278H122.709L122.356 80.7323Z" fill="white"/>
<path opacity="0.5" d="M128.152 80.7323H124.643L124.996 77.2278H128.505L128.152 80.7323Z" fill="white"/>
<path opacity="0.5" d="M133.952 80.7323H130.439L130.792 77.2278H134.305L133.952 80.7323Z" fill="white"/>
<path opacity="0.5" d="M104.378 86.5145H100.869L101.223 83.01H104.732L104.378 86.5145Z" fill="white"/>
<path opacity="0.5" d="M110.178 86.5145H106.665L107.019 83.01H110.532L110.178 86.5145Z" fill="white"/>
<path opacity="0.5" d="M115.974 86.5145H112.461L112.819 83.01H116.328L115.974 86.5145Z" fill="white"/>
<path opacity="0.5" d="M121.77 86.5145H118.261L118.615 83.01H122.124L121.77 86.5145Z" fill="white"/>
<path opacity="0.5" d="M127.57 86.5145H124.057L124.411 83.01H127.924L127.57 86.5145Z" fill="white"/>
<path opacity="0.5" d="M133.366 86.5145H129.853L130.211 83.01H133.72L133.366 86.5145Z" fill="white"/>
</g>
<path d="M106.198 83.0099C106.152 83.4065 105.963 83.7731 105.667 84.0418C105.371 84.3105 104.987 84.4633 104.587 84.472C104.4 84.4758 104.214 84.4393 104.043 84.3651C103.871 84.2908 103.718 84.1805 103.593 84.0418C103.468 83.903 103.375 83.739 103.319 83.5609C103.263 83.3828 103.247 83.1949 103.27 83.0099C103.316 82.6133 103.505 82.2467 103.801 81.9785C104.097 81.7102 104.481 81.5585 104.882 81.5516C105.068 81.5473 105.254 81.5832 105.425 81.657C105.597 81.7308 105.75 81.8407 105.875 81.9792C106 82.1177 106.094 82.2815 106.15 82.4594C106.205 82.6372 106.222 82.825 106.198 83.0099Z" fill="#4E9525"/>
<path d="M113.75 65.66C113.703 66.057 113.514 66.4236 113.217 66.6922C112.92 66.9609 112.536 67.1136 112.135 67.1221C111.948 67.1271 111.761 67.0914 111.589 67.0177C111.416 66.9439 111.262 66.8338 111.136 66.6949C111.01 66.556 110.916 66.3916 110.86 66.2129C110.804 66.0343 110.787 65.8457 110.811 65.66C110.859 65.2637 111.049 64.898 111.346 64.6302C111.642 64.3623 112.026 64.2102 112.426 64.2017C112.613 64.1976 112.799 64.2336 112.971 64.3073C113.143 64.381 113.296 64.4908 113.422 64.6291C113.548 64.7674 113.642 64.931 113.699 65.1089C113.755 65.2868 113.773 65.4747 113.75 65.66Z" fill="#4E9525"/>
<path d="M124.761 71.4461C124.713 71.843 124.524 72.2096 124.227 72.4783C123.93 72.747 123.546 72.8997 123.146 72.9082C122.959 72.912 122.773 72.8755 122.602 72.8012C122.43 72.727 122.277 72.6167 122.152 72.478C122.027 72.3392 121.933 72.1752 121.878 71.9971C121.822 71.819 121.806 71.6311 121.829 71.4461C121.876 71.0497 122.065 70.6836 122.361 70.4151C122.657 70.1465 123.04 69.9934 123.44 69.9839C123.627 69.9802 123.813 70.0167 123.985 70.0909C124.157 70.1652 124.31 70.2753 124.435 70.414C124.561 70.5527 124.655 70.7167 124.711 70.8947C124.767 71.0728 124.784 71.2608 124.761 71.4461Z" fill="#4E9525"/>
<path d="M137.531 59.8782C137.484 60.2752 137.295 60.6418 136.998 60.9105C136.701 61.1791 136.317 61.3318 135.916 61.3403C135.73 61.3441 135.544 61.3076 135.372 61.2334C135.201 61.1591 135.047 61.0489 134.923 60.9101C134.798 60.7713 134.704 60.6073 134.648 60.4292C134.593 60.2511 134.576 60.0632 134.6 59.8782C134.647 59.4812 134.837 59.1146 135.134 58.8459C135.43 58.5773 135.814 58.4246 136.215 58.416C136.402 58.4123 136.588 58.4488 136.759 58.523C136.931 58.5973 137.084 58.7075 137.209 58.8463C137.334 58.9851 137.427 59.1491 137.483 59.3272C137.539 59.5052 137.555 59.6932 137.531 59.8782Z" fill="#4E9525"/>
<path d="M104.732 83.4412C104.661 83.4413 104.591 83.4237 104.528 83.3899C104.465 83.3562 104.412 83.3072 104.373 83.2476C104.334 83.1881 104.31 83.1197 104.304 83.0488C104.298 82.9778 104.311 82.9065 104.339 82.8414L111.892 65.4915C111.915 65.4369 111.949 65.3878 111.993 65.3473C112.036 65.3068 112.087 65.2758 112.143 65.2563C112.199 65.2374 112.258 65.23 112.317 65.2347C112.376 65.2395 112.433 65.2561 112.485 65.2837L123.228 70.9246L135.767 59.5566C135.852 59.4804 135.964 59.441 136.078 59.4469C136.192 59.4527 136.3 59.5035 136.376 59.588C136.414 59.6297 136.443 59.6784 136.462 59.7313C136.481 59.7842 136.489 59.8402 136.486 59.8963C136.483 59.9524 136.469 60.0073 136.445 60.058C136.421 60.1087 136.387 60.1541 136.345 60.1917L123.582 71.7635C123.517 71.823 123.435 71.8606 123.348 71.8712C123.26 71.8817 123.172 71.8646 123.095 71.8223L112.485 66.2559L105.129 83.1825C105.095 83.2595 105.04 83.325 104.969 83.3709C104.899 83.4169 104.817 83.4413 104.732 83.4412Z" fill="#4E9525"/>
<path opacity="0.5" d="M103.125 98.9173H99.6161L99.793 97.165H103.302L103.125 98.9173Z" fill="#4E9525"/>
<path opacity="0.6" d="M108.925 98.9174H105.412L106.021 92.8845H109.534L108.925 98.9174Z" fill="#4E9525"/>
<path opacity="0.7" d="M114.721 98.9173H111.208L111.566 95.4128H115.075L114.721 98.9173Z" fill="#4E9525"/>
<path opacity="0.8" d="M120.517 98.9173H117.008L117.472 94.3113H120.985L120.517 98.9173Z" fill="#4E9525"/>
<path opacity="0.9" d="M126.317 98.9173H122.804L123.087 96.1223H126.6L126.317 98.9173Z" fill="#4E9525"/>
<path d="M132.113 98.9173H128.6L128.781 97.165H132.29L132.113 98.9173Z" fill="#4E9525"/>
<path opacity="0.5" d="M136.25 47.9847H105.774C105.645 47.9874 105.517 47.9624 105.398 47.9113C105.28 47.8602 105.174 47.7842 105.088 47.6886C105.002 47.5929 104.938 47.4799 104.899 47.3571C104.861 47.2343 104.849 47.1048 104.866 46.9772L106.253 33.218C106.285 32.9445 106.415 32.6918 106.62 32.5066C106.824 32.3214 107.089 32.2163 107.365 32.2106H137.846C137.975 32.2085 138.102 32.234 138.22 32.2853C138.338 32.3366 138.444 32.4126 138.53 32.508C138.616 32.6035 138.68 32.7163 138.719 32.8388C138.757 32.9613 138.769 33.0906 138.754 33.218L137.363 46.9772C137.33 47.2508 137.2 47.5035 136.996 47.6887C136.791 47.8738 136.527 47.979 136.25 47.9847Z" fill="white"/>
<path d="M115.35 40.0978L117.872 34.6882C118.945 35.0945 119.849 35.8491 120.439 36.8304C121.029 37.8117 121.271 38.9626 121.126 40.0978C120.956 41.4876 120.346 42.7871 119.385 43.8072C118.424 44.8274 117.162 45.515 115.782 45.7701L115.35 40.0978Z" fill="#4E9525"/>
<path d="M115.35 40.0976L115.782 45.7699C115.447 45.8277 115.108 45.8566 114.768 45.8561C114.032 45.8677 113.303 45.7219 112.629 45.4285C111.954 45.1351 111.351 44.7009 110.859 44.1552C110.367 43.6095 109.998 42.965 109.777 42.2651C109.556 41.5651 109.488 40.8261 109.577 40.0976C109.768 38.5391 110.513 37.1006 111.677 36.0438C112.841 34.987 114.346 34.3821 115.919 34.3391C116.581 34.337 117.237 34.4552 117.857 34.688L115.35 40.0976Z" fill="white"/>
<path d="M129.071 38.6982H131.26L130.537 45.8483H128.348L129.071 38.6982Z" fill="white"/>
<path d="M132.407 42.5007H134.596L134.258 45.8484H132.069L132.407 42.5007Z" fill="white"/>
<path d="M132.408 42.5006H134.596L134.805 40.4583H132.616L132.408 42.5006Z" fill="#4E9525"/>
<path d="M129.071 38.6984H131.26L131.7 34.3394H129.511L129.071 38.6984Z" fill="#4E9525"/>
<path d="M125.22 39.9998H127.409L126.82 45.8484H124.631L125.22 39.9998Z" fill="white"/>
<path d="M125.22 39.9996H127.409L127.68 37.3184H125.492L125.22 39.9996Z" fill="#4E9525"/>
<path d="M52.7727 40.9837C52.5998 41.2699 52.3797 41.6305 52.2108 41.9598C52.0418 42.2891 51.8178 42.6458 51.6567 42.9908C51.3031 43.6885 50.9455 44.3824 50.6193 45.0958C49.9625 46.4958 49.3956 47.936 48.9218 49.4078L48.7568 49.9566L48.6782 50.2349L48.6546 50.3016C48.6296 50.4762 48.6498 50.6544 48.7136 50.819C48.939 51.4734 49.2397 52.0995 49.6095 52.6849C50.4441 54.0208 51.3519 55.3098 52.3287 56.5461L51.083 57.8593C49.6924 56.8335 48.4265 55.6496 47.3107 54.3313C46.6836 53.6101 46.1624 52.8036 45.7625 51.9362C45.4909 51.348 45.3565 50.706 45.3696 50.0585C45.3758 49.9534 45.3876 49.8487 45.405 49.7449L45.4325 49.5803V49.5019L45.4993 49.1804L45.6368 48.5376C46.0438 46.8557 46.5892 45.2103 47.2675 43.618C47.6054 42.834 47.963 42.05 48.3638 41.2895C48.5603 40.8975 48.7568 40.529 48.9768 40.1527C49.1969 39.7764 49.4051 39.4196 49.6684 39.012L52.7727 40.9837Z" fill="#FF8B7B"/>
<path d="M51.4287 55.8406L54.3837 55.9621L53.2049 58.4905C53.2049 58.4905 51.1026 58.3729 50.3128 57.1028L51.4287 55.8406Z" fill="#FF8B7B"/>
<path d="M55.1147 57.0987L54.3838 59.3645L53.1932 58.4942L54.3838 55.9619L55.1147 57.0987Z" fill="#FF8B7B"/>
<path d="M57.5667 138.164C57.246 138.156 56.9271 138.112 56.6158 138.035C56.5996 138.031 56.5847 138.023 56.5729 138.011C56.5612 137.999 56.5529 137.985 56.549 137.968C56.546 137.952 56.5477 137.935 56.554 137.92C56.5602 137.905 56.5708 137.892 56.5843 137.882C56.7061 137.8 57.7907 137.098 58.2111 137.286C58.2583 137.308 58.299 137.341 58.3293 137.383C58.3596 137.425 58.3785 137.474 58.384 137.525C58.4029 137.606 58.4006 137.689 58.3771 137.769C58.3537 137.848 58.31 137.919 58.2504 137.976C58.0525 138.119 57.8098 138.185 57.5667 138.164ZM56.8555 137.914C57.4842 138.039 57.9518 138.015 58.1325 137.851C58.1723 137.813 58.2009 137.764 58.2154 137.711C58.23 137.658 58.2298 137.602 58.2151 137.549C58.2137 137.526 58.2065 137.504 58.1941 137.485C58.1817 137.466 58.1646 137.45 58.1443 137.439C57.9203 137.341 57.2956 137.643 56.8555 137.914Z" fill="#4E9525"/>
<path d="M56.6353 138.035C56.6212 138.039 56.6062 138.039 56.5921 138.035C56.5792 138.027 56.5685 138.016 56.561 138.003C56.5534 137.99 56.5493 137.975 56.5489 137.96C56.5489 137.917 56.5489 136.882 56.9418 136.537C56.9895 136.494 57.0462 136.461 57.108 136.441C57.1697 136.421 57.2351 136.416 57.2994 136.424C57.3676 136.426 57.4333 136.45 57.486 136.493C57.5386 136.537 57.5753 136.596 57.5902 136.663C57.6766 137.055 57.0322 137.839 56.6942 138.035C56.6752 138.042 56.6543 138.042 56.6353 138.035ZM57.2286 136.585C57.1592 136.584 57.0921 136.609 57.04 136.655C56.8082 136.863 56.7375 137.439 56.7218 137.788C57.0597 137.514 57.4605 136.933 57.4055 136.686C57.4055 136.647 57.374 136.596 57.264 136.585H57.2286Z" fill="#4E9525"/>
<path d="M84.1573 136.565C84.1424 136.566 84.1274 136.563 84.1138 136.557C84.1001 136.551 84.0881 136.541 84.0787 136.53C84.0682 136.515 84.0625 136.498 84.0625 136.481C84.0625 136.463 84.0682 136.446 84.0787 136.432C84.1888 136.291 85.1554 135.079 85.678 135.044H85.7134C85.7605 135.045 85.8065 135.059 85.847 135.083C85.8876 135.107 85.9213 135.141 85.9452 135.181C85.9872 135.243 86.0125 135.315 86.0187 135.39C86.0249 135.465 86.0118 135.54 85.9806 135.608C85.7763 136.087 84.7585 136.392 84.1691 136.561L84.1573 136.565ZM85.6859 135.213C85.399 135.232 84.7939 135.84 84.3813 136.334C85.1672 136.102 85.7095 135.816 85.8273 135.55C85.847 135.504 85.8548 135.454 85.85 135.405C85.8451 135.356 85.8279 135.308 85.7998 135.267C85.7903 135.251 85.7765 135.237 85.76 135.227C85.7435 135.218 85.7247 135.213 85.7055 135.213H85.6859Z" fill="#4E9525"/>
<path d="M84.1574 136.565C84.1428 136.563 84.1288 136.558 84.1171 136.549C84.1053 136.54 84.0962 136.528 84.0906 136.514C84.0906 136.479 83.7331 135.597 83.9845 135.071C84.0211 134.994 84.0731 134.924 84.1372 134.867C84.2013 134.81 84.2764 134.766 84.3579 134.738C84.5858 134.656 84.7037 134.738 84.7508 134.809C84.9905 135.134 84.5426 136.181 84.2282 136.538C84.2193 136.547 84.2083 136.555 84.196 136.559C84.1837 136.564 84.1706 136.566 84.1574 136.565ZM84.4836 134.848C84.4488 134.852 84.4145 134.86 84.3814 134.872C84.3214 134.892 84.2661 134.925 84.2188 134.967C84.1716 135.01 84.1333 135.061 84.1064 135.118C83.998 135.507 84.0187 135.919 84.1653 136.294C84.4561 135.875 84.7233 135.091 84.5818 134.895C84.5716 134.879 84.5569 134.866 84.5395 134.857C84.5222 134.849 84.5028 134.846 84.4836 134.848Z" fill="#4E9525"/>
<path d="M57.4409 26.5503C57.8338 28.6828 58.7612 33.3436 57.2601 34.7313C57.2601 34.7313 57.8299 36.903 61.7987 36.9814C66.1643 37.0637 63.897 34.8646 63.897 34.8646C61.5197 34.2492 61.5904 32.493 62.0148 30.8466L57.4409 26.5503Z" fill="#FF8B7B"/>
<path d="M56.1914 35.8132L55.4291 32.054C56.5238 32.3726 57.6533 32.5569 58.7927 32.6028C60.3213 32.6028 63.6338 32.4812 65.2803 31.9128C65.7361 32.5557 68.1252 34.2648 68.1252 34.2648L67.0564 36.0641L56.1914 35.8132Z" fill="#4E9525"/>
<path opacity="0.8" d="M56.1914 35.8132L55.4291 32.054C56.5238 32.3726 57.6533 32.5569 58.7927 32.6028C60.3213 32.6028 63.6338 32.4812 65.2803 31.9128C65.7361 32.5557 68.1252 34.2648 68.1252 34.2648L67.0564 36.0641L56.1914 35.8132Z" fill="white"/>
<path d="M65.9601 22.4539C65.9336 22.45 65.9081 22.4407 65.8854 22.4264C65.8479 22.4016 65.8215 22.3631 65.812 22.3192C65.8024 22.2752 65.8105 22.2293 65.8344 22.1912C65.9762 21.9636 66.171 21.7735 66.4022 21.637C66.6334 21.5005 66.8942 21.4217 67.1625 21.4072C67.2077 21.4072 67.2511 21.4248 67.2834 21.4564C67.3157 21.4879 67.3344 21.5307 67.3354 21.5758C67.3354 21.6209 67.3177 21.6641 67.2862 21.6964C67.2546 21.7286 67.2116 21.7472 67.1664 21.7483C66.9539 21.7624 66.7478 21.8275 66.5659 21.9381C66.3839 22.0487 66.2314 22.2014 66.1212 22.3833C66.1038 22.409 66.0794 22.4293 66.0509 22.4418C66.0224 22.4543 65.9909 22.4585 65.9601 22.4539Z" fill="#263238"/>
<path d="M67.0563 24.457C67.3248 25.1182 67.6831 25.7395 68.1212 26.3033C67.9743 26.4089 67.8061 26.4812 67.6282 26.515C67.4504 26.5489 67.2673 26.5435 67.0917 26.4993L67.0563 24.457Z" fill="#FF5652"/>
<path d="M66.8008 23.9591C66.8008 24.2492 66.9619 24.4844 67.1505 24.4844C67.3392 24.4844 67.4924 24.2492 67.4845 23.9591C67.4767 23.669 67.3234 23.4338 67.1348 23.4338C66.9462 23.4338 66.8008 23.669 66.8008 23.9591Z" fill="#263238"/>
<path d="M67.0366 23.4494L67.7321 23.2495C67.7321 23.2495 67.3824 23.7944 67.0366 23.4494Z" fill="#263238"/>
<path d="M80.723 138.827L84.2085 137.631L81.7486 129.897L78.2671 131.096L80.723 138.827Z" fill="#FF8B7B"/>
<path d="M52.4505 137.953H56.046L55.6491 129.642H52.0537L52.4505 137.953Z" fill="#FF8B7B"/>
<path d="M56.3288 137.537H52.2854C52.2167 137.536 52.1501 137.561 52.098 137.605C52.0459 137.65 52.012 137.712 52.0024 137.78L51.5859 140.971C51.5788 141.052 51.5887 141.134 51.6149 141.211C51.6411 141.288 51.683 141.359 51.7381 141.419C51.7931 141.479 51.86 141.527 51.9346 141.56C52.0092 141.593 52.0898 141.61 52.1714 141.61C53.5821 141.586 54.258 141.504 56.0341 141.504C57.1304 141.504 58.7258 141.614 60.2386 141.614C61.7514 141.614 61.8104 140.128 61.1777 139.991C58.3485 139.387 57.8927 138.552 56.93 137.757C56.7606 137.617 56.5484 137.54 56.3288 137.537Z" fill="#263238"/>
<path d="M83.7525 136.22L80.0156 137.984C79.9508 138.01 79.8982 138.06 79.8683 138.123C79.8385 138.186 79.8336 138.258 79.8545 138.325L80.8172 141.32C80.8476 141.396 80.8935 141.464 80.9519 141.521C81.0103 141.578 81.08 141.623 81.1565 141.651C81.233 141.68 81.3146 141.693 81.3962 141.688C81.4779 141.684 81.5577 141.663 81.6306 141.626C82.9234 140.995 83.5168 140.626 85.1671 139.858C86.177 139.384 88.3107 138.502 89.7175 137.847C91.1242 137.192 90.5387 135.852 89.8982 136.004C87.0297 136.698 85.6387 136.447 84.397 136.161C84.1815 136.11 83.955 136.13 83.7525 136.22Z" fill="#263238"/>
<path opacity="0.2" d="M81.7485 129.901L83.0688 134.04L79.5323 135.083L78.2631 131.096L81.7485 129.901Z" fill="black"/>
<path opacity="0.2" d="M52.0537 129.646H55.6491L55.8535 133.927H52.258L52.0537 129.646Z" fill="black"/>
<path d="M51.0477 35.4251C49.5506 35.723 47.9041 41.0503 47.9041 41.0503L52.1086 45.6092C52.1086 45.6092 55.6452 40.6465 54.9418 38.7806C54.2266 36.848 52.816 35.0762 51.0477 35.4251Z" fill="#4E9525"/>
<path opacity="0.2" d="M51.0477 35.4251C49.5506 35.723 47.9041 41.0503 47.9041 41.0503L52.1086 45.6092C52.1086 45.6092 55.6452 40.6465 54.9418 38.7806C54.2266 36.848 52.816 35.0762 51.0477 35.4251Z" fill="black"/>
<path opacity="0.4" d="M53.3975 38.8824C54.1559 38.2082 54.6668 38.4238 55.0126 38.9765C55.3466 40.5759 53.2914 43.8687 52.4623 45.1152C52.0929 43.6021 51.6764 40.4151 53.3975 38.8824Z" fill="black"/>
<path d="M70.2627 36.6637C70.5299 38.2317 70.5888 43.0102 68.1329 57.5025L53.5113 57.232C53.7943 51.3089 53.8218 47.6554 51.0476 35.4407C53.0988 35.0594 55.1751 34.8275 57.2601 34.7469C59.4727 34.6352 61.6906 34.6798 63.8969 34.8801C66.0228 35.1114 68.3569 35.574 69.3982 35.7935C69.6129 35.8359 69.81 35.9414 69.964 36.0965C70.1181 36.2516 70.2221 36.4492 70.2627 36.6637Z" fill="#4E9525"/>
<path opacity="0.2" d="M70.2627 36.6637C70.5299 38.2317 70.5888 43.0102 68.1329 57.5025L53.5113 57.232C53.7943 51.3089 53.8218 47.6554 51.0476 35.4407C53.0988 35.0594 55.1751 34.8275 57.2601 34.7469C59.4727 34.6352 61.6906 34.6798 63.8969 34.8801C66.0228 35.1114 68.3569 35.574 69.3982 35.7935C69.6129 35.8359 69.81 35.9414 69.964 36.0965C70.1181 36.2516 70.2221 36.4492 70.2627 36.6637Z" fill="black"/>
<path d="M57.0244 22.9986C57.3034 26.554 57.3466 28.0632 59.1738 29.8821C61.9244 32.6261 66.2468 31.5599 67.0327 28.0084C67.744 24.8096 67.1663 19.5333 63.6573 18.126C62.892 17.8067 62.0568 17.6907 61.2331 17.7892C60.4094 17.8877 59.6254 18.1974 58.9574 18.6881C58.2894 19.1788 57.7602 19.8338 57.4215 20.5892C57.0827 21.3446 56.9459 22.1747 57.0244 22.9986Z" fill="#FF8B7B"/>
<path d="M57.9675 16.4641C54.1009 16.7503 53.205 21.2818 54.71 24.1748C52.313 27.8125 52.6038 29.1257 53.37 29.9725C54.6864 31.4385 61.4608 33.2025 65.516 30.1567C67.3275 28.7964 63.9717 23.9592 63.9717 23.9592C63.9717 23.9592 65.9247 15.8644 57.9675 16.4641Z" fill="#263238"/>
<path d="M53.7393 30.1174C52.643 30.1174 52.2539 29.5764 52.1282 29.0982C51.7353 27.5302 53.7 24.4883 55.6647 23.6455C55.7154 23.63 55.7699 23.6336 55.8181 23.6555C55.8662 23.6775 55.9046 23.7164 55.926 23.7648C55.9473 23.8131 55.9501 23.8676 55.9338 23.9179C55.9175 23.9682 55.8833 24.0107 55.8376 24.0375C54.0969 24.7862 52.1911 27.6517 52.5486 28.9884C52.694 29.5372 53.2284 29.7724 54.1204 29.6627C54.1772 29.6572 54.2338 29.6743 54.278 29.7103C54.3221 29.7462 54.3503 29.7982 54.3562 29.8547C54.3595 29.8826 54.3572 29.9108 54.3495 29.9377C54.3417 29.9646 54.3287 29.9898 54.3112 30.0117C54.2936 30.0335 54.2719 30.0517 54.2472 30.0652C54.2226 30.0786 54.1955 30.087 54.1676 30.0899C54.0222 30.1056 53.8729 30.1174 53.7393 30.1174Z" fill="#263238"/>
<path d="M59.5747 25.5662L55.3191 25.7073C55.1514 25.7132 54.9843 25.685 54.8279 25.6247C54.6714 25.5643 54.5288 25.4729 54.4087 25.356C54.2886 25.2392 54.1935 25.0993 54.1292 24.9447C54.0648 24.7902 54.0325 24.6242 54.0342 24.4569C54.0358 24.1133 54.1696 23.7834 54.408 23.5354C54.6464 23.2874 54.9711 23.1401 55.3152 23.1241L59.5708 22.9829C59.7384 22.9771 59.9055 23.0052 60.062 23.0656C60.2185 23.126 60.3611 23.2173 60.4811 23.3342C60.6012 23.4511 60.6963 23.591 60.7607 23.7456C60.8251 23.9001 60.8574 24.0661 60.8557 24.2334C60.8541 24.577 60.7203 24.9069 60.4819 25.1549C60.2435 25.4029 59.9188 25.5501 59.5747 25.5662Z" fill="#4E9525"/>
<path d="M58.4469 17.7576C59.8969 15.5075 63.6927 14.8294 66.0936 16.2406C68.9032 17.8909 68.8443 21.2033 64.1014 23.0574C58.942 25.088 58.4469 17.7576 58.4469 17.7576Z" fill="#263238"/>
<path d="M64.903 23.0183C65.478 23.5128 65.88 24.1775 66.0504 24.9156C66.2626 25.8524 65.6574 25.727 64.9619 25.3428C64.3332 24.9979 63.3508 24.3158 63.3901 23.5357C63.4294 22.7556 64.286 22.4891 64.903 23.0183Z" fill="#FF8B7B"/>
<path d="M64.2702 57.4241C64.2702 57.4241 62.0422 81.9868 59.7946 95.8126C57.9792 106.977 56.4428 133.1 56.4428 133.1H51.5388C51.5388 133.1 49.9395 107.62 50.8904 96.5417C53.3031 68.5569 48.3009 66.1735 53.5114 57.2163L64.2702 57.4241Z" fill="#263238"/>
<path opacity="0.4" d="M59.2838 65.6365C60.5609 67.5102 62.2663 69.6702 62.8203 71.9516C62.3802 76.095 61.8655 80.6775 61.3075 85.0836C59.9558 81.3792 57.6452 73.9743 59.2838 65.6365Z" fill="black"/>
<path d="M68.1329 57.5024C68.1329 57.5024 72.9151 84.3858 74.9231 95.1579C77.0096 106.357 82.9313 131.289 82.9313 131.289L78.0391 133.797C78.0391 133.797 67.9207 103.692 66.7144 98.043C63.5237 86.2399 54.3837 57.2319 54.3837 57.2319L68.1329 57.5024Z" fill="#263238"/>
<path d="M83.9451 132.335L77.9998 134.699L76.8446 132.633L83.2064 130.097L83.9451 132.335Z" fill="#4E9525"/>
<path d="M57.1149 133.198H50.871L50.5095 131.01L57.1188 130.787L57.1149 133.198Z" fill="#4E9525"/>
<path d="M53.2993 56.3578L52.6313 57.6475C52.5802 57.7455 52.702 57.8513 52.871 57.8552L68.1959 58.1571C68.3295 58.1571 68.4395 58.0944 68.4474 58.0121L68.5849 56.7145C68.5849 56.6244 68.4828 56.546 68.3374 56.5421L53.5351 56.252C53.4899 56.2471 53.4442 56.2543 53.4028 56.2729C53.3613 56.2915 53.3256 56.3208 53.2993 56.3578Z" fill="#4E9525"/>
<path d="M55.2797 58.0434H54.8867C54.8081 58.0434 54.7453 58.0003 54.7531 57.9533L54.9496 56.2637C54.9496 56.2128 55.0243 56.1736 55.1028 56.1736H55.4958C55.5744 56.1736 55.6333 56.2167 55.6294 56.2677L55.4329 57.9572C55.4251 58.016 55.3583 58.0473 55.2797 58.0434Z" fill="#263238"/>
<path d="M64.8873 58.2316H64.4944C64.4158 58.2316 64.3568 58.1885 64.3647 58.1415L64.5572 56.452C64.5572 56.401 64.6319 56.3618 64.7144 56.3618H65.1074C65.1899 56.3618 65.2488 56.4049 65.241 56.4559L65.0445 58.1454C65.0366 58.1964 64.9659 58.2356 64.8873 58.2316Z" fill="#263238"/>
<path d="M72.1175 38.5022C72.5616 39.2509 73.0331 40.0702 73.5164 40.8189C73.9997 41.5676 74.4791 42.3595 74.986 43.1043C75.4929 43.8491 76.0156 44.586 76.5578 45.2956C77.1001 46.0051 77.6502 46.6754 78.2279 47.2908C78.6996 47.7455 79.282 48.0698 79.9175 48.2316C80.7181 48.4565 81.5398 48.5984 82.3695 48.655C84.1567 48.7769 85.951 48.748 87.7332 48.5688L88.1262 50.3406C86.2444 50.9513 84.2906 51.3137 82.3145 51.4186C81.2624 51.4756 80.2072 51.4085 79.1709 51.2187C78.6023 51.107 78.0467 50.9376 77.5127 50.713C76.9171 50.4584 76.3685 50.1059 75.8898 49.6703C74.4425 48.3084 73.1377 46.8032 71.9957 45.178C70.8537 43.6104 69.8142 41.971 68.8836 40.2701L72.1175 38.5022Z" fill="#FF8B7B"/>
<path d="M70.023 35.8799C73.5124 36.4326 74.9545 41.3992 74.9545 41.3992L70.7618 45.429C70.7618 45.429 66.015 41.0817 66.015 38.3142C66.015 36.2562 68.1212 35.578 70.023 35.8799Z" fill="#4E9525"/>
<path opacity="0.2" d="M70.023 35.8799C73.5124 36.4326 74.9545 41.3992 74.9545 41.3992L70.7618 45.429C70.7618 45.429 66.015 41.0817 66.015 38.3142C66.015 36.2562 68.1212 35.578 70.023 35.8799Z" fill="black"/>
<path d="M91.8671 46.3109C91.8199 46.9342 91.7374 47.5496 91.647 48.1612C91.5566 48.7727 91.4466 49.3803 91.3326 49.9839C91.2187 50.5876 91.089 51.1913 90.9397 51.7911C90.7904 52.3908 90.8179 53.0298 90.1538 53.4806C90.048 53.5395 89.9258 53.5622 89.8059 53.5452C89.6859 53.5282 89.5749 53.4725 89.4897 53.3865C89.4563 53.3523 89.4273 53.3141 89.4033 53.2728C89.0103 52.528 89.3522 51.9832 89.4622 51.3795C89.5722 50.7758 89.7726 50.2035 89.9416 49.5998C90.1106 48.9961 90.2913 48.4238 90.4839 47.8397C90.6764 47.2556 90.8768 46.6637 91.1165 46.1032C91.1673 46.0253 91.2442 45.968 91.3335 45.9414C91.4227 45.9149 91.5185 45.9208 91.6038 45.9581C91.678 45.9839 91.7428 46.0313 91.7897 46.0942C91.8366 46.1571 91.8636 46.2326 91.8671 46.3109Z" fill="#263238"/>
<path d="M91.918 46.9735L90.7392 46.7814C90.5623 46.75 90.4759 46.5344 90.5427 46.2992C90.6095 46.064 90.8099 45.9072 90.9867 45.9072L92.1656 46.1032C92.3424 46.1307 92.4288 46.3463 92.362 46.5854C92.2952 46.8363 92.0948 47.0048 91.918 46.9735Z" fill="#263238"/>
<path d="M93.8828 37.6712C92.0909 37.1538 90.0162 38.663 89.2539 41.0463C88.4915 43.4297 89.3246 45.7817 91.1164 46.2991C92.9083 46.8166 94.983 45.3034 95.7493 42.924C96.5155 40.5446 95.6785 38.1886 93.8828 37.6712ZM91.3365 45.617C89.8236 45.1819 89.1242 43.2023 89.7647 41.1953C90.4052 39.1882 92.1538 37.9182 93.6627 38.3533C95.1716 38.7884 95.8789 40.768 95.2345 42.775C94.5901 44.7821 92.8454 46.0522 91.3365 45.617Z" fill="#4E9525"/>
<path opacity="0.1" d="M91.7529 45.8641C90.3383 45.4721 89.6782 43.5983 90.2794 41.7206C90.8806 39.843 92.5192 38.6434 93.9377 39.055C95.3563 39.4666 96.0125 41.3208 95.4074 43.1985C94.8022 45.0762 93.1676 46.2561 91.7529 45.8641Z" fill="#4E9525"/>
<path d="M86.6015 50.47L90.4524 51.1873L90.8453 47.9651C90.8453 47.9651 87.6782 48.1493 86.5897 49.1411L86.6015 50.47Z" fill="#FF8B7B"/>
<path d="M91.4191 51.1795L92.0989 49.0392C92.1242 48.9676 92.124 48.8895 92.0982 48.8181C92.0724 48.7466 92.0227 48.6863 91.9574 48.6472L90.8572 47.9534L90.4642 51.1756L90.9947 51.3795C91.0776 51.4085 91.1686 51.4038 91.248 51.3664C91.3275 51.329 91.3889 51.2618 91.4191 51.1795Z" fill="#FF8B7B"/>
</svg>
