<svg width="170" height="89" viewBox="0 0 170 89" fill="none" xmlns="http://www.w3.org/2000/svg">
<path d="M133.827 36.4472C126.776 35.8727 119.679 36.3788 112.782 37.9481C102.819 40.2369 93.0057 44.7495 82.8424 43.6338C75.7483 42.8584 69.2796 39.3964 62.5808 36.88C53.1129 33.3379 42.7795 31.677 32.8138 33.3454C22.8481 35.0139 13.2876 40.2419 7.42923 48.4766L4.9278 52.7165C4.9278 52.7165 19.4361 42.6758 47.4872 48.9869C76.8114 55.5882 84.6109 64.0155 110.773 64.2456C131.82 64.4257 133.732 64.5233 145.458 61.9943C148.5 61.334 157.215 61.5541 157.215 61.5541C161.624 61.9752 165.939 63.0913 170 64.861C167.424 57.0974 162.621 50.2635 156.189 45.2109C149.756 40.1583 141.979 37.1104 133.827 36.4472Z" fill="#F5F5F5"/>
<path d="M50.8565 15.9304H99.9496C99.9496 15.9304 95.6072 8.03091 82.9699 9.17656C70.903 10.2747 70.2877 5.28934 64.1517 4.67399C58.0156 4.05863 52.9002 8.77133 50.8565 15.9304Z" fill="#F5F5F5"/>
<path d="M106.043 6.37498H126.602C126.602 6.37498 124.784 3.0756 119.493 3.54837C114.44 4.00863 114.183 1.92244 111.614 1.66479C109.045 1.40714 106.899 3.37827 106.043 6.37498Z" fill="#EBEBEB"/>
<path d="M75.5833 30.2362H90.3417C90.3417 30.2362 89.036 27.8598 85.2363 28.205C81.6067 28.5352 81.4216 27.0368 79.578 26.8517C77.7345 26.6666 76.1986 28.0899 75.5833 30.2362Z" fill="#F5F5F5"/>
<path d="M119.208 19.4125C119.208 19.4125 119.123 19.3249 118.958 19.1799C118.731 18.9754 118.468 18.8143 118.183 18.7046C117.762 18.5407 117.304 18.5025 116.862 18.5945C116.323 18.7142 115.842 19.0175 115.501 19.4525C115.405 19.5743 115.322 19.705 115.251 19.8427L115.201 19.9403L115.141 19.8502C114.855 19.4438 114.445 19.1409 113.973 18.9872C113.591 18.8658 113.184 18.8494 112.795 18.9397C112.438 19.0299 112.102 19.1888 111.806 19.4075C111.868 19.3281 111.942 19.2596 112.027 19.2049C112.31 19.0022 112.636 18.8673 112.979 18.8105C113.323 18.7537 113.674 18.7765 114.008 18.8772C114.509 19.0308 114.945 19.3478 115.246 19.7777H115.136C115.205 19.6319 115.289 19.4936 115.386 19.365C115.745 18.9058 116.254 18.5885 116.824 18.4694C117.288 18.3773 117.768 18.427 118.203 18.612C118.494 18.7329 118.759 18.9106 118.981 19.1348C119.04 19.1954 119.094 19.2606 119.143 19.3299C119.196 19.385 119.211 19.41 119.208 19.4125Z" fill="#EBEBEB"/>
<path d="M108.029 87.7566H108.415H109.548H113.928L130.247 87.7366L130.202 87.7866C130.057 86.701 129.897 85.5078 129.729 84.2846L129.709 84.1195L129.814 84.2471C130.565 85.1426 131.368 86.1256 132.203 87.1362L132.116 87.1712C131.961 83.6417 131.788 79.742 131.615 75.6096H131.728L133.869 87.5465H133.749C133.905 86.1598 134.168 84.7874 134.537 83.4416C134.72 82.7333 134.959 82.0407 135.252 81.3704C135.538 80.6819 135.969 80.0632 136.516 79.5569L136.693 79.4068L136.616 79.6294C136.168 80.8761 135.853 82.1664 135.675 83.4791C135.585 84.1582 135.547 84.843 135.56 85.5278C135.579 86.2193 135.68 86.9062 135.86 87.574L135.798 87.529L140.703 87.4589L140.638 87.524V84.2721L140.758 84.4847L142.259 87.1237L142.141 87.1387C142.181 86.9961 142.226 86.8411 142.269 86.686C142.649 85.3619 143.025 84.0461 143.397 82.7387L143.525 82.2935V86.8736L143.42 86.8235L145.921 84.8224L146.121 84.6598L146.021 84.8974L144.888 87.5365L144.828 87.4464L148.282 87.4039L148.22 87.4564C148.309 86.8766 148.362 86.2918 148.377 85.7054C148.398 85.1292 148.375 84.5523 148.31 83.9794C148.251 83.4124 148.124 82.8546 147.93 82.3185C147.74 81.7901 147.44 81.3082 147.049 80.9052L146.777 80.6375L147.112 80.8026C147.681 81.1266 148.14 81.6125 148.432 82.1984C148.735 82.7524 148.972 83.3401 149.138 83.9494C149.447 85.1488 149.624 86.3785 149.666 87.6165H149.546C149.816 85.4353 150.116 83.3165 150.461 81.2654C150.634 80.2423 150.819 79.2342 151.036 78.2486C151.147 77.7484 151.262 77.2681 151.399 76.7878C151.521 76.304 151.705 75.8382 151.947 75.402L152.09 75.1769L152.047 75.4445C151.724 77.5091 151.545 79.5937 151.512 81.6831C151.492 82.6837 151.527 83.6617 151.602 84.6173C151.681 85.545 151.833 86.465 152.057 87.3689H151.969C152.335 86.4759 152.72 85.6179 153.113 84.8149C153.313 84.4097 153.523 84.0169 153.743 83.6367C153.951 83.2569 154.203 82.9026 154.493 82.5811L154.618 82.451L154.563 82.6236C154.313 83.4066 154.116 84.2055 153.973 85.015C153.835 85.7571 153.779 86.512 153.806 87.2663L153.738 87.2488L155.627 84.3621L155.687 84.2696V84.3721C155.687 85.5103 155.687 86.4183 155.687 87.2613L155.659 87.2338L161.72 87.3013L163.276 87.3238C163.626 87.3238 163.804 87.3363 163.804 87.3363H163.276H161.72L155.659 87.2938H155.632V87.2663C155.632 86.4233 155.632 85.5153 155.632 84.3771L155.692 84.3947L153.811 87.2863L153.748 87.3814V87.2688C153.718 86.5145 153.773 85.7593 153.913 85.0175C154.053 84.2031 154.249 83.3991 154.498 82.6111L154.568 82.6537C154.279 82.9711 154.027 83.3211 153.818 83.6968C153.598 84.072 153.39 84.4647 153.193 84.8699C152.796 85.6787 152.417 86.5276 152.057 87.4164L152.002 87.549L151.967 87.4114C151.742 86.4951 151.59 85.5625 151.512 84.6223C151.437 83.6642 151.399 82.6812 151.417 81.6781C151.457 79.5876 151.641 77.5023 151.967 75.437L152.065 75.4771C151.829 75.9029 151.649 76.3579 151.532 76.8303C151.397 77.3056 151.282 77.7934 151.174 78.2837C150.956 79.2667 150.774 80.2848 150.601 81.2979C150.259 83.3457 149.957 85.4611 149.693 87.644H149.573C149.532 86.4153 149.356 85.1947 149.048 84.0044C148.884 83.4023 148.651 82.8214 148.352 82.2734L148.235 82.0708L148.105 81.8782C148.016 81.7486 147.92 81.6241 147.817 81.5055C147.618 81.2698 147.374 81.076 147.099 80.9352L147.162 80.8301C147.566 81.2457 147.878 81.7429 148.075 82.2885C148.273 82.8341 148.403 83.402 148.462 83.9794C148.53 84.5605 148.553 85.1459 148.53 85.7304C148.516 86.3169 148.463 86.9018 148.372 87.4814V87.534H148.32L144.865 87.5765H144.758L144.795 87.4864L145.926 84.8474L146.026 84.9225L143.512 86.9236L143.407 87.0062V82.7387L143.535 82.7562C143.161 84.062 142.785 85.3769 142.407 86.701C142.364 86.8561 142.319 87.0112 142.279 87.1537L142.236 87.3038L142.159 87.1687C141.644 86.2632 141.128 85.3652 140.658 84.5297L140.781 84.4972V87.5765H140.716L135.813 87.644H135.753V87.5965C135.569 86.9173 135.465 86.2187 135.445 85.5153C135.432 84.8246 135.472 84.1339 135.563 83.4491C135.741 82.1284 136.056 80.8299 136.503 79.5744L136.603 79.6444C136.071 80.1387 135.651 80.7419 135.372 81.413C135.079 82.0679 134.836 82.7444 134.647 83.4366C134.28 84.775 134.016 86.1399 133.859 87.5189L133.812 87.9317L133.752 87.524C133.001 83.3516 132.291 79.3493 131.62 75.5846L131.73 75.5721C131.908 79.7045 132.076 83.6067 132.231 87.1337V87.2838L132.136 87.1687L129.749 84.2771L129.832 84.2396C129.994 85.4703 130.154 86.6635 130.3 87.7416V87.7916H130.25L113.93 87.7716H109.55H108.417L108.029 87.7566Z" fill="#263238"/>
<path d="M16.0842 87.7565C16.0842 87.7915 12.4846 87.8215 8.0421 87.8215C3.59956 87.8215 0 87.7915 0 87.7565C0 87.7215 3.59956 87.689 8.0421 87.689C12.4846 87.689 16.0842 87.719 16.0842 87.7565Z" fill="#263238"/>
<path d="M6.34863 82.0458C6.08098 82.426 5.56568 82.2959 5.32555 82.0683C5.10613 81.8149 4.95617 81.5089 4.8903 81.1803C4.68018 80.4474 4.46756 79.6794 4.62515 78.929C4.66259 78.7033 4.76122 78.4922 4.91031 78.3186C4.98647 78.2327 5.08386 78.1683 5.19273 78.1319C5.3016 78.0955 5.41813 78.0883 5.53066 78.111C5.6555 78.1625 5.76812 78.2397 5.8612 78.3375C5.95428 78.4353 6.02575 78.5516 6.07097 78.6789C6.41504 79.3975 6.59531 80.1835 6.59877 80.9802C6.62405 81.3516 6.53689 81.7221 6.34863 82.0433" fill="#FF725E"/>
<g opacity="0.2">
<path opacity="0.2" d="M6.34863 82.0458C6.08098 82.426 5.56568 82.2959 5.32555 82.0683C5.10613 81.8149 4.95617 81.5089 4.8903 81.1803C4.68018 80.4474 4.46756 79.6794 4.62515 78.929C4.66259 78.7033 4.76122 78.4922 4.91031 78.3186C4.98647 78.2327 5.08386 78.1683 5.19273 78.1319C5.3016 78.0955 5.41813 78.0883 5.53066 78.111C5.6555 78.1625 5.76812 78.2397 5.8612 78.3375C5.95428 78.4353 6.02575 78.5516 6.07097 78.6789C6.41504 79.3975 6.59531 80.1835 6.59877 80.9802C6.62405 81.3516 6.53689 81.7221 6.34863 82.0433" fill="black"/>
</g>
<path d="M5.35055 83.9719C4.90439 83.7627 4.40285 83.7022 3.91973 83.7993C3.65424 83.8244 3.4049 83.938 3.21182 84.122C3.11865 84.2157 3.06635 84.3425 3.06635 84.4747C3.06635 84.6069 3.11865 84.7337 3.21182 84.8274C3.34236 84.9162 3.50004 84.956 3.65708 84.94C4.0373 84.94 4.45754 84.8699 4.75771 85.0976C4.93031 85.2276 5.04537 85.4428 5.258 85.5078C5.36222 85.5283 5.47028 85.5152 5.56652 85.4702C5.66276 85.4252 5.74219 85.3508 5.7933 85.2576C5.89177 85.0679 5.91327 84.8475 5.85334 84.6423C5.82705 84.4993 5.76797 84.3643 5.68073 84.248C5.59349 84.1317 5.48047 84.0372 5.35055 83.9719Z" fill="#FF725E"/>
<path d="M7.07904 82.5911C6.94291 82.4121 6.85222 82.2028 6.81476 81.981C6.77729 81.7592 6.79416 81.5317 6.86391 81.3179C7.00889 80.8915 7.26854 80.5133 7.61434 80.2248C8.00733 79.8739 8.46543 79.6036 8.96261 79.4293C9.15507 79.3501 9.36259 79.3143 9.57046 79.3243C9.67274 79.3316 9.77172 79.3636 9.85886 79.4177C9.94601 79.4717 10.0187 79.5461 10.0707 79.6344C10.2133 79.9046 10.0707 80.2323 9.92817 80.5024C9.66915 80.9754 9.37306 81.4271 9.04266 81.8532C8.79889 82.2147 8.46177 82.5034 8.0671 82.6887C7.66187 82.8438 7.24163 82.8238 7.02651 82.5436" fill="#FF725E"/>
<path d="M6.36614 87.7816C6.35189 87.7251 6.34351 87.6672 6.34112 87.609C6.34112 87.4839 6.31361 87.3263 6.2961 87.1387C6.27278 86.9061 6.23771 86.6749 6.19104 86.4458C6.12532 86.165 6.03749 85.8898 5.92839 85.6229C5.82532 85.3586 5.68554 85.1102 5.51315 84.8849C5.27662 84.5727 4.92742 84.3654 4.54009 84.3071C4.48257 84.3059 4.42543 84.2975 4.37 84.2821C4.42821 84.2761 4.48688 84.2761 4.5451 84.2821C4.70505 84.2956 4.86154 84.3362 5.00786 84.4022C5.22415 84.5057 5.41405 84.6571 5.56318 84.8449C5.74295 85.0728 5.88872 85.3256 5.99593 85.5954C6.10333 85.8644 6.18703 86.1422 6.24607 86.4258C6.29134 86.6572 6.32225 86.8911 6.33862 87.1262C6.35363 87.3263 6.35863 87.4889 6.36364 87.6015C6.372 87.6612 6.37284 87.7217 6.36614 87.7816Z" fill="#263238"/>
<path d="M6.33357 87.4189C6.32981 87.3924 6.32981 87.3654 6.33357 87.3389V87.1237C6.33357 86.9236 6.33357 86.636 6.33357 86.2808C6.31606 85.5704 6.25603 84.5873 6.13846 83.5092C6.02089 82.4311 5.8608 81.458 5.71572 80.7576C5.6832 80.5825 5.64818 80.4249 5.61566 80.2873C5.58314 80.1498 5.55813 80.0372 5.53311 79.9346C5.5081 79.8321 5.49309 79.7695 5.48058 79.712C5.47191 79.6861 5.46686 79.6592 5.46558 79.632C5.47805 79.6556 5.48731 79.6809 5.49309 79.707L5.56063 79.9271C5.59065 80.0222 5.62066 80.1423 5.65568 80.2773C5.6907 80.4124 5.72823 80.5725 5.76575 80.7476C5.96254 81.6562 6.11034 82.5747 6.2085 83.4992C6.32607 84.5798 6.3811 85.5629 6.3861 86.2758C6.3861 86.6335 6.3861 86.9211 6.3736 87.1212C6.3736 87.2138 6.3736 87.2888 6.35859 87.3514C6.35228 87.3746 6.34391 87.3972 6.33357 87.4189Z" fill="#263238"/>
<path d="M6.32856 85.5203C6.3231 85.4411 6.3231 85.3617 6.32856 85.2826C6.3417 85.0647 6.36591 84.8477 6.40111 84.6323C6.45395 84.3133 6.52494 83.9976 6.61373 83.6867C6.71849 83.305 6.85057 82.9313 7.00895 82.5686C7.28629 81.8997 7.68297 81.2869 8.17962 80.76C8.26472 80.6706 8.35582 80.587 8.45228 80.5099C8.4948 80.4749 8.52982 80.4399 8.56735 80.4098L8.67491 80.3373C8.73766 80.2889 8.80463 80.2462 8.87502 80.2097C8.64324 80.3922 8.42271 80.5885 8.21464 80.7976C7.73845 81.3295 7.35612 81.9385 7.084 82.5986C6.92403 82.9575 6.78864 83.3269 6.67876 83.7042C6.58766 84.0128 6.51252 84.3259 6.45364 84.6423C6.40361 84.9099 6.37609 85.13 6.35858 85.2826C6.3545 85.3625 6.34446 85.4419 6.32856 85.5203Z" fill="#263238"/>
<path d="M41.0759 5.52954C41.0312 5.55567 40.9833 5.57585 40.9333 5.58958L40.5131 5.74216C40.1504 5.87474 39.6301 6.07485 39.0122 6.35752C37.3702 7.09446 35.8341 8.0476 34.4446 9.19164L34.0744 9.50682L34.0344 9.54184L33.9919 9.50682C32.6595 8.4644 31.0966 7.75672 29.4343 7.44314C28.9388 7.34882 28.4372 7.28947 27.9334 7.26554C27.7558 7.25053 27.6182 7.26554 27.5232 7.24803C27.4749 7.25212 27.4264 7.25212 27.3781 7.24803C27.4256 7.23669 27.4744 7.23165 27.5232 7.23302C27.6157 7.23302 27.7558 7.23302 27.9359 7.23302C28.4458 7.23827 28.9545 7.28512 29.4568 7.3731C31.1431 7.66318 32.7308 8.36805 34.0769 9.42427H33.9944L34.3671 9.10909C35.7634 7.95706 37.3155 7.00799 38.9772 6.28998C39.6151 6.01732 40.1429 5.82971 40.5131 5.70964C40.6957 5.64961 40.8408 5.60959 40.9408 5.58207C40.9837 5.55943 41.029 5.5418 41.0759 5.52954Z" fill="#263238"/>
<path d="M21.0795 13.4291C21.0795 13.4291 20.9595 13.304 20.7293 13.1039C20.4 12.8243 20.0217 12.608 19.6137 12.4661C19.0103 12.2512 18.3571 12.2181 17.7351 12.371C16.9752 12.5655 16.3067 13.0183 15.844 13.6517C15.7167 13.8304 15.6062 14.0205 15.5139 14.2196L15.4688 14.3196L15.4038 14.2321C14.9794 13.6686 14.3819 13.26 13.7028 13.0689C13.1553 12.917 12.5768 12.917 12.0294 13.0689C11.6624 13.1686 11.3149 13.3292 11.0013 13.5442C10.7811 13.6993 10.6736 13.7943 10.6661 13.7943C10.6586 13.7943 10.6861 13.7643 10.7361 13.7143C10.8143 13.6397 10.8979 13.5712 10.9863 13.5092C11.2944 13.2731 11.6439 13.0967 12.0168 12.9889C12.5796 12.821 13.1779 12.8124 13.7453 12.9638C14.4536 13.1558 15.0782 13.5772 15.5214 14.162L15.4088 14.1745C15.5037 13.9672 15.6185 13.7695 15.7515 13.5842C16.2317 12.9265 16.9275 12.4582 17.7176 12.2609C18.2548 12.1368 18.8142 12.146 19.347 12.2877C19.8798 12.4294 20.3698 12.6993 20.7744 13.0739C20.8639 13.1553 20.9475 13.2431 21.0245 13.3366C21.0459 13.3655 21.0643 13.3965 21.0795 13.4291Z" fill="#263238"/>
<path d="M144.478 17.4889C144.313 17.5714 139.865 19.8778 139.865 19.8778L140.771 20.9884L144.723 17.9417L144.478 17.4889Z" fill="#263238"/>
<path d="M145.128 18.7595C144.998 18.8871 141.461 22.4341 141.461 22.4341L142.659 23.2171L145.508 19.1147L145.128 18.7595Z" fill="#263238"/>
<path d="M143.862 16.2106C143.677 16.2306 138.817 16.4607 138.817 16.4607L139.165 18.1842L143.935 16.7159L143.862 16.2106Z" fill="#263238"/>
<path d="M143.992 14.8574C143.81 14.8249 139.08 13.6792 139.08 13.6792L138.927 15.4302L143.917 15.3652L143.992 14.8574Z" fill="#263238"/>
<path d="M144.825 13.8318C144.68 13.7167 141.046 10.4799 141.046 10.4799L140.088 11.9532L144.52 14.247L144.825 13.8318Z" fill="#263238"/>
<path d="M145.853 13.3315C145.786 13.1614 144.238 8.54626 144.238 8.54626L142.674 9.32921L145.381 13.5191L145.853 13.3315Z" fill="#263238"/>
<path d="M147.369 13.1739C147.389 12.9888 148.15 8.17102 148.15 8.17102H146.399L146.864 13.1389L147.369 13.1739Z" fill="#263238"/>
<path d="M147.525 16.1106L161.012 13.344L161.255 19.5325L147.567 17.2137L147.525 16.1106Z" fill="#263238"/>
<path d="M148.76 16.3757C148.761 16.6421 148.682 16.9027 148.534 17.1243C148.387 17.346 148.177 17.5189 147.931 17.6211C147.685 17.7233 147.414 17.7501 147.153 17.6983C146.891 17.6464 146.651 17.5182 146.463 17.3298C146.274 17.1415 146.146 16.9015 146.094 16.6402C146.043 16.3789 146.069 16.1081 146.172 15.8621C146.274 15.6161 146.447 15.4059 146.668 15.2582C146.89 15.1105 147.151 15.032 147.417 15.0325C147.773 15.0325 148.115 15.174 148.367 15.4259C148.619 15.6778 148.76 16.0195 148.76 16.3757Z" fill="#263238"/>
<path d="M142.457 62.5597C142.384 62.5597 143.282 52.9242 144.458 41.0474C145.633 29.1706 146.652 19.5851 146.724 19.5851C146.797 19.5851 145.899 29.2181 144.723 41.0974C143.547 52.9767 142.529 62.5672 142.457 62.5597Z" fill="#263238"/>
<path d="M152.84 61.359C152.77 61.359 151.757 51.9411 150.589 40.3119C149.421 28.6828 148.518 19.2474 148.588 19.2399C148.658 19.2324 149.668 28.6528 150.839 40.2869C152.01 51.9211 152.913 61.359 152.84 61.359Z" fill="#263238"/>
<path d="M150.083 34.8013C150.083 34.8713 149.043 34.9314 147.762 34.9314C146.481 34.9314 145.441 34.8713 145.441 34.8013C145.441 34.7312 146.479 34.6687 147.762 34.6687C149.045 34.6687 150.083 34.7287 150.083 34.8013Z" fill="#263238"/>
<path d="M151.079 45.3498C151.079 45.4223 149.561 45.4799 147.69 45.4799C145.819 45.4799 144.303 45.4223 144.303 45.3498C144.303 45.2773 145.819 45.2197 147.69 45.2197C149.561 45.2197 151.079 45.2823 151.079 45.3498Z" fill="#263238"/>
<path d="M152.31 56.1059C152.31 56.1784 150.254 56.236 147.717 56.236C145.181 56.236 143.122 56.1784 143.122 56.1059C143.122 56.0334 145.178 55.9758 147.717 55.9758C150.256 55.9758 152.31 56.0409 152.31 56.1059Z" fill="#263238"/>
<path d="M147.547 17.2012C147.62 17.2012 147.762 27.1594 147.867 39.4389C147.972 51.7184 147.997 61.6791 147.927 61.6816C147.857 61.6841 147.712 51.7259 147.607 39.4414C147.502 27.1569 147.475 17.2012 147.547 17.2012Z" fill="#263238"/>
<path d="M153.595 16.6033C153.589 16.5694 153.585 16.5352 153.583 16.5008C153.583 16.4282 153.583 16.3282 153.563 16.2006C153.563 16.1356 153.563 16.0605 153.548 15.9805C153.533 15.9004 153.52 15.8129 153.508 15.7153C153.478 15.4956 153.433 15.2782 153.373 15.0649C153.224 14.475 152.987 13.9109 152.67 13.3915C151.921 12.1398 150.759 11.1882 149.385 10.7006C148.01 10.213 146.508 10.2198 145.138 10.72C144.858 10.8217 144.584 10.9421 144.32 11.0802C144.053 11.2285 143.798 11.3957 143.555 11.5804C143.305 11.7654 143.067 11.9668 142.844 12.1833C142.624 12.412 142.419 12.6552 142.231 12.9112C141.842 13.4336 141.539 14.0156 141.336 14.6347C140.906 15.9161 140.906 17.303 141.336 18.5845C141.538 19.2044 141.84 19.7873 142.229 20.3104C142.417 20.5662 142.623 20.8086 142.844 21.0359C143.067 21.2525 143.304 21.4547 143.552 21.6412C143.796 21.8254 144.053 21.9926 144.32 22.1415C144.584 22.2796 144.858 22.3999 145.138 22.5017C146.509 23.0001 148.01 23.0058 149.384 22.5179C150.759 22.0299 151.92 21.0788 152.67 19.8277C152.987 19.3092 153.224 18.7458 153.373 18.1567C153.433 17.9426 153.478 17.7244 153.508 17.5038C153.508 17.4088 153.538 17.3212 153.548 17.2412C153.558 17.1611 153.548 17.0861 153.563 17.0211C153.563 16.8935 153.578 16.7934 153.583 16.7209C153.585 16.6865 153.589 16.6522 153.595 16.6183C153.598 16.6525 153.598 16.6868 153.595 16.7209C153.595 16.7934 153.595 16.8935 153.595 17.0211C153.595 17.0886 153.595 17.1636 153.595 17.2437C153.595 17.3237 153.573 17.4138 153.56 17.5088C153.536 17.7316 153.495 17.9523 153.438 18.1692C153.297 18.7669 153.064 19.339 152.747 19.8652C152.289 20.6436 151.67 21.3154 150.932 21.8356C150.193 22.3558 149.352 22.7125 148.465 22.8819C147.344 23.0946 146.186 23.0022 145.113 22.6143C144.827 22.5113 144.548 22.3893 144.278 22.249C144.005 22.1007 143.744 21.9335 143.495 21.7488C143.239 21.5603 142.997 21.3547 142.769 21.1334C142.543 20.8979 142.333 20.6472 142.141 20.383C141.745 19.8523 141.436 19.261 141.228 18.632C140.788 17.3239 140.788 15.9077 141.228 14.5997C141.437 13.9708 141.745 13.3795 142.141 12.8487C142.335 12.5856 142.544 12.3349 142.769 12.0982C142.997 11.8769 143.239 11.6713 143.495 11.4829C143.744 11.2981 144.005 11.131 144.278 10.9826C144.547 10.8413 144.826 10.7193 145.113 10.6174C146.115 10.2526 147.193 10.1469 148.247 10.31C149.301 10.4731 150.297 10.8998 151.142 11.5504C151.789 12.0453 152.335 12.6612 152.747 13.364C153.063 13.8914 153.296 14.4643 153.438 15.0624C153.495 15.2784 153.536 15.4983 153.56 15.7203C153.56 15.8179 153.588 15.9054 153.595 15.988C153.603 16.0705 153.595 16.1431 153.595 16.2081C153.595 16.3357 153.595 16.4357 153.595 16.5108C153.598 16.5416 153.598 16.5725 153.595 16.6033Z" fill="#263238"/>
<path d="M149.641 14.5547C149.846 14.5847 154.393 13.2264 154.393 13.2264L153.118 10.9951L149.496 14.1369L149.641 14.5547Z" fill="#263238"/>
<path d="M148.585 13.4915C148.718 13.3615 152.502 9.94702 152.502 9.94702L150.711 8.57874L148.21 13.3315L148.585 13.4915Z" fill="#263238"/>
<path d="M150.186 16.2706C150.369 16.2531 155.229 16.0205 155.229 16.0205L154.881 14.297L150.113 15.7653L150.186 16.2706Z" fill="#263238"/>
<path d="M149.958 17.9966C150.139 18.0366 154.814 19.3949 154.814 19.3949L155.044 17.6439L150.056 17.4813L149.958 17.9966Z" fill="#263238"/>
<path d="M149.276 19.1423C149.421 19.2549 153.055 22.4942 153.055 22.4942L154.013 21.0209L149.581 18.7271L149.276 19.1423Z" fill="#263238"/>
<path d="M148.21 19.3599C148.277 19.53 149.826 24.1451 149.826 24.1451L151.389 23.3422L148.68 19.1498L148.21 19.3599Z" fill="#263238"/>
<path d="M146.364 19.2399C146.326 19.42 145.026 24.1102 145.026 24.1102L146.777 24.3178L146.877 19.3299L146.364 19.2399Z" fill="#263238"/>
<path d="M88.946 61.404L88.7183 61.3415L88.053 61.1389L85.499 60.3584L76.1161 57.4518L73.0069 56.4837C71.9262 56.1485 70.7981 55.8108 69.6499 55.4006C67.3436 54.6077 64.8747 53.7797 62.2582 52.9592C57.0277 51.3258 51.2119 49.7074 44.9858 48.5817C41.9572 48.0284 38.9023 47.6301 35.8331 47.3885C32.9755 47.1652 30.1072 47.111 27.2432 47.2259C24.6516 47.3319 22.0683 47.5875 19.5062 47.9914C17.2762 48.3574 15.0683 48.8468 12.8924 49.4572C9.74533 50.3568 6.69268 51.5589 3.77723 53.0468C3.27695 53.3194 2.79917 53.547 2.41395 53.7672L1.43839 54.335L0.838051 54.6827L0.630432 54.7978C0.630432 54.7978 0.695469 54.7527 0.830546 54.6702L1.42589 54.3125L2.39394 53.7322C2.77916 53.5045 3.24193 53.2769 3.75222 53.0017C6.6639 51.4932 9.71703 50.2749 12.8674 49.3646C15.0456 48.7489 17.2561 48.2537 19.4887 47.8813C22.0564 47.4729 24.6455 47.2131 27.2432 47.1034C30.112 46.9858 32.9853 47.0375 35.8481 47.2584C38.9213 47.5003 41.9803 47.8977 45.0133 48.4491C51.2469 49.5748 57.0677 51.2007 62.2982 52.8416C64.9147 53.6671 67.3861 54.5001 69.69 55.2956C70.8356 55.7083 71.9638 56.046 73.0444 56.3862L76.1437 57.3567L85.5165 60.3034L88.0605 61.1089L88.7234 61.3215L88.946 61.404Z" fill="#263238"/>
<path d="M144.285 64.1106C144.285 64.1456 128.649 64.1756 109.363 64.1756C90.0766 64.1756 74.4352 64.1456 74.4352 64.1106C74.4352 64.0756 90.0691 64.0455 109.363 64.0455C128.656 64.0455 144.285 64.0605 144.285 64.1106Z" fill="#263238"/>
<path d="M170 64.861L169.922 64.836L169.702 64.7534L168.862 64.4257C168.499 64.2832 168.054 64.1006 167.526 63.9255L166.683 63.6328L166.225 63.4727L165.725 63.3276C165.055 63.13 164.324 62.8949 163.521 62.7123C163.121 62.6172 162.711 62.4996 162.27 62.4121L160.945 62.1444C158.97 61.7845 156.974 61.5588 154.969 61.469C152.966 61.3985 150.961 61.4503 148.965 61.6241L147.62 61.7542C147.182 61.8017 146.762 61.8668 146.354 61.9168C145.536 62.0144 144.78 62.1544 144.103 62.267L143.602 62.3521L143.125 62.4471L142.249 62.6197C141.701 62.7223 141.248 62.8298 140.853 62.9174L139.973 63.11L139.743 63.1575L139.663 63.17C139.686 63.1578 139.711 63.1493 139.738 63.145L139.965 63.085L140.843 62.8673C141.223 62.7748 141.689 62.6572 142.234 62.5472L143.107 62.3646L143.585 62.267L144.085 62.1769C144.778 62.0594 145.531 61.9143 146.351 61.8117C146.759 61.7567 147.182 61.6892 147.617 61.6416L148.965 61.5041C150.971 61.3224 152.986 61.2673 154.999 61.339C157.014 61.4284 159.02 61.6582 161.002 62.0269L162.331 62.2995C162.761 62.3896 163.171 62.5096 163.581 62.6072C164.387 62.7948 165.117 63.0349 165.787 63.2401L166.288 63.3901L166.748 63.5552L167.589 63.8554C168.116 64.038 168.557 64.2256 168.919 64.3782L169.752 64.7284L169.967 64.821C169.977 64.8335 170.002 64.846 170 64.861Z" fill="#263238"/>
<path d="M128.854 66.507C128.874 66.507 128.799 66.8121 128.719 67.3024C128.613 67.9421 128.568 68.5903 128.584 69.2385C128.602 69.8863 128.68 70.531 128.816 71.1646C128.921 71.6499 129.014 71.9476 128.994 71.9526C128.974 71.9576 128.954 71.885 128.904 71.7525C128.854 71.6199 128.791 71.4273 128.726 71.1846C128.396 69.9101 128.362 68.5772 128.626 67.2874C128.679 67.0373 128.731 66.8447 128.774 66.7096C128.79 66.6384 128.817 66.57 128.854 66.507Z" fill="#263238"/>
<path d="M130.715 67.4974C130.67 67.7363 130.606 67.9713 130.525 68.2003C130.397 68.6306 130.232 69.2259 130.08 69.8938C129.927 70.5617 129.829 71.1695 129.747 71.6123C129.721 71.8538 129.677 72.093 129.614 72.3277C129.604 72.0842 129.618 71.8404 129.657 71.5998C129.722 71.016 129.821 70.4364 129.952 69.8638C130.083 69.2918 130.245 68.7273 130.437 68.1728C130.507 67.9389 130.6 67.7127 130.715 67.4974Z" fill="#263238"/>
<path d="M132.826 67.7501C132.679 67.9696 132.518 68.1801 132.346 68.3805C131.953 68.882 131.588 69.4039 131.25 69.9439C130.915 70.485 130.608 71.0427 130.33 71.6148C130.226 71.8596 130.108 72.0977 129.974 72.3277C130.039 72.0689 130.131 71.8175 130.247 71.5773C130.758 70.3991 131.441 69.3033 132.273 68.3255C132.435 68.1131 132.62 67.9201 132.826 67.7501Z" fill="#263238"/>
<path d="M128.516 71.3147C128.302 71.1552 128.117 70.9617 127.966 70.7418C127.781 70.5499 127.628 70.3295 127.513 70.089C127.543 70.0639 127.788 70.3216 128.066 70.6618C128.251 70.8533 128.403 71.0739 128.516 71.3147Z" fill="#263238"/>
<path d="M69.6124 59.0826C69.6124 59.0826 69.675 59.1377 69.7725 59.2527C69.8701 59.3678 70.0051 59.5404 70.1652 59.753C70.5774 60.3241 70.9518 60.9215 71.2859 61.5416C71.6208 62.1614 71.9133 62.8033 72.1614 63.4627C72.2564 63.7128 72.3265 63.9229 72.369 64.068C72.397 64.1421 72.4155 64.2194 72.424 64.2981C72.2924 64.0384 72.1763 63.7711 72.0763 63.4977C71.8662 62.9974 71.561 62.3245 71.1708 61.6041C70.7806 60.8837 70.3879 60.2533 70.0877 59.8081C69.916 59.5752 69.7573 59.3331 69.6124 59.0826Z" fill="#263238"/>
<path d="M71.6736 59.0876C71.7848 59.3022 71.8737 59.5277 71.9387 59.7605C72.0813 60.1858 72.2539 60.7786 72.404 61.444C72.5541 62.1094 72.6541 62.7222 72.7066 63.165C72.7466 63.4038 72.7634 63.6459 72.7567 63.8879C72.6903 63.6561 72.6426 63.4194 72.6141 63.18C72.5391 62.7397 72.4265 62.1369 72.2789 61.474C72.1313 60.8111 71.9687 60.2233 71.8512 59.788C71.7743 59.5594 71.7149 59.3253 71.6736 59.0876Z" fill="#263238"/>
<path d="M73.8973 60.4084C73.9374 60.4084 73.7397 61.1589 73.7047 62.1019C73.6697 63.045 73.7923 63.7979 73.7523 63.8054C73.6858 63.6462 73.6461 63.4772 73.6347 63.3051C73.5755 62.9019 73.5545 62.494 73.5721 62.0869C73.5902 61.6798 73.6463 61.2753 73.7397 60.8787C73.7675 60.7147 73.8207 60.5561 73.8973 60.4084Z" fill="#263238"/>
<path d="M75.4032 62.3995C75.3487 62.9153 75.2084 63.4184 74.988 63.8879C75.0416 63.3719 75.182 62.8687 75.4032 62.3995Z" fill="#263238"/>
<path d="M88.946 64.098V50.3202L114.383 32.5325L139.82 50.7004V64.098H88.946Z" fill="#FF725E"/>
<path d="M89.5488 50.1826C89.5488 50.1451 100.805 50.1176 114.668 50.1176C128.531 50.1176 139.788 50.1451 139.788 50.1826C139.788 50.2201 128.531 50.2476 114.668 50.2476C100.805 50.2476 89.5488 50.2176 89.5488 50.1826Z" fill="#263238"/>
<g opacity="0.2">
<path opacity="0.2" d="M120.602 52.3263V64.0755H126.077V52.5689V52.3263H120.602Z" fill="black"/>
</g>
<path opacity="0.2" d="M113.758 32.0922L139.637 50.1025V52.7865L114.2 35.0939C114.2 35.0939 89.0059 50.3201 88.7633 50.3251L113.758 32.0922Z" fill="black"/>
<path d="M109.473 64.128C109.46 64.128 109.448 57.937 109.448 50.2976C109.448 42.6582 109.46 36.4672 109.473 36.4672C109.485 36.4672 109.5 42.6582 109.5 50.2976C109.5 57.937 109.488 64.128 109.473 64.128Z" fill="#263238"/>
<path d="M111.239 64.0755C111.224 64.0755 111.214 57.5868 111.214 49.5847C111.214 41.5826 111.214 35.0764 111.239 35.0764C111.264 35.0764 111.264 41.5651 111.264 49.5847C111.264 57.6043 111.239 64.0755 111.239 64.0755Z" fill="#263238"/>
<path d="M112.925 64.0755C112.91 64.0755 112.9 57.3217 112.9 48.9969C112.9 40.6721 112.9 33.9158 112.925 33.9158C112.95 33.9158 112.95 40.6696 112.95 48.9969C112.95 57.3242 112.94 64.0755 112.925 64.0755Z" fill="#263238"/>
<path d="M114.623 64.0755C114.608 64.0755 114.598 57.094 114.598 48.4841C114.598 39.8741 114.598 32.8901 114.623 32.8901C114.648 32.8901 114.651 39.8691 114.651 48.4841C114.651 57.099 114.638 64.0755 114.623 64.0755Z" fill="#263238"/>
<path d="M116.322 64.0755C116.309 64.0755 116.297 57.3917 116.297 49.1495C116.297 40.9073 116.297 34.2209 116.322 34.2209C116.347 34.2209 116.349 40.9048 116.349 49.1495C116.349 57.3942 116.337 64.0755 116.322 64.0755Z" fill="#263238"/>
<path d="M118.02 64.0755C118.008 64.0755 117.995 57.5868 117.995 49.5847C117.995 41.5826 118.008 35.0764 118.02 35.0764C118.033 35.0764 118.048 41.5651 118.048 49.5847C118.048 57.6043 118.035 64.0755 118.02 64.0755Z" fill="#263238"/>
<path d="M119.721 64.0755C119.706 64.0755 119.694 57.8969 119.694 50.2726C119.694 42.6482 119.706 36.4672 119.721 36.4672C119.736 36.4672 119.746 42.6482 119.746 50.2726C119.746 57.8969 119.744 64.0755 119.721 64.0755Z" fill="#263238"/>
<path d="M121.42 64.0756C121.405 64.0756 121.392 58.1822 121.392 50.9155C121.392 43.6489 121.392 37.7505 121.42 37.7505C121.447 37.7505 121.445 43.6439 121.445 50.9155C121.445 58.1872 121.432 64.0756 121.42 64.0756Z" fill="#263238"/>
<path d="M123.118 64.0755C123.103 64.0755 123.091 58.4673 123.091 51.5509C123.091 44.6344 123.091 39.0237 123.118 39.0237C123.146 39.0237 123.143 44.6319 123.143 51.5509C123.143 58.4698 123.133 64.0755 123.118 64.0755Z" fill="#263238"/>
<path d="M124.816 64.0755C124.801 64.0755 124.791 58.6123 124.791 51.8735C124.791 45.1346 124.791 39.6715 124.816 39.6715C124.841 39.6715 124.841 45.1346 124.841 51.8735C124.841 58.6123 124.831 64.0755 124.816 64.0755Z" fill="#263238"/>
<path d="M126.515 64.0755C126.5 64.0755 126.49 58.86 126.49 52.4288C126.49 45.9976 126.49 40.7797 126.515 40.7797C126.54 40.7797 126.54 45.9951 126.54 52.4288C126.54 58.8625 126.53 64.0755 126.515 64.0755Z" fill="#263238"/>
<path d="M128.213 64.0756C128.198 64.0756 128.188 59.0277 128.188 52.8016C128.188 46.5755 128.188 41.5251 128.213 41.5251C128.238 41.5251 128.241 46.573 128.241 52.8016C128.241 59.0302 128.228 64.0756 128.213 64.0756Z" fill="#263238"/>
<path d="M107.839 63.9605C107.827 63.9605 107.814 58.0196 107.814 50.7029C107.814 43.3862 107.827 37.4453 107.839 37.4453C107.852 37.4453 107.867 43.3837 107.867 50.7029C107.867 58.0221 107.854 63.9605 107.839 63.9605Z" fill="#263238"/>
<path d="M106.263 38.1582C106.278 38.1582 106.288 43.9665 106.288 51.1281C106.288 58.2897 106.288 64.0981 106.263 64.0981C106.238 64.0981 106.236 58.2922 106.236 51.1281C106.236 43.964 106.248 38.1582 106.263 38.1582Z" fill="#263238"/>
<path d="M104.685 64.1105C104.672 64.1105 104.66 58.4673 104.66 51.5058C104.66 44.5443 104.672 38.9036 104.685 38.9036C104.697 38.9036 104.713 44.5443 104.713 51.5058C104.713 58.4673 104.7 64.1105 104.685 64.1105Z" fill="#263238"/>
<path d="M103.109 64.1706C103.094 64.1706 103.082 58.6675 103.082 51.8961C103.082 45.1247 103.094 39.6216 103.109 39.6216C103.124 39.6216 103.134 45.1247 103.134 51.8961C103.134 58.6675 103.124 64.1706 103.109 64.1706Z" fill="#263238"/>
<path d="M101.531 64.1105C101.518 64.1105 101.506 58.795 101.506 52.2387C101.506 45.6825 101.518 40.3669 101.531 40.3669C101.543 40.3669 101.558 45.6825 101.558 52.2387C101.558 58.795 101.546 64.1105 101.531 64.1105Z" fill="#263238"/>
<path d="M99.9547 64.1106C99.9397 64.1106 99.9272 58.9576 99.9272 52.604C99.9272 46.2504 99.9397 41.0974 99.9547 41.0974C99.9697 41.0974 99.9797 46.2479 99.9797 52.604C99.9797 58.9601 99.9672 64.1106 99.9547 64.1106Z" fill="#263238"/>
<path d="M91.9352 48.0564C91.9502 48.0564 91.9627 51.6034 91.9627 55.9759C91.9627 60.3484 91.9502 63.9005 91.9352 63.9005C91.9202 63.9005 91.9102 60.3534 91.9102 55.9759C91.9102 51.5984 91.9202 48.0564 91.9352 48.0564Z" fill="#263238"/>
<path d="M90.4468 48.0564C90.4593 48.0564 90.4718 51.6034 90.4718 55.9759C90.4718 60.3484 90.4593 63.9005 90.4468 63.9005C90.4343 63.9005 90.4193 60.3534 90.4193 55.9759C90.4193 51.5984 90.4318 48.0564 90.4468 48.0564Z" fill="#263238"/>
<path d="M96.7304 63.933C96.7179 63.933 96.7054 59.698 96.7054 54.4726C96.7054 49.2471 96.7179 45.0096 96.7304 45.0096C96.7429 45.0096 96.7579 49.2446 96.7579 54.4726C96.7579 59.7005 96.7554 63.933 96.7304 63.933Z" fill="#263238"/>
<path d="M98.3989 64.0354C98.3863 64.0354 98.3438 59.5879 98.3063 54.1023C98.2688 48.6166 98.2488 44.1691 98.2638 44.1691C98.2788 44.1691 98.3213 48.6166 98.3588 54.1023C98.3963 59.5879 98.4139 64.0354 98.3989 64.0354Z" fill="#263238"/>
<path d="M95.0495 64.0005C95.0345 64.0005 95.022 60.0457 95.022 55.1654C95.022 50.2851 95.0345 46.3279 95.0495 46.3279C95.0645 46.3279 95.0745 50.2851 95.0745 55.1654C95.0745 60.0457 95.0645 64.0005 95.0495 64.0005Z" fill="#263238"/>
<path d="M93.4936 63.9329C93.4786 63.9329 93.4661 60.2358 93.4661 55.6782C93.4661 51.1206 93.4786 47.4235 93.4936 47.4235C93.5086 47.4235 93.5186 51.1231 93.5186 55.6782C93.5186 60.2333 93.5061 63.9329 93.4936 63.9329Z" fill="#263238"/>
<path d="M129.862 64.1106C129.847 64.1106 129.834 59.3854 129.834 53.5595C129.834 47.7337 129.834 43.006 129.862 43.006C129.889 43.006 129.887 47.7287 129.887 53.5595C129.887 59.3904 129.877 64.1106 129.862 64.1106Z" fill="#263238"/>
<path d="M131.61 64.0656C131.598 64.0656 131.585 59.6705 131.585 54.2499C131.585 48.8293 131.585 44.4343 131.61 44.4343C131.635 44.4343 131.638 48.8293 131.638 54.2499C131.638 59.6705 131.625 64.0656 131.61 64.0656Z" fill="#263238"/>
<path d="M133.156 64.1106C133.141 64.1106 133.129 59.9382 133.129 54.7927C133.129 49.6473 133.129 45.4774 133.156 45.4774C133.184 45.4774 133.181 49.6473 133.181 54.7927C133.181 59.9382 133.171 64.1106 133.156 64.1106Z" fill="#263238"/>
<path d="M135.042 64.168C135.027 64.168 135.015 60.1657 135.015 55.2529C135.015 50.3401 135.027 46.3403 135.042 46.3403C135.057 46.3403 135.067 50.3426 135.067 55.2529C135.067 60.1632 135.055 64.168 135.042 64.168Z" fill="#263238"/>
<path d="M137.044 64.168C137.044 64.168 137.018 60.5384 137.018 56.0634C137.018 51.5883 137.031 47.9587 137.044 47.9587C137.056 47.9587 137.071 51.5858 137.071 56.0634C137.071 60.5409 137.059 64.168 137.044 64.168Z" fill="#263238"/>
<path d="M138.95 64.168C138.935 64.168 138.925 60.8461 138.925 56.7463C138.925 52.6464 138.925 49.327 138.95 49.327C138.975 49.327 138.975 52.6489 138.975 56.7463C138.975 60.8436 138.965 64.168 138.95 64.168Z" fill="#263238"/>
<path d="M140.586 51.3883L114.438 32.8902L87.4401 51.3883L86.8022 50.3627L114.2 31.1742L141.253 50.6378L140.586 51.3883Z" fill="#263238"/>
<path d="M119.408 52.3263L119.328 64.128H109.418L109.36 52.3263" fill="#263238"/>
<path d="M109.36 52.3263H103.885V64.0755H109.36V52.5689" fill="#E0E0E0"/>
<path d="M109.36 52.5689C109.362 52.5872 109.362 52.6057 109.36 52.6239C109.36 52.6665 109.36 52.719 109.36 52.7865C109.36 52.9391 109.36 53.1517 109.36 53.4219C109.36 53.9847 109.36 54.7927 109.378 55.8033C109.378 57.8494 109.393 60.7236 109.4 64.0755V64.138H103.797V63.9529C103.797 59.4504 103.809 55.353 103.814 52.3238V52.2762H103.862L107.864 52.2988H108.955H109.238C109.27 52.2949 109.303 52.2949 109.335 52.2988C109.303 52.3021 109.27 52.3021 109.238 52.2988L108.987 52.3538L107.897 52.3663L103.894 52.3863L103.942 52.3388C103.942 55.368 103.942 59.4654 103.96 63.9679V64.088L103.894 64.023H109.37L109.308 64.083C109.308 60.7311 109.325 57.8569 109.333 55.8108C109.333 54.8102 109.345 53.9922 109.35 53.4294C109.35 53.1592 109.35 52.9466 109.35 52.794C109.35 52.7265 109.35 52.674 109.35 52.6314C109.35 52.5889 109.358 52.5689 109.36 52.5689Z" fill="#E0E0E0"/>
<path d="M119.408 52.3263V64.0755H124.882V52.5689V52.3263H119.408Z" fill="#E0E0E0"/>
<path d="M119.408 52.3263H119.498H119.779H120.862L124.882 52.2988H124.929V52.3464C124.929 55.4031 124.929 59.543 124.947 64.1031C125.007 64.0456 124.869 64.1831 124.882 64.1681H119.346V64.1056C119.358 60.6811 119.368 57.7394 119.376 55.6432C119.376 54.6127 119.388 53.7897 119.393 53.2169C119.393 52.9417 119.393 52.7166 119.393 52.574V52.4114C119.391 52.3931 119.391 52.3746 119.393 52.3564C119.393 52.3564 119.393 52.3789 119.393 52.4189V52.589C119.393 52.7466 119.393 52.9642 119.393 53.2444C119.393 53.8197 119.393 54.6477 119.411 55.6858C119.411 57.7695 119.428 60.6886 119.438 64.1056L119.378 64.0456H124.852C124.867 64.033 124.729 64.1681 124.787 64.1106C124.787 59.558 124.802 55.4181 124.804 52.3539L124.852 52.4014L120.862 52.3764L119.766 52.3639H119.478C119.454 52.3535 119.431 52.3409 119.408 52.3263Z" fill="#E0E0E0"/>
<path d="M116.802 38.3508H112.444V44.1391H116.802V38.3508Z" fill="#E0E0E0"/>
<path d="M114.651 44.1191C114.616 44.1191 114.586 42.8284 114.586 41.235C114.586 39.6416 114.616 38.3508 114.651 38.3508C114.686 38.3508 114.716 39.6416 114.716 41.235C114.716 42.8284 114.686 44.1191 114.651 44.1191Z" fill="#263238"/>
<path d="M116.824 41.1349C115.358 41.2216 113.888 41.2216 112.422 41.1349C113.888 41.0481 115.358 41.0481 116.824 41.1349Z" fill="#263238"/>
<path d="M99.1093 82.1034C99.1093 82.1034 103.534 75.6473 106.378 75.3496C108.024 75.1795 111.809 81.4681 111.732 81.5156C111.654 81.5631 108.91 82.3036 108.91 82.3036L106.236 78.619L103.579 82.3136L99.1093 82.1034Z" fill="#FF725E"/>
<path d="M88.6659 80.7902L95.8725 81.4605L102.539 81.313L105.245 83.992L105.018 88.2694L85.5841 88.412L88.6659 80.7902Z" fill="#FF725E"/>
<path d="M101.733 85.6705L110.738 84.75C110.992 84.7169 111.25 84.7383 111.494 84.8126C111.739 84.8869 111.965 85.0126 112.157 85.1811C112.349 85.3496 112.503 85.5572 112.609 85.79C112.714 86.0227 112.769 86.2754 112.77 86.531C112.77 86.9999 112.587 87.4503 112.26 87.7862C111.933 88.1222 111.487 88.3171 111.019 88.3295L101.713 88.257L101.733 85.6705Z" fill="#FF725E"/>
<path d="M91.1222 80.9978C91.1222 80.9978 91.1222 81.0304 91.1097 81.0904C91.0887 81.1775 91.0568 81.2615 91.0146 81.3405C90.8529 81.6177 90.6525 81.8704 90.4193 82.091C90.269 82.2434 90.1348 82.4111 90.0191 82.5913C89.8925 82.8021 89.8005 83.0318 89.7464 83.2716C89.6403 83.832 89.6067 84.4037 89.6464 84.9726C89.6833 85.5556 89.6224 86.1407 89.4663 86.7036C89.3202 87.1673 89.0167 87.5655 88.6083 87.8292C88.3353 87.9985 88.0397 88.1282 87.7303 88.2145C87.6198 88.2538 87.5045 88.2782 87.3876 88.287C87.4931 88.239 87.6018 88.1981 87.7128 88.1644C88.0098 88.0635 88.293 87.9257 88.5557 87.7542C88.9387 87.4944 89.2199 87.1099 89.3512 86.6661C89.4973 86.1151 89.5522 85.5439 89.5138 84.9751C89.4757 84.3947 89.5144 83.8119 89.6289 83.2416C89.6895 82.9912 89.79 82.7522 89.9265 82.5337C90.0509 82.3522 90.1943 82.1845 90.3543 82.0334C90.587 81.8213 90.7943 81.5829 90.9721 81.323C91.0847 81.1204 91.1097 80.9953 91.1222 80.9978Z" fill="#FAFAFA"/>
<path d="M93.9263 88.2794C94.0244 87.9434 94.0799 87.5963 94.0914 87.2463C94.089 86.866 94.0411 86.4872 93.9488 86.1182C93.8336 85.6644 93.695 85.2169 93.5336 84.7774C93.3673 84.3354 93.2286 83.8834 93.1183 83.4242C93.0259 83.0461 92.9821 82.6577 92.9883 82.2685C92.9934 82.0059 93.0372 81.7454 93.1183 81.4956C93.1427 81.4029 93.1806 81.3144 93.2309 81.2329C93.1388 81.5707 93.0884 81.9185 93.0808 82.2685C93.0871 82.6492 93.1383 83.0279 93.2334 83.3966C93.351 83.8498 93.4921 84.2965 93.6561 84.7349C93.8198 85.1783 93.9568 85.631 94.0664 86.0907C94.1553 86.4701 94.1948 86.8593 94.1839 87.2489C94.1761 87.5112 94.1289 87.7709 94.0439 88.0193C94.0194 88.1119 93.9796 88.1998 93.9263 88.2794Z" fill="#FAFAFA"/>
<path d="M98.0811 81.3705C98.0811 81.3705 98.1037 81.388 98.1337 81.428C98.1782 81.4879 98.2144 81.5535 98.2412 81.6231C98.3363 81.8818 98.3537 82.1627 98.2913 82.4311C98.1986 82.825 98.0285 83.1966 97.791 83.5242C97.4965 83.9074 97.2542 84.3279 97.0706 84.7749C96.9377 85.2321 96.9562 85.7199 97.1231 86.1657C97.2582 86.5885 97.4283 86.9562 97.5433 87.2764C97.6431 87.5271 97.7153 87.7879 97.7585 88.0543C97.7814 88.1509 97.7873 88.2508 97.776 88.3495C97.7018 87.9937 97.5955 87.6454 97.4583 87.3089C97.3332 86.9962 97.1531 86.6335 97.008 86.2033C96.8258 85.7341 96.8038 85.2179 96.9455 84.7349C97.1352 84.2792 97.3878 83.8523 97.6959 83.4667C97.9313 83.1546 98.1053 82.8006 98.2087 82.4236C98.2796 82.1708 98.2796 81.9034 98.2087 81.6506C98.1362 81.4655 98.0711 81.3705 98.0811 81.3705Z" fill="#FAFAFA"/>
<path d="M102.954 88.3169C102.798 88.2561 102.66 88.1592 102.549 88.0343C102.257 87.7528 102.048 87.3974 101.943 87.0061C101.838 86.6148 101.842 86.2024 101.953 85.813C101.987 85.6491 102.059 85.4956 102.164 85.3652C102.184 85.3652 102.103 85.5428 102.043 85.833C101.963 86.2093 101.973 86.5992 102.071 86.9712C102.173 87.3422 102.36 87.6846 102.616 87.9717C102.811 88.1919 102.966 88.2994 102.954 88.3169Z" fill="#FAFAFA"/>
<path d="M107.256 88.3345C107.256 88.3495 107.041 88.297 106.824 88.0393C106.701 87.8903 106.606 87.721 106.541 87.5391C106.464 87.3196 106.408 87.0935 106.373 86.8637C106.339 86.6397 106.293 86.4176 106.236 86.1983C106.188 86.0238 106.119 85.8557 106.031 85.698C105.937 85.5581 105.832 85.4267 105.716 85.3053C105.716 85.2903 105.921 85.3728 106.108 85.648C106.218 85.8074 106.303 85.9829 106.358 86.1683C106.423 86.39 106.473 86.6156 106.509 86.8437C106.542 87.0666 106.593 87.2866 106.661 87.5015C106.719 87.6744 106.804 87.8372 106.911 87.9843C107.012 88.1145 107.128 88.2321 107.256 88.3345Z" fill="#FAFAFA"/>
<path d="M110.646 88.6472C110.623 88.6472 110.686 88.417 110.718 88.0493C110.797 87.0825 110.513 86.1211 109.92 85.3528C109.695 85.0626 109.52 84.9075 109.535 84.89C109.711 84.9961 109.866 85.1334 109.993 85.2952C110.316 85.6727 110.555 86.114 110.696 86.5903C110.836 87.0666 110.875 87.5672 110.808 88.0593C110.791 88.2637 110.736 88.463 110.646 88.6472Z" fill="#FAFAFA"/>
<path d="M102.043 78.3988C102.019 78.5955 102.032 78.7952 102.084 78.9866C102.148 79.1904 102.245 79.3829 102.369 79.557C102.506 79.7571 102.684 79.9647 102.844 80.2073C103.002 80.4325 103.111 80.6881 103.164 80.9578C103.205 81.181 103.205 81.4099 103.164 81.6332C103.139 81.782 103.093 81.9267 103.029 82.0634C103.009 82.1155 102.978 82.1631 102.939 82.2035C102.916 82.2035 103.029 81.9834 103.074 81.6181C103.128 81.1423 103.007 80.6631 102.734 80.2699C102.579 80.0372 102.404 79.8246 102.266 79.612C102.139 79.4254 102.046 79.218 101.991 78.9991C101.959 78.9007 101.947 78.7968 101.956 78.6937C101.965 78.5905 101.995 78.4903 102.043 78.3988Z" fill="#FAFAFA"/>
<path d="M106.173 78.7515C106.13 78.6094 106.094 78.4649 106.066 78.3188C105.971 77.978 105.818 77.6564 105.613 77.3683C105.406 77.0824 105.153 76.8337 104.863 76.6328C104.732 76.5575 104.607 76.4739 104.487 76.3827C104.639 76.4063 104.784 76.4626 104.913 76.5478C105.233 76.7344 105.51 76.987 105.726 77.2889C105.942 77.5908 106.091 77.935 106.163 78.2988C106.201 78.447 106.205 78.6018 106.173 78.7515Z" fill="#FAFAFA"/>
<path d="M109.155 77.5283C109.03 77.5963 108.909 77.6706 108.792 77.751C108.539 77.9863 108.328 78.2629 108.167 78.5689C108.066 78.7386 107.946 78.897 107.812 79.0417C107.699 79.1607 107.565 79.2575 107.417 79.3269C107.35 79.3655 107.277 79.3907 107.201 79.401C107.125 79.4113 107.048 79.4065 106.974 79.3869C107.112 79.3541 107.246 79.3063 107.374 79.2443C107.505 79.1689 107.624 79.0726 107.724 78.9592C107.848 78.8155 107.959 78.6616 108.057 78.4989C108.224 78.181 108.456 77.9015 108.737 77.6784C108.854 77.5804 109.002 77.5272 109.155 77.5283Z" fill="#FAFAFA"/>
<path d="M65.1473 85.818L66.3355 84.6423L68.5868 86.8486L66.8708 88.5996L66.7207 88.472C66.0679 87.8967 63.4364 85.5028 63.1462 84.97C62.816 84.3722 65.1473 85.818 65.1473 85.818Z" fill="#FF725E"/>
<g opacity="0.5">
<path opacity="0.5" d="M66.0679 87.7691C66.2867 87.6168 66.5534 87.5492 66.8183 87.579C67.0825 87.6079 67.3267 87.7335 67.5037 87.9317L66.8859 88.5521L66.0679 87.7691Z" fill="white"/>
</g>
<g opacity="0.4">
<path opacity="0.4" d="M63.9767 85.1427C63.9767 85.1427 63.1162 84.675 63.0912 84.8676C63.0662 85.0602 65.6351 87.5741 66.8658 88.5872L66.9109 88.5347L63.8891 85.623C63.8891 85.623 64.1018 85.2753 63.9767 85.1427Z" fill="white"/>
</g>
<path d="M66.9484 88.5672C66.9321 88.5582 66.917 88.5473 66.9034 88.5346L66.7858 88.4321L66.3605 88.0469C66.0028 87.7217 65.5151 87.2639 64.9873 86.7486C64.4595 86.2333 63.9867 85.748 63.659 85.4028L63.2663 84.9851L63.1637 84.87C63.1387 84.845 63.1262 84.83 63.1287 84.8275L63.1687 84.865L63.2788 84.9751L63.679 85.3853C64.0167 85.7305 64.487 86.2058 65.0148 86.7211C65.5426 87.2364 66.0154 87.6967 66.3781 88.0293L66.7958 88.4196L66.9084 88.5271L66.9484 88.5672Z" fill="#263238"/>
<path d="M63.8566 85.6579C63.9046 85.5732 63.9432 85.4834 63.9716 85.3903C63.9867 85.2943 63.9918 85.1971 63.9866 85.1001C64.0305 85.1941 64.0385 85.3008 64.0092 85.4003C63.9919 85.5021 63.9375 85.5938 63.8566 85.6579Z" fill="#263238"/>
<path d="M64.8496 85.9757C64.843 85.9235 64.8481 85.8705 64.8646 85.8206C64.8822 85.738 64.9047 85.673 64.9147 85.6755C64.9247 85.678 64.9147 85.7455 64.9022 85.8306C64.8897 85.9156 64.8621 85.9782 64.8496 85.9757Z" fill="#263238"/>
<path d="M65.1273 86.0607C65.1273 86.0607 65.1048 86.0032 65.0998 85.9307C65.0948 85.8581 65.0998 85.7981 65.0998 85.7981C65.0998 85.7981 65.1223 85.8556 65.1273 85.9282C65.1323 86.0007 65.1373 86.0582 65.1273 86.0607Z" fill="#263238"/>
<path d="M65.4626 85.9632C65.4626 85.9632 65.3975 85.9257 65.3325 85.8631C65.2675 85.8006 65.2174 85.7431 65.2249 85.7356C65.2324 85.7281 65.2925 85.7731 65.3575 85.8356C65.4225 85.8982 65.4626 85.9557 65.4626 85.9632Z" fill="#263238"/>
<path d="M65.6376 85.8531C65.5734 85.8424 65.5144 85.8107 65.4701 85.763C65.3875 85.6955 65.3425 85.618 65.3525 85.613C65.3625 85.6079 65.415 85.6705 65.4926 85.7355C65.5436 85.7713 65.5921 85.8106 65.6376 85.8531Z" fill="#263238"/>
<path d="M64.9622 85.708C64.9071 85.6687 64.8589 85.6205 64.8196 85.5654C64.7779 85.5047 64.7419 85.4402 64.7121 85.3728C64.6902 85.3339 64.6726 85.2929 64.6596 85.2502C64.6543 85.238 64.6515 85.2248 64.6515 85.2115C64.6515 85.1981 64.6543 85.1849 64.6596 85.1727C64.6678 85.1599 64.6794 85.1496 64.693 85.143C64.7067 85.1364 64.722 85.1337 64.7371 85.1352C64.8183 85.1632 64.8874 85.2182 64.933 85.291C64.9785 85.3639 64.9977 85.4501 64.9872 85.5354C64.9812 85.5849 64.965 85.6325 64.9397 85.6755C64.9309 85.6918 64.919 85.7062 64.9047 85.718C64.9333 85.6589 64.9518 85.5955 64.9597 85.5304C64.964 85.4608 64.9484 85.3914 64.9147 85.3303C64.8964 85.2934 64.8708 85.2606 64.8394 85.2339C64.808 85.2072 64.7715 85.1873 64.7321 85.1752C64.6921 85.1752 64.6746 85.2027 64.6846 85.2427C64.6952 85.283 64.7112 85.3217 64.7321 85.3578C64.7638 85.4223 64.8006 85.4842 64.8422 85.5429C64.9172 85.6505 64.9622 85.703 64.9622 85.708Z" fill="#263238"/>
<path d="M64.9223 85.678C64.9358 85.6313 64.965 85.5907 65.0048 85.5629C65.0461 85.5296 65.0952 85.5072 65.1474 85.4979C65.1807 85.4885 65.2158 85.4877 65.2495 85.4956C65.2832 85.5035 65.3143 85.5197 65.34 85.5429C65.3517 85.5602 65.3562 85.5814 65.3524 85.602C65.3487 85.6226 65.337 85.6408 65.32 85.6529C65.294 85.6724 65.2641 85.686 65.2324 85.693C65.1815 85.7043 65.1295 85.7102 65.0774 85.7105C65.0295 85.7156 64.9811 85.7078 64.9373 85.688C64.9373 85.688 64.9923 85.688 65.0749 85.688C65.1247 85.6825 65.174 85.6733 65.2224 85.6604C65.2725 85.6604 65.34 85.6079 65.31 85.5679C65.2885 85.5507 65.2633 85.5387 65.2363 85.5331C65.2094 85.5274 65.1815 85.5282 65.1549 85.5354C65.1063 85.5416 65.0599 85.5596 65.0198 85.5879C64.9623 85.6229 64.9273 85.683 64.9223 85.678Z" fill="#263238"/>
<path d="M67.5061 87.9143C67.5061 87.9143 67.4461 87.8468 67.3335 87.7592C67.1873 87.6425 67.0109 87.5698 66.8249 87.5494C66.6389 87.529 66.451 87.5619 66.2829 87.6441C66.1554 87.7042 66.0878 87.7667 66.0828 87.7592C66.0967 87.7439 66.1118 87.7297 66.1278 87.7167C66.1717 87.6791 66.2195 87.6464 66.2704 87.6191C66.4415 87.528 66.6361 87.4904 66.8289 87.5114C67.0216 87.5324 67.2035 87.6109 67.351 87.7367C67.3951 87.7743 67.4353 87.8162 67.4711 87.8618C67.4843 87.8782 67.496 87.8958 67.5061 87.9143Z" fill="#263238"/>
<path d="M68.1916 86.7635C67.9111 87.0882 67.6121 87.3964 67.2961 87.6866C67.4304 87.5194 67.5749 87.3607 67.7288 87.2113C67.8738 87.0528 68.0283 86.9032 68.1916 86.7635Z" fill="#263238"/>
<path d="M66.0003 87.2764C65.868 87.196 65.7468 87.0985 65.6401 86.9863C65.5247 86.8831 65.4223 86.7663 65.335 86.6385C65.335 86.6385 65.4825 86.7836 65.6652 86.9587C65.8478 87.1338 66.0053 87.2664 66.0003 87.2764Z" fill="#263238"/>
<path d="M66.4406 87.7066C66.4406 87.7191 66.3981 87.7266 66.3505 87.7441C66.303 87.7617 66.2655 87.7842 66.258 87.7767C66.2505 87.7691 66.2805 87.7291 66.3355 87.7091C66.3905 87.6891 66.4406 87.6966 66.4406 87.7066Z" fill="#263238"/>
<path d="M66.8108 87.6666C66.8108 87.6666 66.7733 87.6866 66.7258 87.6866C66.6782 87.6866 66.6407 87.6866 66.6407 87.6691C66.6407 87.6515 66.6782 87.649 66.7258 87.649C66.7733 87.649 66.8108 87.6566 66.8108 87.6666Z" fill="#263238"/>
<path d="M67.141 87.8067C67.141 87.8067 67.101 87.7817 67.0559 87.7617C67.0109 87.7417 66.9709 87.7342 66.9709 87.7242C66.9709 87.7142 67.0184 87.7017 67.0734 87.7242C67.1285 87.7467 67.1485 87.8017 67.141 87.8067Z" fill="#263238"/>
<path d="M67.3536 87.9267C67.3536 87.9267 67.3236 87.9267 67.2986 87.9267C67.2736 87.9267 67.2561 87.8992 67.2611 87.8892C67.2661 87.8792 67.2886 87.8892 67.3136 87.8892C67.3386 87.8892 67.3586 87.9192 67.3536 87.9267Z" fill="#263238"/>
<path opacity="0.3" d="M65.4951 85.4929L67.6638 87.7792L68.039 87.3615L65.8303 85.1427L65.4951 85.4929Z" fill="black"/>
<path d="M63.5014 70.1894L65.1373 70.5296L64.537 73.6164L62.1406 73.1436L62.1656 72.9485C62.2832 72.088 62.8285 68.571 63.1112 68.0357C63.4264 67.4429 63.5014 70.1894 63.5014 70.1894Z" fill="#FF725E"/>
<g opacity="0.5">
<path opacity="0.5" d="M62.3808 72.0327C62.6312 72.1311 62.8369 72.318 62.9586 72.558C63.0812 72.7947 63.1106 73.0687 63.0412 73.326L62.1832 73.1534L62.3808 72.0327Z" fill="white"/>
</g>
<g opacity="0.4">
<path opacity="0.4" d="M63.4193 68.8383C63.4193 68.8383 63.3342 67.8653 63.1691 67.9503C63.004 68.0354 62.3136 71.5649 62.1485 73.1483H62.2161L62.9615 69.0335C62.9615 69.0335 63.3767 69.0159 63.4193 68.8383Z" fill="white"/>
</g>
<path d="M62.2107 73.2058C62.2096 73.1874 62.2096 73.1691 62.2107 73.1507C62.2107 73.1057 62.2107 73.0557 62.2307 72.9981C62.2557 72.8431 62.2832 72.653 62.3158 72.4303C62.3908 71.9526 62.5034 71.2922 62.6435 70.5693C62.7835 69.8463 62.9236 69.191 63.0312 68.7182C63.0837 68.4981 63.1287 68.313 63.1637 68.1604C63.1788 68.1053 63.1913 68.0553 63.2013 68.0103C63.2046 67.9921 63.2105 67.9744 63.2188 67.9578C63.2188 67.9578 63.2188 67.9778 63.2188 68.0128L63.1888 68.1654L63.0687 68.7257C62.9661 69.1985 62.8311 69.8513 62.691 70.5768C62.5509 71.3022 62.4408 71.9576 62.3533 72.4353C62.3158 72.658 62.2832 72.8456 62.2557 73.0007C62.2557 73.0557 62.2357 73.1082 62.2282 73.1532C62.2245 73.1714 62.2187 73.189 62.2107 73.2058Z" fill="#263238"/>
<path d="M62.9236 69.0235C63.1213 69.0246 63.3126 68.9534 63.4614 68.8234C63.4074 68.912 63.3229 68.9778 63.2238 69.0085C63.1291 69.0505 63.0221 69.0559 62.9236 69.0235Z" fill="#263238"/>
<path d="M63.2112 70.029C63.2112 70.029 63.2688 69.9864 63.3488 69.9539C63.4289 69.9214 63.4939 69.9064 63.4989 69.9164C63.5039 69.9264 63.4414 69.9589 63.3613 69.9914C63.2813 70.024 63.2112 70.039 63.2112 70.029Z" fill="#263238"/>
<path d="M63.2888 70.3041C63.2888 70.3041 63.3239 70.2541 63.3814 70.2116C63.4389 70.1691 63.4915 70.139 63.499 70.1465C63.5065 70.154 63.4639 70.1966 63.4039 70.2416C63.3439 70.2866 63.2964 70.3141 63.2888 70.3041Z" fill="#263238"/>
<path d="M63.5489 70.5218C63.5364 70.5218 63.5489 70.4467 63.5489 70.3567C63.5519 70.3011 63.5682 70.2471 63.5964 70.1991C63.6081 70.2535 63.6081 70.3098 63.5964 70.3642C63.5915 70.4194 63.5753 70.473 63.5489 70.5218Z" fill="#263238"/>
<path d="M63.7415 70.6144C63.7162 70.5543 63.7101 70.4879 63.724 70.4242C63.7257 70.3596 63.7466 70.2969 63.7841 70.2441C63.7841 70.2441 63.7841 70.3267 63.7615 70.4293C63.7598 70.4914 63.7531 70.5533 63.7415 70.6144Z" fill="#263238"/>
<path d="M63.4939 69.9765C63.496 69.9088 63.5095 69.842 63.5339 69.7789C63.5569 69.7088 63.5862 69.641 63.6215 69.5763C63.6403 69.5363 63.6647 69.4992 63.694 69.4662C63.712 69.4456 63.7369 69.4323 63.7641 69.4287C63.7793 69.4279 63.7944 69.4318 63.8074 69.4399C63.8203 69.4479 63.8305 69.4597 63.8366 69.4737C63.86 69.5566 63.8535 69.6451 63.8183 69.7237C63.7831 69.8024 63.7214 69.8662 63.644 69.904C63.6002 69.9278 63.5513 69.9407 63.5014 69.9415C63.4664 69.9415 63.4464 69.9415 63.4464 69.9415C63.511 69.9334 63.5737 69.914 63.6315 69.8839C63.6931 69.8506 63.7429 69.7991 63.7741 69.7364C63.7964 69.6991 63.8107 69.6576 63.8159 69.6145C63.821 69.5714 63.817 69.5277 63.8041 69.4862C63.7866 69.4512 63.7491 69.4562 63.7215 69.4862C63.6951 69.5182 63.6717 69.5525 63.6515 69.5888C63.6159 69.6515 63.585 69.7167 63.5589 69.7839C63.5139 69.9039 63.4989 69.979 63.4939 69.9765Z" fill="#263238"/>
<path d="M63.4939 69.924C63.5399 69.9067 63.5906 69.9067 63.6365 69.924C63.6868 69.9402 63.7323 69.9686 63.7691 70.0065C63.795 70.0292 63.8147 70.0581 63.8265 70.0904C63.8383 70.1228 63.8418 70.1576 63.8366 70.1916C63.8288 70.211 63.8137 70.2266 63.7945 70.2351C63.7754 70.2435 63.7536 70.244 63.7341 70.2366C63.7041 70.2248 63.6768 70.2069 63.654 70.1841C63.6149 70.1495 63.5804 70.11 63.5515 70.0666C63.5218 70.0286 63.502 69.9839 63.4939 69.9365C63.4939 69.9365 63.5214 69.984 63.574 70.0515C63.6042 70.0902 63.6386 70.1255 63.6765 70.1566C63.7115 70.1941 63.7841 70.2266 63.8016 70.1791C63.8191 70.1316 63.7766 70.0691 63.7441 70.0315C63.7113 69.9959 63.6712 69.9677 63.6265 69.949C63.5833 69.9363 63.5388 69.9279 63.4939 69.924Z" fill="#263238"/>
<path d="M63.0536 73.3109C63.0536 73.3109 63.0786 73.2258 63.0886 73.0833C63.104 72.897 63.0669 72.7102 62.9816 72.544C62.8963 72.3778 62.7661 72.2388 62.6059 72.1427C62.4833 72.0702 62.3957 72.0477 62.3982 72.0402L62.4608 72.0527C62.7008 72.1311 62.9003 72.301 63.0161 72.5254C63.103 72.6986 63.1378 72.8932 63.1162 73.0858C63.1099 73.1428 63.0973 73.1991 63.0786 73.2533C63.0661 73.2934 63.0561 73.3134 63.0536 73.3109Z" fill="#263238"/>
<path d="M64.3919 73.2484C64.1784 73.227 63.9663 73.1936 63.7566 73.1483C63.5447 73.115 63.3351 73.069 63.1287 73.0107C63.3422 73.0321 63.5543 73.0655 63.7641 73.1108C63.9759 73.1441 64.1856 73.1901 64.3919 73.2484Z" fill="#263238"/>
<path d="M62.756 71.7025C62.7497 71.5479 62.764 71.3931 62.7985 71.2423C62.8213 71.0894 62.8624 70.9399 62.9211 70.797C62.9336 70.797 62.881 70.9996 62.836 71.2498C62.791 71.4999 62.766 71.705 62.756 71.7025Z" fill="#263238"/>
<path d="M62.6384 72.3103C62.6384 72.3103 62.6009 72.2852 62.5584 72.2552C62.5159 72.2252 62.4783 72.2052 62.4808 72.1952C62.4833 72.1852 62.5309 72.1952 62.5809 72.2227C62.6309 72.2502 62.6484 72.3053 62.6384 72.3103Z" fill="#263238"/>
<path d="M62.876 72.5954C62.876 72.5954 62.841 72.5754 62.8135 72.5354C62.786 72.4954 62.7735 72.4603 62.7835 72.4553C62.7935 72.4503 62.8185 72.4754 62.846 72.5154C62.8735 72.5554 62.886 72.5879 62.876 72.5954Z" fill="#263238"/>
<path d="M62.9436 72.9481C62.9436 72.9481 62.9436 72.9031 62.9436 72.8531C62.9436 72.8031 62.9186 72.768 62.9286 72.7605C62.9386 72.753 62.9736 72.788 62.9811 72.8481C62.9886 72.9081 62.9611 72.9531 62.9436 72.9481Z" fill="#263238"/>
<path d="M62.9611 73.1933C62.9611 73.1933 62.9386 73.1733 62.9336 73.1458C62.9286 73.1183 62.9336 73.0933 62.9336 73.0933C62.9336 73.0933 62.9561 73.1108 62.9611 73.1383C62.9661 73.1658 62.9611 73.1908 62.9611 73.1933Z" fill="#263238"/>
<path opacity="0.3" d="M63.9642 70.2992L63.2538 73.3685L63.8091 73.4535L64.442 70.3842L63.9642 70.2992Z" fill="black"/>
<path d="M86.4971 86.5985C86.4971 86.7161 76.9691 79.8172 76.9691 79.8172L68.1916 88.0019L65.44 85.1002C65.44 85.1002 74.0574 75.4472 75.5133 74.9144C78.7251 73.7387 89.4813 81.7283 89.4813 81.7283L88.4807 84.5574L86.4971 86.5985Z" fill="#263238"/>
<path d="M63.4213 73.8662L73.9273 76.4451C73.9273 76.4451 80.5887 88.2194 82.157 88.3394C83.7254 88.4595 87.255 88.367 87.255 88.367L88.6708 84.0245C88.6708 84.0245 77.9446 74.3239 77.2642 73.8036C76.5839 73.2833 64.3268 70.119 64.3268 70.119L63.4213 73.8662Z" fill="#263238"/>
<path d="M78.2324 83.5817C78.1592 83.4993 78.0946 83.4096 78.0398 83.3141L77.552 82.5636C77.1468 81.9233 76.594 81.0328 75.9911 80.0422C75.3883 79.0516 74.8455 78.1536 74.4602 77.5007L74.01 76.7228C73.9506 76.6295 73.9003 76.5306 73.8599 76.4276C73.9333 76.5113 73.9986 76.6018 74.055 76.6978L74.5403 77.4482C74.9455 78.0911 75.4983 78.9816 76.1012 79.9696C76.704 80.9577 77.2468 81.8582 77.632 82.5111L78.0823 83.289C78.1416 83.3816 78.1918 83.4796 78.2324 83.5817Z" fill="#455A64"/>
<path d="M85.7442 82.7088C85.7108 82.6862 85.6805 82.6593 85.6541 82.6288L85.404 82.3786C85.1914 82.1685 84.8887 81.8583 84.5185 81.4706C83.7681 80.7002 82.7675 79.622 81.6519 78.4288C80.5362 77.2357 79.5206 76.16 78.7827 75.3871L77.9097 74.4691C77.8147 74.369 77.7371 74.2865 77.6746 74.2189C77.612 74.1514 77.5945 74.1289 77.5995 74.1264C77.6045 74.1239 77.6346 74.1489 77.6921 74.2014L77.9422 74.4366C78.1599 74.6417 78.4675 74.9368 78.8452 75.3246C79.5957 76.075 80.6288 77.1481 81.7444 78.3413C82.86 79.5345 83.8431 80.6126 84.5835 81.4106C84.9337 81.7933 85.2214 82.111 85.439 82.3461L85.6666 82.5962C85.7242 82.6713 85.7492 82.7038 85.7442 82.7088Z" fill="#455A64"/>
<path d="M109.968 81.5581C109.952 81.3324 109.891 81.1122 109.788 80.9107C109.685 80.7093 109.542 80.5307 109.368 80.3859C109.194 80.241 108.993 80.1328 108.776 80.0677C108.56 80.0026 108.332 79.9821 108.107 80.0072C107.054 80.1273 105.773 80.3124 105.018 80.5726C103.517 81.0929 103.517 82.3061 103.517 82.3236L102.436 82.4561C102.082 82.492 101.749 82.6421 101.488 82.8839C101.312 83.0467 101.185 83.2554 101.121 83.4866C101.058 83.7178 101.06 83.9622 101.128 84.1921C101.378 85.2077 103.147 85.5179 103.152 85.5179L109.698 84.9025L110.198 84.8225L109.968 81.5581Z" fill="#FFBE9D"/>
<path d="M107.236 80.3849C107.184 80.3936 107.137 80.4221 107.106 80.4645C107.074 80.507 107.06 80.56 107.066 80.6126C107.069 80.6385 107.076 80.6636 107.089 80.6865C107.101 80.7095 107.118 80.7297 107.138 80.746C107.159 80.7623 107.182 80.7744 107.207 80.7816C107.232 80.7887 107.258 80.7908 107.284 80.7877C107.336 80.7797 107.383 80.7512 107.415 80.7085C107.446 80.6658 107.459 80.6124 107.452 80.56C107.449 80.5342 107.442 80.5091 107.43 80.4862C107.418 80.4633 107.401 80.4431 107.381 80.4268C107.361 80.4104 107.338 80.3983 107.313 80.3911C107.288 80.3839 107.262 80.3818 107.236 80.3849Z" fill="#263238"/>
<path d="M107.487 80.4025C107.464 80.43 107.604 80.5625 107.642 80.7777C107.679 80.9928 107.599 81.1729 107.642 81.1904C107.684 81.2079 107.697 81.1654 107.737 81.0878C107.784 80.9835 107.798 80.8673 107.777 80.7548C107.757 80.6422 107.702 80.5386 107.622 80.4575C107.554 80.4025 107.502 80.3874 107.487 80.4025Z" fill="#263238"/>
<path d="M107.647 82.5412C107.594 82.5498 107.547 82.5787 107.515 82.6217C107.483 82.6647 107.469 82.7184 107.477 82.7713C107.479 82.7972 107.487 82.8224 107.499 82.8453C107.511 82.8682 107.528 82.8884 107.548 82.9047C107.569 82.921 107.592 82.9331 107.617 82.9403C107.642 82.9475 107.668 82.9495 107.694 82.9464C107.747 82.9378 107.794 82.9089 107.826 82.8659C107.858 82.8229 107.871 82.7692 107.864 82.7163C107.859 82.6642 107.833 82.6165 107.792 82.5837C107.751 82.5509 107.699 82.5356 107.647 82.5412Z" fill="#263238"/>
<path d="M107.827 82.5286C107.807 82.5587 107.944 82.6912 107.982 82.9064C108.019 83.1215 107.939 83.2991 107.982 83.3191C108.024 83.3391 108.037 83.2941 108.074 83.2165C108.123 83.1119 108.138 82.9948 108.117 82.8813C108.097 82.7692 108.043 82.6661 107.962 82.5862C107.889 82.5286 107.837 82.5136 107.827 82.5286Z" fill="#263238"/>
<path d="M106.088 82.0284C106.104 81.9088 106.104 81.7878 106.088 81.6682C106.088 81.6106 106.088 81.5581 106.121 81.5406C106.176 81.5234 106.235 81.5234 106.291 81.5406L106.739 81.6307C107.121 81.7183 107.51 81.776 107.902 81.8032C107.528 81.6829 107.145 81.5942 106.756 81.5381L106.306 81.4555C106.235 81.4295 106.157 81.4295 106.086 81.4555C106.067 81.4666 106.052 81.4819 106.041 81.5002C106.029 81.5185 106.022 81.5392 106.021 81.5606C106.015 81.5921 106.015 81.6242 106.021 81.6557C106.026 81.7824 106.049 81.9078 106.088 82.0284Z" fill="#263238"/>
<path d="M103.509 82.3311C103.628 83.0714 103.95 83.7642 104.44 84.3322C104.44 84.3322 103.274 84.0145 103.144 82.4236L103.509 82.3311Z" fill="#EB996E"/>
<path d="M106.053 82.6912C106.053 82.6537 105.803 82.6912 105.613 82.5237C105.423 82.3561 105.393 82.1009 105.363 82.1034C105.333 82.1059 105.325 82.1684 105.343 82.2735C105.364 82.4112 105.434 82.5366 105.541 82.6262C105.642 82.7134 105.772 82.7582 105.906 82.7513C106.003 82.7413 106.056 82.7063 106.053 82.6912Z" fill="#263238"/>
<path d="M108.662 82.3235C108.607 82.356 108.675 82.5737 108.687 82.8238C108.7 83.0739 108.67 83.2991 108.727 83.3241C108.785 83.3491 108.805 83.2891 108.847 83.1965C108.897 83.0738 108.919 82.9415 108.91 82.8093C108.901 82.6771 108.863 82.5487 108.797 82.4336C108.737 82.3485 108.69 82.311 108.662 82.3235Z" fill="#263238"/>
<path d="M108.132 80.3699C108.089 80.4175 108.167 80.5575 108.199 80.7351C108.232 80.9127 108.224 81.0703 108.282 81.0954C108.34 81.1204 108.355 81.0753 108.39 81.0003C108.429 80.9015 108.438 80.7933 108.417 80.6891C108.395 80.585 108.343 80.4896 108.267 80.415C108.207 80.3699 108.152 80.3499 108.132 80.3699Z" fill="#263238"/>
<path d="M109.935 78.4213C110.063 78.3987 110.195 78.418 110.311 78.4764C110.414 78.503 110.503 78.5673 110.561 78.6565C110.592 78.7681 110.581 78.8873 110.531 78.9917C110.411 79.3694 110.413 79.8346 110.703 80.1073C110.929 80.3174 111.281 80.37 111.471 80.6076C111.661 80.8452 111.609 81.263 111.494 81.5856C111.379 81.9083 111.231 82.2435 111.319 82.5712C111.409 82.7996 111.535 83.0123 111.691 83.2016C111.815 83.3877 111.901 83.5964 111.944 83.8158C111.987 84.0351 111.986 84.2608 111.942 84.4798C111.894 84.6984 111.794 84.9022 111.651 85.0735C111.507 85.2448 111.323 85.3784 111.116 85.4629C110.908 85.5434 110.681 85.5627 110.462 85.5184C110.243 85.474 110.041 85.368 109.88 85.2127C109.86 85.198 109.84 85.1813 109.823 85.1627C109.012 85.2928 107.722 85.4379 107.634 85.0701C107.507 84.5323 108.885 84.3822 108.885 84.3822C108.995 83.6618 109.705 83.5218 109.82 83.3216C109.935 83.1215 109.648 82.3361 109.2 81.6907C108.642 80.8877 108.595 79.517 108.597 79.0392C108.591 78.9977 108.591 78.9556 108.597 78.9141V78.8691C108.603 78.8377 108.613 78.8074 108.627 78.779C108.724 78.6331 108.872 78.5287 109.042 78.4864C109.185 78.422 109.342 78.3962 109.498 78.4113C109.554 78.4199 109.608 78.4416 109.655 78.4746C109.702 78.5076 109.741 78.551 109.768 78.6014C109.778 78.5595 109.799 78.5209 109.828 78.4894C109.857 78.4578 109.894 78.4344 109.935 78.4213Z" fill="#263238"/>
<path d="M109.588 79.3443C109.616 79.3315 109.641 79.3106 109.658 79.2843C109.685 79.2495 109.704 79.2087 109.713 79.1652C109.722 79.1217 109.72 79.0768 109.708 79.0341C109.689 78.9764 109.652 78.9263 109.602 78.8907C109.553 78.8552 109.494 78.8361 109.433 78.8361C109.372 78.8361 109.313 78.8552 109.263 78.8907C109.214 78.9263 109.177 78.9764 109.158 79.0341C109.125 79.1315 109.125 79.2369 109.158 79.3343C109.205 79.4391 109.274 79.5326 109.36 79.6086C109.446 79.6845 109.548 79.7411 109.658 79.7745C109.77 79.8203 109.878 79.8738 109.983 79.9346C110.087 79.9939 110.174 80.0804 110.233 80.1848C110.28 80.3029 110.28 80.4344 110.233 80.5525C110.193 80.6801 110.128 80.8026 110.078 80.9477C110.028 81.094 110.015 81.2505 110.041 81.403C110.069 81.5572 110.124 81.7053 110.203 81.8407C110.365 82.0971 110.559 82.3317 110.781 82.5386C110.981 82.7266 111.15 82.9453 111.281 83.1865C111.389 83.4071 111.416 83.6586 111.356 83.8969C111.308 84.1057 111.197 84.295 111.039 84.4397C110.921 84.5411 110.782 84.6159 110.633 84.659C110.484 84.7022 110.327 84.7127 110.173 84.6899C110.06 84.6699 109.948 84.6389 109.84 84.5973C109.864 84.6172 109.89 84.6333 109.918 84.6448C109.998 84.6811 110.082 84.708 110.168 84.7249C110.305 84.751 110.446 84.751 110.583 84.7249C110.768 84.6918 110.941 84.6098 111.084 84.4872C111.267 84.325 111.393 84.1076 111.443 83.8677C111.492 83.6278 111.463 83.3782 111.359 83.1565C111.23 82.9057 111.061 82.6776 110.859 82.4811C110.643 82.2792 110.455 82.0506 110.298 81.8007C110.222 81.6753 110.17 81.5371 110.143 81.393C110.119 81.2538 110.131 81.1109 110.178 80.9777C110.221 80.8452 110.288 80.7276 110.331 80.58C110.38 80.44 110.372 80.2863 110.308 80.1523C110.158 79.9367 109.938 79.7794 109.685 79.707C109.585 79.6773 109.491 79.6271 109.41 79.5595C109.33 79.4919 109.264 79.4084 109.218 79.3143C109.19 79.2289 109.19 79.137 109.218 79.0516C109.23 79.0147 109.251 78.9812 109.279 78.9538C109.307 78.9265 109.341 78.906 109.378 78.894C109.439 78.8764 109.505 78.8829 109.562 78.9122C109.618 78.9415 109.662 78.9914 109.683 79.0516C109.695 79.0908 109.699 79.1322 109.693 79.1729C109.688 79.2136 109.673 79.2525 109.65 79.2868C109.613 79.3243 109.583 79.3393 109.588 79.3443Z" fill="#455A64"/>
<path d="M109.305 78.719C109.283 78.7222 109.261 78.729 109.24 78.739C109.18 78.765 109.125 78.8014 109.077 78.8466C109.001 78.9189 108.945 79.0104 108.915 79.1117C108.876 79.2473 108.885 79.392 108.94 79.522C109.017 79.6713 109.132 79.798 109.273 79.8897C109.342 79.9411 109.403 80.0036 109.453 80.0748C109.476 80.1116 109.492 80.1527 109.499 80.1957C109.505 80.2387 109.503 80.2827 109.493 80.3249C109.466 80.4197 109.433 80.5125 109.393 80.6026C109.352 80.7046 109.33 80.813 109.328 80.9228C109.326 81.1515 109.377 81.3777 109.478 81.5831C109.68 82.0034 109.978 82.3186 110.173 82.6563C110.364 82.9423 110.435 83.2913 110.373 83.6293C110.343 83.738 110.29 83.8389 110.218 83.9252C110.145 84.0115 110.055 84.0812 109.953 84.1296C109.873 84.1598 109.788 84.1784 109.703 84.1846C109.725 84.1889 109.748 84.1889 109.77 84.1846C109.836 84.1844 109.901 84.1725 109.963 84.1496C110.075 84.1027 110.175 84.031 110.256 83.9401C110.336 83.8492 110.395 83.7412 110.428 83.6243C110.497 83.2779 110.429 82.9184 110.238 82.6212C110.048 82.2685 109.738 81.9483 109.55 81.5481C109.455 81.3552 109.407 81.1428 109.408 80.9278C109.41 80.8277 109.43 80.7287 109.465 80.6351C109.506 80.5409 109.54 80.4439 109.568 80.3449C109.591 80.2399 109.571 80.1302 109.513 80.0397C109.458 79.9622 109.39 79.8946 109.313 79.8396C109.178 79.7578 109.068 79.6422 108.992 79.5044C108.945 79.4018 108.93 79.2875 108.948 79.1761C108.967 79.0647 109.018 78.9613 109.095 78.8791C109.158 78.8165 109.228 78.7626 109.305 78.719Z" fill="#455A64"/>
<path d="M17.3625 88.2994H21.8151L21.2747 84.2621L24.5266 88.1844L23.8462 72.4954L26.6728 88.2994H26.7904C27.0005 86.621 27.9736 80.0297 30.495 77.951C30.495 77.951 28.1862 83.7293 29.4119 88.2994H36.1232V84.6023L38.1694 88.1844L39.8754 82.2159V87.8417L43.2723 85.1226L41.9066 88.3069H46.2941C46.5292 86.8411 47.117 81.8833 44.8082 79.692C44.8082 79.692 47.4347 78.6914 48.1776 88.3069H48.2877C48.6204 85.6379 50.1062 74.2864 51.457 72.3328C51.457 72.3328 49.7936 81.9908 51.3995 88.3069H51.5496C51.9598 87.3064 53.6758 83.244 54.869 82.0534C54.869 82.0534 53.6908 85.5904 53.8434 88.3069H53.8784L56.4024 84.4397V88.2994H60.6023C60.907 88.2995 61.2055 88.2128 61.4627 88.0493C61.6053 86.8236 61.6278 84.4772 60.0594 82.9063C60.0594 82.9063 61.6554 82.9614 62.2182 86.3708V67.1948C62.2175 66.7667 62.047 66.3563 61.744 66.0538C61.441 65.7513 61.0304 65.5814 60.6023 65.5814H17.3625C16.9344 65.5814 16.5237 65.7513 16.2208 66.0538C15.9178 66.3563 15.7472 66.7667 15.7466 67.1948V86.686C15.7466 86.8981 15.7884 87.1081 15.8696 87.304C15.9509 87.4999 16.0699 87.6779 16.22 87.8278C16.3701 87.9776 16.5483 88.0964 16.7443 88.1773C16.9403 88.2583 17.1504 88.2998 17.3625 88.2994Z" fill="#455A64"/>
<path d="M65.2324 66.537C65.1609 66.6212 65.0822 66.699 64.9972 66.7696L64.3294 67.3775C63.7665 67.8903 62.9936 68.6082 62.1656 69.4211C61.3377 70.2341 60.6072 70.992 60.0819 71.5474L59.4591 72.2027C59.3879 72.2873 59.3083 72.3644 59.2214 72.4329C59.2789 72.3379 59.346 72.249 59.4216 72.1677C59.5566 72.0026 59.7592 71.77 60.0119 71.4848C60.5122 70.9145 61.2401 70.144 62.0706 69.3286C62.901 68.5131 63.6865 67.8052 64.2668 67.3099C64.557 67.0598 64.7946 66.8647 64.9622 66.7321C65.0442 66.6565 65.1349 66.591 65.2324 66.537Z" fill="#455A64"/>
<path d="M50.0987 76.7929C50.0772 76.7966 50.0552 76.7966 50.0337 76.7929H49.8436L49.1106 76.8054L46.4166 76.8254L37.5315 76.8454L28.6439 76.8254L25.9399 76.8179L25.207 76.8054H25.0168C24.9953 76.8091 24.9733 76.8091 24.9518 76.8054H25.0168H25.207H25.9399L28.6339 76.7829L37.5215 76.7654L46.4066 76.7829L49.1006 76.8054H49.8336H50.0237L50.0987 76.7929Z" fill="#263238"/>
<path d="M40.6984 87.1663C40.6634 87.1663 40.6334 82.2785 40.6334 76.25C40.6334 70.2216 40.6634 65.3313 40.6984 65.3313C40.7334 65.3313 40.7634 70.2191 40.7634 76.25C40.7634 82.281 40.7409 87.1663 40.6984 87.1663Z" fill="#263238"/>
<path d="M17.9354 75.9899C17.7217 76.0561 17.5008 76.0964 17.2775 76.11C16.203 76.2255 15.1167 76.1561 14.0657 75.9049C13.8461 75.8645 13.6326 75.7965 13.4303 75.7023C13.6513 75.7233 13.8704 75.7609 14.0857 75.8148C14.6099 75.9127 15.1395 75.9795 15.6716 76.0149C16.2039 76.0476 16.7377 76.0476 17.27 76.0149C17.4909 75.9904 17.7133 75.982 17.9354 75.9899Z" fill="#455A64"/>
<path d="M17.8303 76.1174C17.8303 76.1174 17.7602 76.1299 17.6302 76.1174C17.4476 76.1113 17.2655 76.0946 17.0849 76.0674C16.4887 75.9909 15.9046 75.8396 15.3464 75.6171C14.7894 75.3875 14.2634 75.0892 13.7805 74.7291C13.6337 74.6206 13.4934 74.5037 13.3602 74.3789C13.2652 74.2913 13.2176 74.2388 13.2226 74.2313C13.2277 74.2238 13.4553 74.3964 13.833 74.6541C14.8167 75.3246 15.9293 75.7829 17.0999 75.9998C17.5501 76.0774 17.8328 76.1024 17.8303 76.1174Z" fill="#455A64"/>
<path d="M18.4481 78.8365C18.4481 78.8566 18.1555 78.9466 17.6977 79.1342C16.4875 79.6206 15.3901 80.3502 14.4733 81.2779C14.1156 81.6206 13.918 81.8708 13.9005 81.8708C13.883 81.8708 13.9355 81.8007 14.0206 81.6857C14.1389 81.5255 14.2658 81.3718 14.4008 81.2254C15.294 80.2515 16.4098 79.5082 17.6527 79.0592C17.8395 78.9913 18.0299 78.9337 18.223 78.8866C18.2946 78.857 18.3707 78.84 18.4481 78.8365Z" fill="#455A64"/>
<path d="M18.1854 79.8446C18.1854 79.8671 17.9353 79.9422 17.5576 80.1173C17.0617 80.3452 16.6003 80.6416 16.1868 80.9978C15.775 81.3578 15.4148 81.7727 15.1162 82.231C14.8886 82.5837 14.7785 82.8213 14.7585 82.8138C14.7665 82.7519 14.7851 82.6918 14.8135 82.6362C14.8776 82.4801 14.9529 82.3288 15.0386 82.1835C15.6044 81.2102 16.4784 80.4532 17.5226 80.0322C17.6785 79.9677 17.839 79.915 18.0028 79.8746C18.0616 79.8543 18.1233 79.8442 18.1854 79.8446Z" fill="#455A64"/>
<path d="M16.3945 62.152C16.6404 62.9013 16.8442 63.6637 17.0049 64.4358C17.209 65.1984 17.371 65.9717 17.4901 66.7521C17.2454 66.0016 17.0417 65.2384 16.8798 64.4658C16.6755 63.704 16.5135 62.9316 16.3945 62.152Z" fill="#455A64"/>
<path d="M18.4531 63.1875C18.269 63.7725 18.1244 64.3692 18.0204 64.9735C17.96 65.5836 17.9399 66.1969 17.9604 66.8096C17.899 66.6367 17.8653 66.4552 17.8603 66.2718C17.8218 65.8334 17.8318 65.3922 17.8903 64.956C17.9498 64.5192 18.058 64.0905 18.213 63.6778C18.2666 63.5027 18.3477 63.3372 18.4531 63.1875Z" fill="#455A64"/>
<path d="M65.5401 76.4352C65.281 76.3852 65.0246 76.3218 64.7721 76.2451C64.1567 76.0955 63.5301 75.9959 62.8986 75.9474C62.2669 75.9036 61.6328 75.9119 61.0025 75.9724C60.5197 76.0175 60.2195 76.07 60.217 76.05C60.2145 76.03 60.2871 76.0175 60.4197 75.9849C60.5522 75.9524 60.7498 75.9149 60.9925 75.8799C62.2661 75.703 63.5627 75.7976 64.7972 76.1575C65.0323 76.2276 65.2199 76.2926 65.3475 76.3426C65.4158 76.3641 65.4806 76.3953 65.5401 76.4352Z" fill="#455A64"/>
<path d="M64.3519 74.8893C63.6869 75.0551 63.0117 75.1771 62.3308 75.2545C61.6559 75.3752 60.9742 75.4538 60.2896 75.4896C60.9544 75.3212 61.6296 75.1967 62.3107 75.1169C62.9857 74.9987 63.6674 74.9227 64.3519 74.8893Z" fill="#455A64"/>
<path d="M62.2857 76.8954C62.2857 76.9329 59.7618 76.9604 56.65 76.9604C53.5382 76.9604 51.0117 76.9329 51.0117 76.8954C51.0117 76.8578 53.5357 76.8303 56.65 76.8303C59.7643 76.8303 62.2857 76.8678 62.2857 76.8954Z" fill="#263238"/>
<path d="M15.5715 76.8153C15.5715 76.7803 17.3851 76.7502 19.6264 76.7502C21.8676 76.7502 23.6812 76.7803 23.6812 76.8153C23.6812 76.8503 21.8651 76.8803 19.6264 76.8803C17.3876 76.8803 15.5715 76.8503 15.5715 76.8153Z" fill="#263238"/>
<path d="M27.1281 40.6846C26.8957 40.2055 26.746 39.6904 26.6854 39.1613C26.6233 38.6297 26.731 38.0921 26.9931 37.6254C27.223 37.2822 27.5316 36.9989 27.8931 36.7992C28.2547 36.5995 28.6588 36.4891 29.0717 36.4772C29.899 36.4626 30.7168 36.6552 31.4506 37.0375C31.7129 37.1497 31.9553 37.3034 32.1685 37.4928C32.384 37.6851 32.5144 37.9549 32.5312 38.2432" fill="#F3FF93"/>
<g opacity="0.2">
<path opacity="0.2" d="M27.1281 40.6846C26.8957 40.2055 26.746 39.6904 26.6854 39.1613C26.6233 38.6297 26.731 38.0921 26.9931 37.6254C27.223 37.2822 27.5316 36.9989 27.8931 36.7992C28.2547 36.5995 28.6588 36.4891 29.0717 36.4772C29.899 36.4626 30.7168 36.6552 31.4506 37.0375C31.7129 37.1497 31.9553 37.3034 32.1685 37.4928C32.384 37.6851 32.5144 37.9549 32.5312 38.2432" fill="white"/>
</g>
<path d="M35.0276 36.0495C32.7338 34.4111 28.649 37.2352 26.3551 39.0087C25.3696 39.7592 24.5166 40.7772 24.1789 41.9754C24.0719 42.3033 24.0316 42.6493 24.0603 42.9929C24.0891 43.3366 24.1864 43.6711 24.3465 43.9766C24.8468 44.807 25.9274 45.1322 26.8854 44.9946C27.8435 44.8571 28.6965 44.3393 29.5069 43.809C30.9419 42.8662 32.3201 41.8396 33.6343 40.7347C34.1244 40.3493 34.5625 39.902 34.9376 39.4039C35.3111 38.8733 35.5428 38.2559 35.6104 37.6104C35.658 37.0051 35.658 36.6724 35.0276 36.0395" fill="#F3FF93"/>
<g opacity="0.2">
<path opacity="0.2" d="M28.2737 38.481C27.3722 39.1453 26.6971 40.0711 26.3401 41.1325C25.9906 42.1964 26.035 43.3505 26.4652 44.3844C26.5077 44.4794 26.5753 44.587 26.6778 44.5795C26.7243 44.5716 26.7677 44.5508 26.8029 44.5194C27.776 43.7865 28.2287 42.5408 28.4013 41.3326C28.5415 40.3487 28.5313 39.3493 28.3713 38.3684" fill="black"/>
</g>
<path d="M36.9912 38.5785C36.7286 38.2258 36.3784 37.7681 36.2233 37.6055C35.723 37.0877 35.6805 37.1302 35.628 37.1977C35.4879 37.3753 36.4634 38.1408 36.1558 38.0957C35.8481 38.0507 35.0726 37.0251 34.9351 37.2177C34.7525 37.4679 35.7905 38.2533 35.8731 38.3259C35.9556 38.3984 35.8506 38.516 35.7805 38.4485C35.7105 38.3809 34.5774 37.3253 34.3972 37.5704C34.2972 37.708 34.5648 37.8581 34.5648 37.8581C34.5648 37.8581 35.6655 38.7411 35.5779 38.8587C35.4904 38.9763 34.8275 38.476 34.6099 38.2934C34.3922 38.1108 34.2272 38.1383 34.2196 38.2934C34.2196 38.4009 34.8525 38.9763 35.0676 39.1539C35.2828 39.3315 35.8756 39.8042 35.3878 39.8042H35.3653C34.8825 39.7917 34.5073 39.9418 34.4273 40.0544C34.4111 40.0819 34.4031 40.1135 34.4043 40.1454C34.4054 40.1773 34.4157 40.2082 34.4338 40.2345C34.4519 40.2608 34.4772 40.2813 34.5066 40.2937C34.536 40.3061 34.5684 40.3099 34.5999 40.3045C34.6233 40.3056 34.6466 40.3004 34.6674 40.2895H34.7024C34.8672 40.2577 35.0349 40.2435 35.2027 40.247C35.3508 40.2473 35.4978 40.2718 35.638 40.3195C35.7847 40.3712 35.9123 40.4212 36.0207 40.4696C36.9662 41.3451 39.3301 43.5764 39.3301 44.0066C39.3301 44.5419 32.9689 46.5331 32.9689 46.5331L35.0977 50.0176C35.0977 50.0176 41.3312 47.1409 42.5019 45.1323C43.5625 43.2862 36.9912 38.5785 36.9912 38.5785Z" fill="#B78876"/>
<path d="M38.0744 58.0796C38.0744 58.0796 46.7669 52.0762 48.7705 52.3263C50.7742 52.5765 57.1828 62.3646 57.4705 62.5097C57.7582 62.6547 54.7665 65.2112 54.7665 65.2112L48.0401 57.8845L41.1386 62.5097L37.459 61.1089L38.0744 58.0796Z" fill="#263238"/>
<path d="M33.029 65.5814C28.6665 64.6333 31.5907 58.9301 31.5907 58.9301L48.4704 60.5335C50.0588 60.551 51.0068 61.3639 51.0018 62.7297L51.0168 62.8098C51.1569 64.6033 49.9512 65.5238 48.5929 65.5188L33.1641 65.6214" fill="#263238"/>
<path d="M36.601 59.8181H36.651H36.7936L37.3414 59.8406L39.3576 59.9432L46.0039 60.3159C46.3291 60.3309 46.6493 60.3584 46.9644 60.3659C47.2796 60.3734 47.5948 60.3859 47.9 60.4034C48.2052 60.421 48.5078 60.446 48.803 60.476C49.0942 60.4966 49.3816 60.5538 49.6585 60.6461C49.922 60.7423 50.1635 60.8903 50.3689 61.0813C50.5586 61.2666 50.7055 61.4911 50.7991 61.7392C50.8843 61.9693 50.9422 62.2086 50.9717 62.4521C51.0024 62.6743 51.0175 62.8983 51.0168 63.1225C51.0214 63.5107 50.9429 63.8953 50.7866 64.2507C50.6644 64.5186 50.481 64.7542 50.2513 64.9385C50.1058 65.0516 49.9403 65.1364 49.7636 65.1887C49.6435 65.2262 49.641 65.2137 49.7636 65.1737C49.9351 65.1134 50.0944 65.0228 50.2338 64.906C50.4545 64.7214 50.63 64.4887 50.7466 64.2256C50.8942 63.8752 50.9666 63.4977 50.9592 63.1175C50.9581 62.8956 50.9414 62.6741 50.9092 62.4546C50.8787 62.2178 50.8208 61.9852 50.7366 61.7617C50.6463 61.5236 50.5045 61.3084 50.3214 61.1314C50.1222 60.9495 49.8894 60.8084 49.636 60.7161C49.3646 60.6274 49.083 60.5736 48.798 60.556C48.5053 60.5235 48.2052 60.5035 47.9 60.4835C47.5948 60.4635 47.2846 60.4535 46.9669 60.4485C46.6493 60.4435 46.3316 60.4135 46.0064 60.3984L39.3576 60.0007L37.3439 59.8706L36.7961 59.8306L36.6535 59.8181C36.6362 59.8217 36.6183 59.8217 36.601 59.8181Z" fill="#455A64"/>
<path d="M30.5576 43.9965L27.5234 39.6791C27.1432 40.392 27.2057 41.25 27.2207 42.0579C27.2357 42.8659 27.1582 43.7564 26.5879 44.3317C26.1251 44.797 25.4397 44.9496 24.7868 45.0296C24.134 45.1097 23.4561 45.1497 22.8782 45.4574C22.3004 45.7651 21.8501 46.458 22.0528 47.0708C22.1469 47.2648 22.2191 47.4686 22.2679 47.6787C22.3079 48.209 21.7026 48.5091 21.2673 48.8268C20.9135 49.0915 20.6424 49.4514 20.4857 49.8644C20.329 50.2775 20.2932 50.7267 20.3824 51.1594C20.4716 51.5921 20.6822 51.9904 20.9895 52.3078C21.2968 52.6252 21.6882 52.8486 22.1178 52.9517C22.9233 53.1443 23.7913 52.8991 24.5917 53.1168C25.1921 53.2794 25.7049 53.6921 26.3127 53.8297C26.6845 53.8956 27.0662 53.8782 27.4304 53.7787C27.7947 53.6792 28.1323 53.5001 28.4189 53.2543C28.9888 52.7599 29.4438 52.1469 29.7522 51.4583C30.8878 49.1426 31.1729 46.5013 30.5576 43.9965Z" fill="#263238"/>
<path d="M38.7723 59.588L36.4059 51.9686C36.4409 51.2032 36.4585 50.4453 36.1983 49.7324C35.907 49.025 35.4394 48.4041 34.84 47.9288C34.0321 46.6781 32.8914 45.5725 31.9384 45.7651L29.9422 46.6606C28.5314 47.411 27.5208 47.7887 27.1356 49.8499C27.0055 50.5553 28.3988 52.0262 28.664 52.6891L31.2905 57.3317L30.1498 61.1739L38.7723 59.588Z" fill="#F3FF93"/>
<path opacity="0.2" d="M38.7723 59.588L36.4059 51.9686C36.4409 51.2032 36.4585 50.4453 36.1983 49.7324C35.907 49.025 35.4394 48.4041 34.84 47.9288C34.0321 46.6781 32.8914 45.5725 31.9384 45.7651L29.9422 46.6606C28.5314 47.411 27.5208 47.7887 27.1356 49.8499C27.0055 50.5553 28.3988 52.0262 28.664 52.6891L31.2905 57.3317L30.1498 61.1739L38.7723 59.588Z" fill="black"/>
<path d="M34.0946 52.7841C33.7167 52.9741 33.292 53.0514 32.8714 53.0067C32.4487 53.005 32.0357 52.8798 31.6832 52.6465C32.0751 52.7543 32.4749 52.8312 32.8789 52.8766C33.2859 52.8772 33.6923 52.8462 34.0946 52.7841Z" fill="#263238"/>
<g opacity="0.2">
<path opacity="0.2" d="M30.8452 58.8575C30.9853 58.3973 31.4905 58.1521 31.8458 57.8269C32.201 57.5018 32.5487 57.0615 32.4661 56.5762C32.3915 56.2775 32.2042 56.0193 31.9433 55.8558C31.6932 55.6782 31.4005 55.5581 31.1303 55.4031C30.4288 54.9459 29.8739 54.2963 29.5319 53.532L29.3943 53.9647L29.657 54.4325C29.9071 54.8552 31.0353 56.9339 31.3029 57.3392L30.8502 58.865" fill="black"/>
</g>
<path d="M33.7919 41.0198C34.2197 38.8636 32.7914 37.913 31.9359 37.6479C31.4161 37.5174 30.8722 37.5174 30.3525 37.6479C29.8329 37.7347 29.3278 37.8929 28.8516 38.1182C28.3733 38.3467 27.9692 38.7057 27.6859 39.1538C27.2057 39.9567 27.2782 40.9773 27.5334 41.8753C27.8321 42.9402 28.3693 43.923 29.1043 44.7495C29.1899 44.862 29.3051 44.9486 29.4369 44.9996C29.5039 45.0232 29.5773 45.0212 29.6428 44.9939C29.7084 44.9667 29.7616 44.9161 29.7921 44.852" fill="#263238"/>
<path d="M28.6915 39.7091C28.556 39.7541 28.4422 39.848 28.3723 39.9724C28.3025 40.0969 28.2816 40.243 28.3138 40.382L30.2524 47.8363C30.455 48.7218 32.2935 49.4247 33.2416 49.1996C34.1971 48.9719 33.7744 47.9939 33.5268 47.1659C33.3462 46.5308 33.2149 45.8826 33.134 45.2273C33.134 45.2273 34.3022 44.762 34.2121 43.1261C34.1671 42.3106 33.8494 41.0274 33.5568 39.9868C33.4941 39.7646 33.3871 39.5574 33.2422 39.3777C33.0973 39.198 32.9176 39.0494 32.7138 38.941C32.51 38.8326 32.2864 38.7665 32.0564 38.7467C31.8264 38.727 31.5948 38.754 31.3755 38.8261L28.6915 39.7091Z" fill="#B78876"/>
<path d="M33.3692 41.0974C33.3814 41.1507 33.3722 41.2067 33.3437 41.2534C33.3152 41.3001 33.2697 41.3339 33.2167 41.3475C33.1912 41.3559 33.1643 41.3589 33.1377 41.3565C33.111 41.354 33.0851 41.346 33.0617 41.3331C33.0382 41.3202 33.0176 41.3026 33.0013 41.2814C32.9849 41.2602 32.9731 41.2359 32.9665 41.2099C32.9536 41.1569 32.9621 41.1009 32.9902 41.0541C33.0183 41.0072 33.0637 40.9734 33.1166 40.9598C33.1422 40.9521 33.1691 40.9496 33.1957 40.9524C33.2223 40.9552 33.2481 40.9632 33.2716 40.976C33.2951 40.9888 33.3158 41.0061 33.3325 41.0269C33.3493 41.0477 33.3618 41.0717 33.3692 41.0974Z" fill="#263238"/>
<path d="M33.4243 40.7196C33.4042 40.7522 33.2266 40.6696 33.0065 40.7196C32.7864 40.7697 32.6513 40.9123 32.6238 40.8897C32.5963 40.8672 32.6238 40.8272 32.6838 40.7622C32.764 40.676 32.8688 40.6166 32.984 40.5921C33.0974 40.5679 33.2156 40.5801 33.3217 40.6271C33.3992 40.6621 33.4443 40.7046 33.4243 40.7196Z" fill="#263238"/>
<path d="M31.2329 41.5626C31.2451 41.616 31.2359 41.672 31.2074 41.7187C31.1789 41.7654 31.1333 41.7991 31.0803 41.8128C31.0549 41.8211 31.028 41.8242 31.0013 41.8217C30.9747 41.8192 30.9488 41.8113 30.9253 41.7984C30.9019 41.7855 30.8813 41.7679 30.8649 41.7467C30.8486 41.7255 30.8367 41.7011 30.8302 41.6752C30.8173 41.6221 30.8258 41.5661 30.8539 41.5193C30.882 41.4725 30.9274 41.4386 30.9803 41.425C31.0059 41.417 31.0329 41.4142 31.0596 41.4168C31.0863 41.4195 31.1122 41.4274 31.1358 41.4403C31.1593 41.4531 31.1801 41.4705 31.1968 41.4916C31.2135 41.5126 31.2258 41.5367 31.2329 41.5626Z" fill="#263238"/>
<path d="M31.2855 41.2225C31.2655 41.255 31.0854 41.1749 30.8678 41.2225C30.6502 41.27 30.5126 41.4151 30.4826 41.3925C30.4526 41.37 30.4826 41.33 30.5426 41.2625C30.6234 41.1762 30.7293 41.1176 30.8453 41.0949C30.9587 41.0707 31.0769 41.0829 31.183 41.1299C31.2605 41.1649 31.293 41.2099 31.2855 41.2225Z" fill="#263238"/>
<path d="M32.4261 42.6733C32.5341 42.6125 32.6492 42.5654 32.7688 42.5332C32.8214 42.5157 32.8739 42.4932 32.8739 42.4532C32.8668 42.3943 32.8414 42.3392 32.8013 42.2956L32.5512 41.9053C32.3218 41.5779 32.1178 41.2333 31.9409 40.8748C32.1981 41.1814 32.4298 41.5085 32.6338 41.8528L32.8839 42.248C32.9343 42.3072 32.961 42.383 32.9589 42.4607C32.9553 42.4818 32.9469 42.5018 32.9343 42.5191C32.9217 42.5365 32.9053 42.5507 32.8864 42.5607C32.8573 42.5766 32.8262 42.5884 32.7938 42.5957C32.6749 42.6367 32.5514 42.6627 32.4261 42.6733Z" fill="#263238"/>
<path d="M33.1365 45.2273C32.3904 45.4003 31.6109 45.3622 30.8853 45.1172C30.8853 45.1172 31.6357 46.0952 33.1866 45.605L33.1365 45.2273Z" fill="#B78876"/>
<path d="M32.4437 43.2186C32.3902 43.1762 32.327 43.1476 32.2598 43.1354C32.1926 43.1231 32.1235 43.1277 32.0585 43.1486C31.9632 43.1797 31.8841 43.2471 31.8383 43.3362C31.8168 43.3791 31.8091 43.4277 31.8163 43.4751C31.8235 43.5226 31.8451 43.5667 31.8784 43.6014C31.923 43.6316 31.9758 43.6477 32.0297 43.6477C32.0836 43.6477 32.1363 43.6316 32.181 43.6014C32.279 43.5432 32.3641 43.4658 32.4312 43.3737C32.453 43.352 32.4693 43.3254 32.4787 43.2962C32.4844 43.2822 32.4858 43.2669 32.4826 43.2522C32.4795 43.2375 32.4721 43.2241 32.4612 43.2136" fill="#B78876"/>
<path d="M31.8158 42.9635C31.8508 42.9635 31.9033 43.1911 32.1435 43.3137C32.3836 43.4363 32.6287 43.3587 32.6438 43.3912C32.6588 43.4238 32.5962 43.4488 32.4912 43.4763C32.3517 43.5077 32.2056 43.4891 32.0784 43.4238C31.9602 43.36 31.8707 43.2535 31.8283 43.1261C31.7858 43.0285 31.8008 42.966 31.8158 42.9635Z" fill="#263238"/>
<path d="M31.3005 40.8197C31.3005 40.8848 31.0678 40.9023 30.8177 40.9898C30.5676 41.0774 30.3749 41.19 30.3299 41.1424C30.2849 41.0949 30.3299 41.0574 30.405 40.9823C30.5006 40.8869 30.617 40.815 30.7452 40.7722C30.8729 40.7284 31.0092 40.7155 31.1429 40.7347C31.2454 40.7522 31.303 40.7897 31.3005 40.8197Z" fill="#263238"/>
<path d="M33.2066 40.0969C33.1791 40.1544 33.0165 40.1344 32.8364 40.1719C32.6563 40.2094 32.5087 40.277 32.4612 40.2344C32.4137 40.1919 32.4612 40.1569 32.5112 40.0944C32.588 40.0177 32.6869 39.967 32.7939 39.9493C32.9009 39.928 33.0118 39.9402 33.1116 39.9843C33.1941 40.0293 33.2191 40.0768 33.2066 40.0969Z" fill="#263238"/>
<path d="M33.5593 39.9867C32.9915 38.696 32.7288 39.3113 32.166 38.7585C31.495 39.6665 30.6076 40.3923 29.5845 40.8697C29.4961 40.8945 29.4153 40.941 29.3494 41.0048C29.3035 41.079 29.2755 41.1628 29.2677 41.2496C29.2599 41.3365 29.2724 41.424 29.3044 41.5051C29.4228 41.9705 29.4858 42.4482 29.492 42.9284C29.492 43.4087 30.2424 46.2878 29.9497 46.6806C29.1993 45.6925 27.9861 42.0329 27.9636 40.7872C27.9636 40.2869 28.0036 39.7316 28.3263 39.3364C28.5767 39.0695 28.8884 38.8678 29.2343 38.7485C30.0648 38.4033 30.9853 38.1657 31.8633 38.2983C32.7413 38.4308 33.4742 38.671 33.7744 39.5215" fill="#263238"/>
<path d="M21.8977 52.7491C21.8299 52.7415 21.7653 52.7165 21.7101 52.6765C21.6278 52.6188 21.5586 52.5444 21.5069 52.4583C21.4551 52.3721 21.4221 52.276 21.4099 52.1762C21.386 52.0347 21.3928 51.8897 21.4299 51.751C21.4821 51.5878 21.5672 51.4371 21.68 51.3082C21.9636 51.0217 22.2802 50.7698 22.6231 50.5578C22.8145 50.4255 22.9834 50.2634 23.1234 50.0775C23.2646 49.876 23.3397 49.6357 23.3385 49.3896C23.361 48.8769 23.1284 48.329 23.2134 47.7112C23.2654 47.399 23.4071 47.1088 23.6211 46.8757C23.8394 46.6341 24.1017 46.4363 24.3941 46.2929C24.9844 45.9977 25.6598 45.8951 26.3127 45.7175C26.9656 45.5399 27.5934 45.2623 27.9686 44.757C28.3439 44.2517 28.3789 43.5963 28.3388 43.021C28.2635 42.4631 28.2276 41.9005 28.2313 41.3375C28.2647 40.8416 28.4001 40.3579 28.629 39.9167C28.9514 39.2746 29.4481 38.7362 30.0623 38.3633C30.2843 38.2247 30.5253 38.1194 30.7777 38.0507C30.5416 38.1553 30.3119 38.2739 30.0899 38.4059C29.4977 38.7876 29.0211 39.3239 28.7116 39.9567C28.4949 40.3887 28.3681 40.8602 28.3388 41.3425C28.3404 41.9008 28.3805 42.4583 28.4589 43.011C28.4854 43.3178 28.477 43.6266 28.4339 43.9315C28.3887 44.2569 28.2642 44.5662 28.0712 44.832C27.6685 45.3773 27.0031 45.6675 26.3452 45.8326C25.6873 45.9977 25.0194 46.1153 24.4491 46.3979C23.8788 46.6806 23.4185 47.1484 23.331 47.7212C23.2434 48.294 23.4686 48.8418 23.446 49.3846C23.4426 49.6547 23.3552 49.917 23.1959 50.1351C23.052 50.3292 22.8771 50.4983 22.6781 50.6354C22.337 50.844 22.0206 51.0908 21.7351 51.3708C21.6237 51.4893 21.5385 51.6299 21.4849 51.7835C21.4458 51.9131 21.4356 52.0497 21.4549 52.1838C21.4765 52.3725 21.5718 52.5452 21.7201 52.664C21.7763 52.6981 21.8358 52.7266 21.8977 52.7491Z" fill="#455A64"/>
<path d="M32.4436 37.8931C32.3907 38.0203 32.3181 38.1385 32.2285 38.2433C31.9766 38.535 31.6921 38.7969 31.3805 39.0237C31.1829 39.1738 30.9603 39.3314 30.7101 39.494C30.5876 39.574 30.46 39.6591 30.3199 39.7441C30.1774 39.8191 30.0395 39.9026 29.9072 39.9943C29.6186 40.2011 29.3766 40.4661 29.1968 40.7722C29 41.1067 28.902 41.49 28.9141 41.8779V41.8904C28.8682 42.5351 28.9103 43.1831 29.0392 43.8165C29.1865 44.5189 29.2144 45.241 29.1217 45.9527C29.0676 46.287 28.9523 46.6084 28.7815 46.9007C28.6102 47.1848 28.3746 47.4247 28.0936 47.6011C27.5433 47.9463 26.938 48.0889 26.4177 48.3241C26.1616 48.4298 25.9223 48.5722 25.7073 48.7468C25.5034 48.9119 25.3335 49.1149 25.207 49.3446C24.9892 49.7633 24.8598 50.2222 24.8268 50.6929C24.74 51.3765 24.8207 52.071 25.0619 52.7166C25.1688 52.9447 25.3162 53.1516 25.4972 53.3269C25.4419 53.2909 25.3907 53.249 25.3446 53.2019C25.2085 53.0685 25.0975 52.9117 25.0169 52.7391C24.7512 52.0893 24.6548 51.3826 24.7367 50.6854C24.7637 50.2 24.8915 49.7255 25.1119 49.2921C25.2366 49.051 25.4064 48.8362 25.6122 48.6592C25.834 48.4753 26.0818 48.3252 26.3476 48.214C26.8804 47.9639 27.4808 47.8263 28.0036 47.4936C28.28 47.336 28.5156 47.1158 28.6915 46.8507C28.8538 46.5713 28.9632 46.2643 29.0142 45.9452C29.1021 45.2468 29.075 44.5387 28.9341 43.849C28.8056 43.2046 28.766 42.5455 28.8166 41.8904V41.9054C28.8025 41.4927 28.9094 41.0849 29.1242 40.7322C29.3141 40.414 29.57 40.1402 29.8747 39.9292C30.0102 39.8333 30.1514 39.7456 30.2974 39.6666C30.435 39.5866 30.5651 39.5065 30.6901 39.429C30.9403 39.2714 31.1629 39.1163 31.363 38.9737C31.6759 38.7552 31.9644 38.5036 32.2235 38.2233C32.3836 38.0182 32.4436 37.8881 32.4436 37.8931Z" fill="#455A64"/>
<path d="M55.4268 64.4533L57.3679 66.4669L61.3902 63.3226C61.1401 63.0875 59.4291 63.6328 58.5036 63.963L57.3104 62.9099L55.4268 64.4533Z" fill="#B78876"/>
<path d="M57.2328 66.5745L57.4805 66.8196L61.5403 63.3977L61.3902 63.3226L57.2328 66.5745Z" fill="#263238"/>
<path d="M59.6617 64.8184C59.6492 64.8309 59.5767 64.7934 59.4917 64.6934C59.381 64.5579 59.3139 64.3923 59.299 64.2181C59.269 63.8078 59.4816 63.5227 59.5117 63.5527C59.4588 63.7672 59.4311 63.9872 59.4291 64.2081C59.4702 64.4236 59.5489 64.6302 59.6617 64.8184Z" fill="#263238"/>
<path d="M59.0739 65.6965C59.0739 65.6965 58.9639 65.6415 58.8488 65.4914C58.7013 65.2911 58.6059 65.0573 58.5712 64.811C58.5355 64.5657 58.5621 64.3154 58.6487 64.0831C58.7187 63.9055 58.7938 63.8154 58.8063 63.833C58.7129 64.1475 58.6764 64.4762 58.6987 64.8035C58.7688 65.1214 58.896 65.424 59.0739 65.6965Z" fill="#263238"/>
<path d="M60.5022 64.2531C60.4822 64.2831 60.2846 64.133 60.2145 63.8554C60.1445 63.5777 60.2421 63.3551 60.2721 63.3551C60.3021 63.3551 60.2721 63.5727 60.3396 63.8129C60.4072 64.053 60.5297 64.2281 60.5022 64.2531Z" fill="#263238"/>
<path d="M58.1583 63.4827C57.917 63.8685 57.6279 64.2224 57.2978 64.5358C57.0029 64.8784 56.6668 65.1834 56.2973 65.4438C56.5791 65.0897 56.885 64.7554 57.2128 64.4432C57.5072 64.1032 57.823 63.7824 58.1583 63.4827Z" fill="#263238"/>
<path d="M28.3012 58.1071L23.8537 65.6114H19.4362L22.4379 64.6484L26.19 54.4125C26.19 54.4125 27.028 49.6148 27.6233 48.6592C28.1787 47.7662 30.1248 48.0164 30.4825 49.7999C30.7651 51.3233 28.3012 58.1071 28.3012 58.1071Z" fill="#B78876"/>
<path d="M63.594 64.3457C63.5828 64.4315 63.561 64.5155 63.529 64.5958C63.4789 64.7534 63.4014 64.9811 63.3013 65.2587C63.1012 65.8165 62.801 66.5795 62.4508 67.41C62.1006 68.2404 61.7504 68.9809 61.4878 69.5112C61.3577 69.7763 61.2376 69.9889 61.1676 70.134C61.1343 70.214 61.0888 70.2883 61.0325 70.3541C61.0519 70.2673 61.0821 70.1832 61.1226 70.104C61.2001 69.9239 61.2952 69.7113 61.4052 69.4636C61.6554 68.9233 61.9781 68.1779 62.3333 67.3474C62.6885 66.5169 62.9937 65.764 63.2138 65.2162L63.4814 64.5683C63.5079 64.489 63.5459 64.4141 63.594 64.3457Z" fill="#455A64"/>
<path d="M65.6902 80.4575C65.4391 80.3727 65.1935 80.2724 64.9548 80.1573C64.507 79.9672 63.8766 79.7196 63.1687 79.4969C62.4608 79.2743 61.8005 79.1142 61.3227 79.0117C61.062 78.9677 60.8039 78.9092 60.5497 78.8366C60.8155 78.8362 61.0806 78.8647 61.3402 78.9216C61.9734 79.0277 62.5986 79.1773 63.2113 79.3694C63.8223 79.5608 64.4191 79.7948 64.9973 80.0698C65.2417 80.1734 65.474 80.3034 65.6902 80.4575Z" fill="#455A64"/>
<path d="M63.2112 81.3404C63.1837 81.3679 62.7309 80.9301 62.0881 80.5099C61.4452 80.0897 60.8699 79.837 60.8849 79.802C61.3445 79.9175 61.7777 80.1205 62.1606 80.3998C62.5671 80.6441 62.9236 80.9633 63.2112 81.3404Z" fill="#455A64"/>
</svg>
