<svg width="23" height="21" viewBox="0 0 23 21" fill="none" xmlns="http://www.w3.org/2000/svg">
<path fill-rule="evenodd" clip-rule="evenodd" d="M16.994 1.18973C17.7308 0.552642 18.9254 0.552644 19.6623 1.18973L22.4501 3.60021C23.1869 4.23729 23.1869 5.27021 22.4501 5.90729L19.439 8.51084L19.4255 8.5222L7.75151 18.1573C7.53823 18.3334 7.28019 18.4637 6.99812 18.538L1.04405 20.1048C0.758361 20.18 0.448011 20.1129 0.236852 19.9303C0.0256936 19.7477 -0.0518938 19.4794 0.0350539 19.2324L1.83941 14.1062C1.9339 13.8378 2.10689 13.5949 2.34165 13.4012L13.9896 3.78752L16.994 1.18973ZM14.5416 5.26503L3.45828 14.4126C3.42474 14.4403 3.40003 14.475 3.38653 14.5134L2.02361 18.3854L6.52725 17.2002C6.56755 17.1896 6.60441 17.171 6.63488 17.1459L17.7102 8.00483L14.5416 5.26503ZM18.8672 7.02771L21.3065 4.91854C21.4118 4.82753 21.4118 4.67997 21.3065 4.58896L18.5187 2.17848C18.4135 2.08747 18.2428 2.08747 18.1376 2.17848L15.6982 4.28765L18.8672 7.02771Z" fill="#020202"/>
</svg>
