<svg width="19" height="20" viewBox="0 0 19 20" fill="none" xmlns="http://www.w3.org/2000/svg">
<path d="M9.34241 4.89092C10.2228 4.89092 10.9363 5.67013 10.9363 6.63171C10.9363 7.59328 10.2228 8.3725 9.34241 8.3725C8.46198 8.3725 7.74853 7.59328 7.74853 6.63171C7.74853 5.67013 8.46198 4.89092 9.34241 4.89092ZM9.34241 12.3514C11.5966 12.3514 13.9722 13.5617 13.9722 14.0922V15.0041H4.71258V14.0922C4.71258 13.5617 7.08822 12.3514 9.34241 12.3514ZM9.34241 3.31592C7.66505 3.31592 6.30646 4.79973 6.30646 6.63171C6.30646 8.46368 7.66505 9.94749 9.34241 9.94749C11.0198 9.94749 12.3784 8.46368 12.3784 6.63171C12.3784 4.79973 11.0198 3.31592 9.34241 3.31592ZM9.34241 10.7764C7.31591 10.7764 3.27051 11.8872 3.27051 14.0922V16.5791H15.4143V14.0922C15.4143 11.8872 11.3689 10.7764 9.34241 10.7764Z" fill="#4E9525"/>
</svg>
