<svg width="18" height="18" viewBox="0 0 18 18" fill="none" xmlns="http://www.w3.org/2000/svg">
<path fill-rule="evenodd" clip-rule="evenodd" d="M16.9995 12.9792V15.3879C17.003 16.2746 16.2857 16.9965 15.3973 17C15.3468 17.0003 15.2962 16.9982 15.2457 16.9937C12.7701 16.7252 10.3924 15.8808 8.30331 14.5285C6.35945 13.296 4.71127 11.6514 3.47627 9.71135C2.11676 7.61693 1.27075 5.23197 1.00663 2.75039C0.926662 1.86718 1.57906 1.0862 2.46436 1.00638C2.51171 1.00218 2.55976 1.00008 2.60746 1.00008H5.02098C5.82841 0.99203 6.51694 1.58293 6.62988 2.38107C6.7316 3.15191 6.92065 3.90874 7.19319 4.63721C7.41381 5.22392 7.27281 5.88553 6.83086 6.33116L5.80912 7.35089C6.95432 9.36093 8.62215 11.0251 10.6362 12.1684L11.6579 11.1487C12.1044 10.7076 12.7673 10.5665 13.3552 10.7871C14.0851 11.0591 14.8434 11.2478 15.6158 11.3493C16.4246 11.463 17.0198 12.1639 16.9995 12.9792Z" stroke="#616161" stroke-linecap="round" stroke-linejoin="round"/>
</svg>
