<svg width="21" height="16" viewBox="0 0 21 16" fill="none" xmlns="http://www.w3.org/2000/svg">
<g clip-path="url(#clip0_208_365)">
<path d="M14.502 0.656154L5.97128 0.649658C5.0329 0.649658 4.26514 1.23432 4.26514 1.9489V13.6421C4.26514 14.3567 5.0329 14.9413 5.97128 14.9413H14.502C15.4404 14.9413 16.2081 14.3567 16.2081 13.6421V1.9489C16.2081 1.23432 15.4404 0.656154 14.502 0.656154ZM14.502 13.6421H5.97128V12.9925H14.502V13.6421ZM14.502 11.6932H5.97128V3.89776H14.502V11.6932ZM14.502 2.59852H5.97128V1.9489H14.502V2.59852ZM13.6489 6.52873L12.4461 5.61276L9.42621 7.91242L8.22338 6.99646L7.02055 7.91242L9.42621 9.74435L13.6489 6.52873Z" fill="#4E9525"/>
</g>
<defs>
<clipPath id="clip0_208_365">
<rect width="20.4737" height="15.5909" fill="white"/>
</clipPath>
</defs>
</svg>
