<svg width="235" height="173" viewBox="0 0 235 173" fill="none" xmlns="http://www.w3.org/2000/svg">
<path d="M155.494 162.554H151.414V162.672H155.494V162.554Z" fill="#EBEBEB"/>
<path d="M111.262 132.786H20.6186C19.9077 132.786 19.2258 132.504 18.7231 132.001C18.2204 131.498 17.938 130.817 17.938 130.106V2.6806C17.938 1.96966 18.2204 1.28784 18.7231 0.785131C19.2258 0.28242 19.9077 0 20.6186 0H111.262C111.973 0 112.654 0.28242 113.157 0.785131C113.66 1.28784 113.942 1.96966 113.942 2.6806V130.106C113.942 130.458 113.873 130.806 113.738 131.131C113.603 131.457 113.406 131.752 113.157 132.001C112.908 132.25 112.613 132.447 112.287 132.582C111.962 132.717 111.614 132.786 111.262 132.786ZM20.6186 0.117365C19.9392 0.118605 19.2879 0.389058 18.8075 0.869491C18.327 1.34992 18.0566 2.00117 18.0554 2.6806V130.106C18.0566 130.785 18.327 131.436 18.8075 131.917C19.2879 132.397 19.9392 132.668 20.6186 132.669H111.262C111.941 132.668 112.592 132.397 113.073 131.917C113.553 131.436 113.824 130.785 113.825 130.106V2.6806C113.824 2.00117 113.553 1.34992 113.073 0.869491C112.592 0.389058 111.941 0.118605 111.262 0.117365H20.6186Z" fill="#EBEBEB"/>
<path d="M212.81 132.786H122.158C121.447 132.785 120.766 132.502 120.264 132C119.761 131.497 119.478 130.816 119.477 130.106V2.6806C119.478 1.97005 119.761 1.28894 120.264 0.786501C120.766 0.284059 121.447 0.00124115 122.158 0H212.81C213.519 0.00248447 214.199 0.286 214.699 0.788442C215.2 1.29088 215.481 1.97129 215.481 2.6806V130.106C215.481 130.815 215.2 131.495 214.699 131.998C214.199 132.5 213.519 132.784 212.81 132.786ZM122.158 0.117365C121.478 0.118605 120.827 0.389058 120.347 0.869491C119.866 1.34992 119.596 2.00117 119.594 2.6806V130.106C119.596 130.785 119.866 131.436 120.347 131.917C120.827 132.397 121.478 132.668 122.158 132.669H212.81C213.489 132.668 214.141 132.397 214.621 131.917C215.102 131.436 215.372 130.785 215.373 130.106V2.6806C215.372 2.00117 215.102 1.34992 214.621 0.869491C214.141 0.389058 213.489 0.118605 212.81 0.117365H122.158Z" fill="#EBEBEB"/>
<path d="M211.209 161.278H195.661V161.395H211.209V161.278Z" fill="#EBEBEB"/>
<path d="M195.191 156.921H186.182V157.039H195.191V156.921Z" fill="#EBEBEB"/>
<path d="M44.9038 157.71H24.6279V157.827H44.9038V157.71Z" fill="#EBEBEB"/>
<path d="M52.0581 157.71H49.0864V157.827H52.0581V157.71Z" fill="#EBEBEB"/>
<path d="M105.699 159.691H61.7197V159.808H105.699V159.691Z" fill="#EBEBEB"/>
<path d="M234.729 153.724H0V153.841H234.729V153.724Z" fill="#EBEBEB"/>
<path d="M41.9977 145.767H22.5715V153.607H41.9977V145.767Z" fill="#E0E0E0"/>
<path d="M60.8651 145.767H41.439V153.607H60.8651V145.767Z" fill="#F5F5F5"/>
<path d="M79.8222 145.767H60.396V153.607H79.8222V145.767Z" fill="#E0E0E0"/>
<path d="M98.685 145.767H79.2588V153.607H98.685V145.767Z" fill="#F5F5F5"/>
<path d="M117.646 145.767H98.22V153.607H117.646V145.767Z" fill="#E0E0E0"/>
<path d="M136.509 145.767H117.083V153.607H136.509V145.767Z" fill="#F5F5F5"/>
<path d="M155.47 145.767H136.044V153.607H155.47V145.767Z" fill="#E0E0E0"/>
<path d="M174.333 145.767H154.907V153.607H174.333V145.767Z" fill="#F5F5F5"/>
<path d="M193.295 145.767H173.868V153.607H193.295V145.767Z" fill="#E0E0E0"/>
<path d="M212.158 145.767H192.731V153.607H212.158V145.767Z" fill="#F5F5F5"/>
<path d="M66.9165 41.5189C68.677 41.0072 69.6957 38.8852 69.461 37.059C69.3023 36.1403 68.8612 35.2938 68.199 34.6375C67.5368 33.9812 66.6865 33.5477 65.7663 33.3972C65.8274 32.6602 66.0762 32.172 66.0809 31.4349C66.0701 29.8446 65.6535 28.2833 64.8706 26.8991C64.0877 25.5148 62.9643 24.3533 61.6069 23.5245C58.8841 21.9002 54.5275 21.811 52.5182 23.3555C51.5009 24.1779 50.6824 25.2194 50.124 26.4023C49.0263 25.7803 47.7835 25.46 46.5219 25.474C45.2603 25.488 44.0249 25.8359 42.9413 26.4821C41.8812 27.1875 41.0249 28.1589 40.4581 29.2992C39.8913 30.4394 39.6338 31.7085 39.7114 32.9794C38.7986 32.6815 37.8331 32.5801 36.8783 32.6821C35.9235 32.784 35.0011 33.087 34.1718 33.571C33.3514 34.0715 32.687 34.791 32.2532 35.6485C31.8194 36.5061 31.6336 37.4677 31.7165 38.4251C31.956 40.303 33.1531 41.6503 35.5473 42.0494C35.5473 42.0494 49.7954 46.5139 66.9165 41.5189Z" fill="#F0F0F0"/>
<path d="M180.629 16.9381C181.405 16.4912 182.283 16.2538 183.179 16.2491C184.074 16.2443 184.955 16.4725 185.736 16.9111C186.516 17.3498 187.17 17.9838 187.631 18.751C188.093 19.5183 188.347 20.3923 188.369 21.2874C188.39 22.1825 188.179 23.0679 187.755 23.8567C187.332 24.6455 186.71 25.3105 185.952 25.7866C185.194 26.2627 184.324 26.5334 183.43 26.5722C182.535 26.611 181.646 26.4166 180.85 26.008C178.831 31.5054 172.211 31.5054 170.667 29.1252C168.066 30.8904 164.409 31.9091 161.306 31.3598C158.203 30.8106 156.475 29.9843 154.184 27.8201C153.37 26.9949 152.677 26.0575 152.128 25.0362C150.41 25.7639 146.804 25.839 145.232 24.8391C144.782 24.5132 144.401 24.1019 144.11 23.6286C143.819 23.1553 143.625 22.6294 143.538 22.0808C143.451 21.5323 143.472 20.972 143.602 20.4319C143.731 19.8918 143.966 19.3825 144.293 18.9333C145.884 16.8113 148.837 17.1634 150.339 17.9052C150.03 16.1024 150.485 14.2387 152.053 13.2951C152.783 12.8188 153.643 12.5818 154.514 12.6172C155.385 12.6525 156.223 12.9584 156.912 13.4923C158.161 10.3422 161.747 7.50197 165.123 7.8212C166.812 8.0165 168.397 8.7367 169.655 9.88039C170.913 11.0241 171.781 12.5336 172.136 14.1964C173.423 12.7599 175.155 11.8022 176.972 12.4454C178.789 13.0885 180.53 15.0133 180.629 16.9381Z" fill="#F0F0F0"/>
<path d="M127.693 59.4617C127.684 59.0756 127.589 58.6964 127.414 58.352C127.239 58.0076 126.99 57.7068 126.684 57.4716C126.377 57.2365 126.022 57.0731 125.644 56.9934C125.266 56.9137 124.876 56.9197 124.5 57.0111C124.791 54.9502 123.439 52.4386 121.449 51.847C119.458 51.2555 117.149 52.3635 116.233 54.2272C115.819 53.7558 115.302 53.386 114.722 53.1464C114.143 52.9067 113.515 52.8038 112.889 52.8454C112.263 52.887 111.655 53.0721 111.112 53.3864C110.569 53.7007 110.106 54.1357 109.758 54.6578C109.41 55.1798 109.187 55.775 109.106 56.3971C109.025 57.0192 109.088 57.6516 109.291 58.2454C109.493 58.8392 109.83 59.3784 110.274 59.8213C110.718 60.2642 111.259 60.599 111.853 60.7996C111.656 61.4846 111.714 62.2179 112.017 62.8631C112.32 63.5082 112.848 64.0212 113.501 64.3065C114.637 64.7759 116.44 64.7759 117.196 63.4802C118.134 65.02 120.05 65.6397 121.838 65.358C123.519 65.0858 125.463 63.7431 124.993 62.0718L124.923 61.7338C124.937 61.6587 127.74 62.1 127.693 59.4617Z" fill="#F0F0F0"/>
<path d="M180.544 120.984L180.492 115.266V114.923L180.445 109.834V109.506L180.403 104.661V104.346L180.361 99.7317V99.4312L180.319 95.0277V94.7366L180.276 90.5115V90.2439L180.239 86.2254V85.9625L180.206 82.6387C180.033 82.7479 179.847 82.8347 179.652 82.8969V85.7136H176.089L178.962 83.0847C178.666 83.1414 178.366 83.1775 178.065 83.1927L175.718 85.3522L175.755 82.8124C175.556 82.7339 175.369 82.6264 175.202 82.4932L175.14 85.9765V86.2864L175.07 90.3049V90.5772L174.995 94.7742V95.0606L174.92 99.4547V99.7551L174.835 104.365V104.684L174.751 109.515V109.848L174.638 114.923V115.266L174.54 120.979L174.047 145.631L180.915 145.71L180.544 120.984ZM179.83 119.914L175.694 115.444H179.802L179.83 119.914ZM179.765 114.923H175.666L179.736 110.651L179.765 114.923ZM179.812 108.642L175.873 104.605H179.783L179.812 108.642ZM179.765 104.051H175.863L179.741 100.168L179.765 104.051ZM179.732 98.7082L175.976 95.0418H179.708L179.732 98.7082ZM179.704 94.4831H175.981L179.675 90.9434L179.704 94.4831ZM179.643 86.2864V89.6383L176.056 86.3052L179.643 86.2864ZM175.577 87.0704L179.164 90.4176H175.53L175.577 87.0704ZM175.521 90.9997H179.159L175.469 94.5254L175.521 90.9997ZM175.446 95.9009L179.201 99.572H175.403L175.446 95.9009ZM175.394 100.126H179.211L175.338 103.99L175.394 100.126ZM175.319 105.468L179.262 109.52H175.263L175.319 105.468ZM175.277 110.064H179.29L175.22 114.318L175.277 110.064ZM175.277 115.698L179.417 120.191H175.192L175.277 115.698Z" fill="#EBEBEB"/>
<path d="M180.14 82.0895H179.859L179.666 81.9111L178.023 83.4181C178.324 83.4029 178.624 83.3668 178.92 83.3101L179.586 82.6951V83.113C179.781 83.0498 179.967 82.9631 180.14 82.8547V82.0895ZM175.155 82.1177V82.7233C175.322 82.858 175.509 82.9672 175.709 83.0472V82.1083L175.155 82.1177Z" fill="#EBEBEB"/>
<path d="M180.948 81.6388C180.966 81.7889 180.949 81.941 180.898 82.0835C180.848 82.2259 180.765 82.3549 180.657 82.4604L180.464 82.6387C180.365 82.7224 180.258 82.7963 180.145 82.8594C179.972 82.9678 179.786 83.0545 179.591 83.1176C179.374 83.2036 179.149 83.2696 178.92 83.3148C178.624 83.3715 178.324 83.4075 178.023 83.4227H177.619C176.96 83.425 176.307 83.2941 175.699 83.0378C175.5 82.9577 175.313 82.8486 175.145 82.7139L175.098 82.6763L174.92 82.5026C174.815 82.4014 174.737 82.2764 174.691 82.1382C174.645 82.0001 174.634 81.8529 174.657 81.7092L175.066 79.4183H173.986L177.742 77.5076L181.661 79.2915H180.558L180.948 81.6388Z" fill="#EBEBEB"/>
<path d="M44.4482 45.373V145.743H63.6256V57.6353L44.4482 45.373Z" fill="#F0F0F0"/>
<path d="M97.99 85.2253L98.1355 145.649H102.52H128.007H132.392L132.584 85.2253H97.99Z" fill="#E6E6E6"/>
<path d="M104.68 77.5356L104.694 91.0091H107.412H123.186H125.899L125.928 77.5356H104.68Z" fill="#E6E6E6"/>
<path d="M104.656 91.009H100.173L100.168 86.9717H104.652L104.656 91.009Z" fill="#FAFAFA"/>
<path d="M113.252 86.9717H108.769V91.009H113.252V86.9717Z" fill="#FAFAFA"/>
<path d="M121.848 86.9717H117.365V91.009H121.848V86.9717Z" fill="#FAFAFA"/>
<path d="M130.439 91.009H125.956L125.965 86.9717H130.448L130.439 91.009Z" fill="#F0F0F0"/>
<path d="M104.595 98.3655H100.22L100.21 94.4268H104.59L104.595 98.3655Z" fill="#F0F0F0"/>
<path d="M113.177 94.4268H108.802V98.3655H113.177V94.4268Z" fill="#F0F0F0"/>
<path d="M121.759 94.4268H117.384V98.3655H121.759V94.4268Z" fill="#FAFAFA"/>
<path d="M130.34 98.3655H125.965L125.974 94.4268H130.354L130.34 98.3655Z" fill="#FAFAFA"/>
<path d="M104.558 105.539H100.286L100.276 101.699H104.553L104.558 105.539Z" fill="#F0F0F0"/>
<path d="M113.13 101.699H108.853V105.544H113.13V101.699Z" fill="#FAFAFA"/>
<path d="M121.707 101.699H117.43V105.544H121.707V101.699Z" fill="#FAFAFA"/>
<path d="M113.224 85.2253H108.661L108.656 81.1082H113.224V85.2253Z" fill="#FAFAFA"/>
<path d="M121.82 85.2253H117.257V81.1082H121.824L121.82 85.2253Z" fill="#F0F0F0"/>
<path d="M130.275 105.539H125.998L126.007 101.699H130.284L130.275 105.539Z" fill="#F0F0F0"/>
<path d="M104.543 112.543H100.37L100.361 108.792H104.539L104.543 112.543Z" fill="#FAFAFA"/>
<path d="M113.111 108.792H108.933V112.543H113.111V108.792Z" fill="#F0F0F0"/>
<path d="M121.674 112.543H117.496L117.501 108.792H121.679L121.674 112.543Z" fill="#F0F0F0"/>
<path d="M130.237 112.543H126.059L126.068 108.792H130.247L130.237 112.543Z" fill="#FAFAFA"/>
<path d="M104.732 120.416H100.079L100.07 116.242H104.727L104.732 120.416Z" fill="#F0F0F0"/>
<path d="M113.28 120.416H108.623V116.242H113.28V120.416Z" fill="#FAFAFA"/>
<path d="M121.829 120.416H117.172V116.242H121.834L121.829 120.416Z" fill="#FAFAFA"/>
<path d="M130.373 120.416H125.721L125.725 116.242H130.387L130.373 120.416Z" fill="#F0F0F0"/>
<path d="M104.759 127.068H100.21L100.201 122.993H104.755L104.759 127.068Z" fill="#F0F0F0"/>
<path d="M113.304 127.068H108.755L108.75 122.993H113.304V127.068Z" fill="#FAFAFA"/>
<path d="M121.848 127.068H117.299L117.304 122.993H121.853L121.848 127.068Z" fill="#F0F0F0"/>
<path d="M130.392 127.068H125.843L125.852 122.993H130.401L130.392 127.068Z" fill="#FAFAFA"/>
<path d="M104.661 134.556H100.229L100.22 130.589H104.656L104.661 134.556Z" fill="#FAFAFA"/>
<path d="M113.191 130.589H108.755V134.556H113.191V130.589Z" fill="#FAFAFA"/>
<path d="M121.721 130.589H117.285V134.556H121.721V130.589Z" fill="#F0F0F0"/>
<path d="M130.247 134.556H125.81L125.82 130.589H130.261L130.247 134.556Z" fill="#F0F0F0"/>
<path d="M104.666 141.363H100.333L100.328 137.49H104.661L104.666 141.363Z" fill="#F0F0F0"/>
<path d="M130.232 141.363H125.904L125.909 137.49H130.242L130.232 141.363Z" fill="#FAFAFA"/>
<path d="M121.745 137.49H108.816L108.839 138.467H109.196L109.205 145.649H110.496L110.492 138.467H120.087L120.078 145.649H121.369L121.383 138.467H121.768L121.745 137.49Z" fill="#F5F5F5"/>
<path d="M115.346 145.649H110.553V138.467H115.351L115.346 145.649Z" fill="#E6E6E6"/>
<path d="M120.017 145.649H115.229V138.467H120.026L120.017 145.649Z" fill="#EBEBEB"/>
<path d="M174.737 106.943L174.826 145.649H169.662H139.64H134.476L134.105 106.943H174.737Z" fill="#F5F5F5"/>
<path d="M167.014 115.548H172.052L172.038 111.027H166.996L167.014 115.548Z" fill="#E6E6E6"/>
<path d="M156.963 115.548H162L161.977 111.027H156.94L156.963 115.548Z" fill="#E6E6E6"/>
<path d="M146.912 115.548H151.95L151.917 111.027H146.879L146.912 115.548Z" fill="#E6E6E6"/>
<path d="M136.856 115.548H141.894L141.856 111.027H136.819L136.856 115.548Z" fill="#E6E6E6"/>
<path d="M166.822 124.369H172.249L172.239 119.5H166.803L166.822 124.369Z" fill="#E6E6E6"/>
<path d="M156.79 124.369H162.217L162.198 119.5H156.761L156.79 124.369Z" fill="#E6E6E6"/>
<path d="M146.757 124.369H152.184L152.156 119.5H146.72L146.757 124.369Z" fill="#E6E6E6"/>
<path d="M136.725 124.369H142.152L142.114 119.5H136.678L136.725 124.369Z" fill="#E6E6E6"/>
<path d="M166.963 132.439H172.235L172.221 127.721H166.944L166.963 132.439Z" fill="#E6E6E6"/>
<path d="M156.94 132.439H162.212L162.188 127.721H156.916L156.94 132.439Z" fill="#E6E6E6"/>
<path d="M146.917 132.439H152.189L152.156 127.721H146.884L146.917 132.439Z" fill="#E6E6E6"/>
<path d="M136.894 132.439H142.161L142.124 127.721H136.852L136.894 132.439Z" fill="#E6E6E6"/>
<path d="M167.076 140.715H172.188L172.174 136.147H167.062L167.076 140.715Z" fill="#E6E6E6"/>
<path d="M137.049 140.715H142.161L142.124 136.147H137.007L137.049 140.715Z" fill="#E6E6E6"/>
<path d="M146.682 136.147H162.489L162.494 137.528H161.484L161.522 145.649H160.062L160.02 137.528H149.175L149.232 145.649H147.767L147.71 137.528H146.696L146.682 136.147Z" fill="#F5F5F5"/>
<path d="M154.682 145.649H160.099L160.057 137.528H154.635L154.682 145.649Z" fill="#E6E6E6"/>
<path d="M149.194 145.649H154.611L154.56 137.528H149.137L149.194 145.649Z" fill="#EBEBEB"/>
<path d="M24.7123 79.6248L24.6418 145.649H29.435H57.2833H62.0764L62.513 79.6248H24.7123Z" fill="#F5F5F5"/>
<path d="M27.0407 81.5308L27.0314 89.5679L27.0267 91.7743L27.022 93.9808H31.9278L31.9325 91.7743L31.9372 89.5679L31.9513 81.5308H27.0407Z" fill="#E6E6E6"/>
<path d="M36.4345 81.5308L36.4157 89.5679L36.4063 91.7743L36.4016 93.9808H41.3074L41.3121 91.7743L41.3215 89.5679L41.3497 81.5308H36.4345Z" fill="#E6E6E6"/>
<path d="M45.8331 81.5308L45.8003 89.5679L45.7909 91.7743L45.7815 93.9808H50.6826L50.6967 91.7743L50.7061 89.5679L50.7437 81.5308H45.8331Z" fill="#E6E6E6"/>
<path d="M55.2271 81.5308L55.1849 89.5679L55.1661 92.9762L55.1614 93.9808H60.0625L60.0672 92.9762L60.0907 89.5679L60.1423 81.5308H55.2271Z" fill="#E6E6E6"/>
<path d="M27.0549 97.6238L27.0455 105.647L27.0408 107.853V110.055H31.9513L31.956 107.853L31.9607 105.647L31.9748 97.6238H27.0549Z" fill="#E6E6E6"/>
<path d="M36.4252 97.6238L36.4017 105.647L36.397 108.755L36.3923 110.055H41.3029L41.3076 108.755L41.317 105.647L41.3451 97.6238H36.4252Z" fill="#E6E6E6"/>
<path d="M45.7955 97.6238L45.7627 105.647L45.7533 107.853L45.7439 110.055H50.6544L50.6638 107.853L50.6779 105.647L50.7155 97.6238H45.7955Z" fill="#E6E6E6"/>
<path d="M55.1659 97.6238L55.1189 105.647L55.1095 107.853L55.0955 110.055H60.006L60.0201 107.853L60.0342 105.647L60.0858 97.6238H55.1659Z" fill="#E6E6E6"/>
<path d="M27.0596 113.52L27.0455 121.51V123.707L27.0408 125.899H31.9419L31.9466 123.707L31.9513 121.51L31.9701 113.52H27.0596Z" fill="#E6E6E6"/>
<path d="M36.4018 113.52L36.383 121.51L36.3736 123.707L36.3689 125.899H41.27L41.2794 123.707L41.2888 121.51L41.317 113.52H36.4018Z" fill="#E6E6E6"/>
<path d="M45.7487 113.52L45.7158 121.51L45.7064 123.707L45.697 125.899H50.5982L50.6122 123.707L50.6216 121.51L50.6639 113.52H45.7487Z" fill="#E6E6E6"/>
<path d="M55.0958 113.52L55.0489 121.51L55.0301 124.542L55.0254 125.899H59.9265L59.9359 124.542L59.9547 121.51L60.0063 113.52H55.0958Z" fill="#E6E6E6"/>
<path d="M57.5462 129.19H55.1191H50.5748H45.7253H41.1809H36.3314H26.9376L26.9329 133.528H36.322H41.1668H45.7065H50.556H55.0957H57.5181H59.9452L59.9733 129.19H57.5462Z" fill="#E6E6E6"/>
<path d="M50.4433 136.734H36.3126L36.2798 137.8H36.707L36.6882 145.649H38.1013L38.1201 137.8H48.6078L48.5702 145.649H49.9786L50.0208 137.8H50.4105L50.4433 136.734Z" fill="#FAFAFA"/>
<path d="M43.3966 145.649H38.1621L38.1856 137.8H43.4294L43.3966 145.649Z" fill="#E6E6E6"/>
<path d="M48.5045 145.649H43.27L43.2982 137.8H48.542L48.5045 145.649Z" fill="#E6E6E6"/>
<path d="M96.3328 88.751L96.7224 145.649H92.5912H68.5925H64.466L63.7571 88.751H96.3328Z" fill="#E6E6E6"/>
<path d="M84.8262 131.594H86.5867H94.4783L94.4924 133.415L94.5065 135.237L94.5534 141.847H90.4691L90.4128 135.054H86.4224H84.8544H82.5541L82.5259 131.594H84.8262Z" fill="#F0F0F0"/>
<path d="M69.2499 131.594H70.8273H78.3198L78.3574 135.054H70.6019L70.6771 141.847H66.5928L66.513 135.237L66.4801 132.603L66.4707 131.594H69.2499Z" fill="#F0F0F0"/>
<path d="M74.9583 137.983H86.075L86.0844 138.955H86.2065L86.2628 145.649H85.061L85 138.955H76.0568L76.1319 145.649H74.9254L74.855 138.955H74.9677L74.9583 137.983Z" fill="#F5F5F5"/>
<path d="M80.5449 145.649H85.0142L84.9531 138.955H80.4839L80.5449 145.649Z" fill="#EBEBEB"/>
<path d="M76.1741 145.649H80.6387L80.5776 138.955H76.1084L76.1741 145.649Z" fill="#E0E0E0"/>
<path d="M81.9392 91.0513H94.3329L94.408 101.731H82.0378L81.9392 91.0513Z" fill="#F0F0F0"/>
<path d="M65.8699 91.0513H78.2683L78.3715 101.731H66.0013L65.8699 91.0513Z" fill="#F0F0F0"/>
<path d="M82.2817 104.478H94.1449L94.2248 114.688H82.3756L82.2817 104.478Z" fill="#F0F0F0"/>
<path d="M66.2405 104.478H78.1084L78.2117 114.688H66.3625L66.2405 104.478Z" fill="#F0F0F0"/>
<path d="M82.4041 118.36H94.3377L94.4128 128.599H82.4979L82.4041 118.36Z" fill="#F0F0F0"/>
<path d="M66.4143 118.36H78.3432L78.4465 128.599H66.5317L66.4143 118.36Z" fill="#F0F0F0"/>
<path d="M180.497 145.443V97.4313L195.529 50.2273H210.824V145.724L180.497 145.443Z" fill="#EBEBEB"/>
<path d="M195.529 50.2273L180.497 97.4313L210.824 50.2273H195.529Z" fill="#F5F5F5"/>
<path d="M117.365 173C167.635 173 208.388 170.621 208.388 167.686C208.388 164.751 167.635 162.372 117.365 162.372C67.0938 162.372 26.3413 164.751 26.3413 167.686C26.3413 170.621 67.0938 173 117.365 173Z" fill="#F5F5F5"/>
<path d="M181.681 53.7295L181.211 64.8556C181.178 65.6537 180.927 66.4275 180.487 67.0941C180.047 67.7607 179.434 68.2949 178.714 68.6395C177.925 69.015 177.155 69.3765 176.794 69.5314C175.93 69.9352 175.075 70.2732 174.221 70.6065C172.498 71.2778 170.789 71.8881 169.024 72.4468L167.433 68.3109C168.874 67.8132 174.629 65.6913 176.625 64.9026L179.188 53.5041C178.963 53.2225 181.681 53.7295 181.681 53.7295Z" fill="#EBB376"/>
<path d="M181.455 54.6168L182.441 50.894H178.803C178.803 50.894 178.521 53.0207 179.741 54.1051L181.455 54.6168Z" fill="#EBB376"/>
<path d="M181.882 48.8142L180.53 48.542C180.267 48.4924 179.996 48.5404 179.766 48.677C179.536 48.8136 179.364 49.0293 179.281 49.2837L178.812 50.9033H182.45L182.647 49.9128C182.67 49.7903 182.669 49.6645 182.643 49.5426C182.616 49.4208 182.566 49.3054 182.495 49.2032C182.424 49.1009 182.333 49.0139 182.228 48.9471C182.123 48.8803 182.005 48.8352 181.882 48.8142Z" fill="#EBB376"/>
<path d="M164.564 68.1793C165.766 66.3296 174.3 66.0996 174.3 66.0996L174.685 72.0523C174.685 72.0523 169.39 73.6391 166.188 73.6109C163.794 73.0617 163.766 69.813 164.564 68.1793Z" fill="#4E9525"/>
<path d="M164.564 68.1793C165.766 66.3296 174.3 66.0996 174.3 66.0996L174.685 72.0523C174.685 72.0523 169.39 73.6391 166.188 73.6109C163.794 73.0617 163.766 69.813 164.564 68.1793Z" fill="#4E9525"/>
<path opacity="0.1" d="M164.564 68.1793C165.766 66.3296 174.3 66.0996 174.3 66.0996L174.685 72.0523C174.685 72.0523 169.39 73.6391 166.188 73.6109C163.794 73.0617 163.766 69.813 164.564 68.1793Z" fill="white"/>
<path d="M150.645 62.3439C150.645 63.7523 150.532 62.3439 151.414 64.8039C152.297 67.2639 151.691 70.0477 148.039 69.3905C144.387 68.7333 142.528 69.5924 140.1 70.2027C137.673 70.813 134.387 68.4469 135.95 65.6301C137.514 62.8134 137.27 61.0248 135.95 60.9074C133.57 60.6867 134.073 56.4475 136.03 54.1096C137.57 52.2741 137.57 52.2741 141.072 51.8046C152.245 50.307 150.654 60.9356 150.645 62.3439Z" fill="#263238"/>
<path d="M137.387 153.01C136.711 156.081 135.72 166.625 135.72 166.625L132.204 166.963C132.204 166.963 132.453 156.447 132.204 153.442L137.387 153.01Z" fill="#CB7A63"/>
<path d="M130.355 166.094C129.955 166.165 129.544 166.09 129.195 165.883C129.154 165.825 129.132 165.755 129.132 165.684C129.132 165.612 129.154 165.542 129.195 165.484C129.223 165.429 129.261 165.38 129.308 165.34C129.355 165.299 129.409 165.269 129.467 165.249C130.101 165.024 131.505 165.695 131.566 165.719C131.584 165.725 131.599 165.736 131.61 165.751C131.621 165.766 131.626 165.785 131.626 165.803C131.626 165.822 131.621 165.84 131.61 165.855C131.599 165.87 131.584 165.882 131.566 165.888C131.169 165.991 130.764 166.06 130.355 166.094ZM129.683 165.385C129.626 165.391 129.569 165.403 129.514 165.423C129.477 165.432 129.442 165.45 129.412 165.474C129.382 165.498 129.357 165.529 129.341 165.564C129.284 165.681 129.312 165.738 129.341 165.766C129.538 166.005 130.51 165.939 131.218 165.799C130.738 165.56 130.218 165.413 129.683 165.367V165.385Z" fill="#4E9525"/>
<path d="M131.514 165.878H131.477C131.007 165.709 130.012 164.939 130.068 164.498C130.068 164.39 130.143 164.259 130.392 164.216C130.482 164.2 130.575 164.202 130.665 164.222C130.754 164.242 130.839 164.28 130.913 164.334C131.434 164.705 131.613 165.742 131.622 165.784C131.625 165.801 131.623 165.817 131.616 165.832C131.609 165.847 131.598 165.86 131.585 165.869C131.575 165.877 131.563 165.882 131.551 165.883C131.538 165.885 131.526 165.883 131.514 165.878ZM130.458 164.385H130.402C130.237 164.414 130.233 164.479 130.228 164.503C130.228 164.77 130.88 165.381 131.378 165.63C131.301 165.194 131.093 164.793 130.782 164.479C130.687 164.413 130.573 164.382 130.458 164.39V164.385Z" fill="#4E9525"/>
<path d="M131.885 165.31L136.11 165.005C136.187 164.999 136.264 165.02 136.328 165.063C136.392 165.107 136.439 165.171 136.462 165.244L137.472 168.62C137.494 168.691 137.502 168.766 137.495 168.84C137.489 168.915 137.467 168.987 137.432 169.053C137.397 169.119 137.35 169.177 137.292 169.225C137.234 169.272 137.168 169.307 137.096 169.329L136.979 169.352C135.458 169.437 134.101 169.451 132.209 169.587C129.974 169.751 130.561 169.977 127.937 170.207C126.355 170.343 125.937 168.564 126.599 168.427C129.641 167.817 129.885 166.869 130.998 165.681C131.241 165.457 131.555 165.326 131.885 165.31Z" fill="#263238"/>
<path d="M144.683 117.012C144.476 117.897 144.173 118.756 143.781 119.576C142.415 122.519 139.457 135.744 139.457 135.744C142.072 144.016 137.749 160.55 137.556 161.245L131.66 161.63C131.589 160.926 131.514 160.142 131.434 159.306C130.843 153.095 131.115 144.33 130.674 136.711C129.942 124.134 134.866 97.8022 134.866 97.8022L146.288 97.1873L147.997 104.699C148.506 106.865 148.47 109.124 147.892 111.273C147.313 113.422 146.211 115.394 144.683 117.012Z" fill="#263238"/>
<path opacity="0.2" d="M144.002 118.885C142.593 121.89 140.321 128.453 140.321 128.453C141.382 124.951 142.448 115.411 144.124 110.994L144.002 118.885Z" fill="black"/>
<path d="M158.94 165.517L155.654 166.653C155.654 166.653 153.654 160.217 152.579 156.738L157.508 156.198C157.644 158.442 158.94 165.517 158.94 165.517Z" fill="#CB7A63"/>
<path d="M153.555 165.723C153.154 165.783 152.746 165.691 152.41 165.465C152.367 165.407 152.344 165.337 152.344 165.266C152.344 165.194 152.367 165.124 152.41 165.066C152.471 164.958 152.572 164.879 152.691 164.845C153.33 164.644 154.705 165.371 154.766 165.404C154.783 165.413 154.796 165.427 154.805 165.444C154.814 165.461 154.817 165.48 154.814 165.499C154.812 165.518 154.804 165.535 154.791 165.549C154.778 165.563 154.761 165.573 154.743 165.578C154.352 165.662 153.955 165.71 153.555 165.723ZM152.917 164.991C152.858 164.991 152.799 165 152.743 165.019C152.705 165.027 152.669 165.044 152.639 165.067C152.608 165.091 152.582 165.121 152.565 165.155C152.504 165.268 152.527 165.324 152.565 165.357C152.752 165.601 153.729 165.578 154.442 165.465C153.968 165.212 153.451 165.051 152.917 164.991Z" fill="#4E9525"/>
<path d="M154.724 165.578C154.712 165.582 154.699 165.582 154.687 165.578C154.217 165.39 153.278 164.578 153.325 164.141C153.325 164.033 153.41 163.906 153.659 163.874C153.75 163.86 153.842 163.866 153.931 163.889C154.02 163.912 154.103 163.953 154.175 164.01C154.682 164.399 154.818 165.442 154.823 165.489C154.826 165.505 154.823 165.521 154.817 165.536C154.81 165.551 154.799 165.564 154.785 165.573C154.766 165.581 154.745 165.583 154.724 165.578ZM153.724 164.038H153.673C153.509 164.038 153.499 164.122 153.494 164.146C153.494 164.409 154.109 165.047 154.598 165.315C154.539 164.878 154.347 164.47 154.048 164.146C153.958 164.071 153.842 164.032 153.724 164.038Z" fill="#4E9525"/>
<path d="M155.114 165.024L159.339 164.888C159.416 164.884 159.493 164.908 159.555 164.954C159.618 165 159.662 165.066 159.682 165.141L160.555 168.554C160.574 168.626 160.579 168.701 160.569 168.775C160.559 168.848 160.534 168.919 160.497 168.983C160.459 169.048 160.409 169.104 160.35 169.148C160.291 169.193 160.223 169.226 160.151 169.244C160.112 169.252 160.072 169.252 160.034 169.244C158.513 169.268 157.151 169.244 155.259 169.291C153.02 169.366 153.597 169.615 150.964 169.737C149.382 169.808 149.034 168.014 149.701 167.906C152.766 167.437 153.058 166.498 154.208 165.338C154.462 165.127 154.784 165.015 155.114 165.024Z" fill="#263238"/>
<path d="M159.09 161.057L153.719 161.677C153.405 161.001 153.072 160.268 152.71 159.437C149.504 152.203 144.682 142.969 143.476 134.913C141.636 122.599 143.72 97.4596 143.72 97.4596L154.888 96.3423C156.467 100.133 157.207 104.22 157.057 108.323C156.635 123.139 152.677 133.866 152.677 133.866C157.813 141.363 159.062 160.386 159.09 161.057Z" fill="#263238"/>
<path d="M159.94 158.644L159.705 160.902L159.278 161.038L159.09 161.057L153.719 161.677L153.405 161.71L152.32 161.836L151.982 159.508L152.71 159.433L153.072 159.4L158.959 158.813L159.752 158.733L159.94 158.644Z" fill="#4E9525"/>
<path d="M169.817 66.6442C167.29 67.4682 164.606 67.6932 161.977 67.3014C161.977 67.3014 157.128 70.2309 155.053 71.4139C153.476 70.1425 152.464 68.3004 152.236 66.2874C155.053 65.6302 158.278 64.3767 161.09 63.7852C163.437 63.3157 169.939 64.3298 169.939 64.3298L169.817 66.6442Z" fill="#CB7A63"/>
<path d="M169.944 64.3297C170.953 64.1794 172.291 64.1184 172.827 64.0996C172.977 64.0917 173.127 64.1311 173.254 64.2123C173.653 64.4705 174.559 65.0432 174.925 65.2216C175.096 65.3159 175.235 65.4594 175.324 65.6335C175.412 65.8076 175.447 66.0042 175.423 66.1981L175.329 66.9633C175.317 67.151 175.231 67.3263 175.09 67.4512C174.95 67.576 174.765 67.6402 174.578 67.63C173.986 67.583 172.62 67.63 172.62 67.63C172.62 67.63 171.564 67.3342 169.803 66.6582L169.944 64.3297Z" fill="#CB7A63"/>
<path d="M158.569 69.7755C158.569 69.7755 154.395 72.2213 152.978 72.841C150.053 74.1227 148.283 70.4045 148.321 69.5548C148.342 68.8383 148.605 68.1501 149.067 67.6019C150.616 65.372 156.977 64.3157 156.977 64.3157C157.332 66.1823 157.865 68.0106 158.569 69.7755Z" fill="#4E9525"/>
<path opacity="0.2" d="M158.569 69.7755C158.569 69.7755 154.395 72.2213 152.978 72.841C150.053 74.1227 148.283 70.4045 148.321 69.5548C148.342 68.8383 148.605 68.1501 149.067 67.6019C150.616 65.372 156.977 64.3157 156.977 64.3157C157.332 66.1823 157.865 68.0106 158.569 69.7755Z" fill="black"/>
<path d="M133.387 72.8879L129.542 79.9063L121.327 87.6946C121.327 87.6946 119.355 87.6242 118.379 88.197L120.369 91.6381C121.264 91.3437 122.02 90.7327 122.496 89.9199C122.496 89.9199 129.772 88.2674 133.674 82.2442C135.434 79.5308 138.659 75.2024 138.758 73.9301C138.856 72.6579 138.129 70.7941 136.608 70.7003C135.087 70.6064 134.265 71.1228 133.387 72.8879Z" fill="#CB7A63"/>
<path d="M132.937 71.5266L129.448 76.7423L136.373 80.2398C136.373 80.2398 139.086 77.7235 139.547 74.0664C139.931 71.0243 137.932 68.2076 135.148 69.292C134.648 69.497 134.195 69.8005 133.815 70.1844C133.435 70.5683 133.136 71.0248 132.937 71.5266Z" fill="#4E9525"/>
<path opacity="0.2" d="M132.937 71.5266L129.448 76.7423L136.373 80.2398C136.373 80.2398 139.086 77.7235 139.547 74.0664C139.931 71.0243 137.932 68.2076 135.148 69.292C134.648 69.497 134.195 69.8005 133.815 70.1844C133.435 70.5683 133.136 71.0248 132.937 71.5266Z" fill="black"/>
<path d="M118.379 88.1641L117.233 89.103C117.011 89.2814 116.864 89.5361 116.82 89.8173C116.776 90.0985 116.838 90.3861 116.994 90.624L117.679 91.6615C117.819 91.8831 118.03 92.0503 118.277 92.1357C118.525 92.2211 118.794 92.2194 119.041 92.131L120.369 91.6615L118.379 88.1641Z" fill="#CB7A63"/>
<path d="M151.424 65.9307C148.964 66.9917 140.265 68.4892 137.505 68.9164C137.181 68.9659 136.877 69.0988 136.621 69.3022C136.364 69.5056 136.166 69.7723 136.045 70.076C135.812 70.5996 135.552 71.1105 135.265 71.6064C134.256 73.5077 133.787 74.5312 132.941 75.9161C132.143 77.2165 132.918 78.4746 133.261 79.4088C133.526 80.3239 133.576 81.288 133.406 82.2256C131.43 101.361 135.509 99.6659 135.509 99.6659C145.124 99.5345 155.283 97.5299 155.283 97.5299C151.546 86.2441 154.588 64.5599 151.424 65.9307Z" fill="#4E9525"/>
<path opacity="0.2" d="M151.424 65.9307C148.964 66.9917 140.265 68.4892 137.505 68.9164C137.181 68.9659 136.877 69.0988 136.621 69.3022C136.364 69.5056 136.166 69.7723 136.045 70.076C135.812 70.5996 135.552 71.1105 135.265 71.6064C134.256 73.5077 133.787 74.5312 132.941 75.9161C132.143 77.2165 132.918 78.4746 133.261 79.4088C133.526 80.3239 133.576 81.288 133.406 82.2256C131.43 101.361 135.509 99.6659 135.509 99.6659C145.124 99.5345 155.283 97.5299 155.283 97.5299C151.546 86.2441 154.588 64.5599 151.424 65.9307Z" fill="black"/>
<path d="M140.57 74.5921L143.25 73.1039C144.313 72.5129 145.246 71.7154 145.996 70.7585C146.746 69.8015 147.297 68.7043 147.616 67.5314C144.969 66.9681 144.776 63.9776 145.011 61.4285L140.368 66.3296C140.988 68.0995 140.781 67.6112 138.917 68.7614C138.819 68.8882 135.852 71.8974 140.57 74.5921Z" fill="#CB7A63"/>
<path opacity="0.2" d="M144.204 63.5083C144.271 62.7636 144.202 62.0128 144.002 61.2925L142.373 62.5459L140.72 64.2876C140.955 64.914 141.113 65.5667 141.19 66.2312C142.556 65.7617 144.035 64.7336 144.204 63.5083Z" fill="black"/>
<path d="M146.316 60.2456C145.495 63.6163 145.222 65.0576 143.185 66.4988C140.129 68.663 136.171 66.9213 135.965 63.3722C135.781 60.1846 137.152 55.213 140.73 54.4525C141.517 54.282 142.336 54.3156 143.107 54.5502C143.878 54.7847 144.577 55.2125 145.137 55.7928C145.696 56.373 146.098 57.0867 146.305 57.866C146.511 58.6453 146.515 59.4644 146.316 60.2456Z" fill="#CB7A63"/>
<path d="M141.208 53.7294C139.589 55.011 141.063 57.2409 141.87 58.2597C142.678 59.2784 145.274 60.8604 144.354 62.4003C143.434 63.9401 144.621 68.3201 147.616 67.5315C150.612 66.7428 149.288 58.316 148.349 56.0156C147.41 53.7153 143.138 52.2036 141.208 53.7294Z" fill="#263238"/>
<path d="M138.593 60.3347C138.234 60.9231 137.795 61.4587 137.288 61.9262C137.409 62.0521 137.555 62.1501 137.717 62.2133C137.879 62.2766 138.054 62.3036 138.227 62.2924L138.593 60.3347Z" fill="#B74D3C"/>
<path d="M141.603 59.1234C141.626 59.1274 141.65 59.1274 141.673 59.1234C141.704 59.1041 141.725 59.0735 141.733 59.0382C141.741 59.003 141.735 58.9661 141.715 58.9356C141.584 58.7132 141.402 58.5257 141.183 58.3892C140.963 58.2527 140.715 58.1712 140.457 58.1516C140.421 58.1527 140.387 58.1673 140.36 58.1924C140.334 58.2176 140.319 58.2516 140.316 58.2878C140.317 58.3227 140.332 58.356 140.356 58.3812C140.38 58.4064 140.413 58.4216 140.448 58.4239C140.66 58.4445 140.865 58.5147 141.045 58.6289C141.225 58.743 141.376 58.898 141.485 59.0811C141.5 59.097 141.518 59.1091 141.539 59.1165C141.559 59.1238 141.581 59.1262 141.603 59.1234Z" fill="#263238"/>
<path d="M136.612 58.1188C136.634 58.1235 136.656 58.1235 136.678 58.1188C136.859 58.0078 137.063 57.9407 137.274 57.9227C137.485 57.9048 137.697 57.9366 137.894 58.0155C137.926 58.0324 137.964 58.0359 137.999 58.0254C138.034 58.0149 138.064 57.9911 138.082 57.9592C138.098 57.9256 138.1 57.8869 138.088 57.8517C138.075 57.8165 138.05 57.7876 138.016 57.7714C137.779 57.67 137.521 57.6269 137.264 57.6456C137.006 57.6644 136.757 57.7446 136.537 57.8794C136.505 57.8972 136.482 57.9268 136.471 57.9619C136.461 57.9969 136.464 58.0347 136.481 58.0672C136.493 58.0908 136.512 58.1102 136.536 58.1228C136.559 58.1354 136.586 58.1405 136.612 58.1376V58.1188Z" fill="#263238"/>
<path d="M140.636 60.2267C140.584 60.5037 140.396 60.6962 140.213 60.668C140.03 60.6398 139.927 60.3863 139.979 60.1094C140.03 59.8324 140.218 59.6399 140.396 59.6399C140.575 59.6399 140.683 59.945 140.636 60.2267Z" fill="#263238"/>
<path d="M137.5 59.6635C137.448 59.9405 137.26 60.1329 137.082 60.1048C136.904 60.0766 136.796 59.8278 136.843 59.5461C136.889 59.2645 137.082 59.0767 137.26 59.1048C137.439 59.133 137.551 59.3865 137.5 59.6635Z" fill="#263238"/>
<path d="M137.336 59.1328L136.707 58.823C136.707 58.823 136.955 59.4051 137.336 59.1328Z" fill="#263238"/>
<path d="M140.471 59.6963L139.842 59.3865C139.842 59.3865 140.091 59.9639 140.471 59.6963Z" fill="#263238"/>
<path d="M146.199 63.2547C145.896 63.8521 145.37 64.3058 144.734 64.5176C143.884 64.7852 143.429 64.0481 143.636 63.2219C143.823 62.4895 144.49 61.4614 145.354 61.5459C145.541 61.569 145.72 61.6383 145.875 61.7477C146.029 61.8571 146.153 62.003 146.237 62.1725C146.321 62.3419 146.361 62.5295 146.355 62.7184C146.348 62.9073 146.294 63.0916 146.199 63.2547Z" fill="#CB7A63"/>
<path d="M140.218 63.3487C140.339 63.2819 140.454 63.2033 140.56 63.114C140.568 63.1069 140.575 63.0983 140.579 63.0885C140.584 63.0788 140.586 63.0683 140.586 63.0576C140.586 63.047 140.584 63.0364 140.579 63.0267C140.575 63.017 140.568 63.0084 140.56 63.0013C140.553 62.9932 140.544 62.9867 140.534 62.9823C140.524 62.9779 140.513 62.9756 140.502 62.9756C140.491 62.9756 140.48 62.9779 140.47 62.9823C140.46 62.9867 140.451 62.9932 140.443 63.0013C140.17 63.2232 139.848 63.3783 139.504 63.4541C139.16 63.5299 138.803 63.5243 138.462 63.4379C138.452 63.4335 138.441 63.4313 138.43 63.4316C138.419 63.4319 138.408 63.4346 138.398 63.4395C138.388 63.4444 138.38 63.4515 138.373 63.4601C138.366 63.4688 138.361 63.4788 138.359 63.4895C138.353 63.5101 138.355 63.5322 138.364 63.5514C138.374 63.5706 138.39 63.5854 138.41 63.5928C138.712 63.6764 139.028 63.6979 139.339 63.6559C139.65 63.6139 139.949 63.5094 140.218 63.3487Z" fill="#263238"/>
<path d="M169.662 165.686L166.254 166.207L165.775 162.503L169.343 161.963L169.662 165.686Z" fill="#EBB376"/>
<path d="M165.963 165.517L169.832 165.085C169.9 165.077 169.969 165.093 170.027 165.13C170.085 165.166 170.129 165.222 170.151 165.287L171.165 168.282C171.186 168.346 171.194 168.414 171.189 168.481C171.184 168.548 171.166 168.614 171.135 168.674C171.105 168.735 171.063 168.788 171.011 168.832C170.96 168.876 170.9 168.909 170.836 168.93H170.728C169.371 169.057 168.705 169.052 167.001 169.24C165.954 169.357 163.245 169.775 161.794 169.935C160.344 170.094 160.001 168.686 160.578 168.489C163.184 167.606 164.649 166.611 165.414 165.77C165.56 165.622 165.756 165.532 165.963 165.517Z" fill="#4E9525"/>
<path opacity="0.2" d="M165.729 162.146L166.024 164.367L169.512 163.907L169.348 161.85L165.729 162.146Z" fill="black"/>
<path d="M152.875 91.9669C152.574 96.1638 155.302 116.163 157.457 124.909C160.32 136.523 164.968 163.714 164.968 163.714L170.108 162.93C170.108 162.93 169.714 139.72 166.433 130.669C165.602 118.43 163.55 90.9575 163.55 90.9575L152.875 91.9669Z" fill="#263238"/>
<path opacity="0.2" d="M164.311 104.299C164.123 101.196 161.635 98.6988 161.405 104.623C161.259 108.379 163.137 114.754 165.161 119.177C164.837 114.374 164.541 109.027 164.311 104.299Z" fill="black"/>
<path d="M193.797 155.151L191.351 157.057L188.657 153.513L191.103 151.612L193.797 155.151Z" fill="#EBB376"/>
<path d="M190.948 157.034L193.558 154.128C193.601 154.077 193.662 154.044 193.728 154.036C193.794 154.028 193.861 154.046 193.915 154.086L196.426 155.931C196.487 155.98 196.536 156.04 196.573 156.109C196.61 156.177 196.632 156.252 196.64 156.329C196.647 156.407 196.639 156.485 196.616 156.559C196.593 156.633 196.556 156.702 196.506 156.761C195.567 157.757 195.098 158.17 193.943 159.47C193.234 160.254 192.403 161.348 191.431 162.442C190.46 163.536 189.38 162.569 189.69 162.024C191.098 159.588 190.685 158.827 190.746 157.602C190.749 157.395 190.82 157.196 190.948 157.034Z" fill="#4E9525"/>
<path opacity="0.2" d="M188.657 153.513L189.868 155.104L192.337 153.119L191.103 151.612L188.657 153.513Z" fill="black"/>
<path d="M159.762 96.0699C159.762 96.0699 166.559 121.768 169.996 131.383C172.475 138.316 188.774 154.588 188.774 154.588L192.121 152.133C192.121 152.133 185.277 138.575 176.808 130.002C175.287 119.022 174.507 100.746 169.578 95.178L159.762 96.0699Z" fill="#263238"/>
<path d="M152.912 74.6158C151.372 76.2401 149.781 77.7659 148.128 79.2634C146.476 80.761 137.406 86.9813 130.2 88.4366C130.08 88.4709 129.956 88.4812 129.832 88.4672C129.709 88.4532 129.59 88.415 129.481 88.3548C129.373 88.2947 129.277 88.2137 129.2 88.1166C129.122 88.0195 129.065 87.9081 129.031 87.7888C128.997 87.6695 128.986 87.5446 129 87.4213C129.014 87.298 129.052 87.1787 129.113 87.0701C129.173 86.9616 129.254 86.866 129.351 86.7887C129.448 86.7114 129.559 86.6541 129.679 86.6198C131.674 85.8312 148.621 73.475 150.142 71.9727C150.316 71.782 150.526 71.6282 150.761 71.5205C150.995 71.4129 151.249 71.3536 151.507 71.3462C151.765 71.3389 152.022 71.3836 152.262 71.4776C152.502 71.5717 152.721 71.7133 152.905 71.8938C153.09 72.0744 153.236 72.2902 153.335 72.5285C153.434 72.7667 153.484 73.0225 153.482 73.2805C153.48 73.5385 153.426 73.7935 153.323 74.0302C153.22 74.2669 153.071 74.4804 152.884 74.6581L152.912 74.6158Z" fill="#EBB376"/>
<path d="M129.975 86.6479L126.904 86.2441L128.125 89.6055C128.125 89.6055 129.97 89.3144 130.749 87.9671L129.975 86.6479Z" fill="#EBB376"/>
<path d="M150.387 69.6019C147.312 70.6066 148.786 71.8929 146.762 73.5407C144.415 75.4514 144.697 75.7612 144.697 75.7612L148.345 79.7986C148.345 79.7986 152.875 76.3903 154.71 75.0758C156.546 73.7613 152.71 69.5221 150.387 69.6019Z" fill="#4E9525"/>
<path opacity="0.1" d="M150.387 69.6019C147.312 70.6066 148.786 71.8929 146.762 73.5407C144.415 75.4514 144.697 75.7612 144.697 75.7612L148.345 79.7986C148.345 79.7986 152.875 76.3903 154.71 75.0758C156.546 73.7613 152.71 69.5221 150.387 69.6019Z" fill="black"/>
<path d="M124.914 88.6336L125.787 89.8777C125.883 90.0173 126.023 90.1209 126.184 90.1719C126.346 90.2229 126.52 90.2185 126.679 90.1594L128.125 89.6289L126.904 86.2676L125.092 87.5727C124.93 87.6912 124.82 87.8686 124.787 88.0668C124.753 88.2651 124.799 88.4685 124.914 88.6336Z" fill="#EBB376"/>
<path d="M148.434 71.813C149.03 78.714 152.095 90.9763 152.433 95.1732C153.114 103.755 156.49 125.172 156.49 125.172C160.273 125.172 168.761 123.012 173.085 119.721L173.202 112.811L175.944 118.679L176.977 116.651L174.132 104.722C173.085 96.3281 167.559 93.455 167.423 92.1546C166.917 85.1499 167.046 78.1138 167.808 71.1323C167.861 70.71 167.83 70.2814 167.716 69.8711C167.603 69.4609 167.41 69.0769 167.149 68.7412C166.887 68.4055 166.562 68.1246 166.192 67.9147C165.822 67.7047 165.414 67.5697 164.991 67.5175C164.893 67.5175 164.794 67.5175 164.696 67.5175C163.78 67.4846 162.762 67.4705 161.733 67.5175C159.428 67.5634 157.128 67.7721 154.851 68.1418C153.255 68.4376 151.565 68.8648 150.335 69.1887C149.765 69.341 149.264 69.6851 148.918 70.1631C148.572 70.641 148.401 71.2237 148.434 71.813Z" fill="#4E9525"/>
<g opacity="0.1">
<path opacity="0.1" d="M151.551 89.6618C151.992 91.9762 152.33 93.9292 152.433 95.1732C153.114 103.755 156.489 125.172 156.489 125.172C160.273 125.172 168.761 123.012 173.085 119.721L173.202 112.811L175.944 118.679L176.977 116.651L174.132 104.722C173.085 96.3281 167.559 93.455 167.423 92.1546C166.917 85.1499 167.046 78.1138 167.808 71.1323C167.861 70.71 167.829 70.2814 167.716 69.8711C167.603 69.4609 167.41 69.0769 167.149 68.7412C166.887 68.4055 166.562 68.1246 166.192 67.9147C165.822 67.7047 165.414 67.5697 164.991 67.5175C164.893 67.5175 164.794 67.5175 164.696 67.5175C163.78 67.4846 162.761 67.4705 161.733 67.5175C156.921 70.9961 153.095 72.4421 151.743 83.0096L151.551 89.6618Z" fill="white"/>
</g>
<path d="M160.367 59.7996C160.137 62.053 160.067 66.1466 161.752 67.4799C159.474 68.6832 157.428 70.2824 155.71 72.2026C153.696 69.3155 154.87 68.1043 154.87 68.1043C157.278 67.2921 157.053 65.4659 156.466 63.7853L160.367 59.7996Z" fill="#EBB376"/>
<path d="M161.874 67.3815C161.304 66.7654 160.971 65.9668 160.935 65.1281C160.373 65.0826 159.809 65.1942 159.305 65.4503C158.802 65.7064 158.38 66.097 158.086 66.5787C157.443 67.6772 157.565 69.0387 157.706 70.3015C159.067 69.3156 160.513 68.3673 161.874 67.3815Z" fill="#4E9525"/>
<path opacity="0.1" d="M161.874 67.3815C161.304 66.7654 160.971 65.9668 160.935 65.1281C160.373 65.0826 159.809 65.1942 159.305 65.4503C158.802 65.7064 158.38 66.097 158.086 66.5787C157.443 67.6772 157.565 69.0387 157.706 70.3015C159.067 69.3156 160.513 68.3673 161.874 67.3815Z" fill="white"/>
<path opacity="0.2" d="M159.945 60.2361C160.031 61.5546 159.836 62.8765 159.372 64.1138C159.043 64.9682 157.964 65.4283 156.86 65.6208C156.827 64.9928 156.697 64.3737 156.475 63.7852L159.945 60.2361Z" fill="black"/>
<path d="M154.921 52.3869C155.286 54.9868 155.194 57.6305 154.649 60.1987L153.353 59.8795C153.475 57.7434 153.785 55.5088 153.907 53.3728C153.518 54.9032 153.091 56.6167 152.701 58.1472C152.386 58.0486 152.1 57.9078 151.762 57.8139C152.067 56.5745 152.541 55.3023 152.842 54.0582C152.929 53.5523 153.126 53.0716 153.419 52.6498C153.611 52.4546 153.859 52.3243 154.128 52.2772C154.397 52.23 154.675 52.2684 154.921 52.3869Z" fill="#4E9525"/>
<path d="M150.696 54.7153C150.94 54.933 151.227 55.0961 151.538 55.1938C151.85 55.2914 152.178 55.3214 152.502 55.2817C152.826 55.242 153.138 55.1335 153.417 54.9635C153.695 54.7935 153.935 54.5659 154.118 54.296C154.302 54.0261 154.425 53.72 154.481 53.3984C154.537 53.0767 154.523 52.7469 154.441 52.431C154.359 52.1151 154.21 51.8204 154.005 51.5666C153.799 51.3129 153.542 51.1059 153.25 50.9597C152.931 50.8238 152.582 50.7707 152.237 50.8051C151.891 50.8396 151.56 50.9606 151.274 51.1569C151.008 51.3563 150.791 51.6123 150.636 51.9062C150.482 52.2001 150.395 52.5246 150.382 52.8563C150.363 53.5229 150.227 54.2647 150.696 54.7153Z" fill="#263238"/>
<path d="M163.639 56.7105C162.888 60.3535 162.677 61.9074 160.541 63.5364C157.358 65.9823 153.03 64.2828 152.677 60.4943C152.349 57.086 153.616 51.7013 157.41 50.7436C158.053 50.5753 158.723 50.5355 159.382 50.6263C160.041 50.7171 160.675 50.9369 161.249 51.2731C161.822 51.6092 162.324 52.0551 162.726 52.5854C163.127 53.1156 163.42 53.7197 163.588 54.3632C163.791 55.1304 163.808 55.935 163.639 56.7105Z" fill="#EBB376"/>
<path d="M154.663 60.3207C154.663 60.3207 155.743 59.9263 158.86 59.5508C158.616 60.546 158.029 61.3957 156.433 61.5882C156.053 61.6706 155.655 61.5987 155.328 61.3883C155 61.178 154.77 60.8464 154.687 60.4662C154.676 60.4182 154.668 60.3696 154.663 60.3207Z" fill="#263238"/>
<path d="M157.072 60.7384C156.455 60.7776 155.867 61.0109 155.391 61.4051C155.712 61.5641 156.074 61.6215 156.428 61.5694C157.045 61.5298 157.633 61.2928 158.104 60.8934C157.785 60.733 157.424 60.6787 157.072 60.7384Z" fill="#9D2724"/>
<path d="M154.799 60.2783C154.845 60.3903 154.92 60.4878 155.017 60.5605C155.114 60.6332 155.228 60.6785 155.349 60.6914C156.272 60.5744 157.184 60.3813 158.076 60.114C158.221 60.0816 158.355 60.0141 158.467 59.9175C158.579 59.8209 158.666 59.6981 158.719 59.5601C157.396 59.6959 156.085 59.936 154.799 60.2783Z" fill="white"/>
<path d="M156.978 50.1616C155.952 50.4455 155.033 51.0267 154.337 51.8321C153.641 52.6375 153.199 53.631 153.067 54.6872C153.654 54.6872 154.297 54.4149 154.889 54.3961C154.971 53.8801 155.157 53.3864 155.437 52.9455C155.718 52.5046 156.085 52.1259 156.518 51.8329C156.22 52.1598 155.992 52.5441 155.847 52.9622C155.703 53.3803 155.645 53.8235 155.678 54.2647C156.288 54.3492 156.865 54.4759 157.476 54.5557C157.734 53.6702 158.161 52.8429 158.734 52.1193C158.706 53.0582 158.762 53.9736 158.734 54.936C159.405 55.3538 160.119 55.8186 160.795 56.2411C161.253 54.8571 161.185 53.3525 160.602 52.016C159.968 50.6874 158.372 49.8048 156.978 50.1616Z" fill="#263238"/>
<path d="M159.644 50.7391C159.959 53.2695 161.081 56.551 162.461 58.5274C163.644 58.6636 164.771 57.3115 164.93 55.9125C164.996 55.2345 164.894 54.5508 164.634 53.9213C164.374 53.2918 163.963 52.7359 163.437 52.3024C162.433 51.5137 160.818 50.5513 159.644 50.7391Z" fill="#263238"/>
<path d="M163.442 53.861C163.052 56.4581 163.119 59.1034 163.64 61.6775C164.048 61.5836 164.522 61.4615 164.935 61.3676C164.837 59.2316 164.55 56.9923 164.466 54.8562C164.841 56.3914 165.254 58.1096 165.625 59.64C165.945 59.5461 166.226 59.41 166.541 59.3161C166.25 58.0767 165.794 56.7998 165.503 55.5604C165.418 55.0555 165.224 54.5751 164.935 54.152C164.748 53.9542 164.503 53.8198 164.235 53.7676C163.968 53.7154 163.691 53.7481 163.442 53.861Z" fill="#4E9525"/>
<path d="M167.597 56.2411C167.355 56.4698 167.065 56.6428 166.75 56.7483C166.434 56.8537 166.098 56.889 165.767 56.8516C165.436 56.8142 165.118 56.7051 164.833 56.5319C164.548 56.3587 164.305 56.1255 164.12 55.8486C163.935 55.5718 163.812 55.2578 163.761 54.9287C163.709 54.5996 163.73 54.2632 163.822 53.9431C163.914 53.6229 164.075 53.3266 164.293 53.0749C164.511 52.8231 164.781 52.622 165.085 52.4854C165.406 52.3527 165.754 52.3029 166.099 52.3406C166.444 52.3784 166.773 52.5025 167.057 52.7014C167.32 52.9047 167.535 53.1638 167.686 53.4601C167.837 53.7564 167.92 54.0825 167.93 54.4149C167.968 55.044 168.095 55.7717 167.597 56.2411Z" fill="#263238"/>
<path d="M164.634 58.6353C164.564 58.9866 164.425 59.3204 164.224 59.617C164.024 59.9137 163.766 60.1673 163.466 60.3629C162.663 60.8746 161.987 60.2315 161.973 59.3301C161.973 58.518 162.372 57.2739 163.287 57.119C163.608 57.0761 163.932 57.1616 164.19 57.3568C164.447 57.552 164.617 57.8411 164.663 58.1612C164.682 58.3196 164.672 58.4802 164.634 58.6353Z" fill="#EBB376"/>
<path d="M158.119 57.0344C158.076 57.3302 157.884 57.5555 157.687 57.5274C157.49 57.4992 157.367 57.2316 157.41 56.9358C157.452 56.6401 157.644 56.4147 157.842 56.4664C158.039 56.518 158.161 56.734 158.119 57.0344Z" fill="#263238"/>
<path d="M154.738 56.5604C154.696 56.8655 154.504 57.0815 154.307 57.0298C154.109 56.9782 153.987 56.7435 154.03 56.4383C154.072 56.1332 154.264 55.9219 154.457 55.9454C154.649 55.9689 154.781 56.2646 154.738 56.5604Z" fill="#263238"/>
<path d="M154.541 56.0017L153.851 55.6919C153.851 55.6919 154.142 56.3069 154.541 56.0017Z" fill="#263238"/>
<path d="M155.546 57.1799C155.185 57.826 154.738 58.4198 154.217 58.9451C154.355 59.0749 154.519 59.1732 154.698 59.2332C154.877 59.2932 155.067 59.3134 155.255 59.2925L155.546 57.1799Z" fill="#ED893E"/>
<path d="M159.034 55.9924C159.008 55.9754 158.985 55.953 158.968 55.9267C158.865 55.7295 158.717 55.5596 158.536 55.4306C158.355 55.3017 158.146 55.2175 157.926 55.1849C157.88 55.1802 157.838 55.1582 157.807 55.1234C157.777 55.0885 157.76 55.0434 157.762 54.9971C157.763 54.9737 157.769 54.9507 157.779 54.9295C157.789 54.9084 157.803 54.8894 157.821 54.8737C157.838 54.858 157.858 54.8459 157.881 54.8381C157.903 54.8302 157.926 54.8269 157.95 54.8281C158.231 54.867 158.498 54.9725 158.73 55.1359C158.962 55.2992 159.152 55.5156 159.283 55.7671C159.304 55.8101 159.308 55.8598 159.293 55.9055C159.278 55.9511 159.246 55.9891 159.203 56.0112C159.176 56.0233 159.146 56.0279 159.116 56.0246C159.086 56.0213 159.058 56.0102 159.034 55.9924Z" fill="#263238"/>
<path d="M153.659 55.2224H153.63C153.594 55.193 153.571 55.1503 153.565 55.1038C153.56 55.0572 153.573 55.0105 153.602 54.9736C153.783 54.7624 154.011 54.5966 154.268 54.4898C154.525 54.383 154.804 54.338 155.081 54.3586C155.127 54.3656 155.168 54.3901 155.196 54.4269C155.224 54.4636 155.237 54.5099 155.231 54.5558C155.224 54.6024 155.199 54.6444 155.161 54.6726C155.123 54.7007 155.076 54.7127 155.029 54.706C154.808 54.6901 154.585 54.7269 154.38 54.8133C154.176 54.8998 153.994 55.0336 153.851 55.2036C153.825 55.2267 153.792 55.241 153.758 55.2444C153.723 55.2477 153.689 55.2401 153.659 55.2224Z" fill="#263238"/>
<path d="M157.926 56.4712L157.231 56.1614C157.231 56.1614 157.522 56.7811 157.926 56.4712Z" fill="#263238"/>
<path d="M157.672 70.3998C156.852 71.0411 156.104 71.77 155.442 72.5734C155.32 72.719 155.203 72.8786 155.081 73.0429C153.978 71.766 153.766 69.86 154.217 68.2075C154.709 68.1371 155.164 67.9045 155.509 67.5465C155.855 67.1885 156.071 66.7256 156.123 66.231C156.414 66.1137 156.71 66.3672 156.917 66.6019C157.111 66.8531 157.242 67.148 157.297 67.461C157.539 68.4221 157.665 69.4088 157.672 70.3998Z" fill="#4E9525"/>
<path d="M138.692 159.813L138.34 162.062L137.218 162.132L131.317 162.522L130.228 162.587L130.002 160.25L131.096 160.193L137.805 159.86L138.692 159.813Z" fill="#4E9525"/>
<path d="M181.929 33.0169C181.929 33.0169 187.816 30.9982 191.07 32.6179C194.323 34.2375 198.651 31.9043 198.651 31.9043C198.651 31.9043 196.027 35.9041 196.6 39.9461C196.6 39.9461 192.6 42.6877 189.45 40.0916C186.3 37.4955 181.535 41.1338 181.535 41.1338L181.929 33.0169Z" fill="#4E9525"/>
<path opacity="0.5" d="M181.929 33.0169C181.929 33.0169 187.816 30.9982 191.07 32.6179C194.323 34.2375 198.651 31.9043 198.651 31.9043C198.651 31.9043 196.027 35.9041 196.6 39.9461C196.6 39.9461 192.6 42.6877 189.45 40.0916C186.3 37.4955 181.535 41.1338 181.535 41.1338L181.929 33.0169Z" fill="white"/>
<path d="M181.605 31.6356L180.61 52.2725L181.379 52.3095L182.374 31.6727L181.605 31.6356Z" fill="#263238"/>
<path d="M111.234 84.4084L114.379 88.0467L116.393 90.2908C116.521 90.4305 116.62 90.5947 116.684 90.7736C116.747 90.9525 116.774 91.1424 116.762 91.3318C116.75 91.5212 116.7 91.7063 116.615 91.8759C116.53 92.0455 116.411 92.1962 116.266 92.3188L115.731 92.7883C115.453 93.0293 115.099 93.1655 114.731 93.1732H114.168C113.881 93.1821 113.598 93.1113 113.349 92.9687C113.101 92.8262 112.896 92.6175 112.759 92.3658L112.041 91.0043C111.964 90.8579 111.913 90.699 111.891 90.5349L111.666 88.7462L109.102 86.3426L111.234 84.4084Z" fill="#71403E"/>
<path d="M114.106 86.8824L110.576 88.7603C110.576 88.7603 106.764 83.5962 102.755 77.4933C101.347 75.3197 98.4875 71.3152 98.4875 71.3152C96.6097 67.5126 94.0464 58.5835 94.5441 58.5835C97.8303 58.5835 99.8677 60.1937 102.783 66.245C104.417 69.6815 114.106 86.8824 114.106 86.8824Z" fill="#4E9525"/>
<path d="M86.5024 156.743L88.3709 166.474L92.0233 166.155L91.1923 156.344L86.5024 156.743Z" fill="#71403E"/>
<path d="M92.3801 165.709C92.3621 165.707 92.3453 165.699 92.3325 165.686C92.3197 165.674 92.3117 165.657 92.3097 165.639C92.3053 165.622 92.3066 165.604 92.3134 165.588C92.3202 165.572 92.3321 165.558 92.3472 165.55C92.4036 165.517 93.657 164.747 94.2767 164.897C94.3897 164.925 94.4884 164.993 94.5537 165.09C94.5927 165.144 94.6137 165.21 94.6137 165.277C94.6137 165.345 94.5927 165.41 94.5537 165.465C94.2477 165.698 93.8666 165.81 93.4833 165.78C93.1142 165.788 92.7451 165.764 92.3801 165.709ZM92.6571 165.583C93.3425 165.648 94.2673 165.615 94.4269 165.371C94.4504 165.338 94.4739 165.287 94.4269 165.179C94.4085 165.148 94.3833 165.122 94.3532 165.102C94.3231 165.083 94.2889 165.07 94.2532 165.066C94.1987 165.059 94.1434 165.059 94.0889 165.066C93.5836 165.148 93.098 165.323 92.6571 165.583Z" fill="#4E9525"/>
<path d="M92.333 165.704C92.3199 165.697 92.3091 165.686 92.3016 165.673C92.2942 165.66 92.2904 165.645 92.2908 165.629C92.2908 165.582 92.3612 164.592 92.8166 164.193C92.946 164.08 93.1142 164.021 93.286 164.029C93.5255 164.029 93.6053 164.165 93.6194 164.263C93.7086 164.676 92.8541 165.493 92.4222 165.704H92.3847C92.3678 165.709 92.3499 165.709 92.333 165.704ZM93.2438 164.198C93.134 164.198 93.0284 164.24 92.948 164.315C92.6778 164.636 92.5138 165.033 92.4786 165.451C92.9199 165.169 93.4785 164.512 93.4504 164.282C93.4504 164.282 93.4504 164.198 93.2767 164.188H93.225L93.2438 164.198Z" fill="#4E9525"/>
<path d="M92.0137 165.207L88.0139 165.329C87.9406 165.331 87.8702 165.358 87.8146 165.406C87.7591 165.454 87.7217 165.52 87.7088 165.592L87.0844 168.878C87.0707 168.947 87.0708 169.018 87.0847 169.087C87.0985 169.156 87.1259 169.222 87.1651 169.28C87.2044 169.339 87.2548 169.389 87.3134 169.428C87.3721 169.467 87.4378 169.494 87.5069 169.507H87.6196C89.0608 169.437 90.3377 169.319 92.1357 169.268C94.253 169.202 93.7225 169.474 96.2153 169.432C97.7129 169.404 97.9382 167.69 97.2998 167.625C94.3751 167.348 94.0464 166.479 92.8916 165.47C92.6413 165.277 92.3287 165.183 92.0137 165.207Z" fill="#263238"/>
<path opacity="0.2" d="M91.7087 162.432L91.1923 156.344L86.5024 156.743L87.6714 162.639L91.7087 162.432Z" fill="black"/>
<path d="M108.295 155.273L109.9 165.883L106.506 166.043L103.774 156.578L108.295 155.273Z" fill="#71403E"/>
<path opacity="0.2" d="M108.562 157.034L109.196 161.231L105.29 161.836L104.055 157.555L108.562 157.034Z" fill="black"/>
<path d="M110.689 165.554C110.672 165.551 110.656 165.543 110.642 165.532C110.629 165.52 110.619 165.505 110.614 165.489C110.609 165.471 110.61 165.452 110.617 165.435C110.624 165.418 110.636 165.404 110.651 165.395C110.703 165.357 111.923 164.531 112.529 164.653C112.643 164.675 112.745 164.738 112.815 164.831C112.859 164.883 112.886 164.946 112.893 165.013C112.899 165.08 112.885 165.148 112.853 165.207C112.557 165.453 112.181 165.582 111.797 165.568C111.428 165.595 111.057 165.591 110.689 165.554ZM110.961 165.418C111.647 165.446 112.571 165.371 112.722 165.118C112.722 165.09 112.764 165.033 112.689 164.93C112.669 164.9 112.643 164.874 112.612 164.855C112.581 164.837 112.546 164.825 112.51 164.822C112.454 164.815 112.397 164.815 112.341 164.822C111.848 164.932 111.38 165.135 110.961 165.418Z" fill="#4E9525"/>
<path d="M110.642 165.554C110.63 165.546 110.62 165.534 110.613 165.521C110.605 165.508 110.601 165.494 110.6 165.479C110.6 165.432 110.6 164.437 111.069 164.019C111.131 163.958 111.205 163.911 111.285 163.878C111.366 163.846 111.452 163.83 111.539 163.831C111.778 163.831 111.863 163.953 111.877 164.052C111.989 164.456 111.173 165.32 110.75 165.545C110.738 165.55 110.725 165.55 110.713 165.545C110.702 165.551 110.69 165.555 110.678 165.557C110.666 165.559 110.654 165.558 110.642 165.554ZM111.482 164C111.373 164.009 111.27 164.055 111.191 164.132C110.944 164.469 110.805 164.873 110.792 165.291C111.224 164.991 111.755 164.324 111.731 164.08C111.731 164.08 111.708 163.996 111.553 163.991H111.501L111.482 164Z" fill="#4E9525"/>
<path d="M110.276 165.071L106.286 165.381C106.213 165.386 106.144 165.417 106.091 165.468C106.038 165.518 106.004 165.585 105.994 165.658L105.525 168.944C105.514 169.015 105.517 169.088 105.535 169.157C105.553 169.227 105.585 169.293 105.629 169.35C105.672 169.407 105.728 169.455 105.791 169.49C105.853 169.525 105.923 169.547 105.994 169.554C106.032 169.559 106.07 169.559 106.107 169.554C107.544 169.418 108.816 169.24 110.609 169.085C112.722 168.92 112.205 169.216 114.694 169.056C116.191 168.963 116.332 167.235 115.693 167.202C112.759 167.061 112.407 166.207 111.187 165.259C110.917 165.084 110.592 165.017 110.276 165.071Z" fill="#263238"/>
<path d="M100.244 90.361C100.244 90.361 106.023 125.57 106.656 131.462C107.29 137.354 109.558 158.878 109.558 158.878L104.347 159.817C104.347 159.817 97.6099 143.804 98.1686 133.19C98.1686 133.19 92.3097 112.867 90.4601 108.416C90.4601 108.416 84.9486 101.032 87.0894 89.9338L100.244 90.361Z" fill="#263238"/>
<path opacity="0.2" d="M95.5581 123.176C94.4924 119.778 93.4737 116.679 92.8306 115.139C91.8985 114.665 91.036 114.065 90.2673 113.355C89.9716 112.046 89.7979 111.205 89.7979 111.205L92.2954 100.595C92.2954 100.595 95.7036 112.435 95.5581 123.176Z" fill="black"/>
<path d="M110.539 157.315L110.637 159.578L103.497 160.456L102.919 158.127L110.539 157.315Z" fill="#263238"/>
<path opacity="0.5" d="M110.539 157.315L110.637 159.578L103.497 160.456L102.919 158.127L110.539 157.315Z" fill="white"/>
<path d="M92.7041 91.2485L92.9013 110.229L93.5397 119.383C94.1228 127.781 94.0411 136.212 93.2956 144.598L91.8872 160.592L86.2537 161.231C86.2537 161.231 82.9253 142.161 85.1881 132.627C85.1881 132.627 79.0851 106.337 79.8597 91.2485H92.7041Z" fill="#263238"/>
<path d="M85.9812 159.113L86.3802 161.343L93.2203 160.639V158.409L85.9812 159.113Z" fill="#263238"/>
<path opacity="0.5" d="M85.9812 159.113L86.3802 161.343L93.2203 160.639V158.409L85.9812 159.113Z" fill="white"/>
<path d="M80.437 94.6379L77.9864 63.8837C77.1977 58.1845 78.2117 56.1612 80.3665 56.64L94.5442 58.6258C98.0698 59.5647 98.6144 61.3862 98.7411 62.8509C98.5181 72.0468 98.9369 81.2471 99.9946 90.3846L100.347 93.469L80.437 94.6379Z" fill="#4E9525"/>
<path d="M86.7698 49.8376C86.798 52.03 86.5398 55.7716 85.1314 57.5133C84.9692 57.7175 84.8809 57.9707 84.8809 58.2316C84.8809 58.4924 84.9692 58.7456 85.1314 58.9498C86.2608 60.5269 87.9324 61.6319 89.826 62.0529C92.2578 62.5928 92.6709 61.3065 92.3798 60.1751C92.3398 60.0277 92.2705 59.8898 92.1762 59.7696C92.0818 59.6495 91.9643 59.5495 91.8306 59.4756C89.6523 58.3067 89.8635 56.2504 90.6288 54.5604L86.7698 49.8376Z" fill="#71403E"/>
<path opacity="0.2" d="M88.338 51.781L90.6337 54.5743C90.4504 54.9893 90.3043 55.4198 90.1971 55.8606C89.6206 55.6479 89.1051 55.2969 88.6959 54.8386C88.2866 54.3802 87.9961 53.8284 87.8498 53.2316C87.7183 52.4852 88.061 51.8139 88.338 51.781Z" fill="black"/>
<path d="M86.5025 46.2133C86.3335 49.4995 86.0706 51.4431 87.54 53.3068C89.7417 56.1236 93.9669 55.0673 95.1123 51.8985C96.1498 49.016 96.2437 44.1101 93.1829 42.4436C92.5108 42.0727 91.7551 41.8796 90.9875 41.8826C90.2199 41.8856 89.4658 42.0847 88.7967 42.4608C88.1276 42.837 87.5656 43.3779 87.1641 44.0321C86.7626 44.6864 86.5349 45.4323 86.5025 46.1992V46.2133Z" fill="#71403E"/>
<path d="M92.5256 53.4241L91.3613 53.2551C91.5069 53.6589 91.6336 54.0767 91.7791 54.4804C92.0608 54.1142 92.2439 53.7762 92.5256 53.4241Z" fill="#263238"/>
<path d="M91.5443 47.7391C91.5162 48.0067 91.6288 48.2414 91.8072 48.2602C91.9856 48.279 92.1452 48.0771 92.1734 47.7907C92.2016 47.5044 92.0889 47.2931 91.9105 47.2743C91.7321 47.2556 91.5443 47.4715 91.5443 47.7391Z" fill="#263238"/>
<path d="M94.549 48.0771C94.5161 48.3447 94.6335 48.5747 94.8119 48.5935C94.9903 48.6123 95.1499 48.4151 95.1781 48.1241C95.2062 47.833 95.0935 47.6264 94.9151 47.6077C94.7368 47.5889 94.5771 47.7907 94.549 48.0771Z" fill="#263238"/>
<path d="M93.4831 48.124C93.786 48.9517 94.2014 49.7336 94.7178 50.4478C94.5308 50.5747 94.3187 50.6597 94.0959 50.697C93.8731 50.7342 93.6448 50.7229 93.4268 50.6638L93.4831 48.124Z" fill="#561616"/>
<path d="M90.6337 46.3824C90.607 46.3819 90.5809 46.3737 90.5586 46.3589C90.5299 46.3285 90.5139 46.2882 90.5139 46.2463C90.5139 46.2044 90.5299 46.1641 90.5586 46.1336C90.7283 45.949 90.9393 45.8073 91.1743 45.72C91.4093 45.6326 91.6616 45.6022 91.9107 45.6313C91.9515 45.6393 91.9876 45.6629 92.0113 45.6971C92.0349 45.7313 92.0443 45.7734 92.0374 45.8144C92.034 45.8349 92.0266 45.8545 92.0155 45.872C92.0044 45.8896 91.9898 45.9047 91.9727 45.9166C91.9557 45.9284 91.9364 45.9367 91.916 45.9409C91.8957 45.9451 91.8747 45.9452 91.8543 45.9411C91.6567 45.9206 91.457 45.9473 91.2717 46.0192C91.0864 46.091 90.9208 46.2058 90.7887 46.3543C90.7683 46.3733 90.7428 46.3861 90.7153 46.3911C90.6879 46.3961 90.6595 46.3931 90.6337 46.3824Z" fill="#263238"/>
<path d="M95.8589 46.9926C95.8331 46.9858 95.8094 46.9728 95.7898 46.9548C95.7702 46.9368 95.7552 46.9144 95.7462 46.8893C95.6859 46.7028 95.5828 46.533 95.445 46.3936C95.3072 46.2541 95.1386 46.149 94.9528 46.0865C94.9152 46.0767 94.8823 46.0538 94.86 46.022C94.8376 45.9902 94.8273 45.9515 94.8307 45.9128C94.8408 45.8718 94.8666 45.8364 94.9027 45.8144C94.9388 45.7923 94.9821 45.7856 95.0232 45.7955C95.2624 45.8714 95.4802 46.0029 95.6589 46.1792C95.8376 46.3554 95.9721 46.5714 96.0513 46.8095C96.0649 46.8481 96.0626 46.8905 96.045 46.9274C96.0274 46.9644 95.996 46.9929 95.9574 47.0067C95.9239 47.0129 95.8893 47.008 95.8589 46.9926Z" fill="#263238"/>
<path d="M85.9765 49.5558C84.6914 46.8644 84.3046 43.8314 84.8733 40.9037C86.7398 39.7694 88.9254 39.275 91.0983 39.4953C93.2203 39.7911 94.5535 39.4953 96.0464 41.0445C96.0464 41.0445 95.6333 43.7392 95.192 44.5842C94.4491 44.349 93.6896 44.1701 92.9198 44.0491C91.3686 43.8852 89.8009 43.982 88.2816 44.3354C88.3943 45.1804 88.6196 46.1288 88.7276 46.9738C88.5085 46.958 88.2886 46.9921 88.0846 47.0734C87.8805 47.1547 87.6975 47.2811 87.5492 47.4432C87.6666 48.4901 87.3521 49.5464 87.4694 50.598C87.0751 50.2694 86.2019 50.0159 85.9765 49.5558Z" fill="#263238"/>
<path d="M84.5541 49.0912C84.9185 49.8397 85.5626 50.4147 86.3475 50.6921C87.3944 51.0395 87.9765 50.124 87.7558 49.11C87.5399 48.1945 86.7371 46.9082 85.6668 46.9927C84.5964 47.0772 84.1222 48.1664 84.5541 49.0912Z" fill="#71403E"/>
<path d="M94.0184 51.7669C92.7268 51.4818 91.4144 51.3012 90.0938 51.2271C90.3332 51.9876 90.9012 52.6354 92.38 52.7622C93.8588 52.8889 94.0184 51.7669 94.0184 51.7669Z" fill="#263238"/>
<path d="M93.8916 51.7342C93.7883 51.8844 93.6381 52.3257 93.3189 52.3539C92.4611 52.2743 91.6095 52.1378 90.7697 51.9455C90.5068 51.8844 90.3472 51.4995 90.2205 51.2366C91.4535 51.3247 92.6797 51.4909 93.8916 51.7342Z" fill="white"/>
<path d="M103.013 82.8264L106.487 85.5962L108.699 87.2957C108.978 87.5125 109.163 87.8281 109.216 88.1775C109.269 88.5268 109.187 88.8833 108.985 89.1735L108.609 89.704C108.415 89.9748 108.13 90.1678 107.807 90.2485L107.337 90.3659C107.082 90.43 106.814 90.4198 106.564 90.3367C106.315 90.2535 106.094 90.1008 105.929 89.8965L105.032 88.7744C104.934 88.6486 104.858 88.5074 104.807 88.3566L104.243 86.7558L101.516 85.0188L103.013 82.8264Z" fill="#EEC1BB"/>
<path d="M51.1569 156.916L47.0913 165.991L43.8286 165.01L46.6501 155.569L51.1569 156.916Z" fill="#EEC1BB"/>
<path opacity="0.2" d="M50.4295 158.545L48.8662 162.033L45.0166 161.024L46.3593 156.541L50.4295 158.545Z" fill="black"/>
<path d="M83.5167 156.203L85.0049 166.033L81.7281 166.972L78.9958 157.508L83.5167 156.203Z" fill="#EEC1BB"/>
<path opacity="0.2" d="M83.7841 157.963L84.3569 161.747L80.5731 162.977L79.2773 158.484L83.7841 157.963Z" fill="black"/>
<path d="M47.9928 165.385C47.9769 165.378 47.9631 165.367 47.9524 165.353C47.9418 165.339 47.9347 165.323 47.9318 165.305C47.9307 165.287 47.9357 165.269 47.9458 165.254C47.956 165.238 47.9708 165.227 47.9881 165.221C48.0444 165.197 49.3965 164.634 49.9927 164.883C50.1022 164.927 50.191 165.011 50.2415 165.118C50.2733 165.177 50.2863 165.245 50.2788 165.312C50.2712 165.379 50.2435 165.442 50.1993 165.493C49.8598 165.675 49.4654 165.725 49.0913 165.634C48.7189 165.582 48.3514 165.499 47.9928 165.385ZM48.2886 165.305C48.9552 165.479 49.8706 165.592 50.0725 165.376C50.1007 165.352 50.1288 165.301 50.0725 165.188C50.059 165.154 50.0382 165.123 50.0114 165.098C49.9846 165.073 49.9526 165.054 49.9176 165.042C49.8673 165.019 49.8133 165.005 49.758 165C49.2534 165.01 48.7551 165.113 48.2886 165.305Z" fill="#4E9525"/>
<path d="M47.9459 165.371C47.9346 165.361 47.926 165.349 47.9211 165.335C47.9161 165.321 47.915 165.306 47.9177 165.291C47.9177 165.244 48.1571 164.277 48.6688 163.958C48.7417 163.911 48.8234 163.879 48.9089 163.864C48.9945 163.85 49.0821 163.853 49.1665 163.873C49.4012 163.925 49.4575 164.057 49.4575 164.155C49.481 164.578 48.5186 165.249 48.0492 165.385H48.0116C48.0003 165.388 47.9885 165.388 47.9771 165.386C47.9657 165.383 47.955 165.378 47.9459 165.371ZM49.0867 164.028C48.9783 164.015 48.8688 164.04 48.7768 164.099C48.4637 164.376 48.244 164.743 48.1477 165.15C48.6172 164.944 49.2885 164.399 49.2979 164.15C49.2979 164.127 49.2979 164.061 49.1383 164.028H49.0867Z" fill="#4E9525"/>
<path d="M47.6876 164.827L43.7207 164.31C43.6479 164.299 43.5735 164.314 43.5102 164.351C43.4468 164.389 43.3985 164.448 43.3733 164.517L42.2513 167.653C42.2265 167.719 42.215 167.789 42.2173 167.859C42.2197 167.93 42.236 167.999 42.2652 168.063C42.2945 168.127 42.3361 168.185 42.3876 168.233C42.4392 168.281 42.4998 168.318 42.5658 168.343L42.6738 168.371C44.1104 168.531 45.392 168.62 47.1712 168.84C49.2744 169.117 48.7064 169.31 51.1757 169.657C52.6639 169.869 53.1568 168.211 52.5371 168.047C49.6922 167.305 49.5044 166.395 48.528 165.23C48.3079 164.996 48.0083 164.852 47.6876 164.827Z" fill="#263238"/>
<path d="M85.479 164.324C85.4614 164.328 85.443 164.327 85.4262 164.32C85.4094 164.313 85.3951 164.302 85.3851 164.287C85.3759 164.272 85.3711 164.255 85.3711 164.237C85.3711 164.22 85.3759 164.203 85.3851 164.188C85.4226 164.137 86.263 162.925 86.8873 162.813C87.0028 162.792 87.1216 162.816 87.2207 162.878C87.2811 162.909 87.3301 162.959 87.3605 163.02C87.3909 163.08 87.4011 163.149 87.3897 163.216C87.338 163.46 86.9484 163.737 86.5399 163.935C86.1982 164.095 85.8432 164.225 85.479 164.324ZM85.6855 164.099C86.3381 163.878 87.169 163.475 87.2207 163.188C87.2207 163.151 87.2207 163.094 87.1221 163.024C87.0925 163.003 87.0586 162.989 87.0229 162.982C86.9873 162.976 86.9506 162.977 86.9155 162.986C86.8604 162.997 86.8069 163.014 86.7559 163.038C86.3357 163.321 85.9726 163.681 85.6855 164.099Z" fill="#4E9525"/>
<path d="M85.4415 164.339C85.426 164.336 85.4114 164.329 85.3991 164.319C85.3868 164.309 85.3772 164.297 85.3711 164.282C85.3711 164.24 85.019 163.306 85.2772 162.756C85.3126 162.678 85.3637 162.607 85.4275 162.549C85.4913 162.491 85.5664 162.446 85.6481 162.418C85.8734 162.334 85.9955 162.418 86.0471 162.498C86.296 162.836 85.8406 163.935 85.5307 164.296C85.5201 164.3 85.5085 164.3 85.4979 164.296C85.4923 164.307 85.4844 164.317 85.4746 164.324C85.4649 164.331 85.4535 164.336 85.4415 164.339ZM85.6669 162.587C85.5688 162.636 85.4907 162.717 85.4462 162.817C85.3333 163.22 85.348 163.649 85.4885 164.043C85.7843 163.601 86.0378 162.794 85.911 162.578C85.911 162.578 85.8594 162.508 85.7091 162.578H85.6669V162.587Z" fill="#4E9525"/>
<path d="M84.9204 164.019L81.3102 165.742C81.2436 165.774 81.1898 165.828 81.1575 165.894C81.1251 165.961 81.1161 166.036 81.1318 166.108L81.883 169.357C81.898 169.426 81.9264 169.491 81.9667 169.549C82.0069 169.606 82.0581 169.656 82.1174 169.694C82.1768 169.732 82.243 169.757 82.3123 169.77C82.3816 169.782 82.4527 169.781 82.5214 169.765L82.6294 169.728C83.9204 169.085 85.0471 168.46 86.6667 167.69C88.5821 166.775 88.2066 167.221 90.4694 166.198C91.8355 165.568 91.3472 163.911 90.7369 164.108C87.9484 165.047 87.2958 164.367 85.8311 163.911C85.5246 163.834 85.2002 163.872 84.9204 164.019Z" fill="#263238"/>
<path d="M75.7894 94.3235C75.7894 94.3235 79.8878 123.148 80.5216 129.03C81.1553 134.913 84.3336 159.292 84.3336 159.292L79.5686 160.231C79.5686 160.231 73.6769 142.499 72.5736 130.753C72.5736 130.753 67.5317 113.275 65.682 108.83C65.682 108.83 60.1705 102.431 62.3113 91.333L75.7894 94.3235Z" fill="#263238"/>
<path opacity="0.2" d="M68.4097 116.876C67.3487 113.482 66.3253 110.379 65.6821 108.839C64.75 108.364 63.8875 107.764 63.1189 107.055C62.8231 105.745 62.6494 104.91 62.6494 104.91L66.4379 99.5671C66.4379 99.5671 67.2266 110.698 68.4097 116.876Z" fill="black"/>
<path d="M66.7852 92.3328C66.7852 92.3328 65.4285 126.326 62.6446 133.645C59.8607 140.964 50.3354 159.789 50.3354 159.789L45.8708 157.714C45.8708 157.714 50.9598 135.711 55.091 130.622L54.2319 106.797C54.2319 106.797 50.8236 95.5674 54.0347 89.5208L66.7852 92.3328Z" fill="#263238"/>
<path d="M51.7487 159.63L50.6313 161.752L44.0918 159.259L44.7866 156.827L51.7487 159.63Z" fill="#4E9525"/>
<path d="M85.0893 157.587L85.4133 159.827L78.3949 161.413L77.5874 159.155L85.0893 157.587Z" fill="#4E9525"/>
<path d="M104.863 83.831L102.68 86.5444L82.7138 72.409L80.0942 70.6861L79.4557 70.2683C78.8517 69.8067 78.3869 69.1871 78.1127 68.4779C77.8385 67.7688 77.7655 66.9977 77.9018 66.2498C78.1366 64.7757 79.099 64.1466 79.9158 63.0762C80.0528 62.9064 80.2274 62.7708 80.4257 62.68C80.6241 62.5892 80.8409 62.5457 81.0589 62.553C81.2769 62.5603 81.4903 62.6182 81.6822 62.722C81.874 62.8258 82.0392 62.9728 82.1645 63.1513L104.863 83.831Z" fill="#4E9525"/>
<g opacity="0.2">
<path opacity="0.2" d="M104.863 83.831L102.68 86.5444L82.7138 72.409L80.0942 70.6861L79.4557 70.2683C78.8517 69.8067 78.3869 69.1871 78.1127 68.4779C77.8385 67.7688 77.7655 66.9977 77.9018 66.2498C78.1366 64.7757 79.099 64.1466 79.9158 63.0762C80.0528 62.9064 80.2274 62.7708 80.4257 62.68C80.6241 62.5892 80.8409 62.5457 81.0589 62.553C81.2769 62.5603 81.4903 62.6182 81.6822 62.722C81.874 62.8258 82.0392 62.9728 82.1645 63.1513L104.863 83.831Z" fill="black"/>
</g>
<path d="M63.9358 58.1939L80.1368 61.9214C80.5841 62.024 81.0065 62.2145 81.3796 62.4817C81.7526 62.7489 82.0689 63.0876 82.31 63.4781C82.5511 63.8685 82.7122 64.303 82.784 64.7562C82.8558 65.2095 82.8368 65.6725 82.7282 66.1183L81.0381 71.3246C78.8422 78.0638 77.2061 84.9726 76.1464 91.9808L75.7896 94.3281L54.0349 89.5161L59.7576 60.8792C59.851 60.4261 60.0339 59.9962 60.2956 59.6147C60.5574 59.2332 60.8927 58.9079 61.2819 58.6577C61.6711 58.4076 62.1063 58.2377 62.562 58.1581C63.0178 58.0784 63.4848 58.0906 63.9358 58.1939Z" fill="#4E9525"/>
<path opacity="0.2" d="M63.9358 58.1939L80.1368 61.9214C80.5841 62.024 81.0065 62.2145 81.3796 62.4817C81.7526 62.7489 82.0689 63.0876 82.31 63.4781C82.5511 63.8685 82.7122 64.303 82.784 64.7562C82.8558 65.2095 82.8368 65.6725 82.7282 66.1183L81.0381 71.3246C78.8422 78.0638 77.2061 84.9726 76.1464 91.9808L75.7896 94.3281L54.0349 89.5161L59.7576 60.8792C59.851 60.4261 60.0339 59.9962 60.2956 59.6147C60.5574 59.2332 60.8927 58.9079 61.2819 58.6577C61.6711 58.4076 62.1063 58.2377 62.562 58.1581C63.0178 58.0784 63.4848 58.0906 63.9358 58.1939Z" fill="black"/>
<path opacity="0.5" d="M78.1837 76.4276C78.1279 76.6721 77.9842 76.8876 77.78 77.0332C77.4557 77.2645 77.0834 77.4197 76.6908 77.4872C76.2982 77.5547 75.8954 77.5327 75.5125 77.4229C75.0677 77.2462 74.6632 76.9812 74.3235 76.644C73.9838 76.3067 73.716 75.9041 73.5361 75.4605C73.4332 75.2248 73.4182 74.9599 73.4939 74.7141L74.7614 70.489C74.8432 70.2185 75.0273 69.9906 75.2745 69.8538C75.5218 69.717 75.8127 69.6821 76.0853 69.7566C76.9256 69.9819 77.9255 70.2589 78.6579 70.4702C78.9301 70.55 79.1602 70.7333 79.2989 70.9808C79.4376 71.2282 79.4737 71.5202 79.3996 71.7941C78.9537 73.4137 78.3997 75.5967 78.1837 76.4276Z" fill="white"/>
<path d="M79.9439 89.3425L100.149 89.8495L101.361 97.0182L93.6944 100.976L79.8547 97.1872L79.9439 89.3425Z" fill="#263238"/>
<path opacity="0.2" d="M58.1235 69.8835C59.4474 69.0854 63.7101 58.9592 63.7101 58.9592C62.4806 59.9389 61.1797 60.8255 59.8183 61.6117C59.4192 63.7947 58.5273 67.6958 58.1235 69.8835Z" fill="black"/>
<path d="M46.0068 39.4437L44.6923 34.8383L43.8191 31.9699C43.7069 31.6013 43.7421 31.2035 43.9172 30.8603C44.0923 30.5171 44.3937 30.2552 44.758 30.1296L45.4153 29.8996C45.7532 29.7753 46.1243 29.7753 46.4622 29.8996L46.9645 30.1062C47.2278 30.2108 47.4559 30.3882 47.6222 30.6176C47.7885 30.847 47.886 31.1191 47.9034 31.4019L47.9832 32.9464C47.9929 33.1174 47.9739 33.2887 47.9269 33.4534L47.4152 35.2327L48.7203 38.4625L46.0068 39.4437Z" fill="#EEC1BB"/>
<path d="M64.2546 58.2596C64.2306 58.0119 64.1531 57.7724 64.0275 57.5576C63.9018 57.3428 63.7311 57.1578 63.5269 57.0155C61.8791 55.8841 57.424 52.6214 54.7293 48.8939C51.4055 44.2697 48.2085 35.9087 48.2085 35.9087L44.8472 37.1105C44.8472 37.1105 46.9175 49.6826 50.0112 53.9734C52.5369 57.4944 57.5225 61.8603 59.5271 63.5363C60.0128 63.9433 60.6296 64.1605 61.2632 64.1476C61.8968 64.1346 62.5043 63.8924 62.9729 63.4659C63.7006 62.757 64.5222 61.2829 64.2546 58.2596Z" fill="#4E9525"/>
<path opacity="0.2" d="M64.2546 58.2596C64.2306 58.0119 64.1531 57.7724 64.0275 57.5576C63.9018 57.3428 63.7311 57.1578 63.5269 57.0155C61.8791 55.8841 57.424 52.6214 54.7293 48.8939C51.4055 44.2697 48.2085 35.9087 48.2085 35.9087L44.8472 37.1105C44.8472 37.1105 46.9175 49.6826 50.0112 53.9734C52.5369 57.4944 57.5225 61.8603 59.5271 63.5363C60.0128 63.9433 60.6296 64.1605 61.2632 64.1476C61.8968 64.1346 62.5043 63.8924 62.9729 63.4659C63.7006 62.757 64.5222 61.2829 64.2546 58.2596Z" fill="black"/>
<g opacity="0.5">
<path opacity="0.5" d="M74.9676 60.7291C74.9676 60.7291 74.8221 62.3065 73.0147 62.0811C71.2073 61.8558 69.0008 59.1564 69.0008 59.1564L67.3342 58.9592L70.5688 63.912L72.9724 63.1186L74.9535 64.5786L76.1366 61.0812L74.9676 60.7291Z" fill="white"/>
</g>
<path d="M63.0764 62.8979L61.1986 67.0573L59.9686 69.6347C59.8049 69.9669 59.7786 70.3503 59.8954 70.7017C60.0123 71.0532 60.2629 71.3445 60.593 71.5125L61.1798 71.8224C61.484 71.9826 61.8364 72.026 62.1704 71.9444L62.6727 71.827C62.9335 71.7618 63.1707 71.6247 63.3574 71.4313C63.5442 71.238 63.6729 70.9961 63.729 70.7332L64.0247 69.2873C64.051 69.1319 64.051 68.9732 64.0247 68.8178L63.7759 67.0902L65.4519 64.2312L63.0764 62.8979Z" fill="#71403E"/>
<path d="M78.5497 61.6538C78.5497 61.6538 71.7849 60.0013 69.2404 58.9732C68.7709 58.7901 65.0716 66.4845 65.0716 66.4845L61.499 65.1607C61.499 65.1607 64.1045 55.302 67.5503 54.734C71.5877 54.0674 80.3665 56.6494 80.3665 56.6494C82.4979 57.0203 82.4087 62.5364 78.5497 61.6538Z" fill="#4E9525"/>
<path d="M75.4654 61.1138L75.3668 61.3063C75.1779 61.6706 74.8931 61.9764 74.5431 62.1906C74.1932 62.4049 73.7914 62.5196 73.381 62.5222C73.0101 62.5222 72.1463 62.5222 70.2685 61.2218C69.7044 60.7746 69.2203 60.2348 68.8367 59.6257C68.8797 59.5046 68.9432 59.3919 69.0245 59.2923C70.4328 57.5507 70.6957 53.8091 70.6722 51.6167L74.5265 56.3629C73.7895 57.9685 73.5688 59.9261 75.4654 61.1138Z" fill="#EEC1BB"/>
<path opacity="0.2" d="M71.5878 54.0579L74.4327 56.5366C74.2629 56.9752 74.1309 57.4275 74.0384 57.8886C73.427 57.7464 72.859 57.4588 72.3825 57.0502C71.906 56.6415 71.5352 56.1239 71.3015 55.5413C71.0714 54.8559 71.3155 54.1236 71.5878 54.0579Z" fill="black"/>
<path d="M78.0662 43.7158C78.0662 43.7158 81.39 47.1663 78.7281 48.3728C76.0663 49.5794 78.0662 43.7158 78.0662 43.7158Z" fill="#263238"/>
<path d="M70.4188 47.9785C70.2451 51.2647 69.9822 53.2083 71.4469 55.0767C73.6486 57.8935 77.8738 56.8419 79.0239 53.6683C80.0614 50.7859 80.1647 45.88 77.0992 44.2135C76.4269 43.8439 75.6715 43.6519 74.9044 43.6556C74.1373 43.6592 73.3837 43.8584 72.715 44.2344C72.0463 44.6103 71.4845 45.1506 71.0827 45.8041C70.6809 46.4576 70.4524 47.2027 70.4188 47.9691V47.9785Z" fill="#EEC1BB"/>
<path d="M75.4278 49.5089C75.3996 49.7764 75.517 50.0112 75.6907 50.03C75.8644 50.0487 76.0287 49.8469 76.0615 49.5605C76.0944 49.2741 75.9723 49.0629 75.7986 49.0441C75.6249 49.0253 75.4606 49.246 75.4278 49.5089Z" fill="#263238"/>
<path d="M78.4467 49.8517C78.4185 50.1193 78.5312 50.3493 78.7096 50.3681C78.888 50.3869 79.0476 50.1897 79.0758 49.8987C79.1039 49.6076 78.9913 49.3963 78.8176 49.3776C78.6439 49.3588 78.4749 49.5841 78.4467 49.8517Z" fill="#263238"/>
<path d="M77.3152 49.8281C77.5426 50.6783 77.8854 51.4933 78.3339 52.2505C78.1363 52.36 77.9174 52.4255 77.6921 52.4425C77.4669 52.4595 77.2406 52.4277 77.0288 52.3491L77.3152 49.8281Z" fill="#D4827D"/>
<path d="M75.0241 48.1288C74.9975 48.1275 74.9716 48.1194 74.949 48.1053C74.9203 48.0748 74.9043 48.0345 74.9043 47.9926C74.9043 47.9507 74.9203 47.9104 74.949 47.8799C75.1179 47.6957 75.3281 47.5542 75.5623 47.4669C75.7965 47.3796 76.0481 47.349 76.2964 47.3776C76.338 47.3845 76.3753 47.4077 76.3999 47.442C76.4246 47.4763 76.4346 47.519 76.4278 47.5607C76.4198 47.6028 76.3957 47.64 76.3606 47.6646C76.3256 47.6891 76.2823 47.699 76.24 47.6922C76.0434 47.671 75.8447 47.6971 75.6602 47.7681C75.4756 47.8391 75.3107 47.9531 75.179 48.1006C75.1579 48.1183 75.1325 48.1302 75.1053 48.1351C75.0781 48.14 75.0502 48.1379 75.0241 48.1288Z" fill="#263238"/>
<path d="M79.4933 48.786C79.4672 48.78 79.4431 48.7673 79.4234 48.7492C79.4036 48.7311 79.3889 48.7082 79.3807 48.6827C79.3207 48.4955 79.2177 48.325 79.0799 48.1847C78.9421 48.0445 78.7734 47.9385 78.5873 47.8753C78.5671 47.8708 78.5481 47.8625 78.5312 47.8506C78.5144 47.8387 78.5001 47.8235 78.4891 47.8061C78.4782 47.7886 78.4709 47.7691 78.4676 47.7487C78.4643 47.7283 78.4651 47.7075 78.4699 47.6875C78.4799 47.6464 78.5058 47.611 78.5419 47.589C78.578 47.567 78.6213 47.5602 78.6624 47.5701C78.9019 47.6454 79.1201 47.7767 79.2989 47.953C79.4777 48.1293 79.6119 48.3457 79.6905 48.5842C79.7041 48.6228 79.7018 48.6652 79.6842 48.7021C79.6666 48.739 79.6351 48.7675 79.5966 48.7813C79.564 48.7959 79.5271 48.7976 79.4933 48.786Z" fill="#263238"/>
<path d="M75.6064 53.2647C75.4858 53.1963 75.3711 53.1177 75.2637 53.03C75.2557 53.0229 75.2493 53.0142 75.2449 53.0045C75.2406 52.9948 75.2383 52.9843 75.2383 52.9736C75.2383 52.963 75.2406 52.9524 75.2449 52.9427C75.2493 52.933 75.2557 52.9243 75.2637 52.9173C75.28 52.9031 75.3008 52.8953 75.3224 52.8953C75.344 52.8953 75.3648 52.9031 75.3811 52.9173C75.654 53.1402 75.9755 53.2958 76.3196 53.3717C76.6637 53.4475 77.0209 53.4414 77.3622 53.3539C77.3827 53.3478 77.4049 53.3497 77.424 53.3593C77.4432 53.3689 77.458 53.3854 77.4655 53.4055C77.4692 53.416 77.4708 53.4271 77.4702 53.4382C77.4696 53.4493 77.4669 53.4602 77.4621 53.4702C77.4573 53.4803 77.4505 53.4892 77.4423 53.4967C77.434 53.5041 77.4243 53.5098 77.4138 53.5135C77.1112 53.5948 76.7954 53.6146 76.485 53.5719C76.1745 53.5291 75.8758 53.4247 75.6064 53.2647Z" fill="#263238"/>
<path d="M70.8179 51.1566C70.8179 51.1566 72.4047 51.1144 72.1089 49.7482C71.8132 48.3821 73.4516 47.1803 73.2826 45.3635C73.2826 45.3635 82.1413 47.5606 79.9677 42.8848C79.0804 41.2933 75.5078 41.129 72.8178 41.3309C69.2875 41.5938 69.9635 43.6359 69.9635 43.6359C66.1187 44.1664 67.2172 52.0908 70.8179 51.1566Z" fill="#263238"/>
<path d="M68.4565 50.8563C68.8189 51.6045 69.4616 52.1797 70.2452 52.4572C71.2873 52.8093 71.6535 51.6967 71.6535 50.8751C71.4376 49.9644 70.6395 48.6733 69.5691 48.7579C68.4988 48.8424 68.0199 49.9315 68.4565 50.8563Z" fill="#EEC1BB"/>
<path d="M73.7895 19.9518C65.1797 24.9046 54.1521 17.8393 45.9178 24.6464C45.8709 20.9878 45.8411 17.3886 45.8286 13.8489C54.1803 6.25776 67.6162 15.5436 75.8505 8.72241C75.8927 12.417 73.7754 16.4262 73.7895 19.9518Z" fill="#4E9525"/>
<path opacity="0.5" d="M73.7895 19.9518C65.1797 24.9046 54.1521 17.8393 45.9178 24.6464C45.8709 20.9878 45.8411 17.3886 45.8286 13.8489C54.1803 6.25776 67.6162 15.5436 75.8505 8.72241C75.8927 12.417 73.7754 16.4262 73.7895 19.9518Z" fill="white"/>
<path d="M45.9065 12.3996L45.1367 12.4109L45.4396 33.0695L46.2094 33.0582L45.9065 12.3996Z" fill="#263238"/>
</svg>
