<svg width="21" height="21" viewBox="0 0 21 21" fill="none" xmlns="http://www.w3.org/2000/svg">
<path d="M3.85525 12.7076L6.832 9.73088L9.3065 12.2063L12.0689 9.44388L10.5 7.875H14.875V12.25L13.3061 10.6811L9.3065 14.6807L6.832 12.2063L4.66637 14.371C5.64936 15.8505 7.15805 16.901 8.8867 17.3095C10.6154 17.7181 12.4347 17.4542 13.976 16.5714C15.5174 15.6885 16.6654 14.2527 17.1876 12.5549C17.7097 10.857 17.5668 9.02423 16.788 7.42782C16.0091 5.83141 14.6524 4.5908 12.9929 3.9574C11.3334 3.324 9.49514 3.34519 7.85066 4.01666C6.20618 4.68813 4.87848 5.95967 4.13659 7.57361C3.3947 9.18755 3.29413 11.0232 3.85525 12.7085V12.7076ZM2.5095 14.0709L2.50075 14.0621L2.50425 14.0586C2.00544 12.9386 1.74843 11.726 1.75 10.5C1.75 5.66738 5.66738 1.75 10.5 1.75C15.3326 1.75 19.25 5.66738 19.25 10.5C19.25 15.3326 15.3326 19.25 10.5 19.25C6.93875 19.25 3.87625 17.1237 2.5095 14.0709Z" fill="black"/>
</svg>
