<svg width="19" height="14" viewBox="0 0 19 14" fill="none" xmlns="http://www.w3.org/2000/svg">
<path d="M11.9225 0.214722C13.7006 0.214722 15.4058 0.921058 16.6631 2.17834C17.9204 3.43563 18.6267 5.14088 18.6267 6.91895C18.6267 8.69702 17.9204 10.4023 16.6631 11.6596C15.4058 12.9168 13.7006 13.6232 11.9225 13.6232C10.1444 13.6232 8.4392 12.9168 7.18192 11.6596C5.92463 10.4023 5.21829 8.69702 5.21829 6.91895C5.21829 5.14088 5.92463 3.43563 7.18192 2.17834C8.4392 0.921058 10.1444 0.214722 11.9225 0.214722ZM11.9225 1.89078C10.589 1.89078 9.31003 2.42053 8.36707 3.36349C7.4241 4.30646 6.89435 5.58539 6.89435 6.91895C6.89435 8.2525 7.4241 9.53144 8.36707 10.4744C9.31003 11.4174 10.589 11.9471 11.9225 11.9471C13.2561 11.9471 14.535 11.4174 15.478 10.4744C16.4209 9.53144 16.9507 8.2525 16.9507 6.91895C16.9507 5.58539 16.4209 4.30646 15.478 3.36349C14.535 2.42053 13.2561 1.89078 11.9225 1.89078ZM11.0845 3.56683H12.3415V6.73458L14.2941 8.68719L13.4058 9.5755L11.0845 7.25416V3.56683ZM1.02815 11.9471C0.805894 11.9471 0.592738 11.8588 0.435577 11.7017C0.278416 11.5445 0.190125 11.3313 0.190125 11.1091C0.190125 10.8868 0.278416 10.6737 0.435577 10.5165C0.592738 10.3594 0.805894 10.2711 1.02815 10.2711H4.2378C4.49759 10.8661 4.8328 11.4275 5.21829 11.9471H1.02815ZM1.86618 7.75698C1.64392 7.75698 1.43077 7.66868 1.27361 7.51152C1.11644 7.35436 1.02815 7.14121 1.02815 6.91895C1.02815 6.69669 1.11644 6.48353 1.27361 6.32637C1.43077 6.16921 1.64392 6.08092 1.86618 6.08092H3.58414L3.54224 6.91895L3.58414 7.75698H1.86618ZM2.70421 3.56683C2.48195 3.56683 2.26879 3.47854 2.11163 3.32138C1.95447 3.16422 1.86618 2.95107 1.86618 2.72881C1.86618 2.50655 1.95447 2.29339 2.11163 2.13623C2.26879 1.97907 2.48195 1.89078 2.70421 1.89078H5.21829C4.8328 2.41036 4.49759 2.97183 4.2378 3.56683H2.70421Z" fill="#4E9525"/>
</svg>
