<svg width="139" height="263" viewBox="0 0 139 263" fill="none" xmlns="http://www.w3.org/2000/svg">
<path d="M233.21 75.113C231.731 71.8806 230.126 68.713 228.4 65.6181C148.707 82.8362 52.1555 128.129 9.61789 195.235C20.086 215.075 35.2441 231.763 53.6383 243.701C90.636 168.659 186.339 93.0356 233.21 75.113ZM221.197 54.057C198.335 21.2952 161.395 0 119.693 0C65.7969 0 19.8421 35.5534 1.983 85.4912C66.364 51.9803 166.892 45.4111 221.197 54.057ZM130.1 262.872C194.639 257.323 245.374 200.726 245.374 131.678C245.392 114.25 242.098 96.9929 235.686 80.912C191.892 127.811 147.876 196.179 130.1 262.872ZM27.058 123.768H31.0096V161.535H27.058V123.768Z" fill="white" fill-opacity="0.15"/>
<path d="M21.9985 94.5051C29.0312 101.419 31.3219 116.245 30.9104 123.713C44.8881 111.818 29.4929 88.9927 17.2841 86.0827C18.112 91.8869 17.5525 97.2574 16.7246 102.055C14.9181 112.635 19.6325 122.951 27.2624 123.794C27.4631 118.437 29.0312 110.861 21.9985 94.5051Z" fill="white" fill-opacity="0.15"/>
<path d="M6.28997 127.283C10.47 125.282 21.0429 126.228 25.6068 127.493C17.6156 114.828 3.20892 122.669 -9.15527e-05 128.802C3.83868 129.428 7.11042 130.937 9.96817 132.498C16.2683 135.949 23.7576 134.824 25.8803 129.706C22.5383 128.468 11.1098 127.191 6.28997 127.283ZM46.429 121.534C45.4354 126.218 38.3324 134.498 34.6317 137.54C49.086 138.507 51.8058 121.733 49.0684 115.356C46.2734 118.187 43.1497 120.012 40.2393 121.455C33.8037 124.638 30.1506 131.586 32.7624 136.436C35.7381 134.396 43.6038 125.608 46.429 121.534ZM113.04 219.934H116.992V257.701H113.04V219.934Z" fill="white" fill-opacity="0.15"/>
<path d="M107.986 190.672C115.018 197.585 117.309 212.411 116.898 219.874C130.878 207.984 115.48 185.154 103.271 182.249C104.099 188.053 103.537 193.429 102.712 198.219C100.905 208.797 105.62 219.12 113.249 219.961C113.448 214.603 115.016 207.025 107.986 190.672Z" fill="white" fill-opacity="0.15"/>
<path d="M92.2741 223.449C96.4541 221.443 107.027 222.395 111.588 223.657C103.595 210.992 89.1905 218.831 85.979 224.963C89.8178 225.589 93.092 227.098 95.9473 228.659C102.247 232.111 109.737 230.986 111.859 225.876C108.525 224.629 97.0964 223.357 92.2741 223.449ZM132.421 217.698C131.427 222.385 124.327 230.665 120.626 233.706C135.08 234.669 137.802 217.895 135.063 211.523C132.268 214.349 129.144 216.176 126.233 217.619C119.805 220.799 116.145 227.75 118.762 232.597C121.725 230.557 129.59 221.767 132.421 217.698ZM78.0882 94.4658H80.961V121.896H78.0882V94.4658Z" fill="white" fill-opacity="0.15"/>
<path d="M74.4154 73.2178C79.5212 78.236 81.1847 89.0033 80.8836 94.4237C91.0401 85.7883 79.8524 69.209 70.9931 67.1034C71.5953 71.3172 71.1863 75.2209 70.5816 78.7013C69.2744 86.3798 72.6942 93.8769 78.2341 94.492C78.3821 90.5963 79.5212 85.0917 74.4154 73.2178Z" fill="white" fill-opacity="0.15"/>
<path d="M63.0099 97.0182C66.0408 95.5672 73.7233 96.2532 77.0402 97.1707C71.2294 87.9728 60.7744 93.6666 58.4435 98.1196C61.231 98.5744 63.6095 99.668 65.682 100.804C70.2609 103.314 75.6954 102.494 77.2359 98.7821C74.8097 97.8725 66.5125 96.9525 63.0099 97.0182ZM92.1645 92.8464C91.4394 96.2454 86.2859 102.26 83.5988 104.468C94.0939 105.167 96.071 92.9857 94.0864 88.3539C92.0516 90.4043 89.7885 91.7345 87.6734 92.7833C82.9991 95.0914 80.3471 100.144 82.2439 103.661C84.3991 102.186 90.1146 95.8011 92.1645 92.8464ZM146.688 172.407H149.563V199.846H146.688V172.407Z" fill="white" fill-opacity="0.15"/>
<path d="M143.014 151.162C148.12 156.18 149.781 166.95 149.487 172.368C159.641 163.732 148.456 147.15 139.594 145.042C140.199 149.259 139.79 153.165 139.18 156.645C137.876 164.327 141.295 171.821 146.835 172.439C146.983 168.538 148.122 163.036 143.014 151.162Z" fill="white" fill-opacity="0.15"/>
<path d="M131.602 174.97C134.636 173.511 142.316 174.197 145.635 175.12C139.827 165.92 129.372 171.616 127.041 176.066C129.821 176.524 132.207 177.62 134.282 178.75C138.866 181.256 144.295 180.443 145.838 176.724C143.41 175.822 135.105 174.899 131.602 174.97ZM160.757 170.788C160.034 174.184 154.881 180.204 152.191 182.415C162.686 183.109 164.661 170.935 162.679 166.298C160.647 168.351 158.381 169.684 156.268 170.73C151.597 173.038 148.937 178.088 150.839 181.603C152.992 180.125 158.702 173.743 160.757 170.788ZM125.829 75.7702H127.881V94.1765H125.829V75.7702Z" fill="white" fill-opacity="0.15"/>
<path d="M122.976 61.5147C126.86 64.8847 128.12 72.1032 127.899 75.7439C135.621 69.9502 127.111 58.8255 120.367 57.4086C120.828 60.2424 120.515 62.8553 120.056 65.1896C119.065 70.3446 121.666 75.3707 125.881 75.7807C125.984 73.1783 126.85 69.4823 122.976 61.5147Z" fill="white" fill-opacity="0.15"/>
<path d="M114.299 77.4867C116.608 76.5115 122.441 76.9715 124.968 77.5866C120.552 71.417 112.601 75.2339 110.829 78.2228C112.949 78.5277 114.756 79.2637 116.334 80.0261C119.817 81.7085 123.946 81.1564 125.116 78.6644C123.274 78.0598 116.966 77.4473 114.299 77.4867ZM136.471 74.6871C135.922 76.9715 132.008 81.004 129.953 82.4866C137.932 82.9518 139.437 74.7791 137.927 71.672C136.378 73.0494 134.655 73.9458 133.049 74.6425C129.496 76.1934 127.482 79.5792 128.924 81.945C130.56 80.9566 134.911 76.6718 136.471 74.6871ZM178.005 130.432H180.053V148.838H178.005V130.432Z" fill="white" fill-opacity="0.15"/>
</svg>
