<svg width="162" height="267" viewBox="0 0 162 267" fill="none" xmlns="http://www.w3.org/2000/svg">
<path d="M76.5588 160.252C66.8059 158.79 56.2406 148.14 52.1853 141.855C47.8647 159.693 73.7337 169.116 85.3224 164.297C81.2419 160.087 78.539 155.413 76.39 151.044C71.6346 141.421 61.7589 135.845 55.0893 139.646C58.0748 144.098 61.2576 151.15 76.5588 160.252Z" fill="white" fill-opacity="0.2"/>
<path d="M70.0095 124.5C67.8027 128.575 58.6914 134.022 54.2556 135.68C68.1637 141.233 75.2133 126.422 74.2063 119.574C70.7325 121.324 67.1986 122.025 63.9687 122.441C56.8429 123.35 51.4439 128.661 52.7337 134.05C56.1655 133.088 66.1636 127.406 70.0095 124.5ZM40.9089 152.737C38.9603 148.363 39.8422 137.489 41.0495 132.854C28.7853 140.564 36.4408 155.735 42.403 159.287C43.001 155.353 44.4566 152.042 45.9636 149.164C49.3005 142.807 48.174 135.038 43.2108 132.649C42.0016 136.048 40.8007 147.78 40.9089 152.737ZM-70.81 112.256L-74.0075 114.578L-96.1991 84.0189L-93.0016 81.6969L-70.81 112.256Z" fill="white" fill-opacity="0.2"/>
<path d="M-56.0719 97.2099C-58.2757 101.289 -67.39 106.732 -71.8222 108.391C-57.9121 113.942 -50.863 99.1353 -51.868 92.2858C-55.3417 94.0352 -58.8777 94.7382 -62.1056 95.1525C-69.2314 96.0616 -74.6304 101.373 -73.3452 106.755C-69.9149 105.804 -59.9199 100.118 -56.0719 97.2099ZM-85.1771 125.454C-87.1272 121.077 -86.2474 110.205 -85.04 105.57C-97.3011 113.284 -89.6477 128.457 -83.6865 132.003C-83.0854 128.074 -81.6313 124.76 -80.1243 121.882C-76.792 115.531 -77.914 107.756 -82.8798 105.372C-84.0788 108.763 -85.2781 120.498 -85.1771 125.454ZM31.1967 193.242L28.8721 194.93L12.754 172.734L15.0785 171.046L31.1967 193.242Z" fill="white" fill-opacity="0.2"/>
<path d="M46.6537 208.277C39.5736 207.216 31.9008 199.482 28.9594 194.919C25.8153 207.874 44.6098 214.715 53.0156 211.213C50.0523 208.158 48.0895 204.759 46.5337 201.587C43.0796 194.606 35.9072 190.549 31.0631 193.306C33.2325 196.546 35.5452 201.669 46.6537 208.277Z" fill="white" fill-opacity="0.2"/>
<path d="M41.8975 182.317C40.2977 185.272 33.6781 189.231 30.4552 190.438C40.5617 194.466 45.6758 183.715 44.9452 178.742C42.4225 180.012 39.8553 180.525 37.5111 180.824C32.3309 181.483 28.4155 185.34 29.35 189.249C31.8476 188.559 39.102 184.428 41.8975 182.317ZM20.7582 202.823C19.3477 199.647 19.9836 191.752 20.8604 188.387C11.9574 193.988 17.5154 205.006 21.8429 207.588C22.2845 204.733 23.3342 202.327 24.4293 200.236C26.8553 195.621 26.0325 189.975 22.4309 188.244C21.5536 190.703 20.6807 199.228 20.7582 202.823ZM-70.109 170.484L-72.4356 172.173L-88.5583 149.971L-86.2318 148.282L-70.109 170.484Z" fill="white" fill-opacity="0.2"/>
<path d="M-59.4087 159.546C-61.0059 162.509 -67.6234 166.467 -70.8515 167.67C-60.7454 171.702 -55.6329 160.949 -56.3619 155.979C-58.8801 157.242 -61.4549 157.757 -63.7981 158.062C-68.9792 158.728 -72.8952 162.576 -71.9581 166.492C-69.4631 165.795 -62.2011 161.662 -59.4087 159.546ZM-80.5418 180.061C-81.9527 176.888 -81.3199 168.989 -80.4426 165.62C-89.3426 171.226 -83.7872 182.236 -79.4587 184.824C-79.0206 181.968 -77.9705 179.558 -76.8758 177.471C-74.4518 172.858 -75.267 167.209 -78.8711 165.483C-79.7449 167.943 -80.6152 176.463 -80.5418 180.061ZM3.55219 236.422L1.8915 237.628L-8.92395 222.734L-7.26326 221.528L3.55219 236.422Z" fill="white" fill-opacity="0.2"/>
<path d="M14.2372 246.28C9.11433 245.836 3.85365 240.735 1.893 237.659C-0.951519 246.885 12.4717 250.886 18.7613 248.07C16.7227 246.048 15.4411 243.749 14.441 241.591C12.2139 236.837 7.15528 234.299 3.50363 236.444C4.94957 238.61 6.4209 242.11 14.2372 246.28Z" fill="white" fill-opacity="0.2"/>
<path d="M11.873 228.258C10.5783 230.404 5.58783 233.459 3.182 234.446C10.3803 236.843 14.5711 229.083 14.2482 225.624C12.3535 226.623 10.4593 227.089 8.7344 227.399C4.92797 228.084 1.91068 230.957 2.42892 233.661C4.27433 233.068 9.73808 229.857 11.873 228.258ZM-4.42261 243.552C-5.32028 241.38 -4.52266 235.818 -3.73112 233.411C-10.4605 237.722 -6.87633 245.22 -3.82842 246.846C-3.38519 244.822 -2.51718 243.084 -1.6272 241.577C0.336195 238.234 -0.0230522 234.311 -2.58056 233.244C-3.32345 235.005 -4.32603 241.029 -4.42261 243.552ZM-70.7853 222.851L-72.442 224.054L-83.2574 209.16L-81.6008 207.957L-70.7853 222.851Z" fill="white" fill-opacity="0.2"/>
<path d="M64.3655 224.942C61.3342 234.326 49.1046 243.015 42.2431 245.992C59.1389 253.162 72.6508 229.173 69.7842 216.954C64.9656 220.294 59.9134 222.2 55.2532 223.608C44.9842 226.732 37.8733 235.567 40.5363 242.767C45.4161 240.547 52.892 238.556 64.3655 224.942Z" fill="white" fill-opacity="0.15"/>
<path d="M28.0239 225.578C31.6847 228.42 35.5743 238.297 36.488 242.943C44.2324 230.126 30.7686 220.757 23.8481 220.635C25.0081 224.348 25.1245 227.949 25.0084 231.203C24.7444 238.382 29.1048 244.574 34.6316 244.179C34.2416 240.637 30.265 229.847 28.0239 225.578ZM51.1425 258.891C46.5093 260.101 35.9244 257.459 31.5475 255.512C37.1568 268.869 53.3722 263.788 57.8479 258.484C54.0647 257.253 51.0345 255.277 48.4406 253.322C42.7119 248.993 34.8638 248.839 31.6974 253.347C34.854 255.094 46.2341 258.19 51.1425 258.891Z" fill="white" fill-opacity="0.15"/>
<path d="M106.876 262.272C104.676 269.085 95.7945 275.395 90.8133 277.553C103.083 282.766 112.895 265.338 110.81 256.474C107.312 258.899 103.639 260.282 100.256 261.301C92.8054 263.571 87.6341 269.987 89.5655 275.215C93.1149 273.603 98.5466 272.156 106.876 262.272Z" fill="white" fill-opacity="0.15"/>
<path d="M80.4878 262.735C83.1427 264.795 85.9704 271.971 86.6358 275.348C92.2567 266.032 82.4832 259.235 77.4578 259.146C78.2997 261.842 78.3873 264.458 78.3003 266.82C78.1067 272.038 81.2741 276.529 85.2827 276.244C85.0092 273.668 82.1154 265.837 80.4878 262.735ZM97.2763 286.933C93.9126 287.807 86.2268 285.893 83.049 284.48C87.1247 294.177 98.9014 290.488 102.154 286.639C99.4091 285.738 97.2062 284.311 95.3211 282.889C91.1639 279.744 85.4588 279.636 83.1637 282.907C85.4475 284.174 93.7164 286.424 97.2763 286.933Z" fill="white" fill-opacity="0.15"/>
</svg>
