<svg width="384" height="81" viewBox="0 0 384 81" fill="none" xmlns="http://www.w3.org/2000/svg">
<ellipse cx="342.824" cy="43" rx="40.8236" ry="38" fill="white"/>
<path d="M324.176 16.5506C324.176 20.7207 320.791 24.1013 316.616 24.1013C312.44 24.1013 309.056 20.7207 309.056 16.5506C309.056 12.3805 312.44 9 316.616 9C320.791 9 324.176 12.3805 324.176 16.5506Z" fill="#4E9525"/>
<path d="M312.755 17.39V16.7L316.265 11.84H317.355V16.6H318.355V17.39H317.355V19H316.455V17.39H312.755ZM316.495 12.79L313.805 16.6H316.495V12.79Z" fill="white"/>
<path d="M324.153 54.04C323.998 53.7147 323.774 53.464 323.481 53.288C323.187 53.1067 322.846 53.016 322.457 53.016C322.067 53.016 321.715 53.1067 321.401 53.288C321.091 53.464 320.846 53.72 320.665 54.056C320.489 54.3867 320.401 54.7707 320.401 55.208C320.401 55.6453 320.489 56.0293 320.665 56.36C320.846 56.6907 321.091 56.9467 321.401 57.128C321.715 57.304 322.067 57.392 322.457 57.392C323.001 57.392 323.449 57.2293 323.801 56.904C324.153 56.5787 324.358 56.1387 324.417 55.584H322.193V54.992H325.193V55.552C325.15 56.0107 325.006 56.432 324.761 56.816C324.515 57.1947 324.193 57.496 323.793 57.72C323.393 57.9387 322.947 58.048 322.457 58.048C321.939 58.048 321.467 57.928 321.041 57.688C320.614 57.4427 320.275 57.104 320.025 56.672C319.779 56.24 319.657 55.752 319.657 55.208C319.657 54.664 319.779 54.176 320.025 53.744C320.275 53.3067 320.614 52.968 321.041 52.728C321.467 52.4827 321.939 52.36 322.457 52.36C323.049 52.36 323.571 52.5067 324.025 52.8C324.483 53.0933 324.817 53.5067 325.025 54.04H324.153ZM330.155 55.64C330.155 55.7787 330.147 55.9253 330.131 56.08H326.627C326.654 56.512 326.8 56.8507 327.067 57.096C327.339 57.336 327.667 57.456 328.051 57.456C328.366 57.456 328.627 57.384 328.835 57.24C329.048 57.0907 329.198 56.8933 329.283 56.648H330.067C329.95 57.0693 329.715 57.4133 329.363 57.68C329.011 57.9413 328.574 58.072 328.051 58.072C327.635 58.072 327.262 57.9787 326.931 57.792C326.606 57.6053 326.35 57.3413 326.163 57C325.976 56.6533 325.883 56.2533 325.883 55.8C325.883 55.3467 325.974 54.9493 326.155 54.608C326.336 54.2667 326.59 54.0053 326.915 53.824C327.246 53.6373 327.624 53.544 328.051 53.544C328.467 53.544 328.835 53.6347 329.155 53.816C329.475 53.9973 329.72 54.248 329.891 54.568C330.067 54.8827 330.155 55.24 330.155 55.64ZM329.403 55.488C329.403 55.2107 329.342 54.9733 329.219 54.776C329.096 54.5733 328.928 54.4213 328.715 54.32C328.507 54.2133 328.275 54.16 328.019 54.16C327.651 54.16 327.336 54.2773 327.075 54.512C326.819 54.7467 326.672 55.072 326.635 55.488H329.403ZM332.004 54.216V56.8C332.004 57.0133 332.049 57.1653 332.14 57.256C332.231 57.3413 332.388 57.384 332.612 57.384H333.148V58H332.492C332.087 58 331.783 57.9067 331.58 57.72C331.377 57.5333 331.276 57.2267 331.276 56.8V54.216H330.708V53.616H331.276V52.512H332.004V53.616H333.148V54.216H332.004ZM339.099 58L337.771 55.72H336.891V58H336.163V52.424H337.963C338.384 52.424 338.739 52.496 339.027 52.64C339.32 52.784 339.539 52.9787 339.683 53.224C339.827 53.4693 339.899 53.7493 339.899 54.064C339.899 54.448 339.787 54.7867 339.563 55.08C339.344 55.3733 339.014 55.568 338.571 55.664L339.971 58H339.099ZM336.891 55.136H337.963C338.358 55.136 338.654 55.04 338.851 54.848C339.048 54.6507 339.147 54.3893 339.147 54.064C339.147 53.7333 339.048 53.4773 338.851 53.296C338.659 53.1147 338.363 53.024 337.963 53.024H336.891V55.136ZM345.03 55.64C345.03 55.7787 345.022 55.9253 345.006 56.08H341.502C341.529 56.512 341.675 56.8507 341.942 57.096C342.214 57.336 342.542 57.456 342.926 57.456C343.241 57.456 343.502 57.384 343.71 57.24C343.923 57.0907 344.073 56.8933 344.158 56.648H344.942C344.825 57.0693 344.59 57.4133 344.238 57.68C343.886 57.9413 343.449 58.072 342.926 58.072C342.51 58.072 342.137 57.9787 341.806 57.792C341.481 57.6053 341.225 57.3413 341.038 57C340.851 56.6533 340.758 56.2533 340.758 55.8C340.758 55.3467 340.849 54.9493 341.03 54.608C341.211 54.2667 341.465 54.0053 341.79 53.824C342.121 53.6373 342.499 53.544 342.926 53.544C343.342 53.544 343.71 53.6347 344.03 53.816C344.35 53.9973 344.595 54.248 344.766 54.568C344.942 54.8827 345.03 55.24 345.03 55.64ZM344.278 55.488C344.278 55.2107 344.217 54.9733 344.094 54.776C343.971 54.5733 343.803 54.4213 343.59 54.32C343.382 54.2133 343.15 54.16 342.894 54.16C342.526 54.16 342.211 54.2773 341.95 54.512C341.694 54.7467 341.547 55.072 341.51 55.488H344.278ZM346.879 54.216V56.8C346.879 57.0133 346.924 57.1653 347.015 57.256C347.106 57.3413 347.263 57.384 347.487 57.384H348.023V58H347.367C346.962 58 346.658 57.9067 346.455 57.72C346.252 57.5333 346.151 57.2267 346.151 56.8V54.216H345.583V53.616H346.151V52.512H346.879V53.616H348.023V54.216H346.879ZM352.793 53.616V58H352.065V57.352C351.926 57.576 351.732 57.752 351.481 57.88C351.236 58.0027 350.964 58.064 350.665 58.064C350.324 58.064 350.017 57.9947 349.745 57.856C349.473 57.712 349.257 57.4987 349.097 57.216C348.942 56.9333 348.865 56.5893 348.865 56.184V53.616H349.585V56.088C349.585 56.52 349.694 56.8533 349.913 57.088C350.132 57.3173 350.43 57.432 350.809 57.432C351.198 57.432 351.505 57.312 351.729 57.072C351.953 56.832 352.065 56.4827 352.065 56.024V53.616H352.793ZM354.75 54.328C354.878 54.0773 355.06 53.8827 355.294 53.744C355.534 53.6053 355.825 53.536 356.166 53.536V54.288H355.974C355.158 54.288 354.75 54.7307 354.75 55.616V58H354.022V53.616H354.75V54.328ZM359.143 53.536C359.676 53.536 360.108 53.6987 360.439 54.024C360.769 54.344 360.935 54.808 360.935 55.416V58H360.215V55.52C360.215 55.0827 360.105 54.7493 359.887 54.52C359.668 54.2853 359.369 54.168 358.991 54.168C358.607 54.168 358.3 54.288 358.071 54.528C357.847 54.768 357.735 55.1173 357.735 55.576V58H357.007V53.616H357.735V54.24C357.879 54.016 358.073 53.8427 358.319 53.72C358.569 53.5973 358.844 53.536 359.143 53.536ZM363.676 58.072C363.34 58.072 363.038 58.016 362.772 57.904C362.505 57.7867 362.294 57.6267 362.14 57.424C361.985 57.216 361.9 56.9787 361.884 56.712H362.636C362.657 56.9307 362.758 57.1093 362.94 57.248C363.126 57.3867 363.369 57.456 363.668 57.456C363.945 57.456 364.164 57.3947 364.324 57.272C364.484 57.1493 364.564 56.9947 364.564 56.808C364.564 56.616 364.478 56.4747 364.308 56.384C364.137 56.288 363.873 56.1947 363.516 56.104C363.19 56.0187 362.924 55.9333 362.716 55.848C362.513 55.7573 362.337 55.6267 362.188 55.456C362.044 55.28 361.972 55.0507 361.972 54.768C361.972 54.544 362.038 54.3387 362.172 54.152C362.305 53.9653 362.494 53.8187 362.74 53.712C362.985 53.6 363.265 53.544 363.58 53.544C364.065 53.544 364.457 53.6667 364.756 53.912C365.054 54.1573 365.214 54.4933 365.236 54.92H364.508C364.492 54.6907 364.398 54.5067 364.228 54.368C364.062 54.2293 363.838 54.16 363.556 54.16C363.294 54.16 363.086 54.216 362.932 54.328C362.777 54.44 362.7 54.5867 362.7 54.768C362.7 54.912 362.745 55.032 362.836 55.128C362.932 55.2187 363.049 55.2933 363.188 55.352C363.332 55.4053 363.529 55.4667 363.78 55.536C364.094 55.6213 364.35 55.7067 364.548 55.792C364.745 55.872 364.913 55.9947 365.052 56.16C365.196 56.3253 365.27 56.5413 365.276 56.808C365.276 57.048 365.209 57.264 365.076 57.456C364.942 57.648 364.753 57.8 364.508 57.912C364.268 58.0187 363.99 58.072 363.676 58.072Z" fill="black"/>
<g clip-path="url(#clip0_208_397)">
<path d="M342.715 39.6128C342.104 39.6128 341.493 39.4896 340.927 39.2436L338.222 38.0675C337.243 37.6417 336.208 37.3721 335.146 37.2659L334.258 37.1771C334.111 37.1625 334 37.0395 334 36.8925V34.1056C334 34.0438 334.02 33.9836 334.057 33.9342C334.124 33.8453 335.716 31.7651 338.148 32.3063C339.516 32.6103 340.618 33.1792 341.301 33.603C341.797 33.9106 342.378 34.0731 342.982 34.0731H345.688C346.154 34.0731 346.564 34.3198 346.793 34.6899L349.123 32.0054C349.575 31.4022 350.314 31.0327 351.088 31.0327H351.262C351.358 31.0327 351.448 31.0815 351.501 31.1623C351.554 31.2431 351.562 31.3454 351.524 31.4337L349.416 36.2232C348.955 37.2707 348.017 38.0619 346.907 38.3396L346.536 38.4322L344.379 39.2949C343.848 39.5071 343.282 39.6128 342.715 39.6128ZM334.572 36.6337L335.203 36.6968C336.324 36.8089 337.417 37.0938 338.45 37.5431L341.155 38.7192C342.107 39.1328 343.204 39.149 344.167 38.7637L346.341 37.8939C346.353 37.8891 346.366 37.8852 346.378 37.8821L346.768 37.7846C347.708 37.5495 348.503 36.8796 348.893 35.9928L350.815 31.6244C350.323 31.6968 349.87 31.9621 349.568 32.3642L346.987 35.3391C346.987 35.3503 346.987 35.3612 346.987 35.3725C346.987 36.089 346.404 36.672 345.688 36.672H341.913C341.422 36.672 340.937 36.7507 340.472 36.9058L340.367 36.6391L340.278 36.3673L340.293 36.3626C340.815 36.1885 341.361 36.1 341.913 36.1H345.688C346.089 36.1 346.415 35.7735 346.415 35.3724C346.415 34.9712 346.089 34.6447 345.688 34.6447H342.982C342.272 34.6447 341.586 34.4525 341 34.0888C340.354 33.6884 339.314 33.1512 338.025 32.8644C336.183 32.4559 334.857 33.8695 334.572 34.2067V36.6337H334.572Z" fill="#4E9525"/>
<path d="M345.262 30.9681C344.823 30.9681 344.329 30.8323 343.787 30.5609C343.721 30.5278 343.67 30.4705 343.645 30.4013C343.623 30.3393 343.112 28.8695 343.924 27.7826C344.514 26.9925 345.624 26.6366 347.224 26.7258C347.37 26.7338 347.486 26.8508 347.494 26.9971C347.499 27.1106 347.617 29.7909 346.251 30.6832C345.96 30.8732 345.63 30.9681 345.262 30.9681ZM344.151 30.1019C344.902 30.4542 345.503 30.4887 345.938 30.2045C346.749 29.6752 346.924 28.104 346.928 27.2862C345.674 27.2556 344.821 27.5382 344.382 28.1247C343.861 28.8232 344.063 29.784 344.151 30.1019Z" fill="#4E9525"/>
<path d="M340.889 27.2216C340.382 27.2216 339.797 27.113 339.286 26.7391C338.421 26.1046 338.023 24.8966 338.104 23.1488C338.11 23.0027 338.226 22.8853 338.372 22.8766C338.496 22.8696 341.424 22.7133 342.409 24.1921C342.868 24.8804 342.83 25.782 342.298 26.8721C342.265 26.9384 342.209 26.9896 342.139 27.015C342.101 27.0292 341.564 27.2216 340.889 27.2216ZM342.041 26.7466H342.043H342.041ZM338.666 23.4393C338.642 24.8392 338.963 25.7934 339.624 26.2777C340.416 26.8574 341.496 26.611 341.836 26.512C342.224 25.6687 342.257 24.9954 341.933 24.5092C341.331 23.6053 339.565 23.4286 338.666 23.4393Z" fill="#4E9525"/>
<path d="M343.122 34.5445C343.113 34.5445 343.104 34.544 343.095 34.5431C342.943 34.5287 342.829 34.397 342.836 34.2441C342.853 33.9077 342.882 33.5886 342.921 33.2862C343.04 31.2626 342.979 26.5501 339.999 25.2464C339.854 25.183 339.788 25.0145 339.852 24.8697C339.915 24.7252 340.084 24.6593 340.228 24.7225C341.984 25.4906 343.089 27.4032 343.422 30.2532C343.452 30.5086 343.474 30.7605 343.491 31.0057C344.276 29.0228 345.476 28.3222 345.548 28.2821C345.685 28.2044 345.86 28.2538 345.937 28.3911C346.014 28.5285 345.966 28.7025 345.829 28.78C345.799 28.7977 343.958 29.9024 343.496 33.3093C343.46 33.8921 343.41 34.2637 343.405 34.2977C343.385 34.4404 343.263 34.5445 343.122 34.5445Z" fill="#4E9525"/>
</g>
<g clip-path="url(#clip1_208_397)">
<path d="M347.9 21.6188H347.006V20.7598H347.9C348.034 20.7598 348.143 20.6511 348.143 20.5167C348.143 20.3824 348.034 20.2736 347.9 20.2736H347.006V19.0817C347.006 18.9077 346.971 18.78 346.904 18.7022C346.839 18.6282 346.755 18.5938 346.637 18.5938C346.525 18.5938 346.444 18.6279 346.381 18.7015C346.314 18.7794 346.28 18.9073 346.28 19.0818V20.2737H344.598L343.884 19.192C343.822 19.0954 343.765 19.005 343.709 18.9182C343.659 18.84 343.61 18.7764 343.563 18.7289C343.522 18.6868 343.476 18.6542 343.421 18.6292C343.369 18.6057 343.304 18.5938 343.226 18.5938C343.127 18.5938 343.037 18.6209 342.951 18.6766C342.866 18.7317 342.807 18.7999 342.771 18.8849C342.74 18.9657 342.723 19.0896 342.723 19.2495V20.2736H341.838C341.704 20.2737 341.595 20.3825 341.595 20.5168C341.595 20.6511 341.704 20.7599 341.838 20.7599H342.723V21.619H341.838C341.704 21.619 341.595 21.7278 341.595 21.8621C341.595 21.9964 341.704 22.1052 341.838 22.1052H342.723V23.466C342.723 23.6349 342.759 23.7613 342.829 23.8416C342.896 23.9182 342.981 23.9537 343.096 23.9537C343.207 23.9537 343.291 23.918 343.36 23.8413C343.432 23.7627 343.468 23.6363 343.468 23.466V22.1052H344.989L345.813 23.3676C345.87 23.451 345.929 23.5353 345.988 23.6179C346.041 23.692 346.099 23.7574 346.16 23.812C346.215 23.8613 346.275 23.8975 346.336 23.9196C346.399 23.9423 346.473 23.9539 346.555 23.9539C346.778 23.9539 347.006 23.8857 347.006 23.3802V22.1052H347.9C348.034 22.1052 348.143 21.9963 348.143 21.862C348.143 21.7277 348.034 21.6188 347.9 21.6188ZM346.28 20.7598V21.6188H345.488L344.92 20.7598H346.28ZM343.468 19.7728L343.795 20.2736H343.468V19.7728ZM343.468 21.6188V20.7598H344.112L344.672 21.6188H343.468ZM346.28 22.8178L345.809 22.1052H346.28V22.8178Z" fill="#4E9525"/>
</g>
<ellipse cx="240.1" cy="43" rx="39.1004" ry="38" fill="white"/>
<path d="M222.482 17.5506C222.482 21.7207 219.24 25.1013 215.241 25.1013C211.242 25.1013 208 21.7207 208 17.5506C208 13.3805 211.242 10 215.241 10C219.24 10 222.482 13.3805 222.482 17.5506Z" fill="#4E9525"/>
<path d="M212.692 14.98C212.712 14.1867 212.942 13.58 213.382 13.16C213.829 12.74 214.459 12.53 215.272 12.53C215.799 12.53 216.249 12.62 216.622 12.8C216.996 12.98 217.276 13.2233 217.462 13.53C217.656 13.8367 217.752 14.1833 217.752 14.57C217.752 15.0367 217.642 15.4033 217.422 15.67C217.202 15.93 216.956 16.1067 216.682 16.2V16.24C217.482 16.54 217.882 17.0967 217.882 17.91C217.882 18.3367 217.782 18.7133 217.582 19.04C217.382 19.3667 217.096 19.62 216.722 19.8C216.356 19.98 215.919 20.07 215.412 20.07C214.546 20.07 213.866 19.8633 213.372 19.45C212.879 19.0367 212.626 18.39 212.612 17.51H214.772C214.759 17.75 214.792 17.9333 214.872 18.06C214.959 18.18 215.106 18.24 215.312 18.24C215.432 18.24 215.532 18.1967 215.612 18.11C215.692 18.0167 215.732 17.8967 215.732 17.75C215.732 17.5633 215.669 17.4233 215.542 17.33C215.422 17.23 215.216 17.18 214.922 17.18H214.552V15.39H214.912C215.366 15.4167 215.592 15.2367 215.592 14.85C215.592 14.6833 215.556 14.56 215.482 14.48C215.416 14.4 215.329 14.36 215.222 14.36C214.976 14.36 214.852 14.5667 214.852 14.98H212.692Z" fill="white"/>
<path d="M212.689 56L211.361 53.72H210.481V56H209.753V50.424H211.553C211.974 50.424 212.329 50.496 212.617 50.64C212.91 50.784 213.129 50.9787 213.273 51.224C213.417 51.4693 213.489 51.7493 213.489 52.064C213.489 52.448 213.377 52.7867 213.153 53.08C212.934 53.3733 212.603 53.568 212.161 53.664L213.561 56H212.689ZM210.481 53.136H211.553C211.947 53.136 212.243 53.04 212.441 52.848C212.638 52.6507 212.737 52.3893 212.737 52.064C212.737 51.7333 212.638 51.4773 212.441 51.296C212.249 51.1147 211.953 51.024 211.553 51.024H210.481V53.136ZM215.348 51.016V52.88H217.38V53.48H215.348V55.4H217.62V56H214.62V50.416H217.62V51.016H215.348ZM218.449 53.8C218.449 53.3467 218.54 52.952 218.721 52.616C218.903 52.2747 219.153 52.0107 219.473 51.824C219.799 51.6373 220.169 51.544 220.585 51.544C221.124 51.544 221.567 51.6747 221.913 51.936C222.265 52.1973 222.497 52.56 222.609 53.024H221.825C221.751 52.7573 221.604 52.5467 221.385 52.392C221.172 52.2373 220.905 52.16 220.585 52.16C220.169 52.16 219.833 52.304 219.577 52.592C219.321 52.8747 219.193 53.2773 219.193 53.8C219.193 54.328 219.321 54.736 219.577 55.024C219.833 55.312 220.169 55.456 220.585 55.456C220.905 55.456 221.172 55.3813 221.385 55.232C221.599 55.0827 221.745 54.8693 221.825 54.592H222.609C222.492 55.04 222.257 55.4 221.905 55.672C221.553 55.9387 221.113 56.072 220.585 56.072C220.169 56.072 219.799 55.9787 219.473 55.792C219.153 55.6053 218.903 55.3413 218.721 55C218.54 54.6587 218.449 54.2587 218.449 53.8ZM227.581 53.64C227.581 53.7787 227.573 53.9253 227.557 54.08H224.053C224.08 54.512 224.226 54.8507 224.493 55.096C224.765 55.336 225.093 55.456 225.477 55.456C225.792 55.456 226.053 55.384 226.261 55.24C226.474 55.0907 226.624 54.8933 226.709 54.648H227.493C227.376 55.0693 227.141 55.4133 226.789 55.68C226.437 55.9413 226 56.072 225.477 56.072C225.061 56.072 224.688 55.9787 224.357 55.792C224.032 55.6053 223.776 55.3413 223.589 55C223.402 54.6533 223.309 54.2533 223.309 53.8C223.309 53.3467 223.4 52.9493 223.581 52.608C223.762 52.2667 224.016 52.0053 224.341 51.824C224.672 51.6373 225.05 51.544 225.477 51.544C225.893 51.544 226.261 51.6347 226.581 51.816C226.901 51.9973 227.146 52.248 227.317 52.568C227.493 52.8827 227.581 53.24 227.581 53.64ZM226.829 53.488C226.829 53.2107 226.768 52.9733 226.645 52.776C226.522 52.5733 226.354 52.4213 226.141 52.32C225.933 52.2133 225.701 52.16 225.445 52.16C225.077 52.16 224.762 52.2773 224.501 52.512C224.245 52.7467 224.098 53.072 224.061 53.488H226.829ZM228.918 50.904C228.779 50.904 228.662 50.856 228.566 50.76C228.47 50.664 228.422 50.5467 228.422 50.408C228.422 50.2693 228.47 50.152 228.566 50.056C228.662 49.96 228.779 49.912 228.918 49.912C229.051 49.912 229.163 49.96 229.254 50.056C229.35 50.152 229.398 50.2693 229.398 50.408C229.398 50.5467 229.35 50.664 229.254 50.76C229.163 50.856 229.051 50.904 228.918 50.904ZM229.27 51.616V56H228.542V51.616H229.27ZM232.143 55.328L233.503 51.616H234.279L232.559 56H231.711L229.991 51.616H230.775L232.143 55.328ZM238.995 53.64C238.995 53.7787 238.987 53.9253 238.971 54.08H235.467C235.494 54.512 235.64 54.8507 235.907 55.096C236.179 55.336 236.507 55.456 236.891 55.456C237.206 55.456 237.467 55.384 237.675 55.24C237.888 55.0907 238.038 54.8933 238.123 54.648H238.907C238.79 55.0693 238.555 55.4133 238.203 55.68C237.851 55.9413 237.414 56.072 236.891 56.072C236.475 56.072 236.102 55.9787 235.771 55.792C235.446 55.6053 235.19 55.3413 235.003 55C234.816 54.6533 234.723 54.2533 234.723 53.8C234.723 53.3467 234.814 52.9493 234.995 52.608C235.176 52.2667 235.43 52.0053 235.755 51.824C236.086 51.6373 236.464 51.544 236.891 51.544C237.307 51.544 237.675 51.6347 237.995 51.816C238.315 51.9973 238.56 52.248 238.731 52.568C238.907 52.8827 238.995 53.24 238.995 53.64ZM238.243 53.488C238.243 53.2107 238.182 52.9733 238.059 52.776C237.936 52.5733 237.768 52.4213 237.555 52.32C237.347 52.2133 237.115 52.16 236.859 52.16C236.491 52.16 236.176 52.2773 235.915 52.512C235.659 52.7467 235.512 53.072 235.475 53.488H238.243ZM245.977 51.616V56H245.249V55.352C245.11 55.576 244.915 55.752 244.665 55.88C244.419 56.0027 244.147 56.064 243.849 56.064C243.507 56.064 243.201 55.9947 242.929 55.856C242.657 55.712 242.441 55.4987 242.281 55.216C242.126 54.9333 242.049 54.5893 242.049 54.184V51.616H242.769V54.088C242.769 54.52 242.878 54.8533 243.097 55.088C243.315 55.3173 243.614 55.432 243.993 55.432C244.382 55.432 244.689 55.312 244.913 55.072C245.137 54.832 245.249 54.4827 245.249 54.024V51.616H245.977ZM247.934 52.424C248.078 52.1733 248.291 51.9653 248.574 51.8C248.862 51.6293 249.195 51.544 249.574 51.544C249.963 51.544 250.315 51.6373 250.63 51.824C250.95 52.0107 251.201 52.2747 251.382 52.616C251.563 52.952 251.654 53.344 251.654 53.792C251.654 54.2347 251.563 54.6293 251.382 54.976C251.201 55.3227 250.95 55.592 250.63 55.784C250.315 55.976 249.963 56.072 249.574 56.072C249.201 56.072 248.87 55.9893 248.582 55.824C248.299 55.6533 248.083 55.4427 247.934 55.192V58.08H247.206V51.616H247.934V52.424ZM250.91 53.792C250.91 53.4613 250.843 53.1733 250.71 52.928C250.577 52.6827 250.395 52.496 250.166 52.368C249.942 52.24 249.694 52.176 249.422 52.176C249.155 52.176 248.907 52.2427 248.678 52.376C248.454 52.504 248.273 52.6933 248.134 52.944C248.001 53.1893 247.934 53.4747 247.934 53.8C247.934 54.1307 248.001 54.4213 248.134 54.672C248.273 54.9173 248.454 55.1067 248.678 55.24C248.907 55.368 249.155 55.432 249.422 55.432C249.694 55.432 249.942 55.368 250.166 55.24C250.395 55.1067 250.577 54.9173 250.71 54.672C250.843 54.4213 250.91 54.128 250.91 53.792ZM252.34 53.792C252.34 53.344 252.431 52.952 252.612 52.616C252.793 52.2747 253.041 52.0107 253.356 51.824C253.676 51.6373 254.033 51.544 254.428 51.544C254.769 51.544 255.087 51.624 255.38 51.784C255.673 51.9387 255.897 52.144 256.052 52.4V50.08H256.788V56H256.052V55.176C255.908 55.4373 255.695 55.6533 255.412 55.824C255.129 55.9893 254.799 56.072 254.42 56.072C254.031 56.072 253.676 55.976 253.356 55.784C253.041 55.592 252.793 55.3227 252.612 54.976C252.431 54.6293 252.34 54.2347 252.34 53.792ZM256.052 53.8C256.052 53.4693 255.985 53.1813 255.852 52.936C255.719 52.6907 255.537 52.504 255.308 52.376C255.084 52.2427 254.836 52.176 254.564 52.176C254.292 52.176 254.044 52.24 253.82 52.368C253.596 52.496 253.417 52.6827 253.284 52.928C253.151 53.1733 253.084 53.4613 253.084 53.792C253.084 54.128 253.151 54.4213 253.284 54.672C253.417 54.9173 253.596 55.1067 253.82 55.24C254.044 55.368 254.292 55.432 254.564 55.432C254.836 55.432 255.084 55.368 255.308 55.24C255.537 55.1067 255.719 54.9173 255.852 54.672C255.985 54.4213 256.052 54.1307 256.052 53.8ZM258.906 52.216V54.8C258.906 55.0133 258.952 55.1653 259.042 55.256C259.133 55.3413 259.29 55.384 259.514 55.384H260.05V56H259.394C258.989 56 258.685 55.9067 258.482 55.72C258.28 55.5333 258.178 55.2267 258.178 54.8V52.216H257.61V51.616H258.178V50.512H258.906V51.616H260.05V52.216H258.906ZM260.66 53.792C260.66 53.344 260.751 52.952 260.932 52.616C261.114 52.2747 261.362 52.0107 261.676 51.824C261.996 51.6373 262.351 51.544 262.74 51.544C263.124 51.544 263.458 51.6267 263.74 51.792C264.023 51.9573 264.234 52.1653 264.372 52.416V51.616H265.108V56H264.372V55.184C264.228 55.44 264.012 55.6533 263.724 55.824C263.442 55.9893 263.111 56.072 262.732 56.072C262.343 56.072 261.991 55.976 261.676 55.784C261.362 55.592 261.114 55.3227 260.932 54.976C260.751 54.6293 260.66 54.2347 260.66 53.792ZM264.372 53.8C264.372 53.4693 264.306 53.1813 264.172 52.936C264.039 52.6907 263.858 52.504 263.628 52.376C263.404 52.2427 263.156 52.176 262.884 52.176C262.612 52.176 262.364 52.24 262.14 52.368C261.916 52.496 261.738 52.6827 261.604 52.928C261.471 53.1733 261.404 53.4613 261.404 53.792C261.404 54.128 261.471 54.4213 261.604 54.672C261.738 54.9173 261.916 55.1067 262.14 55.24C262.364 55.368 262.612 55.432 262.884 55.432C263.156 55.432 263.404 55.368 263.628 55.24C263.858 55.1067 264.039 54.9173 264.172 54.672C264.306 54.4213 264.372 54.1307 264.372 53.8ZM270.339 53.64C270.339 53.7787 270.331 53.9253 270.315 54.08H266.811C266.837 54.512 266.984 54.8507 267.251 55.096C267.523 55.336 267.851 55.456 268.235 55.456C268.549 55.456 268.811 55.384 269.019 55.24C269.232 55.0907 269.381 54.8933 269.467 54.648H270.251C270.133 55.0693 269.899 55.4133 269.547 55.68C269.195 55.9413 268.757 56.072 268.235 56.072C267.819 56.072 267.445 55.9787 267.115 55.792C266.789 55.6053 266.533 55.3413 266.347 55C266.16 54.6533 266.067 54.2533 266.067 53.8C266.067 53.3467 266.157 52.9493 266.339 52.608C266.52 52.2667 266.773 52.0053 267.099 51.824C267.429 51.6373 267.808 51.544 268.235 51.544C268.651 51.544 269.019 51.6347 269.339 51.816C269.659 51.9973 269.904 52.248 270.075 52.568C270.251 52.8827 270.339 53.24 270.339 53.64ZM269.587 53.488C269.587 53.2107 269.525 52.9733 269.403 52.776C269.28 52.5733 269.112 52.4213 268.899 52.32C268.691 52.2133 268.459 52.16 268.203 52.16C267.835 52.16 267.52 52.2773 267.259 52.512C267.003 52.7467 266.856 53.072 266.819 53.488H269.587ZM272.852 56.072C272.516 56.072 272.214 56.016 271.948 55.904C271.681 55.7867 271.47 55.6267 271.316 55.424C271.161 55.216 271.076 54.9787 271.06 54.712H271.812C271.833 54.9307 271.934 55.1093 272.116 55.248C272.302 55.3867 272.545 55.456 272.844 55.456C273.121 55.456 273.34 55.3947 273.5 55.272C273.66 55.1493 273.74 54.9947 273.74 54.808C273.74 54.616 273.654 54.4747 273.484 54.384C273.313 54.288 273.049 54.1947 272.692 54.104C272.366 54.0187 272.1 53.9333 271.892 53.848C271.689 53.7573 271.513 53.6267 271.364 53.456C271.22 53.28 271.148 53.0507 271.148 52.768C271.148 52.544 271.214 52.3387 271.348 52.152C271.481 51.9653 271.67 51.8187 271.916 51.712C272.161 51.6 272.441 51.544 272.756 51.544C273.241 51.544 273.633 51.6667 273.932 51.912C274.23 52.1573 274.39 52.4933 274.412 52.92H273.684C273.668 52.6907 273.574 52.5067 273.404 52.368C273.238 52.2293 273.014 52.16 272.732 52.16C272.47 52.16 272.262 52.216 272.108 52.328C271.953 52.44 271.876 52.5867 271.876 52.768C271.876 52.912 271.921 53.032 272.012 53.128C272.108 53.2187 272.225 53.2933 272.364 53.352C272.508 53.4053 272.705 53.4667 272.956 53.536C273.27 53.6213 273.526 53.7067 273.724 53.792C273.921 53.872 274.089 53.9947 274.228 54.16C274.372 54.3253 274.446 54.5413 274.452 54.808C274.452 55.048 274.385 55.264 274.252 55.456C274.118 55.648 273.929 55.8 273.684 55.912C273.444 56.0187 273.166 56.072 272.852 56.072Z" fill="black"/>
<path d="M269.072 43.8678L274.838 43.6149L271.709 38.7454L269.072 43.8678ZM323.851 46.0997L321.426 40.8463L318.102 45.5488L323.851 46.0997ZM273.108 41.8805C273.234 41.8067 273.36 41.7334 273.486 41.6609L272.982 40.7938C272.854 40.8677 272.726 40.9422 272.598 41.0174L273.108 41.8805ZM277.815 39.423C280.89 38.0167 283.969 36.9986 287.048 36.3632L286.841 35.3837C283.684 36.0351 280.534 37.0777 277.395 38.513L277.815 39.423ZM291.866 35.6808C295.1 35.4312 298.337 35.6002 301.575 36.1844L301.748 35.2001C298.427 34.6011 295.104 34.4273 291.784 34.6836L291.866 35.6808ZM306.318 37.3363C309.318 38.2521 312.319 39.5235 315.32 41.149L315.793 40.2701C312.738 38.6154 309.674 37.3169 306.605 36.3798L306.318 37.3363ZM319.531 43.663C319.654 43.7429 319.776 43.8234 319.899 43.9044L320.447 43.0713C320.323 42.989 320.199 42.9073 320.074 42.8262L319.531 43.663Z" fill="#4E9525"/>
<rect width="2.83902" height="2.69556" transform="matrix(0.99977 0.0214552 -0.0176669 0.999844 269.048 42.3018)" fill="white"/>
<g clip-path="url(#clip2_208_397)">
<path d="M246.502 18.6562L237.971 18.6497C237.033 18.6497 236.265 19.2343 236.265 19.9489V31.6421C236.265 32.3567 237.033 32.9413 237.971 32.9413H246.502C247.44 32.9413 248.208 32.3567 248.208 31.6421V19.9489C248.208 19.2343 247.44 18.6562 246.502 18.6562ZM246.502 31.6421H237.971V30.9925H246.502V31.6421ZM246.502 29.6932H237.971V21.8978H246.502V29.6932ZM246.502 20.5985H237.971V19.9489H246.502V20.5985ZM245.649 24.5287L244.446 23.6128L241.426 25.9124L240.223 24.9965L239.021 25.9124L241.426 27.7444L245.649 24.5287Z" fill="#4E9525"/>
</g>
<ellipse cx="143.1" cy="38" rx="39.1004" ry="38" fill="white"/>
<path d="M123.482 13.5506C123.482 17.7207 120.24 21.1013 116.241 21.1013C112.242 21.1013 109 17.7207 109 13.5506C109 9.38053 112.242 6 116.241 6C120.24 6 123.482 9.38053 123.482 13.5506Z" fill="#4E9525"/>
<path d="M112.876 16.27C113.723 15.59 114.386 15.0333 114.866 14.6C115.346 14.16 115.75 13.7033 116.076 13.23C116.41 12.75 116.576 12.28 116.576 11.82C116.576 11.3867 116.47 11.0467 116.256 10.8C116.05 10.5467 115.713 10.42 115.246 10.42C114.793 10.42 114.44 10.5633 114.186 10.85C113.94 11.13 113.806 11.5067 113.786 11.98H112.906C112.933 11.2333 113.16 10.6567 113.586 10.25C114.013 9.84333 114.563 9.64 115.236 9.64C115.923 9.64 116.466 9.83 116.866 10.21C117.273 10.59 117.476 11.1133 117.476 11.78C117.476 12.3333 117.31 12.8733 116.976 13.4C116.65 13.92 116.276 14.38 115.856 14.78C115.436 15.1733 114.9 15.6333 114.246 16.16H117.686V16.92H112.876V16.27Z" fill="white"/>
<path d="M113.633 48.8C113.633 48.3467 113.724 47.952 113.905 47.616C114.086 47.2747 114.337 47.0107 114.657 46.824C114.982 46.6373 115.353 46.544 115.769 46.544C116.308 46.544 116.75 46.6747 117.097 46.936C117.449 47.1973 117.681 47.56 117.793 48.024H117.009C116.934 47.7573 116.788 47.5467 116.569 47.392C116.356 47.2373 116.089 47.16 115.769 47.16C115.353 47.16 115.017 47.304 114.761 47.592C114.505 47.8747 114.377 48.2773 114.377 48.8C114.377 49.328 114.505 49.736 114.761 50.024C115.017 50.312 115.353 50.456 115.769 50.456C116.089 50.456 116.356 50.3813 116.569 50.232C116.782 50.0827 116.929 49.8693 117.009 49.592H117.793C117.676 50.04 117.441 50.4 117.089 50.672C116.737 50.9387 116.297 51.072 115.769 51.072C115.353 51.072 114.982 50.9787 114.657 50.792C114.337 50.6053 114.086 50.3413 113.905 50C113.724 49.6587 113.633 49.2587 113.633 48.8ZM120.94 46.536C121.271 46.536 121.57 46.608 121.836 46.752C122.103 46.8907 122.311 47.1013 122.46 47.384C122.615 47.6667 122.692 48.0107 122.692 48.416V51H121.972V48.52C121.972 48.0827 121.863 47.7493 121.644 47.52C121.426 47.2853 121.127 47.168 120.748 47.168C120.364 47.168 120.058 47.288 119.828 47.528C119.604 47.768 119.492 48.1173 119.492 48.576V51H118.764V45.08H119.492V47.24C119.636 47.016 119.834 46.8427 120.084 46.72C120.34 46.5973 120.626 46.536 120.94 46.536ZM125.794 51.072C125.383 51.072 125.01 50.9787 124.674 50.792C124.343 50.6053 124.082 50.3413 123.89 50C123.703 49.6533 123.61 49.2533 123.61 48.8C123.61 48.352 123.706 47.9573 123.898 47.616C124.095 47.2693 124.362 47.0053 124.698 46.824C125.034 46.6373 125.41 46.544 125.826 46.544C126.242 46.544 126.618 46.6373 126.954 46.824C127.29 47.0053 127.554 47.2667 127.746 47.608C127.943 47.9493 128.042 48.3467 128.042 48.8C128.042 49.2533 127.94 49.6533 127.738 50C127.54 50.3413 127.271 50.6053 126.93 50.792C126.588 50.9787 126.21 51.072 125.794 51.072ZM125.794 50.432C126.055 50.432 126.3 50.3707 126.53 50.248C126.759 50.1253 126.943 49.9413 127.082 49.696C127.226 49.4507 127.298 49.152 127.298 48.8C127.298 48.448 127.228 48.1493 127.09 47.904C126.951 47.6587 126.77 47.4773 126.546 47.36C126.322 47.2373 126.079 47.176 125.818 47.176C125.551 47.176 125.306 47.2373 125.082 47.36C124.863 47.4773 124.687 47.6587 124.554 47.904C124.42 48.1493 124.354 48.448 124.354 48.8C124.354 49.1573 124.418 49.4587 124.546 49.704C124.679 49.9493 124.855 50.1333 125.074 50.256C125.292 50.3733 125.532 50.432 125.794 50.432ZM130.911 51.072C130.5 51.072 130.127 50.9787 129.791 50.792C129.46 50.6053 129.199 50.3413 129.007 50C128.82 49.6533 128.727 49.2533 128.727 48.8C128.727 48.352 128.823 47.9573 129.015 47.616C129.212 47.2693 129.479 47.0053 129.815 46.824C130.151 46.6373 130.527 46.544 130.943 46.544C131.359 46.544 131.735 46.6373 132.071 46.824C132.407 47.0053 132.671 47.2667 132.863 47.608C133.06 47.9493 133.159 48.3467 133.159 48.8C133.159 49.2533 133.057 49.6533 132.855 50C132.657 50.3413 132.388 50.6053 132.047 50.792C131.705 50.9787 131.327 51.072 130.911 51.072ZM130.911 50.432C131.172 50.432 131.417 50.3707 131.647 50.248C131.876 50.1253 132.06 49.9413 132.199 49.696C132.343 49.4507 132.415 49.152 132.415 48.8C132.415 48.448 132.345 48.1493 132.207 47.904C132.068 47.6587 131.887 47.4773 131.663 47.36C131.439 47.2373 131.196 47.176 130.935 47.176C130.668 47.176 130.423 47.2373 130.199 47.36C129.98 47.4773 129.804 47.6587 129.671 47.904C129.537 48.1493 129.471 48.448 129.471 48.8C129.471 49.1573 129.535 49.4587 129.663 49.704C129.796 49.9493 129.972 50.1333 130.191 50.256C130.409 50.3733 130.649 50.432 130.911 50.432ZM135.668 51.072C135.332 51.072 135.031 51.016 134.764 50.904C134.497 50.7867 134.287 50.6267 134.132 50.424C133.977 50.216 133.892 49.9787 133.876 49.712H134.628C134.649 49.9307 134.751 50.1093 134.932 50.248C135.119 50.3867 135.361 50.456 135.66 50.456C135.937 50.456 136.156 50.3947 136.316 50.272C136.476 50.1493 136.556 49.9947 136.556 49.808C136.556 49.616 136.471 49.4747 136.3 49.384C136.129 49.288 135.865 49.1947 135.508 49.104C135.183 49.0187 134.916 48.9333 134.708 48.848C134.505 48.7573 134.329 48.6267 134.18 48.456C134.036 48.28 133.964 48.0507 133.964 47.768C133.964 47.544 134.031 47.3387 134.164 47.152C134.297 46.9653 134.487 46.8187 134.732 46.712C134.977 46.6 135.257 46.544 135.572 46.544C136.057 46.544 136.449 46.6667 136.748 46.912C137.047 47.1573 137.207 47.4933 137.228 47.92H136.5C136.484 47.6907 136.391 47.5067 136.22 47.368C136.055 47.2293 135.831 47.16 135.548 47.16C135.287 47.16 135.079 47.216 134.924 47.328C134.769 47.44 134.692 47.5867 134.692 47.768C134.692 47.912 134.737 48.032 134.828 48.128C134.924 48.2187 135.041 48.2933 135.18 48.352C135.324 48.4053 135.521 48.4667 135.772 48.536C136.087 48.6213 136.343 48.7067 136.54 48.792C136.737 48.872 136.905 48.9947 137.044 49.16C137.188 49.3253 137.263 49.5413 137.268 49.808C137.268 50.048 137.201 50.264 137.068 50.456C136.935 50.648 136.745 50.8 136.5 50.912C136.26 51.0187 135.983 51.072 135.668 51.072ZM142.296 48.64C142.296 48.7787 142.288 48.9253 142.272 49.08H138.768C138.794 49.512 138.941 49.8507 139.208 50.096C139.48 50.336 139.808 50.456 140.192 50.456C140.506 50.456 140.768 50.384 140.976 50.24C141.189 50.0907 141.338 49.8933 141.424 49.648H142.208C142.09 50.0693 141.856 50.4133 141.504 50.68C141.152 50.9413 140.714 51.072 140.192 51.072C139.776 51.072 139.402 50.9787 139.072 50.792C138.746 50.6053 138.49 50.3413 138.304 50C138.117 49.6533 138.024 49.2533 138.024 48.8C138.024 48.3467 138.114 47.9493 138.296 47.608C138.477 47.2667 138.73 47.0053 139.056 46.824C139.386 46.6373 139.765 46.544 140.192 46.544C140.608 46.544 140.976 46.6347 141.296 46.816C141.616 46.9973 141.861 47.248 142.032 47.568C142.208 47.8827 142.296 48.24 142.296 48.64ZM141.544 48.488C141.544 48.2107 141.482 47.9733 141.36 47.776C141.237 47.5733 141.069 47.4213 140.856 47.32C140.648 47.2133 140.416 47.16 140.16 47.16C139.792 47.16 139.477 47.2773 139.216 47.512C138.96 47.7467 138.813 48.072 138.776 48.488H141.544ZM145.117 48.792C145.117 48.344 145.208 47.952 145.389 47.616C145.571 47.2747 145.819 47.0107 146.133 46.824C146.453 46.6373 146.808 46.544 147.197 46.544C147.581 46.544 147.915 46.6267 148.197 46.792C148.48 46.9573 148.691 47.1653 148.829 47.416V46.616H149.565V51H148.829V50.184C148.685 50.44 148.469 50.6533 148.181 50.824C147.899 50.9893 147.568 51.072 147.189 51.072C146.8 51.072 146.448 50.976 146.133 50.784C145.819 50.592 145.571 50.3227 145.389 49.976C145.208 49.6293 145.117 49.2347 145.117 48.792ZM148.829 48.8C148.829 48.4693 148.763 48.1813 148.629 47.936C148.496 47.6907 148.315 47.504 148.085 47.376C147.861 47.2427 147.613 47.176 147.341 47.176C147.069 47.176 146.821 47.24 146.597 47.368C146.373 47.496 146.195 47.6827 146.061 47.928C145.928 48.1733 145.861 48.4613 145.861 48.792C145.861 49.128 145.928 49.4213 146.061 49.672C146.195 49.9173 146.373 50.1067 146.597 50.24C146.821 50.368 147.069 50.432 147.341 50.432C147.613 50.432 147.861 50.368 148.085 50.24C148.315 50.1067 148.496 49.9173 148.629 49.672C148.763 49.4213 148.829 49.1307 148.829 48.8ZM154.713 47.216H153.793V51H153.065V47.216H152.497V46.616H153.065V46.304C153.065 45.8133 153.19 45.456 153.441 45.232C153.697 45.0027 154.105 44.888 154.664 44.888V45.496C154.345 45.496 154.118 45.56 153.985 45.688C153.857 45.8107 153.793 46.016 153.793 46.304V46.616H154.713V47.216ZM155.289 48.792C155.289 48.344 155.38 47.952 155.561 47.616C155.743 47.2747 155.991 47.0107 156.305 46.824C156.625 46.6373 156.98 46.544 157.369 46.544C157.753 46.544 158.087 46.6267 158.369 46.792C158.652 46.9573 158.863 47.1653 159.001 47.416V46.616H159.737V51H159.001V50.184C158.857 50.44 158.641 50.6533 158.353 50.824C158.071 50.9893 157.74 51.072 157.361 51.072C156.972 51.072 156.62 50.976 156.305 50.784C155.991 50.592 155.743 50.3227 155.561 49.976C155.38 49.6293 155.289 49.2347 155.289 48.792ZM159.001 48.8C159.001 48.4693 158.935 48.1813 158.801 47.936C158.668 47.6907 158.487 47.504 158.257 47.376C158.033 47.2427 157.785 47.176 157.513 47.176C157.241 47.176 156.993 47.24 156.769 47.368C156.545 47.496 156.367 47.6827 156.233 47.928C156.1 48.1733 156.033 48.4613 156.033 48.792C156.033 49.128 156.1 49.4213 156.233 49.672C156.367 49.9173 156.545 50.1067 156.769 50.24C156.993 50.368 157.241 50.432 157.513 50.432C157.785 50.432 158.033 50.368 158.257 50.24C158.487 50.1067 158.668 49.9173 158.801 49.672C158.935 49.4213 159.001 49.1307 159.001 48.8ZM161.696 47.328C161.824 47.0773 162.005 46.8827 162.24 46.744C162.48 46.6053 162.77 46.536 163.112 46.536V47.288H162.92C162.104 47.288 161.696 47.7307 161.696 48.616V51H160.968V46.616H161.696V47.328ZM169.224 46.536C169.565 46.536 169.869 46.608 170.136 46.752C170.403 46.8907 170.613 47.1013 170.768 47.384C170.923 47.6667 171 48.0107 171 48.416V51H170.28V48.52C170.28 48.0827 170.171 47.7493 169.952 47.52C169.739 47.2853 169.448 47.168 169.08 47.168C168.701 47.168 168.4 47.2907 168.176 47.536C167.952 47.776 167.84 48.1253 167.84 48.584V51H167.12V48.52C167.12 48.0827 167.011 47.7493 166.792 47.52C166.579 47.2853 166.288 47.168 165.92 47.168C165.541 47.168 165.24 47.2907 165.016 47.536C164.792 47.776 164.68 48.1253 164.68 48.584V51H163.952V46.616H164.68V47.248C164.824 47.0187 165.016 46.8427 165.256 46.72C165.501 46.5973 165.771 46.536 166.064 46.536C166.432 46.536 166.757 46.6187 167.04 46.784C167.323 46.9493 167.533 47.192 167.672 47.512C167.795 47.2027 167.997 46.9627 168.28 46.792C168.563 46.6213 168.877 46.536 169.224 46.536ZM128.109 56.216V58.8C128.109 59.0133 128.155 59.1653 128.245 59.256C128.336 59.3413 128.493 59.384 128.717 59.384H129.253V60H128.597C128.192 60 127.888 59.9067 127.685 59.72C127.483 59.5333 127.381 59.2267 127.381 58.8V56.216H126.813V55.616H127.381V54.512H128.109V55.616H129.253V56.216H128.109ZM132.048 60.072C131.637 60.072 131.264 59.9787 130.928 59.792C130.597 59.6053 130.336 59.3413 130.144 59C129.957 58.6533 129.864 58.2533 129.864 57.8C129.864 57.352 129.96 56.9573 130.152 56.616C130.349 56.2693 130.616 56.0053 130.952 55.824C131.288 55.6373 131.664 55.544 132.08 55.544C132.496 55.544 132.872 55.6373 133.208 55.824C133.544 56.0053 133.808 56.2667 134 56.608C134.197 56.9493 134.296 57.3467 134.296 57.8C134.296 58.2533 134.194 58.6533 133.992 59C133.794 59.3413 133.525 59.6053 133.184 59.792C132.842 59.9787 132.464 60.072 132.048 60.072ZM132.048 59.432C132.309 59.432 132.554 59.3707 132.784 59.248C133.013 59.1253 133.197 58.9413 133.336 58.696C133.48 58.4507 133.552 58.152 133.552 57.8C133.552 57.448 133.482 57.1493 133.344 56.904C133.205 56.6587 133.024 56.4773 132.8 56.36C132.576 56.2373 132.333 56.176 132.072 56.176C131.805 56.176 131.56 56.2373 131.336 56.36C131.117 56.4773 130.941 56.6587 130.808 56.904C130.674 57.1493 130.608 57.448 130.608 57.8C130.608 58.1573 130.672 58.4587 130.8 58.704C130.933 58.9493 131.109 59.1333 131.328 59.256C131.546 59.3733 131.786 59.432 132.048 59.432ZM137.762 54.904C137.623 54.904 137.506 54.856 137.41 54.76C137.314 54.664 137.266 54.5467 137.266 54.408C137.266 54.2693 137.314 54.152 137.41 54.056C137.506 53.96 137.623 53.912 137.762 53.912C137.895 53.912 138.007 53.96 138.098 54.056C138.194 54.152 138.242 54.2693 138.242 54.408C138.242 54.5467 138.194 54.664 138.098 54.76C138.007 54.856 137.895 54.904 137.762 54.904ZM138.114 55.616V60H137.386V55.616H138.114ZM141.49 55.536C142.024 55.536 142.456 55.6987 142.786 56.024C143.117 56.344 143.282 56.808 143.282 57.416V60H142.562V57.52C142.562 57.0827 142.453 56.7493 142.234 56.52C142.016 56.2853 141.717 56.168 141.338 56.168C140.954 56.168 140.648 56.288 140.418 56.528C140.194 56.768 140.082 57.1173 140.082 57.576V60H139.354V55.616H140.082V56.24C140.226 56.016 140.421 55.8427 140.666 55.72C140.917 55.5973 141.192 55.536 141.49 55.536ZM146.103 59.328L147.463 55.616H148.239L146.519 60H145.671L143.951 55.616H144.735L146.103 59.328ZM152.956 57.64C152.956 57.7787 152.948 57.9253 152.932 58.08H149.428C149.455 58.512 149.601 58.8507 149.868 59.096C150.14 59.336 150.468 59.456 150.852 59.456C151.167 59.456 151.428 59.384 151.636 59.24C151.849 59.0907 151.999 58.8933 152.084 58.648H152.868C152.751 59.0693 152.516 59.4133 152.164 59.68C151.812 59.9413 151.375 60.072 150.852 60.072C150.436 60.072 150.063 59.9787 149.732 59.792C149.407 59.6053 149.151 59.3413 148.964 59C148.777 58.6533 148.684 58.2533 148.684 57.8C148.684 57.3467 148.775 56.9493 148.956 56.608C149.137 56.2667 149.391 56.0053 149.716 55.824C150.047 55.6373 150.425 55.544 150.852 55.544C151.268 55.544 151.636 55.6347 151.956 55.816C152.276 55.9973 152.521 56.248 152.692 56.568C152.868 56.8827 152.956 57.24 152.956 57.64ZM152.204 57.488C152.204 57.2107 152.143 56.9733 152.02 56.776C151.897 56.5733 151.729 56.4213 151.516 56.32C151.308 56.2133 151.076 56.16 150.82 56.16C150.452 56.16 150.137 56.2773 149.876 56.512C149.62 56.7467 149.473 57.072 149.436 57.488H152.204ZM155.469 60.072C155.133 60.072 154.831 60.016 154.565 59.904C154.298 59.7867 154.087 59.6267 153.933 59.424C153.778 59.216 153.693 58.9787 153.677 58.712H154.429C154.45 58.9307 154.551 59.1093 154.733 59.248C154.919 59.3867 155.162 59.456 155.461 59.456C155.738 59.456 155.957 59.3947 156.117 59.272C156.277 59.1493 156.357 58.9947 156.357 58.808C156.357 58.616 156.271 58.4747 156.101 58.384C155.93 58.288 155.666 58.1947 155.309 58.104C154.983 58.0187 154.717 57.9333 154.509 57.848C154.306 57.7573 154.13 57.6267 153.981 57.456C153.837 57.28 153.765 57.0507 153.765 56.768C153.765 56.544 153.831 56.3387 153.965 56.152C154.098 55.9653 154.287 55.8187 154.533 55.712C154.778 55.6 155.058 55.544 155.373 55.544C155.858 55.544 156.25 55.6667 156.549 55.912C156.847 56.1573 157.007 56.4933 157.029 56.92H156.301C156.285 56.6907 156.191 56.5067 156.021 56.368C155.855 56.2293 155.631 56.16 155.349 56.16C155.087 56.16 154.879 56.216 154.725 56.328C154.57 56.44 154.493 56.5867 154.493 56.768C154.493 56.912 154.538 57.032 154.629 57.128C154.725 57.2187 154.842 57.2933 154.981 57.352C155.125 57.4053 155.322 57.4667 155.573 57.536C155.887 57.6213 156.143 57.7067 156.341 57.792C156.538 57.872 156.706 57.9947 156.845 58.16C156.989 58.3253 157.063 58.5413 157.069 58.808C157.069 59.048 157.002 59.264 156.869 59.456C156.735 59.648 156.546 59.8 156.301 59.912C156.061 60.0187 155.783 60.072 155.469 60.072ZM158.984 56.216V58.8C158.984 59.0133 159.03 59.1653 159.12 59.256C159.211 59.3413 159.368 59.384 159.592 59.384H160.128V60H159.472C159.067 60 158.763 59.9067 158.56 59.72C158.358 59.5333 158.256 59.2267 158.256 58.8V56.216H157.688V55.616H158.256V54.512H158.984V55.616H160.128V56.216H158.984Z" fill="black"/>
<g clip-path="url(#clip3_208_397)">
<path d="M140.061 32.0573C139.496 32.0573 138.931 31.9635 138.407 31.7763L135.905 30.8814C135 30.5575 134.042 30.3523 133.06 30.2715L132.238 30.2039C132.103 30.1929 132 30.0992 132 29.9874V27.8669C132 27.8199 132.019 27.7741 132.053 27.7365C132.114 27.6689 133.587 26.086 135.837 26.4979C137.102 26.7292 138.121 27.162 138.753 27.4845C139.212 27.7185 139.749 27.8422 140.308 27.8422H142.81C143.241 27.8422 143.621 28.0299 143.833 28.3115L145.988 26.2689C146.406 25.8099 147.089 25.5288 147.805 25.5288H147.966C148.055 25.5288 148.138 25.5659 148.187 25.6274C148.236 25.6889 148.244 25.7667 148.208 25.8339L146.259 29.4781C145.833 30.2751 144.965 30.8772 143.938 31.0885L143.595 31.1589L141.6 31.8154C141.109 31.9769 140.585 32.0573 140.061 32.0573ZM132.529 29.7905L133.113 29.8385C134.15 29.9238 135.16 30.1406 136.116 30.4824L138.618 31.3773C139.498 31.692 140.513 31.7043 141.404 31.4112L143.415 30.7493C143.426 30.7457 143.437 30.7427 143.449 30.7404L143.809 30.6662C144.679 30.4873 145.414 29.9776 145.774 29.3028L147.552 25.979C147.097 26.0341 146.678 26.2359 146.399 26.5419L144.012 28.8055C144.012 28.814 144.012 28.8223 144.012 28.8309C144.012 29.376 143.473 29.8196 142.81 29.8196H139.319C138.865 29.8196 138.417 29.8795 137.986 29.9975L137.889 29.7946L137.807 29.5878L137.82 29.5842C138.303 29.4517 138.808 29.3844 139.319 29.3844H142.81C143.181 29.3844 143.483 29.136 143.483 28.8308C143.483 28.5255 143.181 28.2771 142.81 28.2771H140.308C139.651 28.2771 139.017 28.1309 138.474 27.8541C137.877 27.5495 136.915 27.1408 135.723 26.9225C134.019 26.6117 132.793 27.6873 132.529 27.9439V29.7905H132.529Z" fill="#4E9525"/>
<path d="M142.417 25.4795C142.01 25.4795 141.554 25.3762 141.052 25.1697C140.991 25.1445 140.944 25.101 140.921 25.0483C140.9 25.0011 140.428 23.8828 141.179 23.0558C141.725 22.4546 142.751 22.1838 144.231 22.2517C144.366 22.2578 144.474 22.3468 144.48 22.4581C144.486 22.5445 144.595 24.5838 143.331 25.2628C143.062 25.4073 142.756 25.4795 142.417 25.4795ZM141.389 24.8205C142.084 25.0885 142.639 25.1148 143.042 24.8985C143.791 24.4958 143.953 23.3003 143.957 22.6781C142.798 22.6548 142.008 22.8698 141.603 23.3161C141.12 23.8476 141.308 24.5786 141.389 24.8205Z" fill="#4E9525"/>
<path d="M138.371 22.6288C137.902 22.6288 137.361 22.5461 136.889 22.2616C136.088 21.7788 135.72 20.8597 135.795 19.5298C135.801 19.4187 135.909 19.3293 136.044 19.3227C136.158 19.3173 138.866 19.1984 139.777 20.3236C140.202 20.8474 140.167 21.5333 139.674 22.3628C139.644 22.4133 139.592 22.4522 139.528 22.4715C139.492 22.4823 138.996 22.6288 138.371 22.6288ZM139.437 22.2673H139.439H139.437ZM136.316 19.7508C136.293 20.816 136.591 21.542 137.202 21.9105C137.934 22.3516 138.933 22.1641 139.247 22.0888C139.606 21.4472 139.637 20.9349 139.337 20.5649C138.78 19.8772 137.147 19.7427 136.316 19.7508Z" fill="#4E9525"/>
<path d="M140.437 28.2006C140.429 28.2006 140.421 28.2002 140.412 28.1996C140.271 28.1887 140.166 28.0884 140.173 27.972C140.188 27.7161 140.215 27.4733 140.251 27.2432C140.361 25.7035 140.305 22.1178 137.549 21.1259C137.415 21.0777 137.354 20.9494 137.412 20.8393C137.471 20.7293 137.627 20.6792 137.761 20.7272C139.385 21.3117 140.406 22.7669 140.715 24.9355C140.742 25.1298 140.763 25.3214 140.779 25.508C141.504 23.9993 142.615 23.4662 142.681 23.4357C142.808 23.3766 142.969 23.4142 143.041 23.5186C143.112 23.6232 143.067 23.7555 142.941 23.8146C142.913 23.828 141.21 24.6686 140.783 27.2608C140.75 27.7043 140.703 27.987 140.699 28.0129C140.681 28.1214 140.568 28.2006 140.437 28.2006Z" fill="#4E9525"/>
</g>
<path d="M170.997 43.547L176.736 42.9289L173.304 38.2677L170.997 43.547ZM225.808 42.2997L223.054 37.2107L220.035 42.1145L225.808 42.2997ZM174.899 41.3077C175.02 41.226 175.141 41.145 175.262 41.0646L174.705 40.2312C174.582 40.313 174.459 40.3955 174.336 40.4786L174.899 41.3077ZM179.44 38.5566C182.42 36.958 185.428 35.7467 188.461 34.9173L188.193 33.9528C185.083 34.8032 182.005 36.0435 178.963 37.6751L179.44 38.5566ZM193.226 33.9306C196.438 33.4764 199.679 33.4397 202.948 33.8173L203.057 32.8241C199.705 32.4369 196.378 32.4743 193.081 32.9406L193.226 33.9306ZM207.754 34.666C210.806 35.3898 213.882 36.4682 216.98 37.9L217.395 36.993C214.242 35.5354 211.102 34.4338 207.98 33.6933L207.754 34.666ZM221.342 40.1419C221.469 40.2139 221.596 40.2864 221.724 40.3595L222.218 39.4933C222.089 39.419 221.96 39.3454 221.831 39.2723L221.342 40.1419Z" fill="#4E9525"/>
<rect width="2.83902" height="2.69556" transform="matrix(0.999117 -0.0420058 0.0457912 0.998951 170.874 41.9856)" fill="white"/>
<ellipse cx="37.8868" cy="41" rx="36.8868" ry="36" fill="white"/>
<path d="M22.6618 12.1532C22.6618 16.1039 19.6035 19.3065 15.8309 19.3065C12.0583 19.3065 9.00002 16.1039 9.00002 12.1532C9.00002 8.20261 12.0583 5 15.8309 5C19.6035 5 22.6618 8.20261 22.6618 12.1532Z" fill="#4E9525"/>
<path d="M13.6784 11.9804V9.90045H17.0684V17.2104H14.7384V11.9804H13.6784Z" fill="white"/>
<path d="M17.1995 48.208C17.1995 47.664 17.3222 47.176 17.5675 46.744C17.8129 46.3067 18.1462 45.9653 18.5675 45.72C18.9942 45.4747 19.4662 45.352 19.9835 45.352C20.5915 45.352 21.1222 45.4987 21.5755 45.792C22.0289 46.0853 22.3595 46.5013 22.5675 47.04H21.6955C21.5409 46.704 21.3169 46.4453 21.0235 46.264C20.7355 46.0827 20.3889 45.992 19.9835 45.992C19.5942 45.992 19.2449 46.0827 18.9355 46.264C18.6262 46.4453 18.3835 46.704 18.2075 47.04C18.0315 47.3707 17.9435 47.76 17.9435 48.208C17.9435 48.6507 18.0315 49.04 18.2075 49.376C18.3835 49.7067 18.6262 49.9627 18.9355 50.144C19.2449 50.3253 19.5942 50.416 19.9835 50.416C20.3889 50.416 20.7355 50.328 21.0235 50.152C21.3169 49.9707 21.5409 49.712 21.6955 49.376H22.5675C22.3595 49.9093 22.0289 50.3227 21.5755 50.616C21.1222 50.904 20.5915 51.048 19.9835 51.048C19.4662 51.048 18.9942 50.928 18.5675 50.688C18.1462 50.4427 17.8129 50.104 17.5675 49.672C17.3222 49.24 17.1995 48.752 17.1995 48.208ZM24.3792 47.328C24.5072 47.0773 24.6886 46.8827 24.9232 46.744C25.1632 46.6053 25.4539 46.536 25.7952 46.536V47.288H25.6032C24.7872 47.288 24.3792 47.7307 24.3792 48.616V51H23.6512V46.616H24.3792V47.328ZM30.6356 48.64C30.6356 48.7787 30.6276 48.9253 30.6116 49.08H27.1076C27.1343 49.512 27.2809 49.8507 27.5476 50.096C27.8196 50.336 28.1476 50.456 28.5316 50.456C28.8463 50.456 29.1076 50.384 29.3156 50.24C29.5289 50.0907 29.6783 49.8933 29.7636 49.648H30.5476C30.4303 50.0693 30.1956 50.4133 29.8436 50.68C29.4916 50.9413 29.0543 51.072 28.5316 51.072C28.1156 51.072 27.7423 50.9787 27.4116 50.792C27.0863 50.6053 26.8303 50.3413 26.6436 50C26.4569 49.6533 26.3636 49.2533 26.3636 48.8C26.3636 48.3467 26.4543 47.9493 26.6356 47.608C26.8169 47.2667 27.0703 47.0053 27.3956 46.824C27.7263 46.6373 28.1049 46.544 28.5316 46.544C28.9476 46.544 29.3156 46.6347 29.6356 46.816C29.9556 46.9973 30.2009 47.248 30.3716 47.568C30.5476 47.8827 30.6356 48.24 30.6356 48.64ZM29.8836 48.488C29.8836 48.2107 29.8223 47.9733 29.6996 47.776C29.5769 47.5733 29.4089 47.4213 29.1956 47.32C28.9876 47.2133 28.7556 47.16 28.4996 47.16C28.1316 47.16 27.8169 47.2773 27.5556 47.512C27.2996 47.7467 27.1529 48.072 27.1156 48.488H29.8836ZM31.3245 48.792C31.3245 48.344 31.4152 47.952 31.5965 47.616C31.7779 47.2747 32.0259 47.0107 32.3405 46.824C32.6605 46.6373 33.0152 46.544 33.4045 46.544C33.7885 46.544 34.1219 46.6267 34.4045 46.792C34.6872 46.9573 34.8979 47.1653 35.0365 47.416V46.616H35.7725V51H35.0365V50.184C34.8925 50.44 34.6765 50.6533 34.3885 50.824C34.1059 50.9893 33.7752 51.072 33.3965 51.072C33.0072 51.072 32.6552 50.976 32.3405 50.784C32.0259 50.592 31.7779 50.3227 31.5965 49.976C31.4152 49.6293 31.3245 49.2347 31.3245 48.792ZM35.0365 48.8C35.0365 48.4693 34.9699 48.1813 34.8365 47.936C34.7032 47.6907 34.5219 47.504 34.2925 47.376C34.0685 47.2427 33.8205 47.176 33.5485 47.176C33.2765 47.176 33.0285 47.24 32.8045 47.368C32.5805 47.496 32.4019 47.6827 32.2685 47.928C32.1352 48.1733 32.0685 48.4613 32.0685 48.792C32.0685 49.128 32.1352 49.4213 32.2685 49.672C32.4019 49.9173 32.5805 50.1067 32.8045 50.24C33.0285 50.368 33.2765 50.432 33.5485 50.432C33.8205 50.432 34.0685 50.368 34.2925 50.24C34.5219 50.1067 34.7032 49.9173 34.8365 49.672C34.9699 49.4213 35.0365 49.1307 35.0365 48.8ZM37.8908 47.216V49.8C37.8908 50.0133 37.9361 50.1653 38.0268 50.256C38.1174 50.3413 38.2748 50.384 38.4988 50.384H39.0348V51H38.3788C37.9734 51 37.6694 50.9067 37.4668 50.72C37.2641 50.5333 37.1628 50.2267 37.1628 49.8V47.216H36.5948V46.616H37.1628V45.512H37.8908V46.616H39.0348V47.216H37.8908ZM43.9168 48.64C43.9168 48.7787 43.9088 48.9253 43.8928 49.08H40.3888C40.4155 49.512 40.5622 49.8507 40.8288 50.096C41.1008 50.336 41.4288 50.456 41.8128 50.456C42.1275 50.456 42.3888 50.384 42.5968 50.24C42.8102 50.0907 42.9595 49.8933 43.0448 49.648H43.8288C43.7115 50.0693 43.4768 50.4133 43.1248 50.68C42.7728 50.9413 42.3355 51.072 41.8128 51.072C41.3968 51.072 41.0235 50.9787 40.6928 50.792C40.3675 50.6053 40.1115 50.3413 39.9248 50C39.7382 49.6533 39.6448 49.2533 39.6448 48.8C39.6448 48.3467 39.7355 47.9493 39.9168 47.608C40.0982 47.2667 40.3515 47.0053 40.6768 46.824C41.0075 46.6373 41.3862 46.544 41.8128 46.544C42.2288 46.544 42.5968 46.6347 42.9168 46.816C43.2368 46.9973 43.4822 47.248 43.6528 47.568C43.8288 47.8827 43.9168 48.24 43.9168 48.64ZM43.1648 48.488C43.1648 48.2107 43.1035 47.9733 42.9808 47.776C42.8582 47.5733 42.6902 47.4213 42.4768 47.32C42.2688 47.2133 42.0368 47.16 41.7808 47.16C41.4128 47.16 41.0982 47.2773 40.8368 47.512C40.5808 47.7467 40.4342 48.072 40.3968 48.488H43.1648ZM46.7386 48.792C46.7386 48.344 46.8293 47.952 47.0106 47.616C47.1919 47.2747 47.4399 47.0107 47.7546 46.824C48.0746 46.6373 48.4293 46.544 48.8186 46.544C49.2026 46.544 49.5359 46.6267 49.8186 46.792C50.1013 46.9573 50.3119 47.1653 50.4506 47.416V46.616H51.1866V51H50.4506V50.184C50.3066 50.44 50.0906 50.6533 49.8026 50.824C49.5199 50.9893 49.1893 51.072 48.8106 51.072C48.4213 51.072 48.0693 50.976 47.7546 50.784C47.4399 50.592 47.1919 50.3227 47.0106 49.976C46.8293 49.6293 46.7386 49.2347 46.7386 48.792ZM50.4506 48.8C50.4506 48.4693 50.3839 48.1813 50.2506 47.936C50.1173 47.6907 49.9359 47.504 49.7066 47.376C49.4826 47.2427 49.2346 47.176 48.9626 47.176C48.6906 47.176 48.4426 47.24 48.2186 47.368C47.9946 47.496 47.8159 47.6827 47.6826 47.928C47.5493 48.1733 47.4826 48.4613 47.4826 48.792C47.4826 49.128 47.5493 49.4213 47.6826 49.672C47.8159 49.9173 47.9946 50.1067 48.2186 50.24C48.4426 50.368 48.6906 50.432 48.9626 50.432C49.2346 50.432 49.4826 50.368 49.7066 50.24C49.9359 50.1067 50.1173 49.9173 50.2506 49.672C50.3839 49.4213 50.4506 49.1307 50.4506 48.8ZM54.5528 46.536C55.0862 46.536 55.5182 46.6987 55.8488 47.024C56.1795 47.344 56.3448 47.808 56.3448 48.416V51H55.6248V48.52C55.6248 48.0827 55.5155 47.7493 55.2968 47.52C55.0782 47.2853 54.7795 47.168 54.4008 47.168C54.0168 47.168 53.7102 47.288 53.4808 47.528C53.2568 47.768 53.1448 48.1173 53.1448 48.576V51H52.4168V46.616H53.1448V47.24C53.2888 47.016 53.4835 46.8427 53.7288 46.72C53.9795 46.5973 54.2542 46.536 54.5528 46.536ZM20.5355 57.792C20.5355 57.344 20.6261 56.952 20.8075 56.616C20.9888 56.2747 21.2368 56.0107 21.5515 55.824C21.8715 55.6373 22.2261 55.544 22.6155 55.544C22.9995 55.544 23.3328 55.6267 23.6155 55.792C23.8981 55.9573 24.1088 56.1653 24.2475 56.416V55.616H24.9835V60H24.2475V59.184C24.1035 59.44 23.8875 59.6533 23.5995 59.824C23.3168 59.9893 22.9861 60.072 22.6075 60.072C22.2181 60.072 21.8661 59.976 21.5515 59.784C21.2368 59.592 20.9888 59.3227 20.8075 58.976C20.6261 58.6293 20.5355 58.2347 20.5355 57.792ZM24.2475 57.8C24.2475 57.4693 24.1808 57.1813 24.0475 56.936C23.9141 56.6907 23.7328 56.504 23.5035 56.376C23.2795 56.2427 23.0315 56.176 22.7595 56.176C22.4875 56.176 22.2395 56.24 22.0155 56.368C21.7915 56.496 21.6128 56.6827 21.4795 56.928C21.3461 57.1733 21.2795 57.4613 21.2795 57.792C21.2795 58.128 21.3461 58.4213 21.4795 58.672C21.6128 58.9173 21.7915 59.1067 22.0155 59.24C22.2395 59.368 22.4875 59.432 22.7595 59.432C23.0315 59.432 23.2795 59.368 23.5035 59.24C23.7328 59.1067 23.9141 58.9173 24.0475 58.672C24.1808 58.4213 24.2475 58.1307 24.2475 57.8ZM25.9417 57.8C25.9417 57.3467 26.0324 56.952 26.2137 56.616C26.3951 56.2747 26.6457 56.0107 26.9657 55.824C27.2911 55.6373 27.6617 55.544 28.0777 55.544C28.6164 55.544 29.0591 55.6747 29.4057 55.936C29.7577 56.1973 29.9897 56.56 30.1017 57.024H29.3177C29.2431 56.7573 29.0964 56.5467 28.8777 56.392C28.6644 56.2373 28.3977 56.16 28.0777 56.16C27.6617 56.16 27.3257 56.304 27.0697 56.592C26.8137 56.8747 26.6857 57.2773 26.6857 57.8C26.6857 58.328 26.8137 58.736 27.0697 59.024C27.3257 59.312 27.6617 59.456 28.0777 59.456C28.3977 59.456 28.6644 59.3813 28.8777 59.232C29.0911 59.0827 29.2377 58.8693 29.3177 58.592H30.1017C29.9844 59.04 29.7497 59.4 29.3977 59.672C29.0457 59.9387 28.6057 60.072 28.0777 60.072C27.6617 60.072 27.2911 59.9787 26.9657 59.792C26.6457 59.6053 26.3951 59.3413 26.2137 59C26.0324 58.6587 25.9417 58.2587 25.9417 57.8ZM30.8011 57.8C30.8011 57.3467 30.8918 56.952 31.0731 56.616C31.2544 56.2747 31.5051 56.0107 31.8251 55.824C32.1504 55.6373 32.5211 55.544 32.9371 55.544C33.4758 55.544 33.9184 55.6747 34.2651 55.936C34.6171 56.1973 34.8491 56.56 34.9611 57.024H34.1771C34.1024 56.7573 33.9558 56.5467 33.7371 56.392C33.5238 56.2373 33.2571 56.16 32.9371 56.16C32.5211 56.16 32.1851 56.304 31.9291 56.592C31.6731 56.8747 31.5451 57.2773 31.5451 57.8C31.5451 58.328 31.6731 58.736 31.9291 59.024C32.1851 59.312 32.5211 59.456 32.9371 59.456C33.2571 59.456 33.5238 59.3813 33.7371 59.232C33.9504 59.0827 34.0971 58.8693 34.1771 58.592H34.9611C34.8438 59.04 34.6091 59.4 34.2571 59.672C33.9051 59.9387 33.4651 60.072 32.9371 60.072C32.5211 60.072 32.1504 59.9787 31.8251 59.792C31.5051 59.6053 31.2544 59.3413 31.0731 59C30.8918 58.6587 30.8011 58.2587 30.8011 57.8ZM37.8445 60.072C37.4338 60.072 37.0605 59.9787 36.7245 59.792C36.3938 59.6053 36.1325 59.3413 35.9405 59C35.7538 58.6533 35.6605 58.2533 35.6605 57.8C35.6605 57.352 35.7565 56.9573 35.9485 56.616C36.1458 56.2693 36.4125 56.0053 36.7485 55.824C37.0845 55.6373 37.4605 55.544 37.8765 55.544C38.2925 55.544 38.6685 55.6373 39.0045 55.824C39.3405 56.0053 39.6045 56.2667 39.7965 56.608C39.9938 56.9493 40.0925 57.3467 40.0925 57.8C40.0925 58.2533 39.9911 58.6533 39.7885 59C39.5911 59.3413 39.3218 59.6053 38.9805 59.792C38.6391 59.9787 38.2605 60.072 37.8445 60.072ZM37.8445 59.432C38.1058 59.432 38.3511 59.3707 38.5805 59.248C38.8098 59.1253 38.9938 58.9413 39.1325 58.696C39.2765 58.4507 39.3485 58.152 39.3485 57.8C39.3485 57.448 39.2791 57.1493 39.1405 56.904C39.0018 56.6587 38.8205 56.4773 38.5965 56.36C38.3725 56.2373 38.1298 56.176 37.8685 56.176C37.6018 56.176 37.3565 56.2373 37.1325 56.36C36.9138 56.4773 36.7378 56.6587 36.6045 56.904C36.4711 57.1493 36.4045 57.448 36.4045 57.8C36.4045 58.1573 36.4685 58.4587 36.5965 58.704C36.7298 58.9493 36.9058 59.1333 37.1245 59.256C37.3431 59.3733 37.5831 59.432 37.8445 59.432ZM44.9377 55.616V60H44.2097V59.352C44.071 59.576 43.8763 59.752 43.6257 59.88C43.3803 60.0027 43.1083 60.064 42.8097 60.064C42.4683 60.064 42.1617 59.9947 41.8897 59.856C41.6177 59.712 41.4017 59.4987 41.2417 59.216C41.087 58.9333 41.0097 58.5893 41.0097 58.184V55.616H41.7297V58.088C41.7297 58.52 41.839 58.8533 42.0577 59.088C42.2763 59.3173 42.575 59.432 42.9537 59.432C43.343 59.432 43.6497 59.312 43.8737 59.072C44.0977 58.832 44.2097 58.4827 44.2097 58.024V55.616H44.9377ZM48.3028 55.536C48.8362 55.536 49.2682 55.6987 49.5988 56.024C49.9295 56.344 50.0948 56.808 50.0948 57.416V60H49.3748V57.52C49.3748 57.0827 49.2655 56.7493 49.0468 56.52C48.8282 56.2853 48.5295 56.168 48.1508 56.168C47.7668 56.168 47.4602 56.288 47.2308 56.528C47.0068 56.768 46.8948 57.1173 46.8948 57.576V60H46.1668V55.616H46.8948V56.24C47.0388 56.016 47.2335 55.8427 47.4788 55.72C47.7295 55.5973 48.0042 55.536 48.3028 55.536ZM52.172 56.216V58.8C52.172 59.0133 52.2174 59.1653 52.308 59.256C52.3987 59.3413 52.556 59.384 52.78 59.384H53.316V60H52.66C52.2547 60 51.9507 59.9067 51.748 59.72C51.5454 59.5333 51.444 59.2267 51.444 58.8V56.216H50.876V55.616H51.444V54.512H52.172V55.616H53.316V56.216H52.172Z" fill="black"/>
<path d="M38.3424 18.8909C39.2228 18.8909 39.9363 19.6701 39.9363 20.6317C39.9363 21.5933 39.2228 22.3725 38.3424 22.3725C37.462 22.3725 36.7485 21.5933 36.7485 20.6317C36.7485 19.6701 37.462 18.8909 38.3424 18.8909ZM38.3424 26.3514C40.5966 26.3514 42.9722 27.5617 42.9722 28.0922V29.0041H33.7126V28.0922C33.7126 27.5617 36.0882 26.3514 38.3424 26.3514ZM38.3424 17.3159C36.665 17.3159 35.3065 18.7997 35.3065 20.6317C35.3065 22.4637 36.665 23.9475 38.3424 23.9475C40.0198 23.9475 41.3784 22.4637 41.3784 20.6317C41.3784 18.7997 40.0198 17.3159 38.3424 17.3159ZM38.3424 24.7764C36.3159 24.7764 32.2705 25.8872 32.2705 28.0922V30.5791H44.4143V28.0922C44.4143 25.8872 40.3689 24.7764 38.3424 24.7764Z" fill="#4E9525"/>
<path d="M56.9232 36.6529L62.691 36.4552L59.605 31.5561L56.9232 36.6529ZM122.162 39.4489L119.703 34.2092L116.409 38.9311L122.162 39.4489ZM60.9792 34.7028C61.0326 34.6717 61.086 34.6406 61.1394 34.6096L60.634 33.7436C60.5798 33.775 60.5256 33.8065 60.4714 33.8381L60.9792 34.7028ZM65.2303 32.4265C68.1027 31.0262 70.9783 29.9025 73.8554 29.0525L73.5668 28.0932C70.6338 28.9596 67.7068 30.1038 64.7878 31.5269L65.2303 32.4265ZM78.3526 27.9468C81.4202 27.3441 84.4902 27.0504 87.5608 27.0629L87.5586 26.0628C84.4211 26.0499 81.2854 26.3501 78.154 26.9653L78.3526 27.9468ZM92.1889 27.3134C95.2183 27.6287 98.2495 28.2409 101.281 29.1485L101.562 28.1905C98.4731 27.2656 95.3804 26.6406 92.2862 26.3186L92.1889 27.3134ZM105.678 30.672C108.473 31.7722 111.268 33.1231 114.061 34.7239L114.554 33.8568C111.721 32.2335 108.882 30.8609 106.039 29.7416L105.678 30.672ZM118.036 37.1712C118.088 37.2056 118.14 37.24 118.192 37.2745L118.74 36.4414C118.688 36.4064 118.635 36.3715 118.582 36.3367L118.036 37.1712Z" fill="#4E9525"/>
<rect width="3.38142" height="3.12133" transform="matrix(0.999729 0.0232778 -0.0193104 0.999813 47.0603 39.8796)" fill="white"/>
<defs>
<clipPath id="clip0_208_397">
<rect width="17.5476" height="17.5476" fill="white" transform="translate(334 22.4524)"/>
</clipPath>
<clipPath id="clip1_208_397">
<rect width="6.54762" height="6.54762" fill="white" transform="translate(341.595 18)"/>
</clipPath>
<clipPath id="clip2_208_397">
<rect width="20.4737" height="15.5909" fill="white" transform="translate(232 18)"/>
</clipPath>
<clipPath id="clip3_208_397">
<rect width="16.2302" height="13.3517" fill="white" transform="translate(132 19)"/>
</clipPath>
</defs>
</svg>
