<svg width="137" height="149" viewBox="0 0 137 149" fill="none" xmlns="http://www.w3.org/2000/svg">
<path d="M75.758 122.083C75.3121 127.331 70.0846 133.341 66.9286 135.727C76.4039 137.388 80.4886 123.27 77.588 117.27C75.5185 119.594 73.161 121.202 70.9455 122.504C66.0657 125.383 63.4708 130.843 65.6775 134.26C67.9099 132.509 71.4956 130.561 75.758 122.083Z" fill="white"/>
<path d="M55.6701 130.067C58.0861 130.316 62.5448 133.684 64.234 135.529C64.1512 127.535 55.564 127.108 52.4447 129.012C53.9859 130.364 55.0311 131.961 55.8771 133.466C57.7396 136.79 61.3919 138.358 63.7472 136.614C62.5961 135.121 57.8466 131.364 55.6701 130.067ZM75.167 138.596C73.4349 140.455 67.9868 142.258 65.4984 142.616C71.6837 147.072 77.5118 140.18 78.0444 136.513C76.018 137.027 74.122 136.991 72.426 136.84C68.6779 136.504 65.1362 138.657 64.9678 141.594C66.8571 141.49 72.7852 139.669 75.167 138.596Z" fill="white"/>
<path fill-rule="evenodd" clip-rule="evenodd" d="M130.23 60.5987C125.081 27.9124 96.8087 3.9902 64.4992 6.00824C30.1194 8.1556 3.93042 38.8771 6.17278 74.778C8.12164 105.98 30.8925 130.627 59.3898 135.135C60.0969 135.932 60.8285 136.706 61.5832 137.456C30.9706 133.891 6.23818 107.908 4.17667 74.9026C1.86996 37.9715 28.8215 6.23277 64.3746 4.01213C98.4909 1.88123 128.131 27.7053 132.509 62.4282C131.767 61.7975 131.007 61.1874 130.23 60.5987Z" fill="white"/>
</svg>
